<?xml version="1.0" encoding="utf-8"?>
<!-- Generator: Adobe Illustrator 23.0.1, SVG Export Plug-In . SVG Version: 6.00 Build 0)  -->
<svg version="1.1" id="Layer_1" xmlns="http://www.w3.org/2000/svg" xmlns:xlink="http://www.w3.org/1999/xlink" x="0px" y="0px"
	 viewBox="0 0 175 122.6" style="enable-background:new 0 0 175 122.6;" xml:space="preserve">
<style type="text/css">
	.st0{fill:#FF3939;}
	.st1{fill:#FFFFFF;}
</style>
<title>asa-coterie-logo-primary</title>
<g>
	<g id="Layer_3_copy">
		<path class="st0" d="M25.8,0C11.5,0,0,11.5,0,25.8s11.5,25.8,25.8,25.8S51.5,40,51.5,25.8c0,0,0,0,0,0C51.5,11.5,40,0,25.8,0z"/>
		<path class="st1" d="M30.7,38.7c-0.6,0-1.2-0.1-1.8-0.3c-1.2-0.3-2.2-1-3-1.9l-21-23.6h16c1.4,0,2.7,0.5,3.9,1.3
			c0.4,0.3,0.7,0.5,1,0.9l20.9,23.6H30.7z"/>
		<path class="st0" d="M19.1,87.6H9.6L8.5,90H0l9.3-19h10.2l9.3,19h-8.5L19.1,87.6z M15,65.3l2.5,4.2h-6.5l-5.6-4.2H15z M14.3,77.1
			c-0.8,1.8-1.6,3.6-2.4,5.6h5c-0.9-1.9-1.6-3.7-2.4-5.6H14.3z"/>
		<path class="st0" d="M40.1,76.2c0,0.7,0.5,1,2.3,1.1l6.6,0.6c4.8,0.4,7.5,2.3,7.5,6.1c0.1,1.5-0.4,3-1.4,4.2
			c-1.9,1.9-5.4,2.5-11.5,2.5c-8.7,0-12.6-1.4-12.9-7h9c0.1,1.6,1.3,2,4,2s3.5-0.3,3.5-1.1s-0.5-1.1-2.4-1.4l-6.2-0.7
			c-1.9-0.1-3.8-0.6-5.5-1.6c-1.3-1-2.1-2.6-1.9-4.3c-0.2-2.2,1.1-4.2,3.2-5c2.9-1.1,6-1.5,9.1-1.4c3.9,0,6.9,0.5,9,1.4
			c2,0.8,3.3,2.8,3.3,5h-8.9c-0.1-1-1.3-1.6-3.5-1.6C40.9,75.1,40.1,75.4,40.1,76.2z M47.6,94.4c0,0.7-0.1,1.4-0.5,1.9
			c-0.6,1-2.7,1.7-7.5,1.7v-1.6c3.3,0,3.5-0.5,3.5-1.5h-3.5v-3.3h8L47.6,94.4z"/>
		<path class="st0" d="M77.8,87.6h-9.5L67.2,90h-8.5l9.3-19h10.2l9.3,19h-8.5L77.8,87.6z M73.6,65.3l2.6,4.2h-6.4l-5.6-4.2H73.6z
			 M72.9,77.1c-0.8,1.8-1.6,3.6-2.4,5.6h5c-0.8-1.9-1.7-3.7-2.4-5.6H72.9z"/>
		<path class="st0" d="M8.7,112.4c0,2.8,1.6,4.4,5,4.4c3.1,0,4.2-1.1,4.4-3h9.2c-0.1,5.9-4.5,8.8-13.6,8.8S0,119.3,0,112.4
			s4.5-10.2,13.7-10.2c8.9,0,13.4,2.8,13.5,8.4H18c-0.2-1.7-1.6-2.5-4.3-2.5C10.4,108,8.7,109.5,8.7,112.4z"/>
		<path class="st0" d="M43.6,122.6c-9.4,0-13.9-3.3-13.9-10.2s4.5-10.2,13.9-10.2s13.9,3.3,13.9,10.2S53,122.6,43.6,122.6z
			 M43.6,108c-3.5,0-5.2,1.5-5.2,4.4s1.7,4.4,5.2,4.4s5.2-1.5,5.2-4.4S47,108,43.6,108L43.6,108z"/>
		<path class="st0" d="M83,108.6h-7.4v13.3h-8v-13.3h-7.4v-5.7H83V108.6z"/>
		<path class="st0" d="M95,110.1h12.8v4.4H95v2.6h13.7v4.8H87v-19h21.5v4.8H95V110.1z"/>
		<path class="st0" d="M137.7,121.9h-8.8l-3.1-5.4h-5.4v5.4h-8v-19h16.4c3.1,0,5.3,0.5,6.5,1.6c1.3,1.3,2,3.1,1.9,4.9
			c0,3-1.3,4.5-3.9,5.2v0.3L137.7,121.9z M126.4,108.6h-6v3.2h6c1.5,0,2-0.5,2-1.6S127.9,108.6,126.4,108.6z"/>
		<path class="st0" d="M141.3,121.9v-19h8v19H141.3z"/>
		<path class="st0" d="M161.3,110.1h12.8v4.4h-12.8v2.6H175v4.8h-21.6v-19h21.5v4.8h-13.5V110.1z"/>
	</g>
</g>
</svg>
