<svg width="3062" height="2729" viewBox="0 0 3062 2729" fill="none" xmlns="http://www.w3.org/2000/svg">
<path d="M2959.51 2671.47H0.106445" stroke="#66B0F0" stroke-width="6" stroke-miterlimit="10"/>
<path d="M258.606 2725.07H1953.31" stroke="#66B0F0" stroke-width="6" stroke-miterlimit="10"/>
<path d="M2807.01 2006.37H2333.71C2311.31 2006.37 2293.11 2024.57 2293.11 2046.97V2671.47H2847.51V2046.97C2847.61 2024.57 2829.41 2006.37 2807.01 2006.37Z" fill="#D0F0E4"/>
<path d="M2807.01 2006.37H2333.71C2311.31 2006.37 2293.11 2024.57 2293.11 2046.97V2671.47H2847.51V2046.97C2847.61 2024.57 2829.41 2006.37 2807.01 2006.37Z" stroke="#FFCF2D" stroke-width="6" stroke-miterlimit="10"/>
<path d="M2912.31 1304.77H2229.31V2671.37H2912.31V1304.77Z" stroke="#FFCF2D" stroke-width="6" stroke-miterlimit="10"/>
<path d="M2930.21 1133.67H587.907V1304.77H3061.91" stroke="#FFCF2D" stroke-width="6" stroke-miterlimit="10"/>
<path d="M2807.01 1625.97H2334.61C2312.21 1625.97 2294.01 1607.77 2294.01 1585.37V1418.57C2294.01 1396.17 2312.21 1377.97 2334.61 1377.97H2807.01C2829.41 1377.97 2847.61 1396.17 2847.61 1418.57V1585.47C2847.61 1607.87 2829.41 1625.97 2807.01 1625.97Z" stroke="#FFCF2D" stroke-width="6" stroke-miterlimit="10"/>
<path d="M2807.01 1927.97H2334.61C2312.21 1927.97 2294.01 1909.77 2294.01 1887.37V1720.57C2294.01 1698.17 2312.21 1679.97 2334.61 1679.97H2807.01C2829.41 1679.97 2847.61 1698.17 2847.61 1720.57V1887.37C2847.61 1909.77 2829.41 1927.97 2807.01 1927.97Z" stroke="#FFCF2D" stroke-width="6" stroke-miterlimit="10"/>
<path d="M2572.41 1532.37C2590.36 1532.37 2604.91 1517.82 2604.91 1499.87C2604.91 1481.92 2590.36 1467.37 2572.41 1467.37C2554.46 1467.37 2539.91 1481.92 2539.91 1499.87C2539.91 1517.82 2554.46 1532.37 2572.41 1532.37Z" stroke="#66B0F0" stroke-width="6" stroke-miterlimit="10"/>
<path d="M2572.41 1835.27C2590.36 1835.27 2604.91 1820.72 2604.91 1802.77C2604.91 1784.82 2590.36 1770.27 2572.41 1770.27C2554.46 1770.27 2539.91 1784.82 2539.91 1802.77C2539.91 1820.72 2554.46 1835.27 2572.41 1835.27Z" stroke="#66B0F0" stroke-width="6" stroke-miterlimit="10"/>
<path d="M2775.31 2214.37L2774.61 2218.67L2774.31 2221.17L2763.91 2287.47L2762.81 2294.57L2758.11 2324.77L2756.41 2335.37L2752.01 2363.37L2750.91 2370.47L2740.21 2439.07V2439.37L2739.11 2446.47L2738.51 2449.67L2728.31 2515.27L2727.21 2522.37L2722.41 2553.27V2553.37L2720.71 2563.97L2716.41 2591.17L2715.31 2598.27L2704.61 2667.17L2704.51 2667.57L2704.01 2670.77L2703.91 2671.47H2422.91L2422.81 2670.67L2422.31 2667.87L2422.21 2666.97L2411.41 2598.17L2410.31 2590.97L2406.11 2564.27L2404.51 2553.57L2399.61 2522.17L2398.51 2515.07L2388.31 2449.97L2387.71 2446.27L2386.61 2439.27V2439.17L2375.81 2370.27L2374.71 2363.17L2370.41 2335.67L2368.81 2325.07L2364.01 2294.37L2362.91 2287.27L2352.61 2221.47L2351.51 2214.37H2775.31Z" fill="white"/>
<path d="M2706.61 2674.57H2420.21L2419.01 2667.17L2347.81 2211.27H2778.91L2706.61 2674.57ZM2425.51 2668.37H2701.21L2771.61 2217.57H2355.01L2425.51 2668.37Z" fill="#66B0F0"/>
<path d="M2779.21 2214.37C2779.21 2215.77 2779.01 2217.27 2778.51 2218.67C2775.11 2229.17 2759.51 2238.87 2735.01 2246.87C2733.21 2247.47 2731.41 2247.97 2729.61 2248.57C2713.81 2253.27 2694.91 2257.37 2673.61 2260.47C2671.61 2260.77 2669.61 2261.07 2667.51 2261.37C2648.71 2263.97 2628.21 2265.87 2606.51 2266.97C2604.31 2267.07 2602.21 2267.17 2600.01 2267.27C2588.11 2267.77 2575.81 2268.07 2563.31 2268.07C2553.71 2268.07 2544.21 2267.87 2534.91 2267.57C2532.61 2267.47 2530.31 2267.37 2528.01 2267.27C2503.01 2266.27 2479.41 2264.17 2458.01 2261.17C2455.41 2260.77 2452.91 2260.47 2450.41 2260.07C2414.11 2254.57 2384.91 2246.47 2367.01 2236.77C2356.61 2231.17 2350.11 2225.07 2348.01 2218.67L2347.41 2214.47C2347.41 2184.87 2444.01 2160.97 2563.21 2160.97C2681.71 2160.97 2777.91 2184.67 2779.01 2214.07C2779.21 2214.07 2779.21 2214.17 2779.21 2214.37Z" fill="#66B0F0"/>
<path d="M2704.71 2667.27V2671.27L2704.01 2670.77L2703.91 2671.37H2701.31L2669.41 2630.17L2666.11 2625.87L2634.01 2584.47L2630.71 2580.17L2598.61 2538.77L2595.31 2534.47L2563.21 2493.07L2559.91 2488.77L2527.81 2447.37L2524.51 2443.07L2492.51 2401.67L2489.21 2397.37L2457.11 2355.97L2453.81 2351.67L2421.81 2310.27L2418.51 2305.97L2386.51 2264.57L2383.21 2260.27L2352.51 2220.67L2352.01 2217.77C2354.01 2224.07 2360.41 2230.07 2370.61 2235.57L2386.41 2255.97L2389.71 2260.27L2421.81 2301.67L2425.11 2305.97L2457.21 2347.37L2460.51 2351.67L2492.61 2393.07L2495.91 2397.37L2528.01 2438.77L2531.31 2443.07L2563.41 2484.47L2566.71 2488.77L2598.81 2530.17L2602.11 2534.47L2634.21 2575.87L2637.51 2580.17L2669.61 2621.57L2672.91 2625.87L2704.81 2667.07L2704.71 2667.27Z" fill="#66B0F0"/>
<path d="M2716.41 2591.17L2715.31 2598.27L2704.71 2584.57L2701.41 2580.27L2669.31 2538.87L2666.01 2534.57L2633.91 2493.17L2630.61 2488.87L2598.51 2447.47L2595.21 2443.17L2563.11 2401.77L2559.81 2397.47L2528.01 2356.47L2524.71 2352.17L2492.61 2310.77L2489.31 2306.47L2457.21 2265.07L2453.91 2260.77L2452.51 2258.97C2454.91 2259.37 2457.41 2259.67 2459.91 2260.07L2460.41 2260.77L2492.51 2302.17L2495.81 2306.47L2527.91 2347.87L2531.21 2352.17L2563.31 2393.57L2566.61 2397.87L2598.71 2439.27L2602.01 2443.57L2634.11 2484.97L2637.41 2489.27L2669.51 2530.67L2672.81 2534.97L2704.91 2576.37L2708.21 2580.67L2716.41 2591.17Z" fill="#66B0F0"/>
<path d="M2728.31 2515.27L2727.21 2522.37L2704.71 2493.37L2701.41 2489.07L2669.31 2447.67L2666.01 2443.37L2633.91 2401.97L2630.61 2397.67L2598.51 2356.27L2595.21 2351.97L2563.11 2310.57L2559.81 2306.27L2528.51 2265.87C2530.81 2265.97 2533.01 2266.07 2535.31 2266.17L2563.11 2301.97L2566.41 2306.27L2598.51 2347.67L2601.81 2351.97L2633.91 2393.37L2637.21 2397.67L2669.31 2439.07L2672.61 2443.37L2704.71 2484.77L2708.01 2489.07L2728.31 2515.27Z" fill="#66B0F0"/>
<path d="M2740.21 2439.37L2739.11 2446.47L2736.81 2443.47L2704.71 2402.07L2701.41 2397.77L2669.31 2356.37L2666.01 2352.07L2633.91 2310.67L2630.61 2306.37L2599.31 2265.97C2601.41 2265.87 2603.61 2265.77 2605.71 2265.67L2633.91 2302.07L2637.21 2306.37L2669.31 2347.77L2672.61 2352.07L2704.71 2393.47L2708.01 2397.77L2740.11 2439.17L2740.21 2439.37Z" fill="#66B0F0"/>
<path d="M2494.61 2669.87L2492.61 2671.37L2492.51 2671.47H2489.21L2457.21 2630.27L2453.91 2625.97L2421.91 2584.57L2418.61 2580.37L2406.11 2564.27L2404.51 2553.57L2421.91 2576.07L2425.21 2580.37L2457.21 2621.67L2460.51 2625.97L2492.61 2667.37L2494.61 2669.87Z" fill="#66B0F0"/>
<path d="M2423.81 2669.87L2422.81 2670.67L2422.31 2667.87L2423.81 2669.87Z" fill="#66B0F0"/>
<path d="M2565.31 2669.87L2563.31 2671.37L2563.21 2671.47H2559.91L2528.01 2630.27L2524.71 2625.97L2492.61 2584.57L2489.31 2580.37L2457.21 2538.97L2453.91 2534.77V2534.67L2421.91 2493.37L2418.61 2489.07L2388.31 2449.97L2387.71 2446.27L2386.61 2439.27L2389.81 2443.47L2421.91 2484.87L2425.21 2489.07L2457.21 2530.47L2460.51 2534.77L2492.61 2576.07L2495.91 2580.37L2528.01 2621.67L2531.31 2625.97L2563.31 2667.37L2565.31 2669.87Z" fill="#66B0F0"/>
<path d="M2636.01 2669.87L2634.01 2671.37L2633.91 2671.47H2630.61L2598.71 2630.27L2595.41 2625.97L2563.31 2584.57L2560.01 2580.37L2528.01 2538.97L2524.71 2534.77L2492.61 2493.37L2489.31 2489.07L2457.21 2447.77L2453.91 2443.47L2421.91 2402.07L2418.61 2397.87L2386.51 2356.47L2383.21 2352.27L2370.41 2335.67L2368.81 2325.07L2386.51 2347.97L2389.81 2352.27L2421.91 2393.57L2425.21 2397.87L2457.21 2439.17L2460.51 2443.47L2492.61 2484.87L2495.91 2489.07L2528.01 2530.47L2531.31 2534.77L2563.31 2576.07L2566.61 2580.37L2598.71 2621.67L2602.01 2625.97L2634.01 2667.37L2636.01 2669.87Z" fill="#66B0F0"/>
<path d="M2752.01 2363.37L2750.91 2370.47L2740.11 2356.47L2736.81 2352.17L2704.71 2310.77L2701.41 2306.47L2669.31 2265.07L2666.01 2260.77L2665.61 2260.27C2667.61 2259.97 2669.61 2259.67 2671.51 2259.37L2672.61 2260.77L2704.71 2302.17L2708.01 2306.47L2740.11 2347.87L2743.41 2352.17L2752.01 2363.37Z" fill="#66B0F0"/>
<path d="M2763.91 2287.47L2762.81 2294.57L2740.11 2265.27L2736.81 2260.97L2726.71 2247.87C2728.51 2247.37 2730.31 2246.77 2732.01 2246.17L2740.11 2256.67L2743.41 2260.97L2763.91 2287.47Z" fill="#66B0F0"/>
<path d="M2778.21 2215.97L2775.41 2219.57L2774.61 2218.57C2775.11 2217.17 2775.31 2215.77 2775.31 2214.37C2775.31 2214.17 2775.31 2214.07 2775.31 2213.87L2775.41 2213.77L2778.21 2215.97Z" fill="#66B0F0"/>
<path d="M2758.11 2324.77L2756.41 2335.37L2743.41 2352.27L2740.11 2356.47L2708.01 2397.87L2704.71 2402.07L2672.71 2443.47L2669.41 2447.77L2637.31 2489.07L2634.01 2493.37L2602.01 2534.77L2598.71 2538.97L2566.61 2580.37L2563.31 2584.57L2531.31 2625.97L2528.01 2630.27L2496.01 2671.47H2492.71L2492.61 2671.37L2490.71 2669.87L2492.61 2667.37L2524.71 2625.97L2528.01 2621.67L2560.01 2580.37L2563.31 2576.07L2595.41 2534.77L2598.71 2530.47L2630.71 2489.07L2634.01 2484.87L2666.11 2443.47L2669.41 2439.17L2701.41 2397.87L2704.71 2393.57L2736.81 2352.27L2740.11 2347.97L2758.11 2324.77Z" fill="#66B0F0"/>
<path d="M2774.31 2221.17L2743.41 2261.07L2740.11 2265.37L2708.01 2306.77L2704.71 2311.07L2672.61 2352.47L2669.31 2356.77L2637.21 2398.17L2633.91 2402.47L2602.01 2443.47L2598.71 2447.77L2566.61 2489.17L2563.31 2493.47L2531.21 2534.87L2527.91 2539.17L2495.81 2580.57L2492.51 2584.87L2460.41 2626.27L2457.11 2630.57L2425.21 2671.77H2422.81L2422.71 2670.97L2422.31 2668.17L2421.91 2667.67L2422.21 2667.27L2454.01 2626.27L2457.31 2621.97L2489.41 2580.57L2492.71 2576.27L2524.81 2534.87L2528.11 2530.57L2560.21 2489.17L2563.51 2484.87L2595.61 2443.47L2598.91 2439.17L2631.01 2397.77L2634.31 2393.47L2666.41 2352.07L2669.71 2347.77L2701.81 2306.37L2705.11 2302.07L2737.11 2260.67L2740.41 2256.37L2756.11 2236.07C2766.41 2230.57 2772.91 2224.57 2775.01 2218.17L2774.31 2221.17Z" fill="#66B0F0"/>
<path d="M2674.01 2259.27L2672.61 2261.07L2669.31 2265.37L2637.21 2306.77L2633.91 2311.07L2601.81 2352.47L2598.51 2356.77L2566.41 2398.17L2563.11 2402.47L2531.01 2443.87L2527.71 2448.17L2495.61 2489.57L2492.31 2493.87L2460.21 2535.27L2456.91 2539.57L2424.81 2580.97L2421.51 2585.27L2411.01 2598.77L2409.91 2591.67L2418.21 2580.97L2421.51 2576.67L2453.51 2535.27L2456.81 2530.97L2488.91 2489.57L2492.21 2485.27L2524.21 2443.87L2527.51 2439.57L2559.61 2398.17L2562.91 2393.87L2595.01 2352.47L2598.31 2348.17L2630.41 2306.77L2633.71 2302.47L2665.81 2261.07L2666.31 2260.37C2668.01 2260.17 2669.71 2259.87 2671.31 2259.67C2672.41 2259.47 2673.21 2259.37 2674.01 2259.27Z" fill="#66B0F0"/>
<path d="M2597.91 2266.27L2566.61 2306.57L2563.31 2310.87L2531.21 2352.27L2527.91 2356.57L2495.81 2397.97L2492.51 2402.27L2460.41 2443.67L2457.11 2447.97L2425.01 2489.37L2421.71 2493.67L2399.41 2522.47L2398.31 2515.37L2418.41 2489.37L2421.71 2485.07L2453.81 2443.67L2457.11 2439.37L2489.21 2397.97L2492.51 2393.67L2524.61 2352.27L2527.91 2347.97L2560.01 2306.57L2563.31 2302.27L2591.11 2266.47C2593.31 2266.47 2595.61 2266.37 2597.91 2266.27Z" fill="#66B0F0"/>
<path d="M2722.41 2553.37L2720.71 2563.97L2708.01 2580.37L2704.71 2584.57L2672.71 2625.97L2669.41 2630.27L2637.41 2671.47H2634.11L2634.01 2671.37L2632.11 2669.87L2634.01 2667.37L2666.11 2625.97L2669.41 2621.67L2701.41 2580.37L2704.71 2576.07L2722.41 2553.37Z" fill="#66B0F0"/>
<path d="M2738.51 2449.67L2708.01 2489.07L2704.71 2493.37L2672.71 2534.77L2669.41 2538.97L2637.31 2580.37L2634.01 2584.57L2602.01 2625.97L2598.71 2630.27L2566.71 2671.47H2563.41L2563.31 2671.37L2561.41 2669.87L2563.31 2667.37L2595.41 2625.97L2598.71 2621.67L2630.71 2580.37L2634.01 2576.07L2666.11 2534.77L2669.41 2530.47L2701.41 2489.07L2704.71 2484.87L2736.81 2443.47L2740.11 2439.17L2740.21 2439.07V2439.37L2739.11 2446.47L2738.51 2449.67Z" fill="#66B0F0"/>
<path d="M2527.21 2266.17L2495.91 2306.57L2492.61 2310.87L2460.51 2352.27L2457.21 2356.57L2425.11 2397.97L2421.81 2402.27L2389.71 2443.67L2387.61 2446.47L2386.51 2439.57L2386.41 2439.47L2386.51 2439.37L2418.51 2398.07L2421.81 2393.77L2453.81 2352.37L2457.11 2348.07L2489.21 2306.67L2492.51 2302.37L2520.71 2265.97C2523.01 2265.97 2525.11 2266.07 2527.21 2266.17Z" fill="#66B0F0"/>
<path d="M2461.01 2260.47L2460.61 2261.07L2457.31 2265.37L2425.21 2306.77L2421.91 2311.07L2389.81 2352.47L2386.51 2356.77L2375.81 2370.57L2374.71 2363.47L2383.21 2352.47L2386.51 2348.17L2418.51 2306.77L2421.81 2302.47L2453.91 2261.07L2455.01 2259.67C2456.61 2259.87 2458.31 2260.17 2460.01 2260.37L2461.01 2260.47Z" fill="#66B0F0"/>
<path d="M2400.01 2247.87L2389.81 2260.97L2386.51 2265.27L2363.91 2294.37L2362.81 2287.27L2383.21 2260.97L2386.51 2256.67L2394.71 2246.17C2396.41 2246.77 2398.21 2247.37 2400.01 2247.87Z" fill="#66B0F0"/>
<path d="M2795.91 2155.67H2703.61V2127.57H2759.61C2777.11 2127.57 2791.71 2139.57 2795.91 2155.67Z" fill="white" stroke="#FFCF2D" stroke-width="5" stroke-miterlimit="10"/>
<path d="M2760.21 2127.57C2734.01 2127.87 2711.11 2145.37 2704.11 2170.67L2682.81 2247.97C2679.81 2248.47 2676.71 2248.97 2673.61 2249.37C2671.61 2249.67 2669.61 2249.97 2667.51 2250.27C2648.71 2252.87 2628.21 2254.77 2606.51 2255.87C2604.31 2255.97 2602.21 2256.07 2600.01 2256.17C2588.11 2256.67 2575.81 2256.97 2563.31 2256.97C2553.71 2256.97 2544.21 2256.77 2534.91 2256.47C2532.61 2256.37 2530.31 2256.27 2528.01 2256.17C2527.11 2256.17 2526.21 2256.07 2525.31 2256.07L2548.91 2170.67C2555.91 2145.17 2579.11 2127.57 2605.61 2127.57H2760.21V2127.57Z" fill="white" stroke="#FFCF2D" stroke-width="5" stroke-miterlimit="10"/>
<path d="M2697.01 461.268L2933.11 1133.67H2068.51L2298.31 461.268H2697.01Z" fill="#FFCF2D"/>
<path d="M2499.51 381.168C2499.51 353.168 2522.21 330.468 2550.21 330.468H2579.51C2607.51 330.468 2630.21 353.168 2630.21 381.168V1037.27" stroke="#66B0F0" stroke-width="6" stroke-miterlimit="10"/>
<path d="M2698.31 1112.27V1132.57H2484.51V1112.27C2484.51 1094.97 2490.41 1078.97 2500.31 1066.27C2514.01 1048.67 2535.51 1037.27 2559.51 1037.27H2623.21C2624.21 1037.27 2625.31 1037.27 2626.31 1037.37C2666.41 1038.97 2698.31 1071.87 2698.31 1112.27Z" fill="white" stroke="#FE5244" stroke-width="6" stroke-miterlimit="10"/>
<path d="M2745.81 464.068H2251.11V448.568C2251.11 411.468 2281.21 381.468 2318.21 381.468H2678.71C2715.81 381.468 2745.81 411.568 2745.81 448.568V464.068Z" fill="#FE5244"/>
<path d="M2745.81 451.668H2251.11" stroke="white" stroke-width="5" stroke-miterlimit="10" stroke-linecap="round"/>
<path d="M2694.11 464.068C2694.11 481.768 2683.11 496.168 2669.41 496.168H2323.21C2309.61 496.168 2298.51 481.768 2298.51 464.068H2694.11Z" fill="white"/>
<path d="M2630.21 1056.87C2630.21 1088.97 2600.91 1115.07 2564.81 1115.07C2532.31 1115.07 2505.31 1093.97 2500.31 1066.27C2514.01 1048.67 2535.51 1037.27 2559.51 1037.27H2623.21C2624.21 1037.27 2625.31 1037.27 2626.31 1037.37C2628.91 1043.47 2630.21 1050.07 2630.21 1056.87Z" fill="white" stroke="#FE5244" stroke-width="6" stroke-miterlimit="10"/>
<path d="M2566.61 1023.57V1054.97C2566.61 1061.37 2560.71 1066.57 2553.51 1066.57C2546.31 1066.57 2540.41 1061.37 2540.41 1054.97V1023.57H2540.61C2541.81 1029.07 2547.11 1033.27 2553.41 1033.27C2559.71 1033.27 2565.01 1029.07 2566.21 1023.57H2566.61Z" fill="#FE5244"/>
<path d="M2563.81 1022.47C2563.81 1023.17 2563.71 1023.87 2563.61 1024.57C2562.71 1029.57 2558.51 1033.27 2553.41 1033.27C2548.41 1033.27 2544.21 1029.57 2543.21 1024.57C2543.11 1023.87 2543.01 1023.17 2543.01 1022.47C2543.01 1016.47 2547.61 1011.67 2553.41 1011.67C2559.11 1011.67 2563.81 1016.57 2563.81 1022.47Z" fill="white" stroke="#FE5244" stroke-width="6" stroke-miterlimit="10"/>
<path d="M2223.21 677.868H2189.01V1133.67H2223.21V677.868Z" fill="#3FB1B5"/>
<path d="M2174.71 1133.67H2116.11C2109.91 1133.67 2104.91 1128.67 2104.91 1122.47V783.668C2104.91 777.468 2109.91 772.468 2116.11 772.468H2174.71C2180.91 772.468 2185.91 777.468 2185.91 783.668V1122.47C2185.91 1128.67 2180.91 1133.67 2174.71 1133.67Z" fill="white" stroke="#FFCF2D" stroke-width="5" stroke-miterlimit="10"/>
<path d="M2363.21 1126.37H2295.91C2291.01 1126.37 2286.81 1122.87 2285.91 1118.07L2225.51 804.268C2224.31 797.968 2229.11 792.168 2235.51 792.168H2302.81C2307.71 792.168 2311.91 795.668 2312.81 800.468L2373.21 1114.27C2374.41 1120.57 2369.61 1126.37 2363.21 1126.37Z" stroke="#66B0F0" stroke-width="6" stroke-miterlimit="10"/>
<path d="M2091.51 1133.67H1774.51C1767.11 1133.67 1761.11 1127.67 1761.11 1120.27V1055.37C1761.11 1047.97 1767.11 1041.97 1774.51 1041.97H2091.51C2098.91 1041.97 2104.91 1047.97 2104.91 1055.37V1120.27C2104.91 1127.67 2098.91 1133.67 2091.51 1133.67Z" fill="#FE5244"/>
<path d="M904.407 21.2683V228.068C904.407 268.568 871.507 301.468 831.007 301.468H601.707C642.207 301.468 675.107 268.668 675.107 228.068V21.2683H904.407Z" fill="white" stroke="#FFCF2D" stroke-width="5" stroke-miterlimit="10"/>
<path d="M798.507 1.26834H780.007V45.3683H798.507V1.26834Z" fill="#FE5244"/>
<path d="M837.707 99.8683C835.107 99.8683 832.507 98.8683 830.407 96.9683L822.707 90.1684C820.307 88.0684 817.107 88.0684 814.707 90.1684L807.407 96.6684C803.107 100.468 797.107 100.468 792.707 96.6684L786.007 90.7683C783.607 88.6683 780.407 88.6683 778.007 90.7683L771.807 96.2683C767.507 100.068 761.507 100.068 757.107 96.2683L752.007 91.7683C749.607 89.6683 746.407 89.6683 744.007 91.7683L738.507 96.6684C734.207 100.468 728.207 100.468 723.807 96.6684L718.707 92.1684C716.307 90.0684 713.107 90.0684 710.707 92.1684C709.707 93.0684 708.107 92.9683 707.207 91.9683C706.307 90.9683 706.407 89.3683 707.407 88.4683C711.707 84.6683 717.707 84.6683 722.107 88.4683L727.207 92.9683C729.607 95.0683 732.807 95.0683 735.207 92.9683L740.707 88.0684C745.007 84.2684 751.007 84.2684 755.407 88.0684L760.507 92.5684C762.907 94.6684 766.107 94.6684 768.507 92.5684L774.707 87.0684C779.007 83.2684 785.007 83.2684 789.407 87.0684L796.107 92.9683C798.507 95.0683 801.707 95.0683 804.107 92.9683L811.407 86.4683C815.707 82.6683 821.707 82.6683 826.107 86.4683L833.807 93.2683C836.207 95.3683 839.407 95.3683 841.807 93.2683L849.807 86.1684C854.107 82.3684 860.107 82.3684 864.507 86.1684C865.507 87.0684 865.607 88.6684 864.707 89.6684C863.807 90.6684 862.207 90.7683 861.207 89.8683C858.807 87.7683 855.607 87.7683 853.207 89.8683L845.207 96.9683C842.807 98.8683 840.307 99.8683 837.707 99.8683Z" fill="#FFCF2D"/>
<path d="M837.707 140.968C835.107 140.968 832.507 139.968 830.407 138.068L822.707 131.268C820.307 129.168 817.107 129.168 814.707 131.268L807.407 137.768C803.107 141.568 797.107 141.568 792.707 137.768L786.007 131.868C783.607 129.768 780.407 129.768 778.007 131.868L771.807 137.368C767.507 141.168 761.507 141.168 757.107 137.368L752.007 132.868C749.607 130.768 746.407 130.768 744.007 132.868L738.507 137.768C734.207 141.568 728.207 141.568 723.807 137.768L718.707 133.268C716.307 131.168 713.107 131.168 710.707 133.268C709.707 134.168 708.107 134.068 707.207 133.068C706.307 132.068 706.407 130.468 707.407 129.568C711.707 125.768 717.707 125.768 722.107 129.568L727.207 134.068C729.607 136.168 732.807 136.168 735.207 134.068L740.707 129.168C745.007 125.368 751.007 125.368 755.407 129.168L760.507 133.668C762.907 135.768 766.107 135.768 768.507 133.668L774.707 128.168C779.007 124.368 785.007 124.368 789.407 128.168L796.107 134.068C798.507 136.168 801.707 136.168 804.107 134.068L811.407 127.568C815.707 123.768 821.707 123.768 826.107 127.568L833.807 134.368C836.207 136.468 839.407 136.468 841.807 134.368L849.807 127.268C854.107 123.468 860.107 123.468 864.507 127.268C865.507 128.168 865.607 129.768 864.707 130.768C863.807 131.768 862.207 131.868 861.207 130.968C858.807 128.868 855.607 128.868 853.207 130.968L845.207 138.068C842.807 140.068 840.307 140.968 837.707 140.968Z" fill="#FFCF2D"/>
<path d="M837.707 182.068C835.107 182.068 832.507 181.068 830.407 179.168L822.707 172.368C820.307 170.268 817.107 170.268 814.707 172.368L807.407 178.868C803.107 182.668 797.107 182.668 792.707 178.868L786.007 172.968C783.607 170.868 780.407 170.868 778.007 172.968L771.807 178.468C767.507 182.268 761.507 182.268 757.107 178.468L752.007 173.968C749.607 171.868 746.407 171.868 744.007 173.968L738.507 178.868C734.207 182.668 728.207 182.668 723.807 178.868L718.707 174.368C716.307 172.268 713.107 172.268 710.707 174.368C709.707 175.268 708.107 175.168 707.207 174.168C706.307 173.168 706.407 171.568 707.407 170.668C711.707 166.868 717.707 166.868 722.107 170.668L727.207 175.168C729.607 177.268 732.807 177.268 735.207 175.168L740.707 170.268C745.007 166.468 751.007 166.468 755.407 170.268L760.507 174.768C762.907 176.868 766.107 176.868 768.507 174.768L774.707 169.268C779.007 165.468 785.007 165.468 789.407 169.268L796.107 175.168C798.507 177.268 801.707 177.268 804.107 175.168L811.407 168.668C815.707 164.868 821.707 164.868 826.107 168.668L833.807 175.468C836.207 177.568 839.407 177.568 841.807 175.468L849.807 168.368C854.107 164.568 860.107 164.568 864.507 168.368C865.507 169.268 865.607 170.868 864.707 171.868C863.807 172.868 862.207 172.968 861.207 172.068C858.807 169.968 855.607 169.968 853.207 172.068L845.207 179.168C842.807 181.168 840.307 182.068 837.707 182.068Z" fill="#FFCF2D"/>
<path d="M837.707 223.268C835.107 223.268 832.507 222.268 830.407 220.368L822.707 213.568C820.307 211.468 817.107 211.468 814.707 213.568L807.407 220.068C803.107 223.868 797.107 223.868 792.707 220.068L786.007 214.168C783.607 212.068 780.407 212.068 778.007 214.168L771.807 219.668C767.507 223.468 761.507 223.468 757.107 219.668L752.007 215.168C749.607 213.068 746.407 213.068 744.007 215.168L738.507 220.068C734.207 223.868 728.207 223.868 723.807 220.068L718.707 215.568C716.307 213.468 713.107 213.468 710.707 215.568C709.707 216.468 708.107 216.368 707.207 215.368C706.307 214.368 706.407 212.768 707.407 211.868C711.707 208.068 717.707 208.068 722.107 211.868L727.207 216.368C729.607 218.468 732.807 218.468 735.207 216.368L740.707 211.468C745.007 207.668 751.007 207.668 755.407 211.468L760.507 215.968C762.907 218.068 766.107 218.068 768.507 215.968L774.707 210.468C779.007 206.668 785.007 206.668 789.407 210.468L796.107 216.368C798.507 218.468 801.707 218.468 804.107 216.368L811.407 209.868C815.707 206.068 821.707 206.068 826.107 209.868L833.807 216.668C836.207 218.768 839.407 218.768 841.807 216.668L849.807 209.568C854.107 205.768 860.107 205.768 864.507 209.568C865.507 210.468 865.607 212.068 864.707 213.068C863.807 214.068 862.207 214.168 861.207 213.268C858.807 211.168 855.607 211.168 853.207 213.268L845.207 220.368C842.807 222.268 840.307 223.268 837.707 223.268Z" fill="#FFCF2D"/>
<path d="M1140.51 21.2683H980.106V181.668H1140.51V21.2683Z" fill="#66B0F0"/>
<path d="M1015.36 14.4083L1003.74 0.0190125L961.345 34.2777L972.974 48.667L1015.36 14.4083Z" fill="#FFCF2D"/>
<path d="M1148.83 48.648L1160.46 34.2587L1118.07 -2.563e-06L1106.44 14.3893L1148.83 48.648Z" fill="#FFCF2D"/>
<path d="M1106.61 59.2683H1009.31V65.2683H1106.61V59.2683Z" fill="white"/>
<path d="M1106.61 85.1684H1009.31V91.1684H1106.61V85.1684Z" fill="white"/>
<path d="M1106.61 111.168H1009.31V117.168H1106.61V111.168Z" fill="white"/>
<path d="M1106.61 137.068H1009.31V143.068H1106.61V137.068Z" fill="white"/>
<path d="M1753.61 1133.67H1379.71L1452.11 973.668L1462.71 950.168H1670.61L1699.81 1014.67L1753.61 1133.67Z" fill="white" stroke="#66B0F0" stroke-width="6" stroke-miterlimit="10"/>
<path d="M1699.81 1014.67L1452.11 973.668L1462.71 950.168H1670.61L1699.81 1014.67Z" fill="#66B0F0"/>
<path d="M2007.31 950.168H1127.21C1094.91 950.168 1068.81 923.968 1068.81 891.768V317.268C1068.81 284.968 1095.01 258.868 1127.21 258.868H2007.31C2039.61 258.868 2065.71 285.068 2065.71 317.268V891.668C2065.71 923.968 2039.51 950.168 2007.31 950.168Z" fill="white" stroke="#66B0F0" stroke-width="6" stroke-miterlimit="10"/>
<path d="M1743.61 909.568H1390.81C1373.61 909.568 1359.71 895.668 1359.71 878.468V835.768C1359.71 818.568 1373.61 804.668 1390.81 804.668H1743.61C1760.81 804.668 1774.71 818.568 1774.71 835.768V878.468C1774.71 895.668 1760.71 909.568 1743.61 909.568Z" fill="#66B0F0"/>
<path d="M1651.01 881.068H1627.21C1621.31 881.068 1616.51 876.268 1616.51 870.368V851.768C1616.51 845.868 1621.31 841.068 1627.21 841.068H1651.01C1656.91 841.068 1661.71 845.868 1661.71 851.768V870.368C1661.71 876.268 1656.91 881.068 1651.01 881.068Z" fill="white"/>
<path d="M1681.31 877.968L1672.51 872.368C1670.11 870.868 1668.61 868.168 1668.61 865.268V856.868C1668.61 853.968 1670.11 851.268 1672.51 849.768L1681.31 844.168C1683.41 842.868 1686.11 844.368 1686.11 846.768V875.268C1686.21 877.768 1683.41 879.268 1681.31 877.968Z" fill="white"/>
<path d="M1560.81 871.668H1558.61C1549.91 871.668 1542.81 864.568 1542.81 855.868V846.568C1542.81 845.768 1543.51 845.068 1544.31 845.068H1575.01C1575.81 845.068 1576.51 845.768 1576.51 846.568V855.868C1576.61 864.568 1569.51 871.668 1560.81 871.668ZM1545.81 848.068V855.868C1545.81 862.868 1551.51 868.668 1558.61 868.668H1560.81C1567.81 868.668 1573.61 862.968 1573.61 855.868V848.068H1545.81Z" fill="white"/>
<path d="M1559.71 888.968C1558.91 888.968 1558.21 888.268 1558.21 887.468V876.168C1558.21 875.368 1558.91 874.668 1559.71 874.668C1560.51 874.668 1561.21 875.368 1561.21 876.168V887.468C1561.21 888.268 1560.51 888.968 1559.71 888.968Z" fill="white"/>
<path d="M1567.61 888.968H1551.91C1551.11 888.968 1550.41 888.268 1550.41 887.468C1550.41 886.668 1551.11 885.968 1551.91 885.968H1567.61C1568.41 885.968 1569.11 886.668 1569.11 887.468C1569.11 888.268 1568.41 888.968 1567.61 888.968Z" fill="white"/>
<path d="M1560.41 864.668H1559.01C1554.01 864.668 1550.01 860.668 1550.01 855.668V837.468C1550.01 832.468 1554.01 828.468 1559.01 828.468H1560.41C1565.41 828.468 1569.41 832.468 1569.41 837.468V855.668C1569.41 860.668 1565.41 864.668 1560.41 864.668Z" fill="white"/>
<path d="M1468.41 853.368L1468.31 853.468C1466.41 855.768 1467.01 859.268 1469.51 861.368L1478.71 868.768C1481.21 870.768 1484.81 870.568 1486.71 868.268L1486.81 868.168C1488.71 865.868 1492.31 865.768 1494.71 867.868L1503.01 875.368C1505.61 877.768 1505.61 881.768 1503.01 883.568C1494.31 889.668 1483.01 887.468 1473.71 879.968L1459.71 868.668C1450.41 861.068 1445.91 850.468 1450.01 840.668C1451.31 837.668 1455.21 836.868 1458.01 838.968L1467.11 845.568C1469.61 847.568 1470.21 851.068 1468.41 853.368Z" fill="white"/>
<path d="M1492.81 859.168C1492.01 859.168 1491.41 858.568 1491.31 857.768C1490.81 850.568 1484.61 845.068 1477.41 845.568C1476.61 845.568 1475.91 844.968 1475.81 844.168C1475.71 843.368 1476.41 842.668 1477.21 842.568C1486.11 841.968 1493.71 848.768 1494.31 857.568C1494.41 858.368 1493.81 859.068 1492.81 859.168C1492.91 859.168 1492.91 859.168 1492.81 859.168Z" fill="white"/>
<path d="M1502.21 857.668C1501.41 857.668 1500.81 857.068 1500.71 856.268C1500.31 850.268 1497.61 844.668 1493.01 840.668C1488.41 836.668 1482.61 834.668 1476.61 835.068C1475.81 835.068 1475.11 834.468 1475.01 833.668C1474.91 832.868 1475.61 832.168 1476.41 832.068C1483.21 831.668 1489.81 833.868 1495.01 838.368C1500.21 842.868 1503.21 849.168 1503.71 855.968C1503.81 856.968 1503.11 857.668 1502.21 857.668C1502.31 857.668 1502.31 857.668 1502.21 857.668Z" fill="white"/>
<path d="M1840.41 312.968C1846.15 312.968 1850.81 308.312 1850.81 302.568C1850.81 296.824 1846.15 292.168 1840.41 292.168C1834.66 292.168 1830.01 296.824 1830.01 302.568C1830.01 308.312 1834.66 312.968 1840.41 312.968Z" stroke="#FFCF2D" stroke-width="5" stroke-miterlimit="10"/>
<path d="M1882.91 312.968C1888.65 312.968 1893.31 308.312 1893.31 302.568C1893.31 296.824 1888.65 292.168 1882.91 292.168C1877.16 292.168 1872.51 296.824 1872.51 302.568C1872.51 308.312 1877.16 312.968 1882.91 312.968Z" stroke="#FFCF2D" stroke-width="5" stroke-miterlimit="10"/>
<path d="M1925.51 312.968C1931.25 312.968 1935.91 308.312 1935.91 302.568C1935.91 296.824 1931.25 292.168 1925.51 292.168C1919.76 292.168 1915.11 296.824 1915.11 302.568C1915.11 308.312 1919.76 312.968 1925.51 312.968Z" stroke="#FFCF2D" stroke-width="5" stroke-miterlimit="10"/>
<path d="M1530.21 779.068H1216.81C1207.21 779.068 1199.51 771.268 1199.51 761.768V593.968C1199.51 584.368 1207.31 576.668 1216.81 576.668H1530.21C1539.81 576.668 1547.51 584.468 1547.51 593.968V761.768C1547.51 771.268 1539.81 779.068 1530.21 779.068Z" stroke="#66B0F0" stroke-width="6" stroke-miterlimit="10"/>
<path d="M1925.51 779.068H1612.11C1602.51 779.068 1594.81 771.268 1594.81 761.768V593.968C1594.81 584.368 1602.61 576.668 1612.11 576.668H1925.51C1935.11 576.668 1942.81 584.468 1942.81 593.968V761.768C1942.81 771.268 1935.11 779.068 1925.51 779.068Z" fill="#3FB1B5"/>
<path d="M1866.31 778.568H1661.51C1682.21 753.068 1713.81 736.668 1749.21 736.668H1778.61C1814.01 736.768 1845.61 753.068 1866.31 778.568Z" fill="#FE5244"/>
<path d="M1757.51 736.768C1755.51 751.868 1742.61 763.468 1727.01 763.468C1715.51 763.468 1705.51 757.168 1700.21 747.868C1715.01 740.768 1731.61 736.768 1749.11 736.768H1757.51V736.768Z" fill="white"/>
<path d="M1818.01 743.768C1813.51 755.268 1802.41 763.368 1789.31 763.368C1773.71 763.368 1760.81 751.768 1758.81 736.668H1778.71C1792.51 736.768 1805.71 739.168 1818.01 743.768Z" fill="white"/>
<path d="M1795.51 692.168V737.568C1795.51 744.668 1781.31 750.368 1763.91 750.368C1760.71 750.368 1757.61 750.168 1754.71 749.868C1741.71 748.268 1732.31 743.368 1732.31 737.568V692.168H1795.51Z" fill="#A0505A"/>
<path d="M1791.31 701.468C1791.31 721.168 1774.11 745.068 1754.71 749.768C1741.71 748.168 1732.31 743.268 1732.31 737.468V692.068H1790.31L1791.31 701.468Z" fill="#73325A"/>
<path d="M1811.71 686.368V687.468C1811.71 695.168 1805.41 701.468 1797.71 701.468H1784.31C1778.21 714.568 1764.91 723.568 1749.51 723.568H1746.91C1729.71 723.568 1715.81 709.668 1715.81 692.468V660.368C1735.71 661.668 1761.01 644.268 1761.01 644.268C1769.31 676.368 1793.01 675.968 1804.01 673.868C1808.51 676.168 1811.71 680.968 1811.71 686.368Z" fill="#A0505A"/>
<path d="M1792.01 691.268C1791.21 691.268 1790.51 690.568 1790.51 689.768C1790.51 683.368 1795.71 678.168 1802.11 678.168C1802.91 678.168 1803.61 678.868 1803.61 679.668C1803.61 680.468 1802.91 681.168 1802.11 681.168C1797.41 681.168 1793.51 684.968 1793.51 689.768C1793.51 690.568 1792.81 691.268 1792.01 691.268Z" fill="#73325A"/>
<path d="M1795.51 701.468H1797.71C1805.41 701.468 1811.71 695.168 1811.71 687.468V686.368C1811.71 680.868 1808.61 676.168 1804.01 673.868C1801.01 674.468 1796.91 674.868 1792.51 674.568C1781.11 673.668 1767.01 667.468 1761.01 644.268C1761.01 644.268 1735.71 661.668 1715.81 660.368C1712.11 660.168 1708.61 659.268 1705.51 657.468C1689.01 648.068 1728.91 604.068 1774.71 610.668C1811.31 615.968 1810.51 659.768 1809.81 670.168C1811.61 669.968 1813.41 669.868 1815.21 669.868C1842.01 669.868 1863.71 690.468 1863.71 715.968C1863.71 732.568 1854.51 747.168 1840.61 755.268C1827.31 746.468 1812.01 740.468 1795.51 737.968V701.468Z" fill="#FFCF2D"/>
<path d="M1736.01 692.368C1735.81 692.368 1735.61 692.368 1735.51 692.268C1734.71 691.968 1734.31 691.068 1734.61 690.368C1734.61 690.268 1737.61 682.168 1732.61 673.468C1728.31 665.968 1718.81 667.268 1718.41 667.368C1717.61 667.468 1716.81 666.968 1716.71 666.068C1716.61 665.268 1717.11 664.468 1718.01 664.368C1718.51 664.268 1729.91 662.668 1735.31 671.968C1741.01 681.868 1737.61 691.068 1737.51 691.368C1737.11 691.968 1736.61 692.368 1736.01 692.368Z" fill="#73325A"/>
<path d="M1770.11 673.368C1769.81 673.368 1769.51 673.268 1769.21 673.068C1760.51 666.368 1748.91 667.168 1748.81 667.168C1748.01 667.268 1747.31 666.568 1747.21 665.768C1747.11 664.968 1747.81 664.268 1748.61 664.168C1749.11 664.168 1761.41 663.268 1771.01 670.668C1771.71 671.168 1771.81 672.068 1771.31 672.768C1770.91 673.168 1770.51 673.368 1770.11 673.368Z" fill="#73325A"/>
<path d="M1730.81 695.768C1730.81 695.768 1733.21 711.568 1749.51 696.168C1749.51 696.168 1738.11 697.668 1730.81 695.768Z" fill="white"/>
<path d="M1755.91 682.468C1757.07 682.468 1758.01 680.364 1758.01 677.768C1758.01 675.172 1757.07 673.068 1755.91 673.068C1754.75 673.068 1753.81 675.172 1753.81 677.768C1753.81 680.364 1754.75 682.468 1755.91 682.468Z" fill="#73325A"/>
<path d="M1724.71 681.668C1725.7 681.668 1726.51 679.922 1726.51 677.768C1726.51 675.614 1725.7 673.868 1724.71 673.868C1723.71 673.868 1722.91 675.614 1722.91 677.768C1722.91 679.922 1723.71 681.668 1724.71 681.668Z" fill="#73325A"/>
<path d="M1921.61 549.768H1608.21C1598.61 549.768 1590.91 541.968 1590.91 532.468V364.668C1590.91 355.068 1598.71 347.368 1608.21 347.368H1921.61C1931.21 347.368 1938.91 355.168 1938.91 364.668V532.468C1938.91 541.968 1931.11 549.768 1921.61 549.768Z" fill="#66B0F0"/>
<path d="M1857.81 549.768H1666.51C1685.81 524.068 1715.31 507.668 1748.41 507.668H1775.91C1809.01 507.668 1838.51 524.068 1857.81 549.768Z" fill="#FFCF2D"/>
<path d="M1752.01 541.168H1756.31C1775.01 541.168 1790.21 525.968 1790.21 507.268V483.168C1790.21 483.068 1790.11 482.968 1790.01 482.968H1727.11C1727.01 482.968 1726.91 483.068 1726.91 483.168V516.268C1727.01 530.068 1738.21 541.168 1752.01 541.168Z" fill="white"/>
<path d="M1727.01 482.968V515.468C1727.01 515.868 1727.01 516.368 1727.01 516.768C1727.91 535.368 1774.21 528.068 1788.11 482.968H1727.01Z" fill="#FFCF2D"/>
<path d="M1808.51 468.468C1808.51 472.468 1806.91 476.068 1804.21 478.768C1801.61 481.368 1798.01 482.968 1793.91 482.968H1780.21C1775.31 495.968 1762.71 505.168 1748.01 505.168H1737.31C1722.41 505.168 1710.41 493.068 1710.41 478.268V436.268C1725.81 437.568 1738.81 425.168 1739.31 424.668C1739.11 425.368 1731.31 447.368 1749.01 448.568C1766.61 449.768 1772.41 437.068 1772.61 436.568C1772.61 437.068 1772.71 454.068 1786.61 454.968H1793.91C1802.01 454.968 1808.51 460.468 1808.51 468.468Z" fill="white"/>
<path d="M1787.91 454.968H1787.61C1787.31 454.968 1787.01 454.968 1786.71 454.968C1772.81 454.068 1772.71 437.168 1772.71 436.568C1772.51 437.068 1766.61 449.768 1749.11 448.568C1731.51 447.368 1739.21 425.368 1739.41 424.668C1738.91 425.068 1725.91 437.568 1710.51 436.268C1707.11 435.968 1703.71 435.068 1700.21 433.168C1677.71 420.968 1692.21 395.868 1714.31 395.568C1731.91 395.368 1739.41 404.968 1739.41 404.968C1739.41 404.968 1743.21 385.268 1764.81 388.668C1786.41 392.068 1782.51 411.168 1782.51 411.168C1782.51 411.168 1800.61 402.768 1810.61 418.268C1822.41 436.468 1804.71 454.968 1787.91 454.968Z" fill="#FE5244"/>
<path d="M1728.81 473.268C1728.71 473.268 1728.61 473.268 1728.41 473.268C1727.61 473.068 1727.11 472.268 1727.31 471.468C1727.31 471.368 1729.71 461.468 1725.41 453.368C1720.71 444.768 1712.61 446.168 1712.31 446.168C1711.51 446.268 1710.71 445.768 1710.61 444.968C1710.41 444.168 1711.01 443.368 1711.81 443.268C1711.91 443.268 1722.41 441.368 1728.11 451.968C1733.01 461.068 1730.41 471.768 1730.31 472.168C1730.01 472.768 1729.41 473.268 1728.81 473.268Z" fill="#FFCF2D"/>
<path d="M1734.11 484.868C1732.01 484.868 1730.11 484.568 1728.71 484.168C1727.91 483.968 1727.41 483.168 1727.61 482.368C1727.81 481.568 1728.61 481.068 1729.41 481.268C1729.91 481.368 1741.31 484.368 1745.51 475.568C1745.91 474.868 1746.71 474.468 1747.51 474.868C1748.31 475.268 1748.61 476.068 1748.21 476.868C1745.31 483.168 1739.21 484.868 1734.11 484.868Z" fill="#FFCF2D"/>
<path d="M1748.61 461.268C1749.77 461.268 1750.71 459.164 1750.71 456.568C1750.71 453.972 1749.77 451.868 1748.61 451.868C1747.45 451.868 1746.51 453.972 1746.51 456.568C1746.51 459.164 1747.45 461.268 1748.61 461.268Z" fill="#FFCF2D"/>
<path d="M1717.51 460.468C1718.5 460.468 1719.31 458.722 1719.31 456.568C1719.31 454.414 1718.5 452.668 1717.51 452.668C1716.51 452.668 1715.71 454.414 1715.71 456.568C1715.71 458.722 1716.51 460.468 1717.51 460.468Z" fill="#FFCF2D"/>
<path d="M1786.41 473.968C1785.61 473.968 1784.91 473.268 1784.91 472.468C1784.91 466.068 1790.11 460.868 1796.51 460.868C1797.31 460.868 1798.01 461.568 1798.01 462.368C1798.01 463.168 1797.31 463.868 1796.51 463.868C1791.81 463.868 1787.91 467.668 1787.91 472.468C1787.91 473.268 1787.21 473.968 1786.41 473.968Z" fill="#FFCF2D"/>
<path d="M1526.21 549.768H1212.81C1203.21 549.768 1195.51 541.968 1195.51 532.468V364.668C1195.51 355.068 1203.31 347.368 1212.81 347.368H1526.21C1535.81 347.368 1543.51 355.168 1543.51 364.668V532.468C1543.61 541.968 1535.81 549.768 1526.21 549.768Z" fill="#FFCF2D"/>
<path d="M1450.51 549.768H1256.11C1275.71 520.468 1305.71 501.768 1339.31 501.768H1367.31C1400.91 501.768 1430.81 520.468 1450.51 549.768Z" fill="white"/>
<path d="M1450.51 549.768H1256.11C1256.71 548.868 1257.31 548.068 1257.91 547.168C1258.01 546.968 1258.11 546.768 1258.31 546.668H1448.41C1448.51 546.868 1448.61 546.968 1448.81 547.168C1449.31 547.968 1449.91 548.868 1450.51 549.768Z" fill="#FEB040"/>
<path d="M1442.31 538.868H1264.31C1265.21 537.768 1266.11 536.768 1267.01 535.768H1439.61C1440.51 536.768 1441.41 537.768 1442.31 538.868Z" fill="#FEB040"/>
<path d="M1431.31 527.468H1275.31C1276.51 526.368 1277.71 525.368 1278.91 524.368H1427.71C1428.91 525.368 1430.11 526.368 1431.31 527.468Z" fill="#FEB040"/>
<path d="M1414.51 514.968H1292.01C1293.81 513.868 1295.71 512.868 1297.61 511.868H1408.81C1410.81 512.868 1412.61 513.868 1414.51 514.968Z" fill="#FEB040"/>
<path d="M1384.31 464.368V509.068C1384.31 513.668 1370.11 517.368 1352.71 517.368C1335.71 517.368 1321.81 513.868 1321.11 509.368C1321.11 509.268 1321.11 509.168 1321.11 509.068V464.368H1384.31Z" fill="#E57281"/>
<path d="M1383.91 464.368V465.368C1383.91 487.368 1356.61 512.568 1336.91 515.468C1333.81 515.968 1324.21 514.068 1321.21 509.268C1321.21 509.168 1321.21 509.068 1321.21 508.968V464.268H1383.91V464.368Z" fill="#9A3B82"/>
<path d="M1401.51 450.268V451.268C1401.51 458.968 1395.21 465.268 1387.51 465.268H1375.41C1371.51 479.268 1358.71 489.468 1343.51 489.468H1330.61C1316.31 489.468 1304.61 477.868 1304.61 463.468V406.568C1328.61 413.268 1371.51 406.968 1371.51 406.968C1371.51 406.968 1367.61 420.968 1375.01 436.168H1387.61C1395.21 436.268 1401.51 442.568 1401.51 450.268Z" fill="#E57281"/>
<path d="M1387.01 434.468H1375.61C1365.91 418.068 1371.41 407.168 1371.41 407.168C1371.41 407.168 1328.51 413.368 1304.51 406.768C1293.61 403.768 1286.61 398.068 1289.21 387.968C1297.51 355.568 1386.91 390.068 1393.11 401.768C1399.41 413.468 1387.01 434.468 1387.01 434.468Z" fill="white" stroke="#FEB040" stroke-width="4" stroke-miterlimit="10"/>
<path d="M1342.61 465.168C1342.31 465.468 1342.01 465.568 1341.61 465.568C1341.21 465.568 1340.81 465.368 1340.51 465.068L1339.11 463.568C1334.81 467.368 1330.71 469.268 1326.91 469.268C1326.51 469.268 1326.11 469.268 1325.81 469.168C1321.61 468.768 1319.51 465.968 1319.41 465.868C1318.91 465.168 1319.01 464.268 1319.71 463.768C1320.41 463.268 1321.31 463.368 1321.81 464.068C1321.91 464.168 1323.31 465.968 1326.21 466.268C1329.41 466.568 1333.11 464.868 1337.11 461.368L1336.31 460.468C1335.71 459.868 1335.81 458.868 1336.41 458.368C1337.01 457.768 1338.01 457.868 1338.51 458.468L1342.71 463.068C1343.31 463.668 1343.21 464.568 1342.61 465.168Z" fill="#9A3B82"/>
<path d="M1357.81 435.368C1357.41 435.368 1357.01 435.268 1356.71 434.968C1347.91 426.368 1336.71 428.068 1336.61 428.068C1335.81 428.168 1335.01 427.668 1334.91 426.868C1334.81 426.068 1335.31 425.268 1336.11 425.168C1336.61 425.068 1348.91 423.068 1358.81 432.868C1359.41 433.468 1359.41 434.368 1358.81 434.968C1358.61 435.268 1358.21 435.368 1357.81 435.368Z" fill="#9A3B82"/>
<path d="M1323.71 456.368C1323.61 456.368 1323.41 456.368 1323.31 456.268C1322.51 456.068 1322.11 455.168 1322.31 454.368C1322.31 454.268 1325.41 444.068 1320.41 435.368C1316.11 427.868 1306.41 430.168 1306.31 430.268C1305.51 430.468 1304.71 429.968 1304.51 429.168C1304.31 428.368 1304.81 427.568 1305.61 427.368C1309.71 426.368 1318.71 426.368 1323.01 433.968C1328.71 443.868 1325.41 454.868 1325.21 455.368C1324.91 455.968 1324.41 456.368 1323.71 456.368Z" fill="#9A3B82"/>
<path d="M1312.51 444.668C1313.5 444.668 1314.31 442.922 1314.31 440.768C1314.31 438.614 1313.5 436.868 1312.51 436.868C1311.51 436.868 1310.71 438.614 1310.71 440.768C1310.71 442.922 1311.51 444.668 1312.51 444.668Z" fill="#9A3B82"/>
<path d="M1343.61 445.468C1344.77 445.468 1345.71 443.364 1345.71 440.768C1345.71 438.172 1344.77 436.068 1343.61 436.068C1342.45 436.068 1341.51 438.172 1341.51 440.768C1341.51 443.364 1342.45 445.468 1343.61 445.468Z" fill="#9A3B82"/>
<path d="M1379.71 455.368C1378.91 455.368 1378.21 454.668 1378.21 453.868C1378.21 447.368 1383.51 442.068 1390.01 442.068C1390.81 442.068 1391.51 442.768 1391.51 443.568C1391.51 444.368 1390.81 445.068 1390.01 445.068C1385.11 445.068 1381.21 448.968 1381.21 453.868C1381.21 454.668 1380.61 455.368 1379.71 455.368Z" fill="#9A3B82"/>
<path d="M1894.51 2341.87C1891.81 2341.07 1890.31 2340.67 1890.31 2340.67L1857.61 2447.77L1734.51 2415.47C1733.51 2414.57 1733.01 2414.07 1733.01 2414.07C1733.01 2414.07 1234.51 2023.37 1208.31 1835.87C1182.21 1648.37 1391.01 1470.47 1391.01 1470.47C1391.01 1470.47 1836.31 2312.17 1891.41 2339.67C1892.51 2340.27 1893.61 2340.97 1894.51 2341.87Z" fill="#A0505A"/>
<path d="M1496.41 1667.37C1480.81 1750.87 1426.01 1919.97 1369.31 2083.57C1285.31 1993.07 1217.51 1901.77 1208.31 1835.77C1191.71 1716.97 1269.61 1601.87 1328.81 1533.67C1350.51 1516.27 1373.91 1500.27 1399.21 1485.97C1414.71 1515.07 1450.61 1582.47 1496.41 1667.37Z" fill="#73325A"/>
<path d="M2174.31 2413.97L1991.21 2531.47L1938.11 2523.47L1889.21 2554.47L1905.01 2586.87L1824.51 2638.57C1717.81 2541.47 1732.91 2415.17 1732.91 2415.17L1857.51 2447.87L1890.21 2340.77C1890.21 2340.77 2002.11 2373.47 2084.71 2370.67C2167.51 2367.87 2174.31 2413.97 2174.31 2413.97Z" fill="white" stroke="#FE5244" stroke-width="6" stroke-miterlimit="10"/>
<path d="M1966.21 2355.07C1966.21 2355.07 1958.51 2273.67 1939.21 2278.77C1919.91 2283.97 1944.11 2365.17 1965.81 2356.27C1987.51 2347.37 2009.21 2289.67 2009.21 2289.67" stroke="#FE5244" stroke-width="6" stroke-miterlimit="10"/>
<path d="M1752.01 2531.37L1874.71 2533.27L1935.61 2496.87L1993.41 2506.17L2166.71 2397.97" stroke="#FE5244" stroke-width="6" stroke-miterlimit="10"/>
<path d="M1940.81 2350.47L1929.41 2403.57" stroke="#FE5244" stroke-width="6" stroke-miterlimit="10"/>
<path d="M1965.61 2356.47L1954.21 2409.57" stroke="#FE5244" stroke-width="6" stroke-miterlimit="10"/>
<path d="M1991.51 2360.77L1980.11 2413.87" stroke="#FE5244" stroke-width="6" stroke-miterlimit="10"/>
<path d="M1348.71 1429.57C1348.71 1429.57 1422.01 1463.77 1422.01 1589.17C1422.01 1710.37 1142.21 2452.57 1142.21 2452.57L1056.11 2525.57L968.707 2429.87C1011.41 2389.27 888.807 1655.27 1348.71 1429.57Z" fill="#A0505A"/>
<path d="M1340.91 2667.77L1123.31 2667.97L1082.91 2632.57L1025.01 2632.27L1020.81 2668.07L935.507 2668.17C889.107 2523.77 969.107 2429.77 969.107 2429.77L1055.91 2525.37L1142.61 2452.47C1142.61 2452.47 1217.81 2540.67 1288.81 2582.87C1360.01 2625.17 1340.91 2667.77 1340.91 2667.77Z" fill="white" stroke="#FE5244" stroke-width="6" stroke-miterlimit="10"/>
<path d="M1192.21 2503.87C1192.21 2503.87 1277.61 2448.77 1253.31 2427.67C1229.01 2406.57 1180.11 2498.17 1193.41 2505.47C1206.71 2512.77 1298.81 2485.07 1298.81 2485.07" stroke="#FE5244" stroke-width="6" stroke-miterlimit="10"/>
<path d="M924.007 2540.47L1026.11 2604.87H1097.01L1141.91 2642.57H1342.61" stroke="#FE5244" stroke-width="6" stroke-miterlimit="10"/>
<path d="M1173.21 2483.07L1134.81 2521.47" stroke="#FE5244" stroke-width="6" stroke-miterlimit="10"/>
<path d="M1190.81 2501.57L1152.41 2539.97" stroke="#FE5244" stroke-width="6" stroke-miterlimit="10"/>
<path d="M1210.21 2519.17L1171.81 2557.57" stroke="#FE5244" stroke-width="6" stroke-miterlimit="10"/>
<path d="M1348.71 1429.57C1175.81 1514.37 1085.21 1671.17 1037.31 1835.87H512.607C378.307 1835.87 278.207 1711.97 306.507 1580.67L345.007 1401.87H1257.31C1291.11 1401.87 1322.51 1412.07 1348.71 1429.57Z" fill="#FE5244"/>
<path d="M959.106 1600.97L1148.01 1600.57L1120.01 1646.47L959.106 1600.97Z" fill="#A0505A"/>
<path d="M1349.71 1428.57C1263.71 1470.77 1198.11 1530.77 1147.91 1600.67H669.207C582.907 1600.67 518.507 1521.37 536.107 1436.87L543.407 1401.87" stroke="white" stroke-width="6" stroke-miterlimit="10" stroke-linecap="round"/>
<path d="M1038.01 1835.77C1057.11 1770.07 1082.91 1705.57 1118.01 1646.47L959.106 1600.87" stroke="white" stroke-width="6" stroke-miterlimit="10" stroke-linecap="round"/>
<path d="M222.407 921.568L318.507 1298.57H139.207C34.8072 1298.57 -32.3928 1187.67 16.0072 1095.17L153.707 831.868C192.707 757.368 269.807 710.668 353.907 710.668H386.407C276.007 710.568 195.107 814.568 222.407 921.568Z" fill="#3FB1B5"/>
<path d="M1329.01 823.768C1385.51 823.768 1432.51 816.268 1443.91 805.768L1268.61 1185.77C1236.91 1254.57 1168.01 1298.57 1092.31 1298.57C1070.11 1298.57 1048.31 1294.77 1027.71 1287.47C1007.11 1280.17 987.707 1269.47 970.407 1255.47L859.907 1166.27C859.907 1166.27 848.907 1230.97 770.407 1247.47V1401.67H344.907L222.407 921.468C195.107 814.468 276.007 710.368 386.407 710.368H684.307C710.607 710.368 736.507 713.668 761.507 720.068C829.907 737.468 891.307 777.668 934.707 835.268L1080.31 1028.47L1211.11 799.868C1211.11 800.068 1211.01 800.368 1211.01 800.568C1211.11 813.868 1264.01 823.768 1329.01 823.768Z" fill="#3FB1B5"/>
<path d="M221.407 921.568L315.507 1301.57" stroke="white" stroke-width="6" stroke-miterlimit="10" stroke-linecap="round"/>
<path d="M860.908 1171.37L777.308 1082.37" stroke="white" stroke-width="6" stroke-miterlimit="10" stroke-linecap="round"/>
<path d="M1446.51 800.168L1443.91 805.768C1432.51 816.368 1385.51 823.768 1329.01 823.768C1264.01 823.768 1211.11 813.868 1211.11 800.768C1211.11 800.568 1211.11 800.268 1211.21 800.068C1213.01 787.268 1265.21 776.268 1329.11 776.268C1392.91 776.268 1444.71 787.268 1446.51 800.168C1446.51 800.068 1446.51 800.068 1446.51 800.168Z" fill="#FE5244"/>
<path d="M1498.91 608.168C1498.91 613.868 1497.51 619.468 1494.91 624.368C1492.31 629.268 1488.51 633.568 1483.81 636.868L1481.51 638.468L1463.61 733.968C1460.71 749.468 1451.51 763.168 1438.21 771.668L1413.71 787.268L1394.31 799.668L1385.31 821.168C1368.61 822.868 1349.51 823.868 1329.11 823.868C1308.51 823.868 1289.11 822.868 1272.21 821.068V672.968C1272.21 666.568 1273.61 660.268 1276.31 654.468L1308.91 584.268C1308.91 584.268 1344.51 593.068 1328.11 636.768C1313.21 676.468 1347.21 666.268 1366.31 659.168C1383.41 652.768 1458.11 614.768 1487.31 600.868C1492.71 598.268 1498.91 602.268 1498.91 608.168Z" fill="#A0505A"/>
<path d="M1467.71 697.668C1464.81 713.168 1455.61 726.768 1442.31 735.268L1398.41 763.268" stroke="#73325A" stroke-width="5" stroke-miterlimit="10" stroke-linecap="round"/>
<path d="M1474.91 657.168C1472.01 672.668 1462.81 686.268 1449.51 694.768L1405.61 722.768" stroke="#73325A" stroke-width="5" stroke-miterlimit="10" stroke-linecap="round"/>
<path d="M1478.31 639.568L1407.71 684.368" stroke="#73325A" stroke-width="5" stroke-miterlimit="10" stroke-linecap="round"/>
<path d="M1417.51 784.768L1413.61 787.268L1394.21 799.668L1385.21 821.168C1368.51 822.868 1349.41 823.868 1329.01 823.868C1308.41 823.868 1289.01 822.868 1272.11 821.068V779.468C1289.01 777.468 1308.41 776.368 1329.01 776.368C1364.31 776.268 1395.91 779.568 1417.51 784.768Z" fill="#73325A"/>
<path d="M752.207 717.768C737.707 737.268 683.707 783.168 501.907 783.168C268.007 783.168 417.707 710.768 417.707 710.768L516.907 545.068L623.307 610.368V662.868C623.307 689.368 644.807 710.768 671.207 710.768H678.107C702.907 710.668 728.507 711.768 752.207 717.768Z" fill="#A0505A"/>
<path d="M623.207 610.268V623.668L417.607 710.668L516.807 544.968L623.207 610.268Z" fill="#73325A"/>
<path d="M628.807 616.768H651.407C672.207 616.768 689.107 599.868 689.107 579.068V453.168H554.207V542.168C554.207 583.368 587.607 616.768 628.807 616.768Z" fill="#A0505A"/>
<path d="M686.207 571.768C671.707 571.768 665.907 561.768 665.907 561.768" stroke="#73325A" stroke-width="5" stroke-miterlimit="10" stroke-linecap="round"/>
<path d="M673.107 531.468C675.758 531.468 677.907 527.305 677.907 522.168C677.907 517.032 675.758 512.868 673.107 512.868C670.456 512.868 668.307 517.032 668.307 522.168C668.307 527.305 670.456 531.468 673.107 531.468Z" fill="#73325A"/>
<path d="M579.908 466.268C579.908 466.268 691.208 533.468 727.408 474.968C759.208 423.668 618.307 397.268 569.107 397.068C515.607 396.868 444.708 420.568 445.908 499.268C446.908 564.068 449.607 658.868 411.207 642.368C274.607 583.768 153.208 644.968 152.808 761.568C152.408 878.168 287.707 889.068 291.107 858.968C294.607 828.968 207.108 835.868 218.908 913.768C230.608 991.668 282.807 1089.07 402.007 1089.07C546.007 1089.17 637.707 899.568 548.607 880.268C480.307 865.468 618.207 997.268 659.107 860.268C703.107 712.768 544.107 664.468 540.207 575.368C536.307 486.268 579.908 466.268 579.908 466.268Z" fill="#FFCF2D" stroke="white" stroke-width="5" stroke-miterlimit="10"/>
<path d="M572.107 519.768H651.707" stroke="#FE5244" stroke-width="6" stroke-miterlimit="10"/>
<path d="M676.207 551.768C688.689 551.768 698.807 538.785 698.807 522.768C698.807 506.752 688.689 493.768 676.207 493.768C663.726 493.768 653.607 506.752 653.607 522.768C653.607 538.785 663.726 551.768 676.207 551.768Z" stroke="#FE5244" stroke-width="6" stroke-miterlimit="10"/>
<path d="M529.907 484.068V399.868C529.907 387.268 540.107 376.968 552.807 376.968H577.807C590.407 376.968 600.707 387.168 600.707 399.868" stroke="#66B0F0" stroke-width="6" stroke-miterlimit="10"/>
<path d="M554.007 576.768H505.907C493.607 576.768 483.607 566.768 483.607 554.468V506.368C483.607 494.068 493.607 484.068 505.907 484.068H554.007C566.307 484.068 576.307 494.068 576.307 506.368V554.468C576.207 566.768 566.307 576.768 554.007 576.768Z" fill="white" stroke="#66B0F0" stroke-width="6" stroke-miterlimit="10"/>
<path d="M541.507 560.868H518.007C507.907 560.868 499.607 552.668 499.607 542.468V518.968C499.607 508.868 507.807 500.568 518.007 500.568H541.507C551.607 500.568 559.907 508.768 559.907 518.968V542.468C559.907 552.668 551.707 560.868 541.507 560.868Z" fill="white" stroke="#66B0F0" stroke-width="6" stroke-miterlimit="10"/>
<path d="M550.807 502.968L509.007 558.568" stroke="#66B0F0" stroke-width="6" stroke-miterlimit="10"/>
<path d="M537.007 501.068L500.807 549.068" stroke="#66B0F0" stroke-width="6" stroke-miterlimit="10"/>
<path d="M558.907 512.868L522.707 560.868" stroke="#66B0F0" stroke-width="6" stroke-miterlimit="10"/>
<path d="M559.907 530.768L537.207 560.868" stroke="#66B0F0" stroke-width="6" stroke-miterlimit="10"/>
<path d="M522.307 501.068L499.707 530.968" stroke="#66B0F0" stroke-width="6" stroke-miterlimit="10"/>
<path d="M494.307 1892.77V1947.87C494.307 1974.47 472.707 1996.07 446.107 1996.07H322.507" stroke="#66B0F0" stroke-width="6" stroke-miterlimit="10"/>
<path d="M540.406 1893.37V2398.87" stroke="#66B0F0" stroke-width="6" stroke-miterlimit="10"/>
<path d="M316.606 2560.97C316.606 2471.47 405.506 2398.87 515.106 2398.87H564.906C674.506 2398.87 763.406 2471.47 763.406 2560.97" stroke="#66B0F0" stroke-width="6" stroke-miterlimit="10"/>
<path d="M1021.31 1901.07H295.307C258.907 1901.07 229.507 1871.57 229.507 1835.27H1038.51L1021.31 1901.07Z" fill="#FFCF2D"/>
<path d="M312.206 2668.17C341.809 2668.17 365.807 2644.17 365.807 2614.57C365.807 2584.97 341.809 2560.97 312.206 2560.97C282.604 2560.97 258.606 2584.97 258.606 2614.57C258.606 2644.17 282.604 2668.17 312.206 2668.17Z" fill="#FFCF2D"/>
<path d="M284.907 2009.77H392.507C401.307 2009.77 408.407 2002.67 408.407 1993.87V1992.67C408.407 1983.87 401.307 1976.77 392.507 1976.77H284.907C276.107 1976.77 269.007 1983.87 269.007 1992.67V1993.87C269.007 2002.67 276.107 2009.77 284.907 2009.77Z" fill="#FFCF2D"/>
<path d="M229.507 1837.27H744.607L572.307 1354.47C560.307 1320.97 528.607 1298.57 493.007 1298.57H114.307C76.7068 1298.57 50.5067 1335.77 63.1067 1371.17L229.507 1837.27Z" stroke="#FFCF2D" stroke-width="6" stroke-miterlimit="10"/>
<path d="M255.007 1837.27H702.807L536.307 1370.47C524.707 1338.07 494.107 1316.47 459.707 1316.47H76.3066" stroke="#FFCF2D" stroke-width="6" stroke-miterlimit="10"/>
<path d="M762.506 2668.17C792.109 2668.17 816.106 2644.17 816.106 2614.57C816.106 2584.97 792.109 2560.97 762.506 2560.97C732.904 2560.97 708.906 2584.97 708.906 2614.57C708.906 2644.17 732.904 2668.17 762.506 2668.17Z" fill="#FFCF2D"/>
</svg>
