<svg xmlns="http://www.w3.org/2000/svg" xmlns:xlink="http://www.w3.org/1999/xlink" viewBox="0 0 1440.98 902.44"><defs><style>.cls-1,.cls-12,.cls-13,.cls-17,.cls-18,.cls-19,.cls-28,.cls-31,.cls-34,.cls-38{fill:none;}.cls-2{fill:#ffae32;}.cls-3{isolation:isolate;}.cls-4{fill:#dbb83e;}.cls-5{fill:#c37d2c;}.cls-6{fill:#977b76;}.cls-7{fill:#006831;}.cls-8{fill:#ff3f32;}.cls-9{clip-path:url(#clip-path);}.cls-10{clip-path:url(#clip-path-2);}.cls-11,.cls-27{opacity:0.2;}.cls-12,.cls-13,.cls-31{stroke:#dbb83e;}.cls-12,.cls-18,.cls-28,.cls-31,.cls-34,.cls-38{stroke-linecap:round;}.cls-12,.cls-13,.cls-28,.cls-31,.cls-34,.cls-38{stroke-linejoin:round;}.cls-12,.cls-13{stroke-width:0.64px;}.cls-13{stroke-linecap:square;}.cls-14{clip-path:url(#clip-path-3);}.cls-15,.cls-23,.cls-33{opacity:0.4;}.cls-16{fill:#fbb25a;}.cls-17,.cls-18,.cls-19,.cls-34{stroke:#ff3f32;}.cls-17,.cls-18,.cls-19{stroke-miterlimit:10;}.cls-17,.cls-18{stroke-width:3.49px;}.cls-19{stroke-width:0.58px;}.cls-20{clip-path:url(#clip-path-4);}.cls-21{clip-path:url(#clip-path-5);}.cls-22{clip-path:url(#clip-path-6);}.cls-23{fill:#fff;}.cls-24{opacity:0.65;}.cls-25{fill:#008d32;}.cls-26{opacity:0.7;mix-blend-mode:screen;fill:url(#radial-gradient);}.cls-28{stroke:#ffae32;}.cls-28,.cls-31,.cls-34,.cls-38{stroke-width:3.35px;}.cls-29{clip-path:url(#clip-path-7);}.cls-30{clip-path:url(#clip-path-8);}.cls-32{clip-path:url(#clip-path-9);}.cls-35{clip-path:url(#clip-path-10);}.cls-36{clip-path:url(#clip-path-11);}.cls-37{clip-path:url(#clip-path-12);}.cls-38{stroke:#008d32;}</style><clipPath id="clip-path"><polygon class="cls-1" points="538.25 328.82 547.24 353.58 553.82 331.46 570 332.93 575.13 329.37 574.45 327.31 576.99 325.41 578.09 321.9 576.34 316.65 582.09 316.65 572.95 301.87 578.09 301.87 571.77 288.82 573.87 287.93 573.87 280.5 551.81 284.95 532.15 302.89 536.84 310.32 541.06 322.44 538.25 328.82"/></clipPath><clipPath id="clip-path-2"><path class="cls-1" d="M530.33,309.54,537,312l9.6-13.72s13.72-11.88,14.86-11.88,16.68-1.14,16.68-1.14L577,270.67l-1.84-1.54L553,278.21,522.48,285a2.07,2.07,0,0,0-1.45,2.85Z"/></clipPath><clipPath id="clip-path-3"><polygon class="cls-1" points="488.1 449.37 475.04 472.54 438.7 473.68 422.47 415.57 497.86 347.22 532.57 333.62 543.32 359.9 517.72 409.95 497.46 448.51 488.1 449.37"/></clipPath><clipPath id="clip-path-4"><path class="cls-1" d="M459.66,484.23l16.92-4.57,2.51,5.95L522,509.09a10.62,10.62,0,0,1,5.4,10.9l-4.86,32a9,9,0,0,1-6.6,7.36l-12.34,3.28Z"/></clipPath><clipPath id="clip-path-5"><path class="cls-1" d="M432.22,591.08l19.21-15.32a2.46,2.46,0,0,1,4.14.87l15.23,43.89a32.76,32.76,0,0,1,1.58,14.63L458.18,753.8l-24-151.6-2.69-4.67A5.48,5.48,0,0,1,432.22,591.08Z"/></clipPath><clipPath id="clip-path-6"><path class="cls-1" d="M532.43,219.47a7.44,7.44,0,0,1,6.88,4.54c-2.09-2.79-6.32-2-6.32-2l10.24,18.3,6.63,1.67L544.77,243s7.68,3.62,10.27,8.52c-3-3.37-9.23-4.15-10.62-3.78,4.61,8,7,14.82,9.74,16.67,5.08-7.22,2.56.43,2.63.41s5.56,3,4.85,8.35c0,0,2.87-4.73.17-8.13a6.67,6.67,0,0,1,5,.18s-2.61-3-5.53-2.74h0l9.55-19.7s-6.79,6.95-7.29,7c1.63-2.46,3.86-8.91,3.86-8.91l-11.6-21.26-5.29,7.52,1.53-9.82s-4.58-8.79-5.33-10.17a17.39,17.39,0,0,1-4.15,4.45c2.21-3.32,3.18-6,3-6.71A43.22,43.22,0,0,1,542,193.74s-13.63,11.13-9.54,25.73Z"/></clipPath><radialGradient id="radial-gradient" cx="1341.83" cy="-4386.05" r="30.6" gradientTransform="matrix(0, -3.32, 1.21, 0, 5863.84, 4710.6)" gradientUnits="userSpaceOnUse"><stop offset="0.01" stop-color="#a55100"/><stop offset="0.17" stop-color="#904700"/><stop offset="0.5" stop-color="#5b2d00"/><stop offset="0.97" stop-color="#060300"/><stop offset="1"/></radialGradient><clipPath id="clip-path-7"><path class="cls-2" d="M571.69,332.77a1.89,1.89,0,0,1-1.6.35,1.73,1.73,0,0,1-1.06-.79c-.39-.68-.39-.68,1.16-7.18l.12-.49c-1.89,1.11-4.33,2.58-6.22,3.72-7.78,4.7-7.79,4.7-8.65,4.48a1.68,1.68,0,0,1-.43-3.08,2.47,2.47,0,0,1,.42-.17c.81-.4,4.19-2.44,6.93-4.1,9.82-5.92,9.87-5.9,10.8-5.67a1.74,1.74,0,0,1,1,.8c.36.62.36.62-.75,5.29-.18.77-.4,1.68-.6,2.55a1.47,1.47,0,0,1,.34,0,1.71,1.71,0,0,1,1,.79,1.68,1.68,0,0,1-.61,2.29l-.27.13-.73.45C572.26,332.43,572,332.62,571.69,332.77Zm-.35-1.77a1.63,1.63,0,0,0,1.18.81A1.67,1.67,0,0,1,571.34,331Zm-14-.6h0ZM557,330a1.52,1.52,0,0,1,.34.41A1.73,1.73,0,0,0,557,330Zm-9.34,21.25c-.8.46-1.1.54-1.67.39a1.68,1.68,0,0,1-1-.78c-.45-.79-.45-.79,2.2-7.45.11-.29.23-.58.35-.89a1.48,1.48,0,0,1-.69,0,1.7,1.7,0,0,1-1.07-.8c-.77-1.33-.49-1.56,4.11-5.42,2.33-1.94,5.51-4.57,8.91-7.36l6.87-5.67-6.6,3.95c-14.16,8.49-14.16,8.49-15.11,8.25a1.76,1.76,0,0,1-1-.79c-.78-1.37-.48-1.62,4.59-5.9,2.61-2.2,6.15-5.13,9.81-8.16l4.48-3.71-4.33,2.57c-16.67,9.94-16.67,9.94-17.67,9.68a1.67,1.67,0,0,1-1-.79c-.75-1.28.15-2.05,1.78-3.45.94-.81,2.29-1.93,3.93-3.28,3.26-2.67,7.62-6.19,12-9.72l1.55-1.24c-16.74,10-17,9.94-18,9.68a1.75,1.75,0,0,1-1.06-.8c-.78-1.35-.46-1.63,4.8-6.24,2.72-2.39,6.37-5.52,10-8.64l1.19-1c-15.38,9.2-15.54,9.15-16.52,8.9a1.73,1.73,0,0,1-1-.79c-.73-1.27.18-2.08,1.56-3.29.82-.72,2-1.73,3.43-2.93,2.84-2.38,6.67-5.53,10.58-8.75,1.06-.87,2.15-1.78,3.26-2.68-.52.3-1,.61-1.52.91-18.64,11.25-18.83,11.2-19.88,10.94a1.76,1.76,0,0,1-1-.8c-.66-1.15-.37-1.47,2.48-4.52,1.4-1.5,3.3-3.5,5.27-5.59,3-3.13,6.8-7.17,8.55-9.13a1.7,1.7,0,0,1,1-1.36,2.06,2.06,0,0,1,1.69-.53,1.76,1.76,0,0,1,1.15.82c.73,1.26.73,1.26-9.92,12.5l-.48.51c3-1.79,6.41-3.84,9.5-5.71,17.37-10.48,17.5-10.45,18.53-10.18a1.68,1.68,0,0,1,1.05.79c.81,1.41.57,1.61-5.68,6.86-3.24,2.72-7.58,6.3-11.78,9.75l-1.28,1.06,1.71-1c12.74-7.64,12.74-7.64,13.67-7.4a1.67,1.67,0,0,1,1,.79c.78,1.34.48,1.61-4.6,6.06-2.62,2.29-6.14,5.31-9.68,8.35l-3,2.58c2.71-1.61,5.47-3.27,7.85-4.7,13.73-8.23,13.73-8.23,14.66-8a1.72,1.72,0,0,1,1,.79c.74,1.29-.16,2.06-1.8,3.47-1,.82-2.34,2-4,3.33-3.3,2.7-7.71,6.27-12.12,9.83-.62.49-1.24,1-1.87,1.51,18.33-10.92,18.43-10.9,19.43-10.64a1.76,1.76,0,0,1,1,.79c.9,1.57.91,1.58-17.23,16.59,18.27-10.94,18.52-10.88,19.53-10.62a1.78,1.78,0,0,1,1.06.8c.94,1.63.94,1.63-19.61,18.56-3,2.43-6.11,5-8.5,7,.07.6-.37,1.71-2.13,6.13-.59,1.48-1.32,3.32-1.78,4.52l.6,1.23-.67.4Zm-.77-1.51,1-.56Zm6.27-64.52Z"/></clipPath><clipPath id="clip-path-8"><path class="cls-2" d="M565.55,286.9c-1.53.88-1.7.83-2.25.69a1.67,1.67,0,0,1-.43-3.07,1.89,1.89,0,0,1,.36-.16c.53-.28,2.3-1.35,3.73-2.22,5.73-3.48,5.74-3.48,6.61-3.26a1.74,1.74,0,0,1,1,.8A1.67,1.67,0,0,1,574,282a1.72,1.72,0,0,1-.47.19c-.71.35-3.17,1.84-4.82,2.85C567.25,285.88,566.26,286.49,565.55,286.9Zm6.16-5.55a1.68,1.68,0,0,0,.3.38A1.94,1.94,0,0,1,571.71,281.35Zm-6.55,3.78h0Zm-.53-.56a1.67,1.67,0,0,1,.53.56A1.59,1.59,0,0,0,564.63,284.57Zm-31.09,23.12c-3,1.73-3.22,1.67-3.85,1.51a1.72,1.72,0,0,1-1-.79c-.87-1.5-.57-1.74,7.13-7.69,4.11-3.18,9.67-7.4,15.06-11.48l1.58-1.2C529,302,528.72,302,527.66,301.68a1.75,1.75,0,0,1-1-.8c-.68-1.19-.41-1.47,2.9-4.89,1.63-1.7,3.84-3.94,6.08-6.23.59-.6,1.21-1.24,1.85-1.88l-.27.16c-11.33,6.86-11.41,6.84-12.37,6.6a1.79,1.79,0,0,1-1-.8c-.23-.4-.23-.4-.35-4.51,0-.63,0-1.34-.06-2-2.1,1.26-2.16,1.28-2.85,1.1l.42-1.63,1.45-.83-1.45.83-.69-1.52c.21-.1.87-.51,1.59-.93,2.77-1.67,2.77-1.67,3.51-1.48a1.71,1.71,0,0,1,1,.79c.25.43.25.43.4,5.6,0,.35,0,.73,0,1.11,2.23-1.28,5.81-3.45,8.66-5.18,10.57-6.4,10.61-6.39,11.56-6.15a1.68,1.68,0,0,1,1,.79c.74,1.28.74,1.28-10.07,12.29l-1.42,1.46c5.09-3,11.5-6.82,16.87-10,18.78-11.23,18.78-11.23,19.81-11a1.76,1.76,0,0,1,1,.79c.86,1.49.57,1.71-6.85,7.45-3.95,3.05-9.35,7.14-14.57,11.1l-6.35,4.82a1.68,1.68,0,0,1,.41,3.07,1.56,1.56,0,0,1-.33.14c-.66.34-3.39,2-5.82,3.44C537.35,305.44,535.08,306.8,533.54,307.69Zm11.09-8.5a1.7,1.7,0,0,0,.47.52A1.67,1.67,0,0,1,544.63,299.19Z"/></clipPath><clipPath id="clip-path-9"><path class="cls-2" d="M492.07,450c-1,.59-1.25.59-1.8.46a1.68,1.68,0,0,1-.43-3.08,1.41,1.41,0,0,1,.31-.14c.34-.19,1.23-.73,1.89-1.14,3.11-1.92,3.36-2.08,4.18-1.87a1.68,1.68,0,0,1,.44,3.08,1.85,1.85,0,0,1-.42.17c-.45.24-1.68,1-2.44,1.47S492.49,449.75,492.07,450Zm2.3-3.3a1.64,1.64,0,0,0,.56.58A1.73,1.73,0,0,1,494.37,446.69ZM492.13,448h0Zm-.77-.69a1.7,1.7,0,0,1,.77.69A1.64,1.64,0,0,0,491.36,447.29Zm-23.78,24.88c-2,1.13-2.16,1.08-2.74.93a1.66,1.66,0,0,1-1-.79C463,471,463,471,475.19,458.9l-4.53,2.7c-18.86,11.28-19,11.25-20,11a1.69,1.69,0,0,1-1-.79c-1.09-1.88-1.08-1.89,29.46-23.86l-5.94,3.53c-34.37,20.44-34.6,20.38-35.75,20.08a1.79,1.79,0,0,1-1.05-.8c-.84-1.46.24-2.24,3.44-4.53,1.84-1.32,4.51-3.19,8.17-5.69,6.79-4.66,15.73-10.7,25.2-17.09l9.89-6.68-8,4.83c-34.18,20.56-34.51,20.48-35.71,20.17a1.77,1.77,0,0,1-1.06-.81c-.9-1.55.35-2.45,4-5.12,2.23-1.61,5.47-3.85,9.89-6.86,8.17-5.55,19.08-12.81,29.63-19.83l1.7-1.13-3.4,2c-42.68,25.52-44.81,26.48-46.2,26.12a1.8,1.8,0,0,1-1.06-.81c-.87-1.5.22-2.26,3.45-4.5,1.86-1.3,4.57-3.13,8.3-5.6,7-4.6,16.45-10.78,26.5-17.31l17.25-11.24-.07,0C436.1,447.9,432.91,449.35,431.36,449a1.83,1.83,0,0,1-1.08-.82c-.95-1.64.41-2.59,4.92-5.75,2.77-1.94,6.78-4.64,12.26-8.24,10.14-6.68,23.7-15.4,36.81-23.83l1-.65c-45.4,27.42-50.8,30.3-52.58,29.84a1.84,1.84,0,0,1-1.1-.83c-.88-1.53.28-2.33,3.75-4.7,2-1.39,5-3.37,9.14-6,7.67-5,18.21-11.7,29.37-18.82,12.35-7.88,26.91-17.15,38.92-25-12,7-26.21,15.55-38.33,22.8-42.69,25.54-42.94,25.47-44.14,25.16a1.72,1.72,0,0,1-1.05-.79c-.93-1.61.53-2.61,4.44-5.3,2.48-1.7,6.1-4.09,11.07-7.3,9.24-6,21.64-13.82,34.75-22.12,9.11-5.76,19-12,28.11-17.83-8.76,5.18-18.13,10.76-26.8,15.92-52.75,31.4-53.1,31.31-54.41,31a1.73,1.73,0,0,1-1.05-.8c-.92-1.59.35-2.45,5.06-5.67,2.82-1.93,6.92-4.63,12.53-8.28,10.28-6.67,24.25-15.59,37.81-24.25C433.27,415,425,419.4,423.14,418.92a1.9,1.9,0,0,1-1.1-.83c-1-1.65.44-2.61,5-5.79,2.84-2,7-4.69,12.59-8.36,10-6.5,23.4-15,36.54-23.4-29.62,17.55-31.79,18.39-33,18.07a1.81,1.81,0,0,1-1.07-.81c-.88-1.52.3-2.35,3.8-4.82,2.08-1.47,5.09-3.52,9.22-6.29,7.68-5.14,17.83-11.81,28.57-18.87l5.77-3.79c-18.34,11-18.76,10.84-19.78,10.58a1.78,1.78,0,0,1-1.07-.81c-.77-1.32-.47-1.57,4.44-5.74,2.51-2.13,5.92-5,9.48-7.95,4.44-3.72,9.94-8.31,13.5-11.38a1.68,1.68,0,0,1,.79-1.85,2.12,2.12,0,0,1,.31-.14,12.88,12.88,0,0,0,1.12-.69c2-1.24,2.37-1.5,3.18-1.3a1.73,1.73,0,0,1,1.06.79c.81,1.41.56,1.62-5.86,7.09-3.34,2.85-7.72,6.51-12,10.05l-1.29,1.08c5.41-3.21,11.68-7,17.34-10.4,29-17.49,29.31-17.42,30.49-17.11a1.75,1.75,0,0,1,1.06.8c.91,1.57-.41,2.51-4.32,5.28-2.39,1.7-5.85,4.07-10.59,7.25-8.75,5.87-20.48,13.58-31.83,21l-7.77,5.11c5.78-3.43,11.62-6.92,16.95-10.1,36.69-21.89,36.87-21.85,38-21.55a1.72,1.72,0,0,1,1,.79c.94,1.63-.4,2.55-4.84,5.62-2.72,1.87-6.67,4.49-12.08,8-10,6.52-23.78,15.27-37.07,23.73-8.31,5.29-17.33,11-25.62,16.35,12.4-7.3,26.62-15.82,38.85-23.15,44.08-26.41,44.33-26.34,45.56-26a1.75,1.75,0,0,1,1,.8c.92,1.59-.36,2.47-5.13,5.72-2.87,2-7,4.71-12.7,8.4-10.54,6.85-24.87,16-38.73,24.84l-7,4.44,3-1.79c58.43-34.78,61.7-36.31,63.23-35.91a1.76,1.76,0,0,1,1.06.81c1,1.66-.48,2.76-5.62,6.35-3.21,2.23-7.86,5.32-14.21,9.45-8.26,5.36-18.39,11.81-28.89,18.47,36.05-21.45,42.38-24.71,44-24.29a1.85,1.85,0,0,1,1.09.82c1,1.76,1.26,2.18-20.91,16.68-9.24,6.05-20.43,13.22-31.89,20.54,39.15-23.64,43.63-26,45.21-25.58a1.84,1.84,0,0,1,1.09.82c.9,1.57-.39,2.47-4.24,5.14-2.35,1.64-5.77,3.92-10.45,7-8.71,5.71-20.26,13.14-32.48,21-6.8,4.37-14.09,9.06-21,13.55,7.25-4.31,14.75-8.79,21.49-12.81,38.71-23.13,38.92-23.07,40.09-22.77a1.71,1.71,0,0,1,1,.8c.92,1.59-.3,2.56-5.11,6-2.88,2.05-7,4.89-12.7,8.66-8.86,5.9-19.92,13.12-31,20.35,40.07-23.95,40.41-23.87,41.64-23.55a1.73,1.73,0,0,1,1,.8c.87,1.5-.32,2.35-3.48,4.61-1.88,1.35-4.62,3.24-8.37,5.78-7,4.72-16.22,10.88-26,17.39l-8.54,5.69c35.68-21.45,37.7-22.31,39.07-22a1.8,1.8,0,0,1,1.08.81c.86,1.49-.22,2.27-3.79,4.84-2.05,1.48-5,3.56-9.08,6.34-7.51,5.16-17.61,12-27.37,18.57l-2.93,2c30.24-18,30.39-17.94,31.48-17.65a1.66,1.66,0,0,1,1,.79c.89,1.54.42,1.88-7.37,7.6-4.28,3.14-10,7.28-16.11,11.65L474,455.69c10.47-6.24,10.58-6.21,11.44-6a1.72,1.72,0,0,1,1,.79c.68,1.18.3,1.56-2.62,4.5-1.47,1.47-3.48,3.45-5.61,5.56L475,463.77c2.77-1.63,3-1.59,3.6-1.42a1.71,1.71,0,0,1,1.05.79,1.68,1.68,0,0,1-.62,2.29,1.78,1.78,0,0,1-.48.19c-.82.4-3.86,2.24-6.11,3.61S468.62,471.57,467.58,472.17Zm9.2-7.35a1.57,1.57,0,0,0,.24.32A1.91,1.91,0,0,1,476.78,464.82Zm21.29-118.11.21.06h0Z"/></clipPath><clipPath id="clip-path-10"><path class="cls-2" d="M513.37,560.68c-1.42.82-1.64.8-2.2.65a1.71,1.71,0,0,1-1.05-.79c-.6-1-.61-1,5.38-9.88l-1,.57c-9.13,5.5-9.15,5.49-10.06,5.25a1.71,1.71,0,0,1-1.05-.79c-.73-1.28-.73-1.28,9.23-12.06l.13-.15-2.24,1.34c-13,7.74-13,7.74-13.93,7.49a1.7,1.7,0,0,1-1-.79c-.71-1.24.16-2,1.47-3.21.76-.69,1.86-1.65,3.19-2.8,2.63-2.28,6.19-5.31,9.79-8.38l2.86-2.44-1.11.67c-13.82,8.34-13.88,8.32-14.86,8.07a1.74,1.74,0,0,1-1.05-.79c-.79-1.38-.33-1.78,5.3-6.65,3-2.6,7-6,10.93-9.31l.79-.67-2.51,1.5C491.09,539.05,491,539,490,538.75a1.71,1.71,0,0,1-1.05-.79c-.77-1.34-.48-1.58,4.3-5.58,2.43-2,5.76-4.77,9.27-7.67l5.18-4.26c-20.62,12.32-20.8,12.28-21.85,12a1.69,1.69,0,0,1-1-.79c-.79-1.37-.36-1.75,5-6.44,2.82-2.5,6.6-5.76,10.25-8.92l.55-.47c-13.82,8.38-14,8.34-15,8.08a1.72,1.72,0,0,1-1.06-.8c-.7-1.2-.25-1.64,2.68-4.52,1.5-1.48,3.56-3.48,5.75-5.6l4.21-4.1-4.49,2.7c-10.16,6.11-10.16,6.11-11,5.88a1.69,1.69,0,0,1-1-.79c-.71-1.23-.71-1.23,8-10.34.77-.79,1.59-1.65,2.41-2.51l-3,1.8c-10.94,6.53-10.94,6.52-11.83,6.29a1.69,1.69,0,0,1-1-.78c-.66-1.15-.66-1.15,7.24-10.33l.95-1.09c-11,6.61-11.12,6.59-12,6.35a1.74,1.74,0,0,1-1-.8c-.57-1-.57-1,4.32-8.65l.57-.89c-5.68,3.44-5.75,3.42-6.58,3.21a1.75,1.75,0,0,1-1.05-.79c-.5-.88-.5-.88,3-7.46l.78-1.46c-5.39,3.29-5.42,3.29-6.27,3.07a1.71,1.71,0,0,1-1.05-.79,35.52,35.52,0,0,1-1.21-3.49c-.23-.68-.49-1.46-.73-2.16-1.36.82-1.58.92-2.25.74l.42-1.62,1.28-.74h0l-1.28.74-.72-1.51,1.06-.62c2-1.17,2.11-1.27,2.83-1.08a1.64,1.64,0,0,1,1,.79,38.24,38.24,0,0,1,1.53,4.39l.45,1.33c1-.58,2.27-1.37,3.33-2,5.21-3.19,5.21-3.19,6.06-3a1.71,1.71,0,0,1,1.05.79c.51.9.51.9-3.35,8.18q-.22.41-.45.84l1.62-1c5.1-3.09,5.11-3.09,5.9-2.89a1.73,1.73,0,0,1,1,.79c.56,1,.56,1-4.17,8.4l-1,1.51c2-1.2,4.3-2.56,6.14-3.67,7.85-4.71,7.85-4.71,8.67-4.5a1.67,1.67,0,0,1,1,.79c.67,1.14.67,1.14-7.34,10.44l-1,1.16,2.36-1.41c12.61-7.52,12.61-7.52,13.57-7.27a1.71,1.71,0,0,1,1,.79c.76,1.31.76,1.31-9.85,12.39l0,0c14.84-8.93,15-8.89,16-8.63a1.68,1.68,0,0,1,1.05.79c.8,1.38.82,1.41-11.94,13.79l3.69-2.24c13.63-8.28,13.74-8.26,14.73-8a1.75,1.75,0,0,1,1.06.8c.76,1.32.38,1.66-4.28,5.76-2.42,2.14-5.7,5-9,7.87L498.49,522l8.23-4.9c15.22-9.1,15.22-9.1,16.17-8.85a1.67,1.67,0,0,1,1,.79c.91,1.56.92,1.59-18.26,17.38l3-1.79c17.61-10.54,17.65-10.53,18.68-10.26a1.72,1.72,0,0,1,1,.79c.77,1.34.47,1.59-4.53,5.9-2.57,2.22-6,5.16-9.59,8.17l-2.93,2.48C525.81,523,526,523,527,523.29a1.75,1.75,0,0,1,1.06.8c.77,1.34.66,1.43-5.16,6.47-2.92,2.53-6.81,5.85-10.65,9.12l-1,.85c9.34-5.56,9.4-5.54,10.24-5.33a1.71,1.71,0,0,1,1,.79c.7,1.2.7,1.2-7.35,9.91-.71.76-1.47,1.59-2.23,2.42,7.52-4.52,7.52-4.52,8.37-4.3a1.74,1.74,0,0,1,1,.78c.56,1,.56,1-3.79,7.38l-1.67,2.47c2.33-1.41,2.52-1.4,3.2-1.23a1.68,1.68,0,0,1,.43,3.08,1.85,1.85,0,0,1-.44.18c-.58.29-2.4,1.41-3.63,2.17C515,559.7,514.05,560.29,513.37,560.68Zm4.81-4.79a1.8,1.8,0,0,0,.44.5A1.78,1.78,0,0,1,518.18,555.89Z"/></clipPath><clipPath id="clip-path-11"><path class="cls-2" d="M458.36,748.61a1.79,1.79,0,0,1-1.59.35,1.68,1.68,0,0,1-1-.78c-.4-.7-.4-.7,1.44-6.89.08-.27.16-.56.25-.84h0c-1.22.7-1.35.66-1.9.52a1.66,1.66,0,0,1-1-.78c-.43-.73-.43-.73,1.7-7,.14-.39.27-.8.41-1.2a1.9,1.9,0,0,1-.45-.07,1.71,1.71,0,0,1-1.05-.79c-.36-.63-.36-.63.79-5.12.28-1.08.62-2.44.91-3.59a1.67,1.67,0,0,1-.6-.61c-.49-.85-.49-.85,2.85-7.62.16-.34.34-.7.51-1.05-5.6,3.37-5.64,3.36-6.46,3.14a1.68,1.68,0,0,1-1-.78c-.57-1-.57-1,4.16-8.21l1-1.51c-2.61,1.59-2.7,1.56-3.39,1.38a1.7,1.7,0,0,1-1.05-.78c-.65-1.13-.65-1.13,5.62-9.43l.78-1-.07,0c-7.81,4.68-7.81,4.68-8.68,4.45a1.66,1.66,0,0,1-1-.78c-.69-1.2-.71-1.22,7.82-11.3-7,4.24-7,4.24-7.87,4a1.66,1.66,0,0,1-1-.79c-.67-1.16-.67-1.16,7.16-9.77l2.16-2.37c-7.53,4.57-7.57,4.56-8.46,4.33a1.69,1.69,0,0,1-1-.79c-.73-1.26-.75-1.29,9.4-12.13-6.9,4.15-7,4.12-7.83,3.91a1.7,1.7,0,0,1-1-.79c-.74-1.28-.74-1.28,9.17-12l.09-.1-1.06.64c-11.66,7-11.67,7-12.6,6.71a1.69,1.69,0,0,1-1-.79c-.7-1.21.16-2,1.34-3.12.69-.64,1.69-1.54,2.89-2.62,2.39-2.14,5.61-5,8.87-7.87.78-.68,1.58-1.4,2.4-2.11-10.76,6.49-10.79,6.48-11.74,6.24a1.73,1.73,0,0,1-1-.79c-.76-1.32-.37-1.69,4.46-6.13,2.53-2.33,5.89-5.36,9.18-8.32l.63-.57-1.1.65c-15.63,9.36-15.69,9.34-16.68,9.08a1.71,1.71,0,0,1-1.05-.79c-.75-1.31-.49-1.53,3.88-5.32,2.19-1.89,5.18-4.44,8.34-7.14l4.59-3.92c-16.36,9.77-16.52,9.73-17.49,9.48a1.79,1.79,0,0,1-1.05-.8c-.78-1.36-.35-1.74,4.95-6.43,2.81-2.49,6.58-5.74,10.21-8.89l.42-.36c-11.26,6.82-11.43,6.78-12.38,6.54a1.73,1.73,0,0,1-1-.8c-.72-1.24-.36-1.57,3-4.75,1.7-1.59,4-3.74,6.51-6l4.7-4.34-3.58,2.14c-10.26,6.17-10.26,6.17-11.14,5.94a1.74,1.74,0,0,1-1-.78c-.72-1.27-.34-1.63,3.38-5.15,1.9-1.8,4.49-4.2,7.16-6.68l3.11-2.89-2.42,1.44c-12.33,7.36-12.33,7.36-13.25,7.12a1.67,1.67,0,0,1-1-.79c-.72-1.24-.47-1.49,3.73-5.5,2.11-2,4.93-4.67,7.76-7.33l1.22-1.15c-13,7.81-13.2,7.77-14.15,7.52a1.69,1.69,0,0,1-1-.79c-.75-1.3-.75-1.3,10.19-12.2l.9-.89c-9.36,5.61-9.48,5.58-10.36,5.35a1.71,1.71,0,0,1-1.05-.79c-.68-1.19-.34-1.54,2.92-4.91,1.65-1.7,3.88-4,6.14-6.26l1.86-1.89L445,591c-11.51,7-11.6,7-12.56,6.71a1.74,1.74,0,0,1-1.05-.79c-.68-1.18-.35-1.52,2.78-4.71,1.55-1.59,3.67-3.71,5.87-5.93,2.91-2.92,6.56-6.58,8.72-8.84a1.71,1.71,0,0,1,1.08-1.78l.35-.23c.87-.59,1.4-.94,2.19-.76a1.72,1.72,0,0,1,1.08.8c.76,1.31.76,1.31-11,13.18l0,0,.88-.53C454,581.64,454,581.64,455,581.89a1.71,1.71,0,0,1,1,.79c.74,1.29.74,1.29-10.15,12.34l-.81.82,1.57-1c8.63-5.18,8.63-5.18,9.48-5a1.66,1.66,0,0,1,1,.79c.74,1.29.74,1.29-9.85,11.83l-1.93,1.91c1.84-1.09,3.69-2.2,5.3-3.17,10.07-6,10.07-6,10.93-5.82a1.71,1.71,0,0,1,1,.79c.72,1.25.56,1.41-3.78,5.55-2.13,2-5,4.73-7.84,7.42l-1.34,1.25.11-.06C464,601.93,464,601.94,465,602.19a1.7,1.7,0,0,1,1,.79c.82,1.42.82,1.43-12.74,14,12.49-7.5,12.66-7.45,13.6-7.21a1.73,1.73,0,0,1,1.05.8c.82,1.43.85,1.46-13.22,14.44l.95-.58c12.47-7.57,12.55-7.55,13.54-7.3a1.75,1.75,0,0,1,1,.8c.76,1.32.38,1.65-4.26,5.75-2.42,2.13-5.68,4.95-9,7.84l-3.4,3,4.68-2.79c13-7.74,13-7.74,13.86-7.51a1.71,1.71,0,0,1,1,.79c.87,1.51.89,1.54-16.29,16.19l.51-.3c14.28-8.54,14.28-8.54,15.27-8.29a1.66,1.66,0,0,1,1,.79c.74,1.28.4,1.6-3.82,5.47-2.16,2-5.07,4.61-8.06,7.3l-2.43,2.2c11.3-6.82,11.43-6.78,12.36-6.54a1.68,1.68,0,0,1,1.05.79c.76,1.31.56,1.49-4.66,6.17-2.63,2.36-6.14,5.47-9.6,8.52l-.94.83c8.08-4.82,8.15-4.8,9-4.59a1.67,1.67,0,0,1,1,.79c.69,1.2.69,1.2-7.31,9.88l-2.23,2.43.12-.07c7.69-4.63,7.68-4.63,8.54-4.41a1.71,1.71,0,0,1,1,.79c.68,1.17.68,1.17-6.93,9.3l-2.92,3.12c7.18-4.35,7.24-4.33,8.12-4.11a1.74,1.74,0,0,1,1,.8c.71,1.22.71,1.22-9,11.88,5.82-3.52,5.94-3.49,6.75-3.28a1.69,1.69,0,0,1,1,.79c.64,1.11.64,1.11-5.67,8.58l-2.41,2.85c6.91-4.13,6.92-4.13,7.75-3.92a1.71,1.71,0,0,1,1,.79c.65,1.12.65,1.12-5.5,9.26l-.77,1c1.54-.88,1.8-.87,2.37-.72a1.71,1.71,0,0,1,1,.79c.59,1,.59,1-4.7,9.07l-.46.71.12-.08c4.4-2.64,4.4-2.65,5.16-2.45a1.64,1.64,0,0,1,1,.79c.49.84.49.84-2.82,7.57-.54,1.09-1.17,2.38-1.7,3.47a1.37,1.37,0,0,1,.13.2c.4.69.4.69-1.35,7.5l0,.12a1.45,1.45,0,0,1,.77,0,1.63,1.63,0,0,1,1,.79c.42.71.42.71-1.55,6.49l-.48,1.41c1.05-.59,1.2-.55,1.72-.42a1.68,1.68,0,0,1,1,.79c.4.68.4.68-1.23,6.18-.41,1.37-.92,3.09-1.24,4.21l.61,1.32c-.14.07-.49.29-.84.49ZM451,575.68a1.7,1.7,0,0,1,.85.72A1.66,1.66,0,0,0,451,575.68Z"/></clipPath><clipPath id="clip-path-12"><path class="cls-2" d="M563.52,265.76a1.74,1.74,0,0,1-1.41.27,1.69,1.69,0,0,1-1.06-.79c-.35-.62-.35-.62.87-6.34.09-.38.17-.78.26-1.18-1.12.67-2.38,1.42-3.39,2-5,3-5,3-5.77,2.8a1.66,1.66,0,0,1-1-.78c-.33-.58-.33-.58.44-5.62.07-.47.15-1,.23-1.51-2.92,1.77-3,1.75-3.7,1.57a1.73,1.73,0,0,1-1-.79c0-.08-.06-.1-1.81-3.63l-1.05-2.12a1.68,1.68,0,0,1-.19-3.11l0,0a1.81,1.81,0,0,1,1.49-.34,1.67,1.67,0,0,1,1.06.79c0,.08,0,.1,1.65,3.31l1,2,1.5-.9c2.87-1.74,2.87-1.74,3.61-1.55a1.69,1.69,0,0,1,1,.79c.34.58.34.58-.5,6-.06.36-.11.74-.17,1.12l1.49-.9c7-4.22,7-4.21,7.88-4a1.75,1.75,0,0,1,1,.79c.35.61.35.61-.79,5.92l-.48,2.23a1.74,1.74,0,0,1,.92.75,1.68,1.68,0,0,1-.61,2.29,2.52,2.52,0,0,1-.34.15l-.61.38Zm-.72-1.39a1.62,1.62,0,0,0,.38.4,1.82,1.82,0,0,1-.38-.4ZM547,247.25h0Zm8.81-24.7a1.76,1.76,0,0,1-1.56.34l.42-1.62,1.55-.89.73,1.51c-.13.06-.46.26-.76.44Zm.41-2.17-1.55.89-.76-1.49.56-.33c1.16-.68,1.47-.87,2.17-.69Zm-1.51,26.85c-2,1.15-2.15,1.1-2.72,1a1.66,1.66,0,0,1-1-.78c-.57-1-.57-1,4.44-8.41l1.08-1.61-2,1.2c-7.28,4.36-7.28,4.36-8.11,4.15a1.71,1.71,0,0,1-1-.79c-.56-1-.56-1,3.9-7.65l1.5-2.24c-6.6,4-6.6,4-7.47,3.76a1.71,1.71,0,0,1-1-.79c-.43-.75-.43-.75,1.78-6.2l.81-2c-2.83,1.73-3.09,1.83-3.85,1.63a1.66,1.66,0,0,1-.76-.41c-.35-.29-2.38-1.79-3.74-2.79l-1.8-1.33a1.9,1.9,0,0,1-1.67.4l.39-1.5,0-.07,1.52-.88-1.45.83-.76-1.49c.09,0,.29-.16.5-.29,1-.61,1.36-.82,2.06-.63a1.5,1.5,0,0,1,.69.37c.25.19,1.47,1.1,2.55,1.89,1.53,1.13,2.5,1.84,3.11,2.31.73-.42,1.8-1.08,2.6-1.57,3.42-2.11,3.55-2.2,4.36-2a1.66,1.66,0,0,1,1,.79c.47.81.47.81-2.46,8,0,.11-.09.22-.13.34l2.16-1.31c6.29-3.81,6.29-3.81,7.15-3.59a1.72,1.72,0,0,1,1,.79c.6,1,.6,1-5.29,9.83l.73-.43c8.45-5.06,8.45-5.06,9.33-4.83a1.66,1.66,0,0,1,1,.79c.58,1,.58,1-4.95,9.19l-.46.68c5.06-3,5.09-3,5.87-2.82a1.68,1.68,0,0,1,.43,3.08,1.8,1.8,0,0,1-.38.16c-.65.33-3.14,1.82-5,2.93S555.63,246.72,554.74,247.23Zm7-6a1.56,1.56,0,0,0,.41.47A1.85,1.85,0,0,1,561.75,241.19Zm-19.39-15.71a2.6,2.6,0,0,1,.28.26A1.37,1.37,0,0,0,542.36,225.48Zm-.66-2.42c-2.22,1.28-2.41,1.23-3,1.07a1.66,1.66,0,0,1-1-.79c-.46-.78-.46-.78,2.12-7.18l.41-1c-6.2,3.75-6.21,3.75-7.08,3.52a1.71,1.71,0,0,1-1.05-.79c-.55-1-.55-1,3.83-8l.87-1.4c-2.39,1.44-2.63,1.48-3.32,1.3a1.71,1.71,0,0,1-1-.79c-.54-.94-.54-.94,3.65-7.6,1.1-1.74,2.45-3.88,3.39-5.4l-.63-1.32c.15-.08.56-.33,1-.6,1.83-1.09,2-1.2,2.74-1a1.73,1.73,0,0,1,1,.79c.57,1,.57,1-4.69,9.34a.57.57,0,0,0-.08.13c2.34-1.43,2.51-1.43,3.19-1.26a1.73,1.73,0,0,1,1,.8c.56,1,.56,1-4.3,8.79l-.46.74.21-.13c4.61-2.79,4.61-2.79,5.4-2.59a1.67,1.67,0,0,1,1,.79c.45.78.45.78-2,7-.17.44-.36.91-.55,1.39l2.56-1.54c4.7-2.83,4.7-2.83,5.47-2.63a1.66,1.66,0,0,1,1,.78,1.68,1.68,0,0,1-.61,2.29,1.51,1.51,0,0,1-.29.13c-.49.26-2.36,1.39-3.87,2.3C544.32,221.51,542.77,222.44,541.7,223.06Zm-1-27.56.3-.17Z"/></clipPath></defs><g class="cls-3"><g id="Layer_2" data-name="Layer 2"><g id="Layer_1-2" data-name="Layer 1"><polygon class="cls-4" points="532.27 254.92 531.55 254.44 530.94 254.2 532.25 258.63 530.71 259.25 530.37 267.33 535.42 274.2 534.07 274.08 532.55 274.83 539.06 284.76 537.93 276.93 542.67 270.14 541.17 263.41 540.4 265.77 539 267.16 540.35 261.73 538.27 255.05 537.95 257.73 537.08 258.29 535.08 253.45 530.09 250.15 532.15 253.99 532.27 254.92"/><path class="cls-4" d="M542.22,249.51l18.2,27.73,13.51-5.79v-2.91A74.48,74.48,0,0,0,561.64,257c-7.31-5.46-17.22-9.21-17.22-9.21Z"/><path class="cls-4" d="M513.61,264.44l-.94.57,13.51,21.1,16-4.07a48.06,48.06,0,0,0-28.55-17.6Z"/><path class="cls-5" d="M538.74,367a95.5,95.5,0,0,0,20.8,56.45L541,436.92l-16.68-46.16,8.91-24.92Z"/><polygon class="cls-6" points="538.25 328.82 547.24 353.58 553.82 331.46 570 332.93 575.13 329.37 574.45 327.31 576.99 325.41 578.09 321.9 576.34 316.65 582.09 316.65 572.95 301.87 578.09 301.87 571.77 288.82 573.87 287.93 573.87 280.5 551.81 284.95 532.15 302.89 536.84 310.32 541.06 322.44 538.25 328.82"/><polygon class="cls-4" points="542.39 431.71 576.31 372.41 588.35 388.17 555.84 448.73 542.39 431.71"/><polygon class="cls-7" points="583.81 345.09 575.9 323.72 581.22 326.71 580.84 329.18 583.81 328.26 586.32 348.08 583.81 345.09"/><path class="cls-5" d="M459.66,484.23l16.92-4.57,2.51,5.95,49.37,27-6,39.34a9,9,0,0,1-6.6,7.36l-12.34,3.28Z"/><polygon class="cls-5" points="524.01 576.16 561.07 609.25 569.92 555.86 555.84 527.43 532.91 514.68 524.01 576.16"/><path class="cls-5" d="M432.22,591.08l19.21-15.32a2.46,2.46,0,0,1,4.14.87l15.23,43.89a32.76,32.76,0,0,1,1.58,14.63L458.18,753.8l-24-151.6-2.69-4.67A5.48,5.48,0,0,1,432.22,591.08Z"/><polygon class="cls-6" points="534.22 594.88 559.55 616.91 543.32 695.74 534.22 594.88"/><polygon class="cls-8" points="546.51 355.36 543.77 356.29 534.76 331.88 537.37 331.4 546.51 355.36"/><g class="cls-9"><polygon points="549.07 290.02 574.15 282.67 573.87 287.93 571.77 288.82 561.18 288.67 551.13 295.35 550.88 316.34 570.18 332.95 553.82 331.46 551.04 321.67 537.5 323.81 523.53 307.24 537.5 291.16 549.07 290.02"/></g><path class="cls-7" d="M530.33,309.54,537,312l9.6-13.72s13.72-11.88,14.86-11.88,16.68-1.14,16.68-1.14L577,270.67l-1.84-1.54L553,278.21,522.48,285a2.07,2.07,0,0,0-1.45,2.85Z"/><g class="cls-10"><polygon class="cls-11" points="553.38 278.13 561.41 286.44 580.33 287.39 581.04 279.95 580.39 265.83 573.25 266.38 553.38 278.13"/><polyline class="cls-12" points="523.58 295.07 535 294.12 558.71 280.2 578.09 278.94"/><polyline class="cls-13" points="524.96 298.76 536.38 297.82 559.47 281.76 577.65 279.57"/></g><polygon class="cls-7" points="488.1 449.37 475.04 472.54 438.7 473.68 422.47 415.57 497.86 347.22 532.57 333.62 543.32 359.9 517.72 409.95 497.46 448.51 488.1 449.37"/><g class="cls-14"><polygon class="cls-15" points="465.57 472.69 442.82 486.19 429.89 452.25 432.37 436.19 465.57 472.69"/><path class="cls-15" d="M531.89,328.82S514.12,344.63,505,381.66s-2.47,60.08-2.47,60.08l20.39-13.58,22.54-65.88Z"/></g><path class="cls-16" d="M532.57,333.62,540.1,352a102.3,102.3,0,0,0,15.74,96.71l-19.16,30.93c-7.3-9.9-18.84-29.27-23.29-52C504.16,380.58,526.43,343.24,532.57,333.62Z"/><path class="cls-17" d="M454.24,348.16c.92,0,81.54-14.72,81.54-14.72"/><line class="cls-17" x1="469.99" y1="412.86" x2="539.62" y2="342.52"/><line class="cls-17" x1="502.29" y1="437.3" x2="541.52" y2="346"/><line class="cls-17" x1="574.69" y1="450.33" x2="544.86" y2="355.86"/><circle class="cls-8" cx="452.85" cy="348.22" r="5.7"/><circle class="cls-8" cx="468.29" cy="413.77" r="5.7"/><line class="cls-17" x1="447.58" y1="376.47" x2="537.74" y2="337.28"/><circle class="cls-8" cx="445.69" cy="376.83" r="5.7"/><circle class="cls-8" cx="502.01" cy="439.71" r="5.7"/><circle class="cls-8" cx="576.4" cy="454.21" r="5.7"/><line class="cls-18" x1="535.73" y1="457.94" x2="543.5" y2="352.05"/><circle class="cls-8" cx="535.53" cy="462.18" r="5.7"/><circle class="cls-19" cx="535.53" cy="462.18" r="7.66"/><circle class="cls-19" cx="576.4" cy="454.21" r="7.66"/><circle class="cls-19" cx="502.01" cy="439.71" r="7.66"/><circle class="cls-19" cx="468.29" cy="413.77" r="7.66"/><circle class="cls-19" cx="445.69" cy="376.83" r="7.66"/><circle class="cls-19" cx="452.85" cy="348.22" r="7.66"/><g class="cls-20"><polygon class="cls-15" points="484.35 478.6 518.71 551.91 505.29 562.63 479.01 539.09 451.44 482.86 471.25 477.07 484.35 478.6"/></g><path class="cls-5" d="M438,436.92l-7.54,11.21a33.05,33.05,0,0,0-3.65,29.72l50.05,138.26L515.54,551Z"/><g class="cls-21"><polygon class="cls-6" points="435.32 655.28 473.27 705.67 470.31 764.92 428.9 788.45 435.32 655.28"/></g><path class="cls-4" d="M532.43,219.47a7.44,7.44,0,0,1,6.88,4.54c-2.09-2.79-6.32-2-6.32-2l10.24,18.3,6.63,1.67L544.77,243s7.68,3.62,10.27,8.52c-3-3.37-9.23-4.15-10.62-3.78,4.61,8,7,14.82,9.74,16.67,5.08-7.22,2.56.43,2.63.41s5.56,3,4.85,8.35c0,0,2.87-4.73.17-8.13a6.67,6.67,0,0,1,5,.18s-2.61-3-5.53-2.74h0l9.55-19.7s-6.79,6.95-7.29,7c1.63-2.46,3.86-8.91,3.86-8.91l-11.6-21.26-5.29,7.52,1.53-9.82s-4.58-8.79-5.33-10.17a17.39,17.39,0,0,1-4.15,4.45c2.21-3.32,3.18-6,3-6.71A43.22,43.22,0,0,1,542,193.74s-13.63,11.13-9.54,25.73Z"/><path class="cls-4" d="M527.31,288.23v0a3.06,3.06,0,0,0,1.61,4.09l.42.18a3.06,3.06,0,0,0,4-1.67h0a3.07,3.07,0,0,0-1.47-3.91l-.41-.2A3.07,3.07,0,0,0,527.31,288.23Z"/><rect class="cls-4" x="533.08" y="299.48" width="5.5" height="6.03" rx="2.75" transform="translate(333.96 -278.77) rotate(41.4)"/><circle class="cls-4" cx="574.64" cy="282.98" r="1.64"/><circle class="cls-4" cx="564.86" cy="282.57" r="1.06"/><circle class="cls-4" cx="555.22" cy="287.08" r="0.97"/><circle class="cls-4" cx="550.91" cy="290.58" r="1.43"/><circle class="cls-4" cx="545.07" cy="295.11" r="2.1"/><circle class="cls-4" cx="539.77" cy="286.67" r="2.14"/><circle class="cls-4" cx="545.51" cy="283.99" r="1.36"/><circle class="cls-4" cx="550.9" cy="281.53" r="1.04"/><circle class="cls-4" cx="556.21" cy="279.3" r="0.65"/><circle class="cls-4" cx="560" cy="278.13" r="0.52"/><circle class="cls-4" cx="563.98" cy="276.89" r="0.88"/><circle class="cls-4" cx="560.21" cy="283.99" r="0.88"/><circle class="cls-4" cx="568.86" cy="275.94" r="1.42"/><circle class="cls-4" cx="569.46" cy="282.57" r="1.42"/><circle class="cls-4" cx="574.64" cy="275.94" r="1.85"/><path class="cls-4" d="M511,242.75l-1.2-.88-1.4.55,4.77,5.13-.21,3.57,3.1,3-3.84-.65-1.86-5.07.44,11.51,10.39,4.95-3,1.1,8.8,11.19-1-10a18.08,18.08,0,0,0,.8-12.19,16.63,16.63,0,0,0-2.8-5.35,9,9,0,0,1,0,3,9.33,9.33,0,0,1-.8,2.39c.27-1.08-.56-8-.56-8l-5-6.08.93,2.18-.32,1.44-2-3.1-9.68-4.12,4.44,3.67Z"/><path class="cls-6" d="M578.16,370.13l4.78-8.49-1.58-.89a3,3,0,0,1-1.42-3.47l.6-2-.73-8a2.66,2.66,0,0,1,1.45-3.1l.73-.33a6.08,6.08,0,0,0,3.28-3.79l.74-2.5a1.47,1.47,0,0,1,1.39-1h0a2.86,2.86,0,0,1,2.64,1.74l11.65,25,0,0a3,3,0,0,1-2.27,3.95l-.33.06-9.35,18Z"/><g class="cls-22"><polygon class="cls-23" points="542.22 191.91 540.33 201.72 540.82 216.03 554.8 240.56 561.83 243.26 561.79 253.69 573.21 240.02 583.17 236.97 549.49 195.11 542.22 191.91"/></g><path class="cls-5" d="M421.32,428.88l2.21,7.47a11.67,11.67,0,0,1,.22,5.78l-.21.93a7.78,7.78,0,0,1-8.69,6.07A10,10,0,0,0,413,449c-2.22.14-4.47.94-3.82,3.61s2.34,15.67,6,24,3.19,9.6,1.79,14.35-8.22,9.25-8.22,9.25,2.22-4.9.95-7.57-12-14-11.25-19.55,2.66-24.17,3.07-25.28,2.85-1.34,2.73-2.2-2.07-3.12.35-5S421.32,428.88,421.32,428.88Z"/><polygon class="cls-6" points="470.36 765.95 463.04 758.64 470.36 751.32 470.36 765.95"/><polygon class="cls-6" points="555.16 704.64 549.29 698.77 555.16 692.89 555.16 704.64"/><rect class="cls-7" x="562.63" y="305.95" width="3.79" height="7.53" transform="translate(-62.37 162.69) rotate(-15.55)"/><g class="cls-24"><path class="cls-25" d="M432,520.29c.88,2,1.69,4,2.53,5.92l2.42,6c1.61,4,3.13,8,4.65,12s3,8,4.4,12.09l2.12,6.07c.66,2,1.36,4.07,2,6.12-.88-2-1.68-3.94-2.53-5.92l-2.41-6c-1.61-4-3.13-8-4.66-12s-3-8-4.4-12.08L434,526.41C433.36,524.37,432.66,522.35,432,520.29Z"/><path class="cls-25" d="M480.63,647.84c-.23,2.65-.53,5.29-.79,7.94l-.91,7.93c-.62,5.29-1.35,10.56-2,15.84s-1.47,10.54-2.27,15.8l-1.24,7.89c-.45,2.62-.86,5.25-1.35,7.87.22-2.65.53-5.3.79-8l.91-7.93c.62-5.28,1.34-10.56,2-15.83s1.47-10.54,2.28-15.8l1.24-7.89C479.73,653.08,480.14,650.46,480.63,647.84Z"/><path class="cls-25" d="M574.69,586.77c-.35,2.64-.77,5.27-1.15,7.91l-1.26,7.88c-.86,5.25-1.81,10.49-2.72,15.73s-1.94,10.46-3,15.68L565,641.8c-.57,2.6-1.1,5.21-1.7,7.8.34-2.64.76-5.27,1.14-7.9l1.26-7.89c.86-5.25,1.82-10.48,2.72-15.73s1.94-10.46,3-15.68l1.59-7.83C573.56,592,574.09,589.37,574.69,586.77Z"/><path class="cls-25" d="M496.46,487.9c1.54.72,3,1.51,4.56,2.26l4.5,2.37c3,1.58,6,3.24,8.91,4.9s5.87,3.38,8.77,5.14l4.34,2.65c1.42.92,2.87,1.81,4.27,2.76-1.53-.72-3-1.51-4.55-2.26l-4.5-2.37c-3-1.58-6-3.24-8.91-4.9s-5.88-3.38-8.77-5.14l-4.34-2.65C499.32,489.74,497.87,488.85,496.46,487.9Z"/><path class="cls-25" d="M409.67,418.59c1.17-1.23,2.39-2.41,3.58-3.61l3.67-3.52c2.45-2.34,5-4.62,7.47-6.9s5.06-4.51,7.65-6.7l3.88-3.27c1.33-1.06,2.63-2.16,4-3.19-1.17,1.23-2.39,2.41-3.58,3.61l-3.67,3.52c-2.45,2.34-5,4.62-7.47,6.9s-5.06,4.51-7.65,6.69l-3.89,3.28C412.31,416.46,411,417.55,409.67,418.59Z"/><path class="cls-25" d="M545.59,483.51c.77-1.51,1.61-3,2.4-4.48l2.51-4.43c1.67-3,3.42-5.85,5.17-8.75s3.55-5.77,5.41-8.61l2.78-4.25c1-1.4,1.89-2.82,2.89-4.19-.77,1.51-1.6,3-2.4,4.48l-2.51,4.43c-1.67,3-3.42,5.85-5.17,8.75s-3.55,5.77-5.41,8.61l-2.78,4.25C547.52,480.72,546.59,482.14,545.59,483.51Z"/></g><ellipse class="cls-26" cx="554.75" cy="258.93" rx="37.04" ry="101.51" transform="translate(-49.11 158.21) rotate(-15.55)"/><g class="cls-27"><path class="cls-28" d="M530.56,251l.39-.22c.06.1,1.26,7.87,1.3,7.95s3.17-2,3.24-1.87-3.16,10.35-3.09,10.47,3.39-2.08,3.45-2-2.39,9.9-2.31,10,7.83-4.66,7.89-4.55-4.28,11-4.21,11.11,1.28-.76,1.29-.74"/><path class="cls-28" d="M542.47,249.89s2.91-1.76,2.94-1.7,2.71,7,2.75,7.11,2.7-1.71,2.77-1.6,1.19,7.89,1.25,8,4.61-2.8,4.67-2.69-1.55,9.43-1.47,9.55,10.6-6.29,10.67-6.16-5.39,11.62-5.31,11.75,11.56-6.93,11.67-6.73"/><path class="cls-28" d="M513.12,265.72s1.69-1,1.71-1,3.87,6.37,3.92,6.44,2.71-1.72,2.78-1.61,1.11,7.93,1.16,8,4.94-3,5-2.89-1.94,9.66-1.87,9.79,10.92-6.48,11-6.35"/><path class="cls-28" d="M532.84,367.1s1.66-1,1.68-1-4.12,10.93-4.06,11,5.67-3.49,5.77-3.33-9.92,14.17-9.81,14.36,9.4-5.64,9.49-5.48-9,13.62-8.88,13.83,13.43-8,13.52-7.81-9.8,14.11-9.7,14.29,12.73-7.63,12.85-7.41-8.56,13.39-8.45,13.58,10.49-6.42,10.65-6.15-7.89,13.06-7.8,13.2c.18.32,10.77-6.59,10.93-6.31s-11.89,15.21-11.73,15.48,16.22-9.61,16.33-9.43-13.38,16.16-13.26,16.36,17.62-10.53,17.78-10.27"/><path class="cls-28" d="M555.85,331.23c.16.27,16.69-10.13,16.9-9.76.06.11-2.37,9.85-2.27,10s2.26-1.41,2.31-1.33"/><path class="cls-28" d="M551.67,286c0,.07.62-.5.68-.39.19.33-17.34,18.39-17.2,18.63.42.73,35.5-21.39,35.88-20.72s-32.53,26.86-32.26,27.32,29.72-17.65,29.93-17.28-28.64,24.58-28.35,25.08c.41.71,34.39-20.38,34.61-20S539.87,327,540.14,327.48s35.2-21,35.51-20.5S544,333.3,544.29,333.79s34.3-20.75,34.72-20-32.09,26.69-31.86,27.09c.1.16,3.44-2.18,3.52-2s-4.4,11-4.31,11.2,1.93-1.15,1.94-1.12"/><path class="cls-28" d="M575.49,373.9s1.32-.79,1.33-.77c.12.2-7.3,12.73-7.22,12.87s8.91-5.44,9-5.21-16.74,18-16.58,18.26,19.66-11.7,19.81-11.44c.27.47-28.48,24.5-28.2,25s29.79-17.65,30-17.31-36.46,29.09-36.18,29.58,30-18,30.32-17.51c.36.62-29.57,25.16-29.3,25.63.16.27,21.64-13.14,21.92-12.66s-17.09,18.24-16.95,18.48,9.84-6,10-5.77-8.79,13.49-8.66,13.71c0,.06,2.62-1.56,2.64-1.52"/><path class="cls-28" d="M576.25,324.58l.55-.32,3.65,6.6c0,.09.55-.43.6-.35s.45,8.31.5,8.4,3.31-2,3.33-1.92-.42,8.8-.35,8.91,1.37-.81,1.38-.8"/><path class="cls-28" d="M460.12,485s2.72-1.64,2.75-1.59,2.43,7.21,2.47,7.28c.16.26,9.81-6,10-5.74s-6.48,12.23-6.4,12.38,11.06-6.61,11.16-6.44-8.54,13.36-8.42,13.57c.24.41,19-11.27,19.13-11.05s-14.37,16.68-14.23,16.91,22.65-13.55,22.85-13.2S481.83,515.54,482,515.84s24.21-14.68,24.51-14.15S485.77,522,485.93,522.27c.38.66,27.78-16.82,28.12-16.23.25.43-28.14,24.26-27.84,24.78s36.1-21.39,36.34-21c.38.65-32.43,26.88-32.2,27.28.36.62,37.15-22.16,37.46-21.62S497,541.26,497.33,541.8s28.87-17.49,29.23-16.88c.24.42-29.74,25.39-29.53,25.76s23.81-14.17,24-13.85-16.36,17.63-16.13,18,15.81-9.46,16-9.22-9.43,13.81-9.28,14.06,7.94-4.87,8.06-4.65"/><path class="cls-28" d="M532.78,515.78s1-.6,1-.58-.89,9.1-.84,9.19,5.61-3.47,5.71-3.3-7.3,12.69-7.21,12.85,13.39-8,13.5-7.79S529,543.68,529.13,544c.31.54,25.74-15.25,25.91-15S528.76,552.4,529,552.77s30-18,30.3-17.5c.37.63-30.16,25.49-29.89,26s32.25-19.52,32.64-18.84-34,27.77-33.77,28.19c.48.83,36.5-22.06,36.93-21.31.32.55-37.43,29.43-37,30.09S569,555.14,569.3,555.6c.4.7-35,28.34-34.77,28.77s33.39-19.93,33.67-19.44-24.71,22.38-24.46,22.82,22.77-13.81,23.06-13.31c.18.31-21.27,20.62-21.11,20.9s15.3-9.13,15.43-8.91-5.45,11.58-5.33,11.79,4.93-3,5-2.89-1.27,9.24-1.19,9.39.19-.22.24-.14"/><path class="cls-28" d="M450.38,577.24c.05.09,1.51-1,1.58-.92.21.37-19.32,19.51-19.17,19.77.28.48,21.53-13,21.78-12.57S435.7,602.71,435.87,603s19.68-11.7,19.83-11.44-19.72,19.61-19.51,20c.3.52,24.83-14.72,25-14.43s-22.7,21.36-22.51,21.69,25.69-15.37,25.92-15-23.08,21.53-22.87,21.91,24.47-14.84,24.78-14.31-23.44,21.83-23.26,22.13c.34.61,25.27-15.31,25.58-14.77s-28,24.2-27.73,24.72,30.42-18,30.62-17.68c.35.6-29.1,25-28.89,25.37s29.17-17.41,29.42-17-25.12,22.6-24.86,23.06,23.67-14.35,24-13.84-26.87,23.78-26.68,24.12,21.32-12.69,21.48-12.41-16.27,17.59-16,18,16-9.6,16.19-9.35-16.94,18-16.72,18.36,15.83-9.61,16-9.26-16,17.64-15.85,17.87,14.47-8.81,14.66-8.47-13.77,16.19-13.57,16.54,14.14-8.47,14.27-8.24-11.07,14.67-10.89,15,7.9-4.89,8-4.64-8.88,13.55-8.76,13.76,9.84-5.85,9.91-5.73-5.86,11.89-5.77,12,1.32-.9,1.38-.8-2.53,10-2.48,10.12,2.87-1.75,2.91-1.68-3.6,10.59-3.52,10.73,4.2-2.52,4.24-2.45-3.06,10.29-3,10.43,1.84-1.11,1.86-1.07"/><path class="cls-28" d="M534.34,595.87s.58-.35.59-.33,1.66,7.64,1.7,7.71,1.45-1,1.51-.87-.95,9.11-.89,9.21,5.46-3.3,5.52-3.19-5.82,11.84-5.72,12c.19.32,14.61-8.67,14.71-8.49S538.89,627.75,539,628s19.47-11.66,19.65-11.35-17.29,18.29-17.12,18.59,15-9.13,15.19-8.77-14.32,16.68-14.19,16.89,11.79-7.21,12-6.91-14.8,16.84-14.62,17.15,13.25-7.86,13.34-7.7S541,661.38,541.1,661.57s10.17-6.08,10.26-5.93-6.33,12.12-6.22,12.3,4.29-2.69,4.38-2.53-7.7,13-7.62,13.11,1.46-.93,1.5-.87-.94,9.06-.86,9.21,2.9-1.72,2.92-1.68"/><path class="cls-28" d="M535.1,332.7s2.19-1.32,2.21-1.28.39,8.37.43,8.45,2.31-1.38,2.33-1.34.26,8.41.32,8.51,2.39-1.42,2.4-1.4.65,8.2.71,8.3.79-.49.81-.46"/><path class="cls-2" d="M571.69,332.77a1.89,1.89,0,0,1-1.6.35,1.73,1.73,0,0,1-1.06-.79c-.39-.68-.39-.68,1.16-7.18l.12-.49c-1.89,1.11-4.33,2.58-6.22,3.72-7.78,4.7-7.79,4.7-8.65,4.48a1.68,1.68,0,0,1-.43-3.08,2.47,2.47,0,0,1,.42-.17c.81-.4,4.19-2.44,6.93-4.1,9.82-5.92,9.87-5.9,10.8-5.67a1.74,1.74,0,0,1,1,.8c.36.62.36.62-.75,5.29-.18.77-.4,1.68-.6,2.55a1.47,1.47,0,0,1,.34,0,1.71,1.71,0,0,1,1,.79,1.68,1.68,0,0,1-.61,2.29l-.27.13-.73.45C572.26,332.43,572,332.62,571.69,332.77Zm-.35-1.77a1.63,1.63,0,0,0,1.18.81A1.67,1.67,0,0,1,571.34,331Zm-14-.6h0ZM557,330a1.52,1.52,0,0,1,.34.41A1.73,1.73,0,0,0,557,330Zm-9.34,21.25c-.8.46-1.1.54-1.67.39a1.68,1.68,0,0,1-1-.78c-.45-.79-.45-.79,2.2-7.45.11-.29.23-.58.35-.89a1.48,1.48,0,0,1-.69,0,1.7,1.7,0,0,1-1.07-.8c-.77-1.33-.49-1.56,4.11-5.42,2.33-1.94,5.51-4.57,8.91-7.36l6.87-5.67-6.6,3.95c-14.16,8.49-14.16,8.49-15.11,8.25a1.76,1.76,0,0,1-1-.79c-.78-1.37-.48-1.62,4.59-5.9,2.61-2.2,6.15-5.13,9.81-8.16l4.48-3.71-4.33,2.57c-16.67,9.94-16.67,9.94-17.67,9.68a1.67,1.67,0,0,1-1-.79c-.75-1.28.15-2.05,1.78-3.45.94-.81,2.29-1.93,3.93-3.28,3.26-2.67,7.62-6.19,12-9.72l1.55-1.24c-16.74,10-17,9.94-18,9.68a1.75,1.75,0,0,1-1.06-.8c-.78-1.35-.46-1.63,4.8-6.24,2.72-2.39,6.37-5.52,10-8.64l1.19-1c-15.38,9.2-15.54,9.15-16.52,8.9a1.73,1.73,0,0,1-1-.79c-.73-1.27.18-2.08,1.56-3.29.82-.72,2-1.73,3.43-2.93,2.84-2.38,6.67-5.53,10.58-8.75,1.06-.87,2.15-1.78,3.26-2.68-.52.3-1,.61-1.52.91-18.64,11.25-18.83,11.2-19.88,10.94a1.76,1.76,0,0,1-1-.8c-.66-1.15-.37-1.47,2.48-4.52,1.4-1.5,3.3-3.5,5.27-5.59,3-3.13,6.8-7.17,8.55-9.13a1.7,1.7,0,0,1,1-1.36,2.06,2.06,0,0,1,1.69-.53,1.76,1.76,0,0,1,1.15.82c.73,1.26.73,1.26-9.92,12.5l-.48.51c3-1.79,6.41-3.84,9.5-5.71,17.37-10.48,17.5-10.45,18.53-10.18a1.68,1.68,0,0,1,1.05.79c.81,1.41.57,1.61-5.68,6.86-3.24,2.72-7.58,6.3-11.78,9.75l-1.28,1.06,1.71-1c12.74-7.64,12.74-7.64,13.67-7.4a1.67,1.67,0,0,1,1,.79c.78,1.34.48,1.61-4.6,6.06-2.62,2.29-6.14,5.31-9.68,8.35l-3,2.58c2.71-1.61,5.47-3.27,7.85-4.7,13.73-8.23,13.73-8.23,14.66-8a1.72,1.72,0,0,1,1,.79c.74,1.29-.16,2.06-1.8,3.47-1,.82-2.34,2-4,3.33-3.3,2.7-7.71,6.27-12.12,9.83-.62.49-1.24,1-1.87,1.51,18.33-10.92,18.43-10.9,19.43-10.64a1.76,1.76,0,0,1,1,.79c.9,1.57.91,1.58-17.23,16.59,18.27-10.94,18.52-10.88,19.53-10.62a1.78,1.78,0,0,1,1.06.8c.94,1.63.94,1.63-19.61,18.56-3,2.43-6.11,5-8.5,7,.07.6-.37,1.71-2.13,6.13-.59,1.48-1.32,3.32-1.78,4.52l.6,1.23-.67.4Zm-.77-1.51,1-.56Zm6.27-64.52Z"/><g class="cls-29"><path class="cls-28" d="M563.41,288.31c.07.12,4.38-2.74,4.48-2.58"/><path class="cls-28" d="M535.83,293.13c0,.05,3.66-2.21,3.7-2.14.16.29-13.6,16.29-13.49,16.49.42.72,34.49-20.77,34.86-20.12.29.5-30.3,25.6-30,26s15.87-9.45,16-9.23-12.14,15.38-12,15.64,14.76-8.76,14.86-8.58-3,10.28-3,10.4,5.73-3.46,5.79-3.35S556,324.86,556,325s1.88-1.23,2-1.12,4.74,5.87,4.78,5.94,1-.73,1.07-.62"/></g><path class="cls-28" d="M563.71,286c.1.18,9.31-5.71,9.45-5.46"/><path class="cls-28" d="M520.9,286.78c0,.06,4-2.38,4-2.3s.26,8.44.3,8.52c.27.47,21.16-12.78,21.4-12.35s-18.71,19.1-18.54,19.39c.47.82,44.47-26.36,44.76-25.84.39.67-43.13,32.67-42.72,33.37.2.35,15.87-9.41,16-9.22"/><path class="cls-2" d="M565.55,286.9c-1.53.88-1.7.83-2.25.69a1.67,1.67,0,0,1-.43-3.07,1.89,1.89,0,0,1,.36-.16c.53-.28,2.3-1.35,3.73-2.22,5.73-3.48,5.74-3.48,6.61-3.26a1.74,1.74,0,0,1,1,.8A1.67,1.67,0,0,1,574,282a1.72,1.72,0,0,1-.47.19c-.71.35-3.17,1.84-4.82,2.85C567.25,285.88,566.26,286.49,565.55,286.9Zm6.16-5.55a1.68,1.68,0,0,0,.3.38A1.94,1.94,0,0,1,571.71,281.35Zm-6.55,3.78h0Zm-.53-.56a1.67,1.67,0,0,1,.53.56A1.59,1.59,0,0,0,564.63,284.57Zm-31.09,23.12c-3,1.73-3.22,1.67-3.85,1.51a1.72,1.72,0,0,1-1-.79c-.87-1.5-.57-1.74,7.13-7.69,4.11-3.18,9.67-7.4,15.06-11.48l1.58-1.2C529,302,528.72,302,527.66,301.68a1.75,1.75,0,0,1-1-.8c-.68-1.19-.41-1.47,2.9-4.89,1.63-1.7,3.84-3.94,6.08-6.23.59-.6,1.21-1.24,1.85-1.88l-.27.16c-11.33,6.86-11.41,6.84-12.37,6.6a1.79,1.79,0,0,1-1-.8c-.23-.4-.23-.4-.35-4.51,0-.63,0-1.34-.06-2-2.1,1.26-2.16,1.28-2.85,1.1l.42-1.63,1.45-.83-1.45.83-.69-1.52c.21-.1.87-.51,1.59-.93,2.77-1.67,2.77-1.67,3.51-1.48a1.71,1.71,0,0,1,1,.79c.25.43.25.43.4,5.6,0,.35,0,.73,0,1.11,2.23-1.28,5.81-3.45,8.66-5.18,10.57-6.4,10.61-6.39,11.56-6.15a1.68,1.68,0,0,1,1,.79c.74,1.28.74,1.28-10.07,12.29l-1.42,1.46c5.09-3,11.5-6.82,16.87-10,18.78-11.23,18.78-11.23,19.81-11a1.76,1.76,0,0,1,1,.79c.86,1.49.57,1.71-6.85,7.45-3.95,3.05-9.35,7.14-14.57,11.1l-6.35,4.82a1.68,1.68,0,0,1,.41,3.07,1.56,1.56,0,0,1-.33.14c-.66.34-3.39,2-5.82,3.44C537.35,305.44,535.08,306.8,533.54,307.69Zm11.09-8.5a1.7,1.7,0,0,0,.47.52A1.67,1.67,0,0,1,544.63,299.19Z"/><g class="cls-30"><g class="cls-27"><path class="cls-28" d="M556.54,277c.17.29,16.36-10,16.6-9.58s-12.47,15.64-12.36,15.83c.23.4,16.84-10.19,17.05-9.84.1.18-6.82,12.42-6.74,12.58s5.64-3.41,5.71-3.29"/></g><path class="cls-28" d="M547.08,287.91c.1.18,9-5.55,9.19-5.31"/><path class="cls-28" d="M525.83,294.85s1.46-.88,1.48-.85"/><path class="cls-31" d="M524.27,295.3s1.17-.7,1.18-.68c.33.57,40.11-15,40.35-14.59,0,0,1.12-.68,1.13-.66"/><path class="cls-28" d="M551.88,287.15c.07.13,5.29-3.29,5.39-3.11"/><path class="cls-28" d="M527.14,298.55s2.55-1.54,2.58-1.49"/><path class="cls-31" d="M525.37,299.05s1.22-.74,1.24-.71c.38.65,45.75-18.34,46-17.87,0,0,1.32-.79,1.33-.77"/></g><path class="cls-28" d="M490.68,448.82c.07.12,5-3.14,5.14-3"/><path class="cls-28" d="M497.66,348.33c.07.11,3.29-2.1,3.38-1.95.31.54-31.2,26.2-31,26.59.69,1.19,60.14-36.16,60.76-35.08.78,1.34-87.93,57.92-87.27,59.07.88,1.53,88.21-52.21,88.77-51.25.93,1.62-109.81,69.84-108.83,71.54,1.33,2.29,114-67.45,114.68-66.21.81,1.4-112.16,71.61-111.36,73S541,355.87,541.94,357.55c1.22,2.12-112.16,71.35-111.24,72.94.68,1.19,106.42-64.17,107.6-62.13s-106,68.27-105.26,69.47c1.19,2.06,97.69-58.86,98.76-57,.8,1.38-101,64.81-100.07,66.47s93.9-55.6,94.5-54.56c1,1.73-92.55,60.72-91.94,61.78.8,1.39,85.09-50.75,85.79-49.53.62,1.07-81.15,53.83-80.4,55.13S513,415.86,513.82,417.3c.56,1-76.53,51.74-76,52.6s64.93-38.52,65.38-37.74-52.71,37.73-52.1,38.79c.33.57,33.73-20.06,34-19.62.14.25-20.06,19.71-19.81,20.14s12.8-7.8,13-7.49"/><path class="cls-2" d="M492.07,450c-1,.59-1.25.59-1.8.46a1.68,1.68,0,0,1-.43-3.08,1.41,1.41,0,0,1,.31-.14c.34-.19,1.23-.73,1.89-1.14,3.11-1.92,3.36-2.08,4.18-1.87a1.68,1.68,0,0,1,.44,3.08,1.85,1.85,0,0,1-.42.17c-.45.24-1.68,1-2.44,1.47S492.49,449.75,492.07,450Zm2.3-3.3a1.64,1.64,0,0,0,.56.58A1.73,1.73,0,0,1,494.37,446.69ZM492.13,448h0Zm-.77-.69a1.7,1.7,0,0,1,.77.69A1.64,1.64,0,0,0,491.36,447.29Zm-23.78,24.88c-2,1.13-2.16,1.08-2.74.93a1.66,1.66,0,0,1-1-.79C463,471,463,471,475.19,458.9l-4.53,2.7c-18.86,11.28-19,11.25-20,11a1.69,1.69,0,0,1-1-.79c-1.09-1.88-1.08-1.89,29.46-23.86l-5.94,3.53c-34.37,20.44-34.6,20.38-35.75,20.08a1.79,1.79,0,0,1-1.05-.8c-.84-1.46.24-2.24,3.44-4.53,1.84-1.32,4.51-3.19,8.17-5.69,6.79-4.66,15.73-10.7,25.2-17.09l9.89-6.68-8,4.83c-34.18,20.56-34.51,20.48-35.71,20.17a1.77,1.77,0,0,1-1.06-.81c-.9-1.55.35-2.45,4-5.12,2.23-1.61,5.47-3.85,9.89-6.86,8.17-5.55,19.08-12.81,29.63-19.83l1.7-1.13-3.4,2c-42.68,25.52-44.81,26.48-46.2,26.12a1.8,1.8,0,0,1-1.06-.81c-.87-1.5.22-2.26,3.45-4.5,1.86-1.3,4.57-3.13,8.3-5.6,7-4.6,16.45-10.78,26.5-17.31l17.25-11.24-.07,0C436.1,447.9,432.91,449.35,431.36,449a1.83,1.83,0,0,1-1.08-.82c-.95-1.64.41-2.59,4.92-5.75,2.77-1.94,6.78-4.64,12.26-8.24,10.14-6.68,23.7-15.4,36.81-23.83l1-.65c-45.4,27.42-50.8,30.3-52.58,29.84a1.84,1.84,0,0,1-1.1-.83c-.88-1.53.28-2.33,3.75-4.7,2-1.39,5-3.37,9.14-6,7.67-5,18.21-11.7,29.37-18.82,12.35-7.88,26.91-17.15,38.92-25-12,7-26.21,15.55-38.33,22.8-42.69,25.54-42.94,25.47-44.14,25.16a1.72,1.72,0,0,1-1.05-.79c-.93-1.61.53-2.61,4.44-5.3,2.48-1.7,6.1-4.09,11.07-7.3,9.24-6,21.64-13.82,34.75-22.12,9.11-5.76,19-12,28.11-17.83-8.76,5.18-18.13,10.76-26.8,15.92-52.75,31.4-53.1,31.31-54.41,31a1.73,1.73,0,0,1-1.05-.8c-.92-1.59.35-2.45,5.06-5.67,2.82-1.93,6.92-4.63,12.53-8.28,10.28-6.67,24.25-15.59,37.81-24.25C433.27,415,425,419.4,423.14,418.92a1.9,1.9,0,0,1-1.1-.83c-1-1.65.44-2.61,5-5.79,2.84-2,7-4.69,12.59-8.36,10-6.5,23.4-15,36.54-23.4-29.62,17.55-31.79,18.39-33,18.07a1.81,1.81,0,0,1-1.07-.81c-.88-1.52.3-2.35,3.8-4.82,2.08-1.47,5.09-3.52,9.22-6.29,7.68-5.14,17.83-11.81,28.57-18.87l5.77-3.79c-18.34,11-18.76,10.84-19.78,10.58a1.78,1.78,0,0,1-1.07-.81c-.77-1.32-.47-1.57,4.44-5.74,2.51-2.13,5.92-5,9.48-7.95,4.44-3.72,9.94-8.31,13.5-11.38a1.68,1.68,0,0,1,.79-1.85,2.12,2.12,0,0,1,.31-.14,12.88,12.88,0,0,0,1.12-.69c2-1.24,2.37-1.5,3.18-1.3a1.73,1.73,0,0,1,1.06.79c.81,1.41.56,1.62-5.86,7.09-3.34,2.85-7.72,6.51-12,10.05l-1.29,1.08c5.41-3.21,11.68-7,17.34-10.4,29-17.49,29.31-17.42,30.49-17.11a1.75,1.75,0,0,1,1.06.8c.91,1.57-.41,2.51-4.32,5.28-2.39,1.7-5.85,4.07-10.59,7.25-8.75,5.87-20.48,13.58-31.83,21l-7.77,5.11c5.78-3.43,11.62-6.92,16.95-10.1,36.69-21.89,36.87-21.85,38-21.55a1.72,1.72,0,0,1,1,.79c.94,1.63-.4,2.55-4.84,5.62-2.72,1.87-6.67,4.49-12.08,8-10,6.52-23.78,15.27-37.07,23.73-8.31,5.29-17.33,11-25.62,16.35,12.4-7.3,26.62-15.82,38.85-23.15,44.08-26.41,44.33-26.34,45.56-26a1.75,1.75,0,0,1,1,.8c.92,1.59-.36,2.47-5.13,5.72-2.87,2-7,4.71-12.7,8.4-10.54,6.85-24.87,16-38.73,24.84l-7,4.44,3-1.79c58.43-34.78,61.7-36.31,63.23-35.91a1.76,1.76,0,0,1,1.06.81c1,1.66-.48,2.76-5.62,6.35-3.21,2.23-7.86,5.32-14.21,9.45-8.26,5.36-18.39,11.81-28.89,18.47,36.05-21.45,42.38-24.71,44-24.29a1.85,1.85,0,0,1,1.09.82c1,1.76,1.26,2.18-20.91,16.68-9.24,6.05-20.43,13.22-31.89,20.54,39.15-23.64,43.63-26,45.21-25.58a1.84,1.84,0,0,1,1.09.82c.9,1.57-.39,2.47-4.24,5.14-2.35,1.64-5.77,3.92-10.45,7-8.71,5.71-20.26,13.14-32.48,21-6.8,4.37-14.09,9.06-21,13.55,7.25-4.31,14.75-8.79,21.49-12.81,38.71-23.13,38.92-23.07,40.09-22.77a1.71,1.71,0,0,1,1,.8c.92,1.59-.3,2.56-5.11,6-2.88,2.05-7,4.89-12.7,8.66-8.86,5.9-19.92,13.12-31,20.35,40.07-23.95,40.41-23.87,41.64-23.55a1.73,1.73,0,0,1,1,.8c.87,1.5-.32,2.35-3.48,4.61-1.88,1.35-4.62,3.24-8.37,5.78-7,4.72-16.22,10.88-26,17.39l-8.54,5.69c35.68-21.45,37.7-22.31,39.07-22a1.8,1.8,0,0,1,1.08.81c.86,1.49-.22,2.27-3.79,4.84-2.05,1.48-5,3.56-9.08,6.34-7.51,5.16-17.61,12-27.37,18.57l-2.93,2c30.24-18,30.39-17.94,31.48-17.65a1.66,1.66,0,0,1,1,.79c.89,1.54.42,1.88-7.37,7.6-4.28,3.14-10,7.28-16.11,11.65L474,455.69c10.47-6.24,10.58-6.21,11.44-6a1.72,1.72,0,0,1,1,.79c.68,1.18.3,1.56-2.62,4.5-1.47,1.47-3.48,3.45-5.61,5.56L475,463.77c2.77-1.63,3-1.59,3.6-1.42a1.71,1.71,0,0,1,1.05.79,1.68,1.68,0,0,1-.62,2.29,1.78,1.78,0,0,1-.48.19c-.82.4-3.86,2.24-6.11,3.61S468.62,471.57,467.58,472.17Zm9.2-7.35a1.57,1.57,0,0,0,.24.32A1.91,1.91,0,0,1,476.78,464.82Zm21.29-118.11.21.06h0Z"/><g class="cls-32"><g class="cls-33"><path class="cls-28" d="M432.23,437.32s.73-.44.74-.43-.72,9-.67,9.09,3-1.89,3.06-1.76-2.9,10.2-2.83,10.32,6.56-4,6.64-3.83-5,11.35-4.87,11.52,12.94-7.69,13-7.53-9.2,13.77-9.1,13.94,15-9,15.19-8.76-10.81,14.65-10.68,14.87,15.06-9.18,15.27-8.82-12.41,15.61-12.3,15.8c.25.44,17.07-10.38,17.3-10"/></g><g class="cls-33"><path class="cls-28" d="M529.71,331.09s2.46-1.49,2.48-1.44c.15.26-11.66,15.19-11.55,15.38s11.45-7,11.61-6.71-18.1,18.76-17.93,19,19.26-11.46,19.4-11.2c.25.42-24.92,22.51-24.67,22.95.37.64,30.3-17.95,30.5-17.61s-32.65,27-32.4,27.4S543,357.48,543.3,358c.44.75-37,29.29-36.64,29.86s36-21.79,36.45-21-38.07,30-37.8,30.52c.44.77,33.5-20.26,33.9-19.57s-38.69,30.13-38.29,30.81,35.1-20.8,35.33-20.4c.41.71-35.51,28.61-35.26,29.05S532.43,398.49,532.7,399s-28.52,24.5-28.23,25,24.41-14.8,24.71-14.27-28.11,24.47-27.91,24.82,20-11.88,20.12-11.61"/></g></g><path class="cls-28" d="M531.61,335.2s1.26-.76,1.28-.74c.11.19-6.77,12.43-6.69,12.57s6.66-4.09,6.76-3.91-12,15.31-11.82,15.52,13.21-7.89,13.32-7.69-18,18.66-17.83,19,20.37-12.08,20.51-11.84S515.21,379,515.39,379.35s20.1-12,20.29-11.71-20.25,19.95-20.06,20.29,17.92-10.9,18.16-10.49-18.84,19.24-18.69,19.49c.26.46,17.85-10.85,18.09-10.44s-21.85,20.76-21.6,21.18,22.54-13.36,22.69-13.11c.27.48-21.88,20.95-21.72,21.24s22.68-13.54,22.87-13.21-18.72,19-18.51,19.4,20-12.17,20.3-11.72-22.88,21.52-22.71,21.82,20.6-12.27,20.76-12-14.72,16.73-14.51,17.09,18.28-10.91,18.43-10.64-17.94,18.54-17.71,18.93,21-12.73,21.29-12.29-19.62,19.69-19.47,19.95,22.74-13.78,23-13.29c.16.27-20.2,19.76-19.94,20.21s25.63-15.31,25.86-14.93S531.8,465,532.09,465.46c.17.3,18.16-11.06,18.41-10.62s-16.63,17.89-16.45,18.2,10.29-6.12,10.37-6"/><path class="cls-28" d="M464.4,346.36h0c.17.29,21.79-4.16,21.92-3.95h0"/><path class="cls-34" d="M454.2,347.37s2.26-1.36,2.28-1.31,14.54.12,14.62.26,4.35-2.71,4.43-2.56,17.24-1.52,17.35-1.33,3.17-1.95,3.22-1.85,17.71-1.84,17.85-1.6,7.09-4.22,7.14-4.13"/><path class="cls-34" d="M536.14,343.59s2.83-1.7,2.86-1.65c.23.4-21.58,20.79-21.42,21.07s6.82-4.19,6.93-4c.27.46-27.36,24-27.13,24.35.1.19,5.64-3.41,5.7-3.29.26.45-27.05,23.7-26.77,24.17.12.22,9.58-5.7,9.65-5.58"/><path class="cls-34" d="M539.38,346.63s1.51-.91,1.52-.88-5,11.44-4.95,11.56.57-.44.62-.35-5,11.41-5,11.55.59-.41.62-.36-7.42,12.73-7.31,12.92,3.27-1.95,3.3-1.9-7.13,12.6-7,12.75,2.93-1.79,3-1.71-6.25,12.09-6.16,12.26.53-.43.58-.34-5.37,11.64-5.3,11.76.09-.17.15-.08-8.66,13.4-8.53,13.63,4.28-2.54,4.31-2.49c.12.21-5.84,11.9-5.77,12s.95-.59,1-.56"/><path class="cls-34" d="M543.5,357.22s3-1.81,3-1.76-.77,9-.72,9.12,3-1.81,3-1.76-.78,9-.72,9.11,3-1.79,3.05-1.76-.32,8.74-.26,8.85,1.35-.82,1.37-.78,2.13,7.35,2.18,7.43,1-.65,1-.6-.47,8.83-.41,8.94,3-1.82,3-1.76-.78,9-.73,9.11,3-1.81,3.06-1.76-.48,8.82-.41,8.94,2.35-1.4,2.37-1.36.38,8.37.42,8.45,2-1.24,2.06-1.19-.59,8.89-.53,9,3-1.83,3.06-1.77-.78,9.05-.73,9.13,3-1.8,3.06-1.76-.82,9-.73,9.13,3-1.8,3.06-1.77-.82,9-.74,9.14,3-1.83,3.07-1.77"/><path class="cls-28" d="M450.59,344c0,.07.29-.3.34-.2s.47,8.32.52,8.4,4.17-2.6,4.26-2.46"/><path class="cls-28" d="M466,409.5c0,.07.29-.29.34-.19s.47,8.32.52,8.4,4.17-2.6,4.26-2.46"/><path class="cls-34" d="M450,374.09c.05.09,1.59-1.09,1.66-1,.31.54,38-13.76,38.26-13.38S511.8,346.51,512.06,347"/><path class="cls-28" d="M443.43,372.57c0,.07.3-.3.35-.21s.46,8.33.51,8.41,4.17-2.6,4.25-2.45"/><path class="cls-28" d="M499.75,435.44c0,.07.29-.29.34-.19s.47,8.32.52,8.4,4.17-2.6,4.26-2.46"/><path class="cls-28" d="M574.14,449.94c0,.07.28-.29.34-.19s.46,8.32.51,8.4,4.18-2.6,4.26-2.46"/><path class="cls-34" d="M541.79,352s2.52-1.52,2.55-1.47-3.28,10.46-3.22,10.56,3.56-2.13,3.59-2.07-4.33,11-4.26,11.15,3.57-2.11,3.59-2.08-3.87,10.75-3.79,10.9,1.89-1.14,1.91-1.1-1.41,9.37-1.35,9.47,1.55-1,1.58-.92-4,10.85-3.94,11,3.55-2.13,3.59-2.07-4.32,11-4.25,11.16,3.55-2.14,3.59-2.08-4,10.82-3.94,11,2.88-1.71,2.9-1.67-3.16,10.38-3.1,10.48,2.57-1.54,2.6-1.49-4.15,10.88-4.06,11,3.56-2.14,3.59-2.07-4.32,11-4.25,11.16,3.56-2.11,3.59-2.07-4.37,11-4.26,11.17,3.57-2.11,3.59-2.07"/><path class="cls-28" d="M533.28,457.9c0,.07.27-.29.33-.19s.46,8.33.51,8.41,4.18-2.61,4.27-2.47"/><path class="cls-28" d="M531.85,456.46c0,.08,1.16-.82,1.23-.71s-2.26,9.88-2.21,10,8.67-5.29,8.8-5.07"/><path class="cls-34" d="M535.32,454.75s.76-.45.77-.44,6.23,4.93,6.31,5.07l.4-.24"/><path class="cls-34" d="M528.94,457.84s1-.62,1-.6-1.09,9.21-1,9.29.41-.24.41-.23"/><path class="cls-28" d="M572.72,448.49c0,.09,1.16-.82,1.22-.7s-2.25,9.87-2.2,10,8.67-5.29,8.8-5.08"/><path class="cls-34" d="M576.18,446.79s.76-.46.77-.45,6.23,4.93,6.31,5.07l.41-.24"/><path class="cls-34" d="M569.82,449.87s1-.62,1-.61-1.09,9.22-1,9.31l.41-.24"/><path class="cls-28" d="M498.34,434c.05.09,1.15-.82,1.22-.7s-2.26,9.87-2.2,10,8.67-5.29,8.79-5.08"/><path class="cls-34" d="M501.81,432.29s.75-.46.76-.44,6.24,4.92,6.31,5.06.41-.24.41-.23"/><path class="cls-34" d="M495.43,435.38s1-.63,1-.61-1.09,9.22-1,9.3.41-.24.41-.23"/><path class="cls-28" d="M464.62,408.06c0,.08,1.15-.82,1.22-.71s-2.26,9.88-2.2,10c.14.24,8.67-5.29,8.79-5.07"/><path class="cls-34" d="M468.09,406.35s.75-.45.76-.44,6.23,4.93,6.31,5.06.41-.24.41-.23"/><path class="cls-34" d="M461.71,409.44s1-.62,1-.6-1.09,9.21-1,9.3l.41-.24"/><path class="cls-28" d="M442,371.11c.05.09,1.16-.82,1.23-.7s-2.26,9.87-2.21,10,8.67-5.29,8.8-5.08"/><path class="cls-34" d="M445.47,369.41s.77-.46.77-.45,6.24,4.93,6.32,5.07l.4-.24"/><path class="cls-34" d="M439.11,372.49s1-.62,1-.6-1.09,9.21-1,9.3l.4-.23"/><path class="cls-28" d="M449.18,342.5c.05.08,1.15-.82,1.22-.71s-2.26,9.88-2.2,10c.14.24,8.67-5.29,8.79-5.07"/><path class="cls-34" d="M452.64,340.79s.76-.46.77-.44,6.23,4.92,6.31,5.06.41-.24.41-.24"/><path class="cls-34" d="M446.27,343.87s1-.62,1-.6-1.08,9.21-1,9.3.39-.24.4-.23"/><path class="cls-2" d="M513.37,560.68c-1.42.82-1.64.8-2.2.65a1.71,1.71,0,0,1-1.05-.79c-.6-1-.61-1,5.38-9.88l-1,.57c-9.13,5.5-9.15,5.49-10.06,5.25a1.71,1.71,0,0,1-1.05-.79c-.73-1.28-.73-1.28,9.23-12.06l.13-.15-2.24,1.34c-13,7.74-13,7.74-13.93,7.49a1.7,1.7,0,0,1-1-.79c-.71-1.24.16-2,1.47-3.21.76-.69,1.86-1.65,3.19-2.8,2.63-2.28,6.19-5.31,9.79-8.38l2.86-2.44-1.11.67c-13.82,8.34-13.88,8.32-14.86,8.07a1.74,1.74,0,0,1-1.05-.79c-.79-1.38-.33-1.78,5.3-6.65,3-2.6,7-6,10.93-9.31l.79-.67-2.51,1.5C491.09,539.05,491,539,490,538.75a1.71,1.71,0,0,1-1.05-.79c-.77-1.34-.48-1.58,4.3-5.58,2.43-2,5.76-4.77,9.27-7.67l5.18-4.26c-20.62,12.32-20.8,12.28-21.85,12a1.69,1.69,0,0,1-1-.79c-.79-1.37-.36-1.75,5-6.44,2.82-2.5,6.6-5.76,10.25-8.92l.55-.47c-13.82,8.38-14,8.34-15,8.08a1.72,1.72,0,0,1-1.06-.8c-.7-1.2-.25-1.64,2.68-4.52,1.5-1.48,3.56-3.48,5.75-5.6l4.21-4.1-4.49,2.7c-10.16,6.11-10.16,6.11-11,5.88a1.69,1.69,0,0,1-1-.79c-.71-1.23-.71-1.23,8-10.34.77-.79,1.59-1.65,2.41-2.51l-3,1.8c-10.94,6.53-10.94,6.52-11.83,6.29a1.69,1.69,0,0,1-1-.78c-.66-1.15-.66-1.15,7.24-10.33l.95-1.09c-11,6.61-11.12,6.59-12,6.35a1.74,1.74,0,0,1-1-.8c-.57-1-.57-1,4.32-8.65l.57-.89c-5.68,3.44-5.75,3.42-6.58,3.21a1.75,1.75,0,0,1-1.05-.79c-.5-.88-.5-.88,3-7.46l.78-1.46c-5.39,3.29-5.42,3.29-6.27,3.07a1.71,1.71,0,0,1-1.05-.79,35.52,35.52,0,0,1-1.21-3.49c-.23-.68-.49-1.46-.73-2.16-1.36.82-1.58.92-2.25.74l.42-1.62,1.28-.74h0l-1.28.74-.72-1.51,1.06-.62c2-1.17,2.11-1.27,2.83-1.08a1.64,1.64,0,0,1,1,.79,38.24,38.24,0,0,1,1.53,4.39l.45,1.33c1-.58,2.27-1.37,3.33-2,5.21-3.19,5.21-3.19,6.06-3a1.71,1.71,0,0,1,1.05.79c.51.9.51.9-3.35,8.18q-.22.41-.45.84l1.62-1c5.1-3.09,5.11-3.09,5.9-2.89a1.73,1.73,0,0,1,1,.79c.56,1,.56,1-4.17,8.4l-1,1.51c2-1.2,4.3-2.56,6.14-3.67,7.85-4.71,7.85-4.71,8.67-4.5a1.67,1.67,0,0,1,1,.79c.67,1.14.67,1.14-7.34,10.44l-1,1.16,2.36-1.41c12.61-7.52,12.61-7.52,13.57-7.27a1.71,1.71,0,0,1,1,.79c.76,1.31.76,1.31-9.85,12.39l0,0c14.84-8.93,15-8.89,16-8.63a1.68,1.68,0,0,1,1.05.79c.8,1.38.82,1.41-11.94,13.79l3.69-2.24c13.63-8.28,13.74-8.26,14.73-8a1.75,1.75,0,0,1,1.06.8c.76,1.32.38,1.66-4.28,5.76-2.42,2.14-5.7,5-9,7.87L498.49,522l8.23-4.9c15.22-9.1,15.22-9.1,16.17-8.85a1.67,1.67,0,0,1,1,.79c.91,1.56.92,1.59-18.26,17.38l3-1.79c17.61-10.54,17.65-10.53,18.68-10.26a1.72,1.72,0,0,1,1,.79c.77,1.34.47,1.59-4.53,5.9-2.57,2.22-6,5.16-9.59,8.17l-2.93,2.48C525.81,523,526,523,527,523.29a1.75,1.75,0,0,1,1.06.8c.77,1.34.66,1.43-5.16,6.47-2.92,2.53-6.81,5.85-10.65,9.12l-1,.85c9.34-5.56,9.4-5.54,10.24-5.33a1.71,1.71,0,0,1,1,.79c.7,1.2.7,1.2-7.35,9.91-.71.76-1.47,1.59-2.23,2.42,7.52-4.52,7.52-4.52,8.37-4.3a1.74,1.74,0,0,1,1,.78c.56,1,.56,1-3.79,7.38l-1.67,2.47c2.33-1.41,2.52-1.4,3.2-1.23a1.68,1.68,0,0,1,.43,3.08,1.85,1.85,0,0,1-.44.18c-.58.29-2.4,1.41-3.63,2.17C515,559.7,514.05,560.29,513.37,560.68Zm4.81-4.79a1.8,1.8,0,0,0,.44.5A1.78,1.78,0,0,1,518.18,555.89Z"/><g class="cls-35"><g class="cls-33"><path class="cls-28" d="M451.85,483.63c0,.05,3-1.8,3-1.74s1.81,7.56,1.85,7.63c.23.4,17.34-10.49,17.55-10.13s-14.49,16.74-14.35,17c.25.44,21.41-12.74,21.57-12.46s-19.4,19.43-19.2,19.79c.31.54,25.22-14.94,25.38-14.65s-21,20.42-20.83,20.72,24.71-14.79,24.94-14.4-20,19.81-19.82,20.15,22.14-13.44,22.42-12.95-19,19.32-18.85,19.58c.31.53,21.59-13.1,21.87-12.62s-22.19,21-21.95,21.38,25.75-15.26,25.92-15c.27.47-22.3,21.17-22.13,21.46s25.28-15.09,25.49-14.71-16.94,18-16.74,18.37,19.89-12.08,20.15-11.64c.16.28-18.37,19-18.22,19.23s17.21-10.26,17.35-10-7.41,12.66-7.27,12.9,11.64-7,11.76-6.78-7.77,12.88-7.64,13.11,11.12-6.78,11.28-6.51"/></g></g><path class="cls-28" d="M436.89,438.56s1.52-.92,1.53-.89c.13.22-8.93,13.66-8.84,13.81s10.15-6.18,10.29-5.94-13.55,16.2-13.42,16.43,16.16-9.62,16.29-9.4-17.29,18.25-17.1,18.58c.3.51,24.16-14.32,24.32-14S428.7,477.67,428.87,478s26-15.55,26.23-15.14-22,20.95-21.83,21.31,25.16-15.25,25.48-14.71-22.8,21.46-22.62,21.76c.36.63,26.35-16,26.67-15.4S435,499.85,435.33,500.36s32.27-19.12,32.48-18.76c.35.61-29.63,25.31-29.41,25.68.32.56,33.54-20,33.82-19.53S444,512.08,444.3,512.58s32-19.36,32.37-18.69c.27.47-34,27.78-33.75,28.19s33.67-20,33.92-19.58-27.48,23.79-27.14,24.38S482.12,507.6,482.37,508s-32.22,26.46-31.85,27.1,36.12-21.8,36.53-21.1-35.26,28.5-35,28.93c.36.62,38.74-23.41,39.19-22.63.27.45-37.2,29.16-36.76,29.92s42.47-25.35,42.83-24.72c.48.82-38.59,29.85-38.1,30.7.33.57,40.14-24.29,40.62-23.45s-40.37,31.14-40,31.79c.53.92,46.23-27.38,46.52-26.86s-41.37,31.82-41,32.4,41.7-24.82,42-24.26c.51.88-42.05,32.34-41.78,32.81.5.85,47.23-28.06,47.57-27.47s-45.27,33.9-44.86,34.6S504.4,564,504.8,564.67c.27.47-32.6,26.79-32.27,27.35s24.5-15,24.86-14.36c.26.45-25.71,22.9-25.43,23.38.15.26,20.05-11.89,20.19-11.65S477.86,606,478,606.24s3.4-2.24,3.52-2"/><path class="cls-2" d="M458.36,748.61a1.79,1.79,0,0,1-1.59.35,1.68,1.68,0,0,1-1-.78c-.4-.7-.4-.7,1.44-6.89.08-.27.16-.56.25-.84h0c-1.22.7-1.35.66-1.9.52a1.66,1.66,0,0,1-1-.78c-.43-.73-.43-.73,1.7-7,.14-.39.27-.8.41-1.2a1.9,1.9,0,0,1-.45-.07,1.71,1.71,0,0,1-1.05-.79c-.36-.63-.36-.63.79-5.12.28-1.08.62-2.44.91-3.59a1.67,1.67,0,0,1-.6-.61c-.49-.85-.49-.85,2.85-7.62.16-.34.34-.7.51-1.05-5.6,3.37-5.64,3.36-6.46,3.14a1.68,1.68,0,0,1-1-.78c-.57-1-.57-1,4.16-8.21l1-1.51c-2.61,1.59-2.7,1.56-3.39,1.38a1.7,1.7,0,0,1-1.05-.78c-.65-1.13-.65-1.13,5.62-9.43l.78-1-.07,0c-7.81,4.68-7.81,4.68-8.68,4.45a1.66,1.66,0,0,1-1-.78c-.69-1.2-.71-1.22,7.82-11.3-7,4.24-7,4.24-7.87,4a1.66,1.66,0,0,1-1-.79c-.67-1.16-.67-1.16,7.16-9.77l2.16-2.37c-7.53,4.57-7.57,4.56-8.46,4.33a1.69,1.69,0,0,1-1-.79c-.73-1.26-.75-1.29,9.4-12.13-6.9,4.15-7,4.12-7.83,3.91a1.7,1.7,0,0,1-1-.79c-.74-1.28-.74-1.28,9.17-12l.09-.1-1.06.64c-11.66,7-11.67,7-12.6,6.71a1.69,1.69,0,0,1-1-.79c-.7-1.21.16-2,1.34-3.12.69-.64,1.69-1.54,2.89-2.62,2.39-2.14,5.61-5,8.87-7.87.78-.68,1.58-1.4,2.4-2.11-10.76,6.49-10.79,6.48-11.74,6.24a1.73,1.73,0,0,1-1-.79c-.76-1.32-.37-1.69,4.46-6.13,2.53-2.33,5.89-5.36,9.18-8.32l.63-.57-1.1.65c-15.63,9.36-15.69,9.34-16.68,9.08a1.71,1.71,0,0,1-1.05-.79c-.75-1.31-.49-1.53,3.88-5.32,2.19-1.89,5.18-4.44,8.34-7.14l4.59-3.92c-16.36,9.77-16.52,9.73-17.49,9.48a1.79,1.79,0,0,1-1.05-.8c-.78-1.36-.35-1.74,4.95-6.43,2.81-2.49,6.58-5.74,10.21-8.89l.42-.36c-11.26,6.82-11.43,6.78-12.38,6.54a1.73,1.73,0,0,1-1-.8c-.72-1.24-.36-1.57,3-4.75,1.7-1.59,4-3.74,6.51-6l4.7-4.34-3.58,2.14c-10.26,6.17-10.26,6.17-11.14,5.94a1.74,1.74,0,0,1-1-.78c-.72-1.27-.34-1.63,3.38-5.15,1.9-1.8,4.49-4.2,7.16-6.68l3.11-2.89-2.42,1.44c-12.33,7.36-12.33,7.36-13.25,7.12a1.67,1.67,0,0,1-1-.79c-.72-1.24-.47-1.49,3.73-5.5,2.11-2,4.93-4.67,7.76-7.33l1.22-1.15c-13,7.81-13.2,7.77-14.15,7.52a1.69,1.69,0,0,1-1-.79c-.75-1.3-.75-1.3,10.19-12.2l.9-.89c-9.36,5.61-9.48,5.58-10.36,5.35a1.71,1.71,0,0,1-1.05-.79c-.68-1.19-.34-1.54,2.92-4.91,1.65-1.7,3.88-4,6.14-6.26l1.86-1.89L445,591c-11.51,7-11.6,7-12.56,6.71a1.74,1.74,0,0,1-1.05-.79c-.68-1.18-.35-1.52,2.78-4.71,1.55-1.59,3.67-3.71,5.87-5.93,2.91-2.92,6.56-6.58,8.72-8.84a1.71,1.71,0,0,1,1.08-1.78l.35-.23c.87-.59,1.4-.94,2.19-.76a1.72,1.72,0,0,1,1.08.8c.76,1.31.76,1.31-11,13.18l0,0,.88-.53C454,581.64,454,581.64,455,581.89a1.71,1.71,0,0,1,1,.79c.74,1.29.74,1.29-10.15,12.34l-.81.82,1.57-1c8.63-5.18,8.63-5.18,9.48-5a1.66,1.66,0,0,1,1,.79c.74,1.29.74,1.29-9.85,11.83l-1.93,1.91c1.84-1.09,3.69-2.2,5.3-3.17,10.07-6,10.07-6,10.93-5.82a1.71,1.71,0,0,1,1,.79c.72,1.25.56,1.41-3.78,5.55-2.13,2-5,4.73-7.84,7.42l-1.34,1.25.11-.06C464,601.93,464,601.94,465,602.19a1.7,1.7,0,0,1,1,.79c.82,1.42.82,1.43-12.74,14,12.49-7.5,12.66-7.45,13.6-7.21a1.73,1.73,0,0,1,1.05.8c.82,1.43.85,1.46-13.22,14.44l.95-.58c12.47-7.57,12.55-7.55,13.54-7.3a1.75,1.75,0,0,1,1,.8c.76,1.32.38,1.65-4.26,5.75-2.42,2.13-5.68,4.95-9,7.84l-3.4,3,4.68-2.79c13-7.74,13-7.74,13.86-7.51a1.71,1.71,0,0,1,1,.79c.87,1.51.89,1.54-16.29,16.19l.51-.3c14.28-8.54,14.28-8.54,15.27-8.29a1.66,1.66,0,0,1,1,.79c.74,1.28.4,1.6-3.82,5.47-2.16,2-5.07,4.61-8.06,7.3l-2.43,2.2c11.3-6.82,11.43-6.78,12.36-6.54a1.68,1.68,0,0,1,1.05.79c.76,1.31.56,1.49-4.66,6.17-2.63,2.36-6.14,5.47-9.6,8.52l-.94.83c8.08-4.82,8.15-4.8,9-4.59a1.67,1.67,0,0,1,1,.79c.69,1.2.69,1.2-7.31,9.88l-2.23,2.43.12-.07c7.69-4.63,7.68-4.63,8.54-4.41a1.71,1.71,0,0,1,1,.79c.68,1.17.68,1.17-6.93,9.3l-2.92,3.12c7.18-4.35,7.24-4.33,8.12-4.11a1.74,1.74,0,0,1,1,.8c.71,1.22.71,1.22-9,11.88,5.82-3.52,5.94-3.49,6.75-3.28a1.69,1.69,0,0,1,1,.79c.64,1.11.64,1.11-5.67,8.58l-2.41,2.85c6.91-4.13,6.92-4.13,7.75-3.92a1.71,1.71,0,0,1,1,.79c.65,1.12.65,1.12-5.5,9.26l-.77,1c1.54-.88,1.8-.87,2.37-.72a1.71,1.71,0,0,1,1,.79c.59,1,.59,1-4.7,9.07l-.46.71.12-.08c4.4-2.64,4.4-2.65,5.16-2.45a1.64,1.64,0,0,1,1,.79c.49.84.49.84-2.82,7.57-.54,1.09-1.17,2.38-1.7,3.47a1.37,1.37,0,0,1,.13.2c.4.69.4.69-1.35,7.5l0,.12a1.45,1.45,0,0,1,.77,0,1.63,1.63,0,0,1,1,.79c.42.71.42.71-1.55,6.49l-.48,1.41c1.05-.59,1.2-.55,1.72-.42a1.68,1.68,0,0,1,1,.79c.4.68.4.68-1.23,6.18-.41,1.37-.92,3.09-1.24,4.21l.61,1.32c-.14.07-.49.29-.84.49ZM451,575.68a1.7,1.7,0,0,1,.85.72A1.66,1.66,0,0,0,451,575.68Z"/><g class="cls-36"><path class="cls-28" d="M435.3,656.36l.55-.32c.07.11.51,8.3.56,8.38s1.15-.79,1.21-.7-1.83,9.6-1.77,9.71,4.89-3,4.95-2.86-6.43,12.18-6.33,12.36,13.77-8.17,13.87-8-13.2,16-13.08,16.24,18.37-11,18.54-10.71-17.35,18.33-17.18,18.63,20.87-12.67,21.14-12.21-21.48,20.72-21.32,21c.35.61,25.38-15.38,25.69-14.83s-29.84,25.21-29.53,25.75,34.63-20.51,34.86-20.12c.4.7-35.07,28.37-34.82,28.8.37.64,39.21-23.4,39.54-22.83s-37.05,29.25-36.68,29.88S472.43,712.2,472.87,713c.32.57-42.07,32.34-41.78,32.84s37-22,37.25-21.51-33.93,27.35-33.52,28.06,34.09-20.27,34.34-19.83-37,29.1-36.56,29.82,36.14-21.8,36.55-21.1-38.33,30.23-38.07,30.69,37.12-22.43,37.55-21.68c.27.47-38.61,29.94-38.15,30.73.37.63,39.19-23.4,39.52-22.82"/></g><path class="cls-28" d="M545.58,248.09s.42-.27.43-.25,3.3,6.64,3.36,6.75,5.37-3.21,5.42-3.13-1.43,9.35-1.35,9.48,10.95-6.67,11.1-6.41c.05.1-2.1,9.76-2,9.87s1.63-1.07,1.69-1"/><path class="cls-28" d="M554.7,221.27s1.54-.91,1.55-.89"/><path class="cls-28" d="M533.43,222.71s1.36-.82,1.38-.79,6.49,4.77,6.57,4.91,6.65-4.07,6.75-3.9-4.5,11.15-4.44,11.26c.16.26,12.06-7.29,12.2-7s-9.17,13.79-9.08,13.95,14.74-8.86,14.89-8.6-9.36,13.9-9.26,14.06,10.65-6.4,10.76-6.21"/><path class="cls-28" d="M539.51,196.17s2.57-1.55,2.6-1.5c.12.21-8.36,13.33-8.28,13.47s7.63-4.67,7.75-4.47S533.4,216.86,533.5,217s9.87-5.91,10-5.76S539,222.35,539.1,222.5s10.75-6.38,10.83-6.25"/><path class="cls-28" d="M527.19,288.64c0,.05,3.59-2.17,3.63-2.1"/><path class="cls-28" d="M533.08,301.81c0,.05,3.64-2.19,3.68-2.12"/><path class="cls-28" d="M543,294.87s2.84-1.71,2.87-1.65"/><path class="cls-28" d="M537.68,286.41s2.88-1.73,2.91-1.68"/><path class="cls-28" d="M524.13,250.69l.41-.24"/><path class="cls-28" d="M510.45,249.55s.25-.16.25-.15,4.25,6.08,4.33,6.21,4.52-2.81,4.6-2.66.53,8.29.57,8.37,3.93-2.45,4-2.31-3.22,10.42-3.15,10.53,4.26-2.58,4.31-2.49.33,8.41.37,8.49,1-.59,1-.57"/><path class="cls-28" d="M507.35,238.07l.27-.16c.06.1,4.56,6,4.6,6s1.13-.77,1.19-.68,1.66,7.62,1.71,7.7,3-1.84,3-1.75"/><path class="cls-28" d="M585.85,338.17s2.52-1.51,2.54-1.46-6.82,12.46-6.74,12.59,7.73-4.73,7.85-4.53-8.2,13.2-8.1,13.37,9.81-5.88,9.9-5.72-11.59,15.07-11.45,15.32,17.49-10.38,17.61-10.17-13.87,16.4-13.74,16.62,17.61-10.54,17.78-10.26S590,379,590.13,379.2s3-1.9,3-1.76"/><path class="cls-2" d="M563.52,265.76a1.74,1.74,0,0,1-1.41.27,1.69,1.69,0,0,1-1.06-.79c-.35-.62-.35-.62.87-6.34.09-.38.17-.78.26-1.18-1.12.67-2.38,1.42-3.39,2-5,3-5,3-5.77,2.8a1.66,1.66,0,0,1-1-.78c-.33-.58-.33-.58.44-5.62.07-.47.15-1,.23-1.51-2.92,1.77-3,1.75-3.7,1.57a1.73,1.73,0,0,1-1-.79c0-.08-.06-.1-1.81-3.63l-1.05-2.12a1.68,1.68,0,0,1-.19-3.11l0,0a1.81,1.81,0,0,1,1.49-.34,1.67,1.67,0,0,1,1.06.79c0,.08,0,.1,1.65,3.31l1,2,1.5-.9c2.87-1.74,2.87-1.74,3.61-1.55a1.69,1.69,0,0,1,1,.79c.34.58.34.58-.5,6-.06.36-.11.74-.17,1.12l1.49-.9c7-4.22,7-4.21,7.88-4a1.75,1.75,0,0,1,1,.79c.35.61.35.61-.79,5.92l-.48,2.23a1.74,1.74,0,0,1,.92.75,1.68,1.68,0,0,1-.61,2.29,2.52,2.52,0,0,1-.34.15l-.61.38Zm-.72-1.39a1.62,1.62,0,0,0,.38.4,1.82,1.82,0,0,1-.38-.4ZM547,247.25h0Zm8.81-24.7a1.76,1.76,0,0,1-1.56.34l.42-1.62,1.55-.89.73,1.51c-.13.06-.46.26-.76.44Zm.41-2.17-1.55.89-.76-1.49.56-.33c1.16-.68,1.47-.87,2.17-.69Zm-1.51,26.85c-2,1.15-2.15,1.1-2.72,1a1.66,1.66,0,0,1-1-.78c-.57-1-.57-1,4.44-8.41l1.08-1.61-2,1.2c-7.28,4.36-7.28,4.36-8.11,4.15a1.71,1.71,0,0,1-1-.79c-.56-1-.56-1,3.9-7.65l1.5-2.24c-6.6,4-6.6,4-7.47,3.76a1.71,1.71,0,0,1-1-.79c-.43-.75-.43-.75,1.78-6.2l.81-2c-2.83,1.73-3.09,1.83-3.85,1.63a1.66,1.66,0,0,1-.76-.41c-.35-.29-2.38-1.79-3.74-2.79l-1.8-1.33a1.9,1.9,0,0,1-1.67.4l.39-1.5,0-.07,1.52-.88-1.45.83-.76-1.49c.09,0,.29-.16.5-.29,1-.61,1.36-.82,2.06-.63a1.5,1.5,0,0,1,.69.37c.25.19,1.47,1.1,2.55,1.89,1.53,1.13,2.5,1.84,3.11,2.31.73-.42,1.8-1.08,2.6-1.57,3.42-2.11,3.55-2.2,4.36-2a1.66,1.66,0,0,1,1,.79c.47.81.47.81-2.46,8,0,.11-.09.22-.13.34l2.16-1.31c6.29-3.81,6.29-3.81,7.15-3.59a1.72,1.72,0,0,1,1,.79c.6,1,.6,1-5.29,9.83l.73-.43c8.45-5.06,8.45-5.06,9.33-4.83a1.66,1.66,0,0,1,1,.79c.58,1,.58,1-4.95,9.19l-.46.68c5.06-3,5.09-3,5.87-2.82a1.68,1.68,0,0,1,.43,3.08,1.8,1.8,0,0,1-.38.16c-.65.33-3.14,1.82-5,2.93S555.63,246.72,554.74,247.23Zm7-6a1.56,1.56,0,0,0,.41.47A1.85,1.85,0,0,1,561.75,241.19Zm-19.39-15.71a2.6,2.6,0,0,1,.28.26A1.37,1.37,0,0,0,542.36,225.48Zm-.66-2.42c-2.22,1.28-2.41,1.23-3,1.07a1.66,1.66,0,0,1-1-.79c-.46-.78-.46-.78,2.12-7.18l.41-1c-6.2,3.75-6.21,3.75-7.08,3.52a1.71,1.71,0,0,1-1.05-.79c-.55-1-.55-1,3.83-8l.87-1.4c-2.39,1.44-2.63,1.48-3.32,1.3a1.71,1.71,0,0,1-1-.79c-.54-.94-.54-.94,3.65-7.6,1.1-1.74,2.45-3.88,3.39-5.4l-.63-1.32c.15-.08.56-.33,1-.6,1.83-1.09,2-1.2,2.74-1a1.73,1.73,0,0,1,1,.79c.57,1,.57,1-4.69,9.34a.57.57,0,0,0-.08.13c2.34-1.43,2.51-1.43,3.19-1.26a1.73,1.73,0,0,1,1,.8c.56,1,.56,1-4.3,8.79l-.46.74.21-.13c4.61-2.79,4.61-2.79,5.4-2.59a1.67,1.67,0,0,1,1,.79c.45.78.45.78-2,7-.17.44-.36.91-.55,1.39l2.56-1.54c4.7-2.83,4.7-2.83,5.47-2.63a1.66,1.66,0,0,1,1,.78,1.68,1.68,0,0,1-.61,2.29,1.51,1.51,0,0,1-.29.13c-.49.26-2.36,1.39-3.87,2.3C544.32,221.51,542.77,222.44,541.7,223.06Zm-1-27.56.3-.17Z"/><g class="cls-37"><g class="cls-33"><path class="cls-28" d="M542,193s1.15-.69,1.16-.67-1.31,9.34-1.26,9.43,5.91-3.64,6-3.47-5.92,11.92-5.84,12.06,9.15-5.48,9.24-5.33-8.52,13.35-8.4,13.56,16-9.52,16.16-9.33-11.32,15-11.21,15.16,16.73-10,16.88-9.75-11.48,15-11.35,15.26,15.32-9.33,15.53-9-11.66,15.19-11.55,15.37c.24.42,15.93-9.69,16.14-9.32s-12.29,15.44-12.13,15.72,17.56-10.42,17.68-10.21c.22.38-16.61,18-16.47,18.2,0,.06,2.83-1.71,2.86-1.65"/></g></g><path class="cls-28" d="M415.49,433.25c.07.13,3.9-2.47,4-2.3.19.33-16.93,18.16-16.8,18.4.24.41,18-10.9,18.23-10.53s-19.62,19.62-19.44,19.92c.08.15,3.78-2.31,3.83-2.21s-5.94,11.9-5.84,12.08,10.19-6.06,10.27-5.93-8.77,13.52-8.67,13.69,11.26-6.75,11.37-6.56-5.8,11.84-5.71,12,7.48-4.61,7.61-4.39-2.85,10.2-2.79,10.31,5-3.13,5.11-3-6.74,12.34-6.63,12.54,4.59-2.73,4.63-2.67"/><path class="cls-28" d="M468,753.68s2.26-1.37,2.29-1.32-3.13,10.37-3.07,10.47,3-1.82,3.07-1.77"/><path class="cls-28" d="M552.84,695.25s2.27-1.36,2.29-1.32-1.28,9.33-1.23,9.42,1.22-.74,1.23-.72"/><path class="cls-28" d="M562,307.45c0,.05,3.07-1.84,3.1-1.78"/><path class="cls-2" d="M411.69,498.32c-1.38.8-1.52.76-2.09.61a1.66,1.66,0,0,1-1-.78c-.53-.92-.53-.92,3.52-8.35q.17-.29.33-.6a1.73,1.73,0,0,1-2.33-.64c-.38-.65-.38-.65,1-5.35l.67-2.41-1.09.67c-3.54,2.16-3.54,2.16-4.31,2a1.68,1.68,0,0,1-1-.78c-.49-.85-.49-.85,2.5-6.93l.92-1.86-1.52.91c-5.74,3.43-5.74,3.43-6.53,3.23a1.71,1.71,0,0,1-1-.79c-.56-1-.56-1,4.35-8.55l.67-1c-4.71,2.83-4.8,2.81-5.58,2.6a1.66,1.66,0,0,1-1-.79c-.5-.86-.5-.86,2.93-7.73.2-.42.41-.85.63-1.28a1.49,1.49,0,0,1-.5-.06,1.68,1.68,0,0,1-1.05-.79c-.7-1.2-.42-1.49,3-5,1.72-1.74,4-4,6.39-6.39.57-.58,1.17-1.18,1.79-1.79-8,4.82-8.07,4.8-9,4.57a1.71,1.71,0,0,1-1-.79c-.66-1.14-.36-1.46,2.42-4.48,1.37-1.48,3.22-3.46,5.15-5.52,1.72-1.83,3.73-4,5.44-5.82a1.31,1.31,0,0,1-.2-.28,1.67,1.67,0,0,1,.61-2.29l.32-.14c.27-.15.9-.55,1.38-.85,2.35-1.47,2.71-1.7,3.53-1.49a1.71,1.71,0,0,1,1.05.79c.73,1.26.73,1.26-9.68,12.37h0c9.1-5.52,9.12-5.52,10.05-5.28a1.74,1.74,0,0,1,1,.8c.75,1.29.75,1.29-10.56,12.58l-5.08,5.08,0,0c.5.86.5.86-2.82,7.51-.21.43-.44.88-.67,1.34l1.64-1c4.48-2.7,4.48-2.7,5.24-2.5a1.68,1.68,0,0,1,1,.78c.56,1,.56,1-4.41,8.64l-.66,1C412,468,412,468,412.84,468.18a1.73,1.73,0,0,1,1,.79c.51.89.51.89-3.1,8.23l-.18.36c3.22-1.94,3.4-2,4.13-1.77a1.71,1.71,0,0,1,1,.79c.41.72.41.72-1.52,7.54a.64.64,0,0,1,0,.07c1.8-1.11,2.1-1.22,2.8-1.05a1.68,1.68,0,0,1,1.06.8c.52.89.52.89-3.07,7.47l-.89,1.62a1.2,1.2,0,0,1,.93,0l-.42,1.62-1.45.84,1.45-.84.69,1.52c-.18.09-1,.61-1.73,1ZM416,431.67a1.54,1.54,0,0,1,.48.24h0A1.54,1.54,0,0,0,416,431.67Z"/><g class="cls-24"><path class="cls-38" d="M432.49,521.66l.08,0c.06.11,2.32,7.26,2.37,7.34s.55-.34.56-.33,1.93,7.47,2,7.55.85-.5.86-.49,1.72,7.57,1.78,7.67,1-.56,1-.55,1.71,7.6,1.76,7.68.89-.54.9-.52,1.84,7.51,1.9,7.61l.68-.4c.08.13,2.16,7.35,2.2,7.43l.29-.17"/><path class="cls-38" d="M480.34,649.63l.1,0c.07.13-1.74,9.58-1.69,9.67s.7-.42.71-.41-2.22,9.83-2.16,9.94,1-.62,1.05-.61-2.47,10-2.4,10.09,1.18-.69,1.19-.68-2.48,10-2.41,10.08,1.08-.65,1.09-.63-2.32,9.88-2.25,10,.84-.5.85-.49c.1.17-1.93,9.69-1.88,9.78s.34-.2.34-.19"/><path class="cls-38" d="M574.31,588.59l.1-.06c.08.14-2.24,9.88-2.19,10s.74-.44.75-.43-2.75,10.12-2.68,10.24,1.09-.65,1.1-.64-3,10.27-2.94,10.41,1.24-.74,1.25-.72-3,10.27-2.94,10.38,1.11-.66,1.12-.64-2.79,10.14-2.72,10.27.79-.47.8-.46c.1.17-2.32,9.91-2.26,10l.19-.11"/><path class="cls-38" d="M497.65,488.64l.12-.07c.07.11,7.08,4.51,7.13,4.59s.82-.5.83-.48,6.57,4.78,6.62,4.87,1.08-.65,1.09-.63,6.5,4.81,6.56,4.91,1-.57,1-.56,6.84,4.63,6.89,4.72l.43-.25"/><path class="cls-38" d="M435.39,395.08s1.9-1.15,1.92-1.11"/><path class="cls-38" d="M565.39,450.8s.38-.23.39-.22c.13.22-9.44,13.93-9.34,14.09s1.93-1.16,1.95-1.12c.12.22-9.79,14.08-9.68,14.27,0,0,1.14-.67,1.15-.66"/></g></g><rect class="cls-1" width="1440.98" height="902.44"/></g></g></g></svg>