<svg xmlns="http://www.w3.org/2000/svg" viewBox="0 0 1440.98 902.44"><defs><style>.cls-1{fill:#c37d2c;}.cls-2{fill:none;}</style></defs><g id="Layer_2" data-name="Layer 2"><g id="Layer_1-2" data-name="Layer 1"><path class="cls-1" d="M276.41,427.94l14.52,13.41.71.28a1.13,1.13,0,0,0,.74-.31l6-6A21,21,0,0,1,328.08,465l-6,6a1.12,1.12,0,0,0,0,1.45L335.5,487,321,500.43a1.07,1.07,0,0,0,0,1.52l7.15,7.14a21,21,0,0,1,0,29.71,21,21,0,0,1-29.71,0l-7.15-7.14a1.05,1.05,0,0,0-1.51,0L276.3,546.2l-14.52-13.41-.71-.28a1.19,1.19,0,0,0-.74.3l-5.43,5.43a22.36,22.36,0,0,1-15.72,6.54,20.49,20.49,0,0,1-13.52-5A21.09,21.09,0,0,1,218.49,524a20.87,20.87,0,0,1,6.14-14.86l6-6a1.13,1.13,0,0,0,0-1.46l-13.44-14.53,14.54-13.42a1.14,1.14,0,0,0,.34-.74,1.17,1.17,0,0,0-.31-.77l-6.61-6.62c-8.13-8.12-8.77-21-1.47-29.24a21,21,0,0,1,15.79-7.14,20.82,20.82,0,0,1,14.85,6.15l7.15,7.14a1.15,1.15,0,0,0,.74.31,1.12,1.12,0,0,0,.77-.34l13.41-14.51m-.05,29a1.14,1.14,0,0,0,.74-.3l11.74-11.74a1.12,1.12,0,0,0,.31-.77,1.16,1.16,0,0,0-.34-.75l-11.74-10.7-.71-.27a1.12,1.12,0,0,0-.77.34l-10.7,11.75a1.11,1.11,0,0,0,0,1.44l10.7,10.7a1.12,1.12,0,0,0,.74.3m36.86,83.35a16.23,16.23,0,0,0,11.21-4.45,15.71,15.71,0,0,0,4.86-11.36,17.52,17.52,0,0,0-5.07-12.59l-6.67-6.67-3.28-3.3-10.84-10.82-4.66-4.67L277,464.67,272.37,460l-10.82-10.83L251,438.65a16.3,16.3,0,0,0-22.8-.28,15.76,15.76,0,0,0-4.81,11.36,17.5,17.5,0,0,0,5.06,12.53l20.8,20.81,4.69,4.68,21.71,21.72,26,26a16.22,16.22,0,0,0,11.52,4.77m-10.47-56.95a1.15,1.15,0,0,0,.74-.3l11.82-11.82,9.46-9.46a16.32,16.32,0,1,0-23.07-23.08l-9.48,9.48-11.81,11.81a1.13,1.13,0,0,0,0,1.48L302,483a1.19,1.19,0,0,0,.74.3m15.52,15.51.7-.27,11.74-10.71a1.17,1.17,0,0,0,.35-.73,1.09,1.09,0,0,0-.28-.75l-10.71-11.75a1,1,0,0,0-1.52,0L306.8,486.33a1.11,1.11,0,0,0,0,1.48l10.72,10.71a1.12,1.12,0,0,0,.74.3m-84.85,1a1.15,1.15,0,0,0,.74-.31l11.74-11.73a1.1,1.1,0,0,0,0-1.48l-10.7-10.71a1.13,1.13,0,0,0-.74-.31l-.7.28L222,486.3a1.13,1.13,0,0,0-.07,1.48l10.7,11.73a1.12,1.12,0,0,0,.77.34m6.07,40.41A16.25,16.25,0,0,0,251,535.49l6-6,3.41-3.43,11.81-11.79a1.15,1.15,0,0,0,.31-.74,1.11,1.11,0,0,0-.31-.74l-21.6-21.61a1.06,1.06,0,0,0-1.48,0l-11.79,11.81L234,506.36l-6.06,6a16.32,16.32,0,0,0,11.55,27.85m36.86,1.5a1.16,1.16,0,0,0,.77-.34l10.72-11.75a1.11,1.11,0,0,0,0-1.45L277.1,517.53a1.15,1.15,0,0,0-.74-.31,1.13,1.13,0,0,0-.74.31l-11.75,11.72a1.14,1.14,0,0,0-.3.77,1.09,1.09,0,0,0,.34.75l11.73,10.71.71.28m0-115.14-.07,0-14,15.15-.07,0-.06,0L255,434.66a22,22,0,0,0-32,1c-7.75,8.78-6.78,22.27,1.5,30.55l6.62,6.62V473l-15.17,14v.13l14,15.16v.13l-6,6A22,22,0,0,0,225,540.48a21.33,21.33,0,0,0,14.15,5.26,23.27,23.27,0,0,0,16.4-6.82l5.43-5.43.06,0,.06,0,15.16,14,.06,0,.07,0,14-15.15.07,0,.07,0,7.14,7.15a22,22,0,1,0,31.06-31.06l-7.14-7.15v-.13l15.17-14V487l-14-15.17v-.12l6-6a22,22,0,0,0-31.06-31.06l-6,6-.07,0-.06,0-15.15-14Zm0,29.34-.07,0L265.6,445.24v-.13l10.71-11.75.06,0,.07,0,11.73,10.69v.14l-11.75,11.74Zm36.86,83.34a15.27,15.27,0,0,1-10.84-4.49l-26-26-21.72-21.71L250,482.39l-20.81-20.8c-6.12-6.13-6.53-16.55-.26-22.53a15.35,15.35,0,0,1,21.47.26l10.51,10.52,10.82,10.82,4.67,4.69,21.73,21.73,4.66,4.66,10.85,10.83,3.28,3.3,6.67,6.67c6.15,6.15,6.55,16.61.23,22.58A15.31,15.31,0,0,1,313.22,539.3Zm-10.47-56.94-.06,0-21.6-21.58v-.13L292.9,448.8l9.48-9.48a15.36,15.36,0,1,1,21.71,21.74l-9.46,9.46-11.81,11.81Zm15.52,15.51-.07,0-10.72-10.71V487l11.75-11.75.06,0,.07,0L330.08,487v.13l-11.74,10.71Zm-84.85,1-.07,0-10.69-11.72V487l11.75-10.72.06,0,.06,0,10.7,10.7v.13l-11.74,11.74Zm6.07,40.41a15.35,15.35,0,0,1-10.87-26.22l6-6.05,3.43-3.41,11.79-11.81.07,0,.06,0,21.61,21.6v.13l-11.82,11.79-3.4,3.43-6.05,6A15.34,15.34,0,0,1,239.49,539.3Zm36.86,1.5-.06,0-11.74-10.72v-.13l11.74-11.72.07,0,.06,0,10.72,10.69V529l-10.72,11.74Z"/><path class="cls-1" d="M276.26,428.1l14.55,13.43.75.3,0,0h0a1.4,1.4,0,0,0,.9-.37l6-6a20.79,20.79,0,0,1,29.39,29.4l-6,6a1.26,1.26,0,0,0-.35.9,1.27,1.27,0,0,0,.31.85L335.19,487l-14.38,13.27a1.36,1.36,0,0,0-.4.91h.22l-.22,0v0a1.31,1.31,0,0,0,.37.9l7.14,7.15a20.79,20.79,0,1,1-29.39,29.4l-7.15-7.15a1.27,1.27,0,0,0-1.83,0l-13.26,14.35L261.9,532.6l-.75-.3h-.08a1.28,1.28,0,0,0-.89.37l-5.44,5.43a22.17,22.17,0,0,1-15.56,6.47,20.22,20.22,0,0,1-13.37-5,20.8,20.8,0,0,1-1-30.35l6-6a1.33,1.33,0,0,0,0-1.75l-13.29-14.38,14.38-13.27a1.35,1.35,0,0,0,.41-.9v0a1.4,1.4,0,0,0-.37-.9l-6.62-6.62a21.93,21.93,0,0,1-6.48-15.49,20.22,20.22,0,0,1,5-13.46,20.81,20.81,0,0,1,30.32-1l7.14,7.15a1.42,1.42,0,0,0,.9.37,1.35,1.35,0,0,0,.93-.41l13.41-14.52-.32-.29L262.84,442.3a.93.93,0,0,1-.61.27,1,1,0,0,1-.59-.24l-7.14-7.15a21.25,21.25,0,0,0-31,1,20.68,20.68,0,0,0-5.14,13.75,22.37,22.37,0,0,0,6.61,15.8l6.62,6.62a1,1,0,0,1,.24.59v0h0a.93.93,0,0,1-.27.59l-14.7,13.57,13.59,14.69a.84.84,0,0,1,.19.56.82.82,0,0,1-.22.59l-6,6a21.24,21.24,0,0,0,1,31A20.68,20.68,0,0,0,239.18,545a22.61,22.61,0,0,0,15.88-6.6l5.43-5.43a.89.89,0,0,1,.58-.24v-.22l-.08.2.67.26,14.66,13.54,13.55-14.68a.85.85,0,0,1,1.2,0l7.15,7.15a21.22,21.22,0,0,0,30-30l-7.14-7.15a1,1,0,0,1-.25-.59h0a.87.87,0,0,1,.26-.59L335.81,487l-13.58-14.7a.79.79,0,0,1-.2-.55.82.82,0,0,1,.22-.59l6-6a21.22,21.22,0,1,0-30-30l-6,6a1,1,0,0,1-.59.24v.22l.08-.21-.67-.26-14.49-13.39-.3.33Zm.1,29a1.3,1.3,0,0,0,.89-.37L289,445a1.36,1.36,0,0,0,.38-.9h-.15l.15,0v0h-.15l.15,0v0a1.33,1.33,0,0,0-.41-.9l-11.78-10.73-.74-.29h-.08a1.31,1.31,0,0,0-.93.41l-10.71,11.75a1.25,1.25,0,0,0-.3.85,1.28,1.28,0,0,0,.35.9l10.69,10.69a1.31,1.31,0,0,0,.9.37v-.44a.92.92,0,0,1-.59-.24l-10.69-10.69a.91.91,0,0,1,0-1.15l10.7-11.74a.9.9,0,0,1,.61-.27v-.22l-.08.2.67.26,11.71,10.67a1,1,0,0,1,.27.59h.22l-.22,0v.05a.93.93,0,0,1-.25.59l-11.74,11.74a.89.89,0,0,1-.58.24v.44Zm36.86,83.35A16.43,16.43,0,0,0,324.58,536a16,16,0,0,0,4.93-11.52v-.24a17.75,17.75,0,0,0-5.14-12.5L317.71,505l-3.28-3.31-10.84-10.82-4.67-4.66-21.73-21.73-4.67-4.69L261.7,449l-10.51-10.52a16.53,16.53,0,0,0-23.11-.28,16,16,0,0,0-4.88,11.52v.21a17.76,17.76,0,0,0,5.12,12.48l20.81,20.8,4.68,4.69,21.72,21.71,26,26a16.37,16.37,0,0,0,11.67,4.84V540a15.94,15.94,0,0,1-11.36-4.71l-26-26L254.12,487.6l-4.68-4.69-20.81-20.8a17.3,17.3,0,0,1-5-12.17v-.21a15.53,15.53,0,0,1,4.74-11.2,16.1,16.1,0,0,1,22.5.27l10.51,10.52,10.82,10.82,4.67,4.69,21.73,21.73,4.67,4.66L314.12,502l3.28,3.31,6.67,6.67a17.31,17.31,0,0,1,5,12.19v.24a15.5,15.5,0,0,1-4.79,11.2A16,16,0,0,1,313.22,540v.44Zm-10.47-57a1.31,1.31,0,0,0,.9-.37l11.81-11.81,9.46-9.46a16.54,16.54,0,1,0-23.37-23.4L292.07,448l-11.82,11.82a1.29,1.29,0,0,0-.34.89,1.26,1.26,0,0,0,.35.9l21.6,21.58a1.3,1.3,0,0,0,.89.37v-.44a.89.89,0,0,1-.58-.24l-21.6-21.58a.9.9,0,0,1,0-1.17l11.82-11.82,9.48-9.48a16.1,16.1,0,1,1,22.75,22.78L315.15,471l-11.81,11.81a.94.94,0,0,1-.59.24v.44Zm15.6,15.5.7-.28h0L330.86,488a1.33,1.33,0,0,0,.42-.88v-.05a1.41,1.41,0,0,0-.33-.86l-10.72-11.75a1.25,1.25,0,0,0-1.83,0l-11.75,11.76a1.23,1.23,0,0,0-.34.89,1.24,1.24,0,0,0,.34.89l10.72,10.71a1.32,1.32,0,0,0,.9.37v-.44a.92.92,0,0,1-.59-.24L307,487.65a.79.79,0,0,1-.21-.58.84.84,0,0,1,.21-.58l11.75-11.76a.9.9,0,0,1,.58-.25,1,1,0,0,1,.61.27l10.72,11.75a1,1,0,0,1,.22.57v0a1,1,0,0,1-.27.58l-11.72,10.68-.66.26.16.41Zm-84.93,1a1.32,1.32,0,0,0,.9-.37L246.06,488a1.39,1.39,0,0,0,.35-.9,1.34,1.34,0,0,0-.35-.9l-10.69-10.7a1.31,1.31,0,0,0-.9-.37h0l-.74.28,0,0-11.78,10.74a1.31,1.31,0,0,0-.39.94,1.27,1.27,0,0,0,.31.85l10.69,11.72a1.32,1.32,0,0,0,.94.42v-.44a.88.88,0,0,1-.61-.27l-10.7-11.73a.81.81,0,0,1-.19-.55.83.83,0,0,1,.24-.61l11.72-10.69.67-.26-.08-.21v.22a1,1,0,0,1,.59.25l10.69,10.7a.91.91,0,0,1,.22.59,1,1,0,0,1-.22.59L234,499.39a.94.94,0,0,1-.59.24v.44Zm6.07,40.41a16.48,16.48,0,0,0,11.7-4.84l6.05-6,3.4-3.43,11.82-11.78a1.39,1.39,0,0,0,.37-.9,1.31,1.31,0,0,0-.37-.9L250.86,491a1.28,1.28,0,0,0-1.8,0l-11.79,11.81-3.43,3.41-6.05,6.05a16.53,16.53,0,0,0,11.7,28.23V540a16.09,16.09,0,0,1-11.39-27.48l6.05-6,3.43-3.41,11.79-11.81a.82.82,0,0,1,1.18,0l21.6,21.6a.94.94,0,0,1,.24.59.89.89,0,0,1-.24.58l-11.82,11.79-3.4,3.43-6.05,6.05A16,16,0,0,1,239.49,540v.44Zm36.86,1.5a1.34,1.34,0,0,0,.94-.42L288,529.82a1.36,1.36,0,0,0,0-1.75l-10.72-10.7a1.27,1.27,0,0,0-1.79,0L263.72,529.1a1.36,1.36,0,0,0-.38.9v.08l.22-.06h-.22a1.31,1.31,0,0,0,.41.91l11.76,10.74.75.29.16-.41-.67-.26-11.71-10.68a1,1,0,0,1-.27-.6V530l-.18.06h.18v0l-.18.06h.18a.91.91,0,0,1,.25-.59l11.74-11.73a1,1,0,0,1,.59-.24.94.94,0,0,1,.58.24l10.72,10.7a.91.91,0,0,1,0,1.14L277,541.27a1,1,0,0,1-.61.27V542Zm0-115.36-.08-.2-.07,0,0,0-14,15.15h0l.09.2.08-.2h0l-7.12-7.12a22.21,22.21,0,0,0-32.35,1.05,21.56,21.56,0,0,0-5.35,14.34,23.46,23.46,0,0,0,6.86,16.52l6.55,6.55v0h.22l-.15-.16-15.24,14.07v.31l14,15.17v0H230l-.16-.15-6,6a22.2,22.2,0,0,0,1.09,32.39A21.57,21.57,0,0,0,239.18,546a23.49,23.49,0,0,0,16.55-6.88l5.4-5.4h0l-.08-.21-.08.21h0l15.16,14,.1,0,.09,0,.15-.07h0l14-15.16h0l-.09-.2-.08.21h0l7.12,7.11a22.18,22.18,0,1,0,31.37-31.37l-7.08-7.08v0h-.22l.15.16L337,487.23v-.31l-14-15.17v0h-.22l.15.15,6-6a22.18,22.18,0,0,0-31.37-31.37l-6,6h0l.08.2.08-.2h0l-15.16-14-.1,0-.08,0-.08,0,.08.2-.08.21h0l15.15,14,.11,0,.08,0,.14-.06,0,0,6-6a21.74,21.74,0,0,1,30.75,30.74l-6.05,6.05v.31l14,15.16v0h.22l-.15-.16L321.39,501v.32l7.21,7.21a21.74,21.74,0,1,1-30.75,30.75l-7.18-7.18-.11,0-.08,0-.15.07-.05,0-14,15.15h0l.09.2.08-.2h0l-15.16-14-.1,0-.08,0-.15.06h0l-5.46,5.46a23,23,0,0,1-16.24,6.76,21.09,21.09,0,0,1-14-5.2,21.76,21.76,0,0,1-1.07-31.75l6-6.05v-.3l-14-15.17v0h-.22l.15.16,15.24-14.07v-.32l-6.68-6.68a23,23,0,0,1-6.74-16.21,21.11,21.11,0,0,1,5.24-14.05,21.77,21.77,0,0,1,31.71-1L262,442l.11.05.08,0,.16-.06,0,0,14-15.15h0l-.09-.21-.08.21Zm0,29.34.08-.21h0l-10.61-10.6v0h-.22l.17.15,10.67-11.72h0l-.09-.2-.08.21h0L288,444.15v0h.22L288,444,276.3,455.74h0l.09.21.08-.21-.08.21.08.2.06,0h.05l11.84-11.84V444l-11.84-10.78-.1,0-.09,0-.15.07,0,0L265.37,445v.3l10.79,10.79.1,0,.09,0,.08,0Zm36.86,83.34v-.22a15,15,0,0,1-10.68-4.42l-26-26L254.8,486.92l-4.68-4.68-20.81-20.81a16.33,16.33,0,0,1-4.72-11.5A14.66,14.66,0,0,1,229,439.22a15.12,15.12,0,0,1,21.16.26L260.71,450l10.83,10.83,4.66,4.68,21.74,21.74,4.66,4.66,10.84,10.82,3.28,3.3,6.67,6.67a16.36,16.36,0,0,1,4.73,11.52A14.65,14.65,0,0,1,323.63,535a15.11,15.11,0,0,1-10.41,4.12v.44a15.53,15.53,0,0,0,10.71-4.24,15.09,15.09,0,0,0,4.63-11.07,16.79,16.79,0,0,0-4.86-11.83L317,505.71l-3.28-3.3-10.84-10.82-4.66-4.67-21.74-21.73-4.66-4.68L261,449.68l-10.52-10.51a15.55,15.55,0,0,0-21.77-.27,15.11,15.11,0,0,0-4.59,11A16.76,16.76,0,0,0,229,461.74l20.8,20.81,4.69,4.69L276.2,509l26,26a15.56,15.56,0,0,0,11,4.55Zm-10.47-56.94.09-.21h0L281.3,460.66v0h-.21l.15.15L293.05,449l9.49-9.48a15.14,15.14,0,1,1,21.4,21.42l-9.46,9.46L302.7,482.14h0l.08.21.09-.21-.09.21.09.2.06,0h0l11.85-11.85,9.46-9.46a15.58,15.58,0,1,0-22-22l-9.48,9.48-11.87,11.88v.31l21.69,21.68.11,0,.08,0,.09,0Zm15.52,15.51.08-.21h0L307.7,487v0h-.22l.16.16,11.71-11.73h0l-.09-.2-.08.2h0l10.62,11.65v0h.22l-.15-.16-11.71,10.68h0l.08.21.08-.21-.08.21.08.2.06,0,0,0,11.84-10.8v-.31l-10.81-11.85-.11-.05-.09,0-.15.06,0,0-11.84,11.85v.31L318.07,498l.11,0,.08,0,.09,0Zm-84.85,1,.09-.2h0l-10.6-11.63v0h-.22l.15.16,11.72-10.69h0l-.08-.21-.08.2h0L245,487.09v0h.22l-.16-.15-11.71,11.7h0l.08.2.09-.2-.09.2.09.21.06,0,0,0,11.84-11.82v-.32l-10.79-10.8-.1,0-.09,0-.14.06h0l-11.84,10.81v.31l10.79,11.83.11.05.09,0,.09,0Zm6.07,40.41v-.22a15.13,15.13,0,0,1-10.71-25.84l6.05-6.05,3.43-3.41L250,492h0l-.08-.2-.09.2h0l21.51,21.51v0h.22l-.16-.15-11.81,11.79-3.41,3.43-6.05,6a15.11,15.11,0,0,1-10.71,4.42v.44a15.57,15.57,0,0,0,11-4.55l6.05-6.05,3.41-3.43,11.88-11.86v-.31l-21.7-21.7-.1,0-.09,0-.15.07h0L238,503.47l-3.43,3.41-6.05,6a15.57,15.57,0,0,0,11,26.59Zm36.86,1.5.08-.2h0L264.77,530v0h-.22l.15.15,11.72-11.69h0l-.08-.2-.09.2h0L286.92,529v0h.22l-.16-.15-10.69,11.71h0l.09.2.08-.2-.08.2.09.2.07,0h0l10.81-11.85v-.3L276.55,518l-.11,0-.08,0-.15.06,0,0-11.85,11.82v.32L276.17,541l.1,0,.09,0,.08,0Z"/><polyline class="cls-1" points="276.7 427 276.7 411.23 276.36 410.89 276.02 411.23 276.02 427 276.36 427.34 276.7 427"/><polygon class="cls-1" points="276.92 427 276.92 411.14 276.51 410.73 276.36 410.58 275.86 411.07 275.8 411.14 275.8 427.09 276.2 427.5 276.36 427.65 276.85 427.16 276.54 426.85 276.36 427.03 276.24 426.91 276.24 411.32 276.36 411.2 276.48 411.32 276.48 427 276.92 427 276.92 427"/><polyline class="cls-1" points="276.7 562.91 276.7 547.13 276.36 546.79 276.02 547.13 276.02 562.91 276.36 563.25 276.7 562.91"/><polygon class="cls-1" points="276.92 562.91 276.92 547.04 276.51 546.64 276.36 546.48 275.86 546.98 275.8 547.04 275.8 563 276.2 563.4 276.36 563.56 276.85 563.06 276.54 562.75 276.36 562.94 276.24 562.82 276.24 547.23 276.36 547.1 276.48 547.23 276.48 562.91 276.92 562.91 276.92 562.91"/><polyline class="cls-1" points="336.42 487.41 352.2 487.41 352.54 487.07 352.2 486.73 336.42 486.73 336.08 487.07 336.42 487.41"/><polygon class="cls-1" points="336.42 487.63 352.29 487.63 352.69 487.22 352.85 487.07 352.35 486.57 352.29 486.51 336.33 486.51 335.93 486.91 335.77 487.07 336.27 487.56 336.58 487.25 336.39 487.07 336.51 486.95 352.11 486.95 352.23 487.07 352.11 487.19 336.42 487.19 336.42 487.63 336.42 487.63"/><polyline class="cls-1" points="200.52 487.41 216.29 487.41 216.63 487.07 216.29 486.73 200.52 486.73 200.18 487.07 200.52 487.41"/><polygon class="cls-1" points="200.52 487.63 216.38 487.63 216.79 487.22 216.94 487.07 216.45 486.57 216.38 486.51 200.43 486.51 200.02 486.91 199.86 487.07 200.36 487.56 200.67 487.25 200.49 487.07 200.61 486.95 216.2 486.95 216.32 487.07 216.2 487.19 200.52 487.19 200.52 487.63 200.52 487.63"/><rect class="cls-2" width="1440.98" height="902.44"/></g></g></svg>