<svg xmlns="http://www.w3.org/2000/svg" viewBox="0 0 1440.98 902.44"><defs><style>.cls-1{fill:#1f191a;}.cls-2{fill:#fff;}.cls-3{fill:#008d32;}.cls-4{fill:none;}</style></defs><g id="Layer_2" data-name="Layer 2"><g id="Layer_1-2" data-name="Layer 1"><polygon class="cls-1" points="1408.97 641.85 1411.98 638.84 1411.98 637.83 1408.97 634.83 1408.97 641.85"/><polygon class="cls-1" points="1396.68 638.84 1399.69 641.85 1399.69 634.83 1396.68 637.83 1396.68 638.84"/><polygon class="cls-1" points="1408.97 604.35 1411.98 601.34 1411.98 600.33 1408.97 597.33 1408.97 604.35"/><polygon class="cls-1" points="1396.68 601.34 1399.69 604.35 1399.69 597.33 1396.68 600.33 1396.68 601.34"/><rect class="cls-2" x="1398.57" y="595.07" width="11.52" height="11.52" transform="translate(-13.54 1168.99) rotate(-45)"/><rect x="1400.4" y="596.91" width="7.86" height="7.86" transform="translate(2822.19 32.68) rotate(135)"/><rect class="cls-2" x="1398.57" y="632.57" width="11.52" height="11.52" transform="translate(-40.05 1179.97) rotate(-45)"/><rect x="1400.4" y="634.41" width="7.86" height="7.86" transform="translate(2848.71 96.7) rotate(135)"/><rect class="cls-2" x="1398.57" y="557.57" width="11.52" height="11.52" transform="translate(12.98 1158.01) rotate(-45)"/><rect x="1400.4" y="559.41" width="7.86" height="7.86" transform="translate(2795.68 -31.34) rotate(135)"/><circle class="cls-3" cx="1404.33" cy="613.21" r="1.67"/><circle class="cls-3" cx="1404.33" cy="588.46" r="1.67"/><circle class="cls-3" cx="1404.33" cy="650.71" r="1.67"/><circle class="cls-3" cx="1404.33" cy="625.96" r="1.67"/><circle class="cls-3" cx="1404.33" cy="575.71" r="1.67"/><circle class="cls-3" cx="1404.33" cy="550.96" r="1.67"/><polygon class="cls-1" points="1408.97 741.59 1411.98 738.58 1411.98 737.58 1408.97 734.57 1408.97 741.59"/><polygon class="cls-1" points="1396.68 738.58 1399.69 741.59 1399.69 734.57 1396.68 737.58 1396.68 738.58"/><polygon class="cls-1" points="1408.97 704.09 1411.98 701.08 1411.98 700.08 1408.97 697.07 1408.97 704.09"/><polygon class="cls-1" points="1396.68 701.08 1399.69 704.09 1399.69 697.07 1396.68 700.08 1396.68 701.08"/><rect class="cls-2" x="1398.57" y="694.82" width="11.52" height="11.52" transform="translate(-84.07 1198.21) rotate(-45)"/><rect x="1400.4" y="696.65" width="7.86" height="7.86" transform="translate(2892.73 202.96) rotate(135)"/><rect class="cls-2" x="1398.57" y="732.32" width="11.52" height="11.52" transform="translate(-110.58 1209.19) rotate(-45)"/><rect x="1400.4" y="734.15" width="7.86" height="7.86" transform="translate(2919.24 266.97) rotate(135)"/><rect class="cls-2" x="1398.57" y="657.32" width="11.52" height="11.52" transform="translate(-57.55 1187.22) rotate(-45)"/><rect x="1400.4" y="659.15" width="7.86" height="7.86" transform="translate(2866.21 138.94) rotate(135)"/><circle class="cls-3" cx="1404.33" cy="712.95" r="1.67"/><circle class="cls-3" cx="1404.33" cy="688.21" r="1.67"/><circle class="cls-3" cx="1404.33" cy="750.45" r="1.67"/><circle class="cls-3" cx="1404.33" cy="725.71" r="1.67"/><circle class="cls-3" cx="1404.33" cy="675.45" r="1.67"/><circle class="cls-3" cx="1404.33" cy="650.71" r="1.67"/><polygon class="cls-1" points="1408.97 542.1 1411.98 539.09 1411.98 538.09 1408.97 535.08 1408.97 542.1"/><polygon class="cls-1" points="1396.68 539.09 1399.69 542.1 1399.69 535.08 1396.68 538.09 1396.68 539.09"/><polygon class="cls-1" points="1408.97 504.6 1411.98 501.59 1411.98 500.59 1408.97 497.58 1408.97 504.6"/><polygon class="cls-1" points="1396.68 501.59 1399.69 504.6 1399.69 497.58 1396.68 500.59 1396.68 501.59"/><rect class="cls-2" x="1398.57" y="495.33" width="11.52" height="11.52" transform="translate(56.99 1139.78) rotate(-45)"/><rect x="1400.4" y="497.16" width="7.86" height="7.86" transform="translate(2751.66 -137.59) rotate(135)"/><rect class="cls-2" x="1398.57" y="532.83" width="11.52" height="11.52" transform="translate(30.48 1150.76) rotate(-45)"/><rect x="1400.4" y="534.66" width="7.86" height="7.86" transform="translate(2778.18 -73.58) rotate(135)"/><rect class="cls-2" x="1398.57" y="457.83" width="11.52" height="11.52" transform="translate(83.51 1128.79) rotate(-45)"/><rect x="1400.4" y="459.66" width="7.86" height="7.86" transform="translate(2725.15 -201.61) rotate(135)"/><circle class="cls-3" cx="1404.33" cy="513.46" r="1.67"/><circle class="cls-3" cx="1404.33" cy="488.72" r="1.67"/><circle class="cls-3" cx="1404.33" cy="550.96" r="1.67"/><circle class="cls-3" cx="1404.33" cy="526.22" r="1.67"/><circle class="cls-3" cx="1404.33" cy="475.96" r="1.67"/><circle class="cls-3" cx="1404.33" cy="451.22" r="1.67"/><polygon class="cls-1" points="1408.97 442.36 1411.98 439.35 1411.98 438.34 1408.97 435.33 1408.97 442.36"/><polygon class="cls-1" points="1396.68 439.35 1399.69 442.36 1399.69 435.33 1396.68 438.34 1396.68 439.35"/><polygon class="cls-1" points="1408.97 404.86 1411.98 401.85 1411.98 400.84 1408.97 397.83 1408.97 404.86"/><polygon class="cls-1" points="1396.68 401.85 1399.69 404.86 1399.69 397.83 1396.68 400.84 1396.68 401.85"/><rect class="cls-2" x="1398.57" y="395.58" width="11.52" height="11.52" transform="translate(127.52 1110.56) rotate(-45)"/><rect x="1400.4" y="397.42" width="7.86" height="7.86" transform="translate(2681.13 -307.87) rotate(135)"/><rect class="cls-2" x="1398.57" y="433.08" width="11.52" height="11.52" transform="translate(101.01 1121.55) rotate(-45)"/><rect x="1400.4" y="434.92" width="7.86" height="7.86" transform="translate(2707.65 -243.85) rotate(135)"/><rect class="cls-2" x="1398.57" y="358.08" width="11.52" height="11.52" transform="translate(154.04 1099.58) rotate(-45)"/><rect x="1400.4" y="359.92" width="7.86" height="7.86" transform="translate(2654.62 -371.89) rotate(135)"/><circle class="cls-3" cx="1404.33" cy="413.72" r="1.67"/><circle class="cls-3" cx="1404.33" cy="388.97" r="1.67"/><circle class="cls-3" cx="1404.33" cy="451.22" r="1.67"/><circle class="cls-3" cx="1404.33" cy="426.47" r="1.67"/><circle class="cls-3" cx="1404.33" cy="376.22" r="1.67"/><circle class="cls-3" cx="1404.33" cy="351.47" r="1.67"/><polygon class="cls-1" points="1408.97 342.61 1411.98 339.6 1411.98 338.6 1408.97 335.59 1408.97 342.61"/><polygon class="cls-1" points="1396.68 339.6 1399.69 342.61 1399.69 335.59 1396.68 338.6 1396.68 339.6"/><polygon class="cls-1" points="1408.97 305.11 1411.98 302.1 1411.98 301.1 1408.97 298.09 1408.97 305.11"/><polygon class="cls-1" points="1396.68 302.1 1399.69 305.11 1399.69 298.09 1396.68 301.1 1396.68 302.1"/><rect class="cls-2" x="1398.57" y="295.84" width="11.52" height="11.52" transform="translate(198.05 1081.35) rotate(-45)"/><rect x="1400.4" y="297.67" width="7.86" height="7.86" transform="translate(2610.6 -478.14) rotate(135)"/><rect class="cls-2" x="1398.57" y="333.34" width="11.52" height="11.52" transform="translate(171.54 1092.33) rotate(-45)"/><rect x="1400.4" y="335.17" width="7.86" height="7.86" transform="translate(2637.12 -414.13) rotate(135)"/><rect class="cls-2" x="1398.57" y="258.34" width="11.52" height="11.52" transform="translate(224.57 1070.36) rotate(-45)"/><rect x="1400.4" y="260.17" width="7.86" height="7.86" transform="translate(2584.09 -542.16) rotate(135)"/><circle class="cls-3" cx="1404.33" cy="313.97" r="1.67"/><circle class="cls-3" cx="1404.33" cy="289.23" r="1.67"/><circle class="cls-3" cx="1404.33" cy="351.47" r="1.67"/><circle class="cls-3" cx="1404.33" cy="326.73" r="1.67"/><circle class="cls-3" cx="1404.33" cy="276.47" r="1.67"/><circle class="cls-3" cx="1404.33" cy="251.73" r="1.67"/><polygon class="cls-1" points="1408.97 242.87 1411.98 239.86 1411.98 238.85 1408.97 235.85 1408.97 242.87"/><polygon class="cls-1" points="1396.68 239.86 1399.69 242.87 1399.69 235.85 1396.68 238.85 1396.68 239.86"/><polygon class="cls-1" points="1408.97 205.37 1411.98 202.36 1411.98 201.35 1408.97 198.35 1408.97 205.37"/><polygon class="cls-1" points="1396.68 202.36 1399.69 205.37 1399.69 198.35 1396.68 201.35 1396.68 202.36"/><rect class="cls-2" x="1398.57" y="196.09" width="11.52" height="11.52" transform="translate(268.58 1052.13) rotate(-45)"/><rect x="1400.4" y="197.93" width="7.86" height="7.86" transform="translate(2540.07 -648.42) rotate(135)"/><rect class="cls-2" x="1398.57" y="233.59" width="11.52" height="11.52" transform="translate(242.07 1063.12) rotate(-45)"/><rect x="1400.4" y="235.43" width="7.86" height="7.86" transform="translate(2566.59 -584.4) rotate(135)"/><rect class="cls-2" x="1398.57" y="158.59" width="11.52" height="11.52" transform="translate(295.1 1041.15) rotate(-45)"/><rect x="1400.4" y="160.43" width="7.86" height="7.86" transform="translate(2513.56 -712.44) rotate(135)"/><circle class="cls-3" cx="1404.33" cy="214.23" r="1.67"/><circle class="cls-3" cx="1404.33" cy="189.48" r="1.67"/><circle class="cls-3" cx="1404.33" cy="251.73" r="1.67"/><circle class="cls-3" cx="1404.33" cy="226.98" r="1.67"/><circle class="cls-3" cx="1404.33" cy="176.73" r="1.67"/><circle class="cls-3" cx="1404.33" cy="151.98" r="1.67"/><rect class="cls-4" width="1440.98" height="902.44"/></g></g></svg>