<svg xmlns="http://www.w3.org/2000/svg" viewBox="0 0 1440.98 902.44"><defs><style>.cls-1{fill:#957b76;}.cls-2{fill:none;}</style></defs><g id="Layer_2" data-name="Layer 2"><g id="Layer_1-2" data-name="Layer 1"><path class="cls-1" d="M604.93,99.58a8.91,8.91,0,0,1,6.19,6c2.72.53,4.93,1.47,6.19,3.51-3.11-1.6-6.3-3.44-8.38-2,0,0,.78-2.58-.57-4.15A43.38,43.38,0,0,0,604.93,99.58Z"/><path class="cls-1" d="M697.19,85.09a7.36,7.36,0,0,0-5,.54,3.18,3.18,0,0,0-1.13,1l-1.73.15a6.16,6.16,0,0,1,3.8,1.88,28.47,28.47,0,0,1,2.48,4.16s-.08-4.16-1.14-5a11.87,11.87,0,0,0-2-1.25C693.17,85.75,695,85.33,697.19,85.09Z"/><path class="cls-1" d="M882.62,97.82a6.71,6.71,0,0,1,4.84,2.29,7.33,7.33,0,0,0,2.94,1.57l-1.06.25s-.78-.88-3.19-.58a63.15,63.15,0,0,0-6.3,1.35s2.45-1.88,4.14-2,2.1-.18,2.1-.18C886,99.86,884.27,98.83,882.62,97.82Z"/><path class="cls-1" d="M879.52,226.6c1,1.87,1.83,3.65,1.83,3.65l1.61-1.07v2s1.07-1.18,4,.64,3,3,3,3-3.12-2.9-5.26-2.58a14.18,14.18,0,0,0-3.55,1,10.63,10.63,0,0,0-2.27-4.83,11.17,11.17,0,0,0-4.29-3.73S878,223.72,879.52,226.6Z"/><path class="cls-1" d="M886.58,155.67c2.28.74,4.35,1.54,4.35,1.54l.47-2.14,1.6,1.67s0-1.81,3.74-2.59,4.81.09,4.81.09-4.81.08-6.31,2a16.65,16.65,0,0,0-2.13,3.57,12,12,0,0,0-5.64-2.16,12.7,12.7,0,0,0-6.41.34S883.07,154.53,886.58,155.67Z"/><path class="cls-1" d="M500.38,119.36c.41,0,4.33-.24,4.49,0s3.35-1.22,4-.9-2.53,1.15-2.45,2.13a17.15,17.15,0,0,0,1.39,3.59,42.13,42.13,0,0,0-4-2.45A14.12,14.12,0,0,1,500.38,119.36Z"/><path class="cls-1" d="M578.29,166.2c2.61-.76,5.06-1.36,6.75-1.19a4.68,4.68,0,0,1,.76-2.94c1-1.63,2.4-4,2.4-4a12.4,12.4,0,0,0-3.87,5.17A12.67,12.67,0,0,0,578.29,166.2Z"/><path class="cls-1" d="M811.87,108.7c2.41,1.27,4.58,2.54,5.68,3.84a4.68,4.68,0,0,1,2.59-1.58l4.52-1.22a12.49,12.49,0,0,0-6.37,1A12.75,12.75,0,0,0,811.87,108.7Z"/><path class="cls-1" d="M279.87,140.14a8.9,8.9,0,0,1,6.19,6c2.72.54,4.93,1.47,6.19,3.51-3.11-1.59-6.3-3.44-8.38-2,0,0,.79-2.58-.56-4.14A42.64,42.64,0,0,0,279.87,140.14Z"/><path class="cls-1" d="M372.13,125.64a7.43,7.43,0,0,0-5,.54,3,3,0,0,0-1.12,1l-1.74.15a6.12,6.12,0,0,1,3.8,1.87,29.4,29.4,0,0,1,2.49,4.17s-.09-4.17-1.15-5a11.74,11.74,0,0,0-2-1.26C368.12,126.3,369.89,125.88,372.13,125.64Z"/><path class="cls-1" d="M557.56,138.38a6.73,6.73,0,0,1,4.84,2.28,7.26,7.26,0,0,0,2.94,1.58l-1.06.24s-.78-.88-3.19-.57a63.86,63.86,0,0,0-6.3,1.35s2.45-1.88,4.14-2S561,141,561,141C560.93,140.42,559.21,139.39,557.56,138.38Z"/><path class="cls-1" d="M554.47,267.16c1,1.86,1.82,3.65,1.82,3.65l1.61-1.08v2s1.08-1.18,4,.65,3,3,3,3-3.11-2.9-5.26-2.57a14.29,14.29,0,0,0-3.54,1A10.64,10.64,0,0,0,553.8,269a11.19,11.19,0,0,0-4.29-3.72S552.93,264.27,554.47,267.16Z"/><path class="cls-1" d="M561.53,196.22c2.27.74,4.34,1.55,4.34,1.55l.47-2.14,1.6,1.66s-.05-1.8,3.75-2.59,4.8.09,4.8.09-4.81.08-6.3,2a16,16,0,0,0-2.13,3.56,12.14,12.14,0,0,0-5.64-2.15c-4.16-.64-6.42.33-6.42.33S558,195.08,561.53,196.22Z"/><path class="cls-1" d="M175.33,159.92c.4,0,4.32-.25,4.48,0s3.35-1.23,4-.9-2.53,1.14-2.45,2.12a17.73,17.73,0,0,0,1.39,3.59,45.35,45.35,0,0,0-4-2.45A13.69,13.69,0,0,1,175.33,159.92Z"/><path class="cls-1" d="M253.24,206.76c2.6-.76,5.05-1.36,6.74-1.2a4.75,4.75,0,0,1,.77-2.94c1-1.63,2.39-4,2.39-4a12.33,12.33,0,0,0-3.87,5.17A12.64,12.64,0,0,0,253.24,206.76Z"/><path class="cls-1" d="M486.82,149.25c2.4,1.27,4.57,2.55,5.67,3.84a4.7,4.7,0,0,1,2.59-1.57l4.53-1.22a12.3,12.3,0,0,0-6.38,1A12.63,12.63,0,0,0,486.82,149.25Z"/><path class="cls-1" d="M954.77,159.16a8.91,8.91,0,0,1,6.19,6c2.72.53,4.93,1.46,6.18,3.51-3.1-1.6-6.3-3.44-8.37-2,0,0,.78-2.58-.57-4.15A43.38,43.38,0,0,0,954.77,159.16Z"/><path class="cls-1" d="M1047,144.66a7.39,7.39,0,0,0-5,.55,3.07,3.07,0,0,0-1.13,1l-1.73.15a6.12,6.12,0,0,1,3.79,1.88,28,28,0,0,1,2.49,4.16s-.08-4.16-1.14-5a11.87,11.87,0,0,0-2-1.25C1043,145.33,1044.79,144.91,1047,144.66Z"/><path class="cls-1" d="M1232.46,157.4a6.71,6.71,0,0,1,4.84,2.29,7.27,7.27,0,0,0,2.94,1.57l-1.07.24s-.77-.87-3.18-.57a63.15,63.15,0,0,0-6.3,1.35s2.44-1.88,4.14-2,2.1-.18,2.1-.18C1235.83,159.44,1234.1,158.41,1232.46,157.4Z"/><path class="cls-1" d="M1229.36,286.18c1,1.87,1.83,3.65,1.83,3.65l1.61-1.07v2s1.07-1.18,4,.64,3,3,3,3-3.12-2.9-5.26-2.58a14.18,14.18,0,0,0-3.55,1,10.68,10.68,0,0,0-2.27-4.84,11.19,11.19,0,0,0-4.29-3.72S1227.82,283.3,1229.36,286.18Z"/><path class="cls-1" d="M1236.42,215.25c2.28.74,4.35,1.54,4.35,1.54l.47-2.14,1.6,1.66s0-1.8,3.74-2.59,4.81.1,4.81.1-4.81.08-6.31,2a16.65,16.65,0,0,0-2.13,3.57,12,12,0,0,0-5.64-2.16,12.7,12.7,0,0,0-6.41.34S1232.91,214.11,1236.42,215.25Z"/><path class="cls-1" d="M850.22,178.94c.41,0,4.33-.24,4.49,0s3.35-1.22,4-.9-2.53,1.15-2.45,2.13a17.39,17.39,0,0,0,1.39,3.59,42.13,42.13,0,0,0-4-2.45A14.12,14.12,0,0,1,850.22,178.94Z"/><path class="cls-1" d="M928.13,225.78c2.61-.76,5.06-1.36,6.75-1.19a4.68,4.68,0,0,1,.76-2.94c1-1.63,2.4-4,2.4-4a12.4,12.4,0,0,0-3.87,5.17A12.67,12.67,0,0,0,928.13,225.78Z"/><path class="cls-1" d="M1161.71,168.28c2.4,1.27,4.58,2.54,5.68,3.84a4.68,4.68,0,0,1,2.59-1.58l4.52-1.22a12.43,12.43,0,0,0-6.38,1A12.59,12.59,0,0,0,1161.71,168.28Z"/><rect class="cls-2" width="1440.98" height="902.44"/></g></g></svg>