<svg xmlns="http://www.w3.org/2000/svg" viewBox="0 0 1440.98 902.44"><defs><style>.cls-1{opacity:0.35;}.cls-2{fill:#e5e5e6;}.cls-3{fill:none;}</style></defs><g id="Layer_2" data-name="Layer 2"><g id="Layer_1-2" data-name="Layer 1"><g class="cls-1"><path class="cls-2" d="M246.79,119c3.84,0,276.81,10.16,436,11S1015,130,1015,130s-439.06,3.81-558.25,3.38-232.21-7.17-232.21-7.17Z"/><path class="cls-2" d="M250.63,143.52H981.88C857.94,159.3,567,164,233.71,166Z"/><path class="cls-2" d="M657.39,172.3c2.31,0,366.78,14.38,399.85,14.38s174.87-2,174.87-2l-1.6-18.71s-150.2,14-291.69,11.42Z"/><path class="cls-2" d="M218.34,110.51s575.15,8.46,684.34,4.66,143-10.16,143-10.16-106.88,8.69-645.13,0C222.7,102.14,200.65,95.7,200.65,95.7Z"/></g><rect class="cls-3" width="1440.98" height="902.44"/></g></g></svg>