<svg xmlns="http://www.w3.org/2000/svg" viewBox="0 0 1440.98 902.44"><defs><style>.cls-1,.cls-2{fill:none;}.cls-1{stroke:#c37d2c;stroke-linecap:round;stroke-linejoin:round;}</style></defs><g id="Layer_2" data-name="Layer 2"><g id="Layer_1-2" data-name="Layer 1"><path class="cls-1" d="M1323.62,772.92l0,0h-4.64l-4-4.33,1.72-1.72a6.62,6.62,0,1,0-9.36-9.36l-1.72,1.72-4.33-4v-4.64l-.13-.14-.08-.07-.17.18,0,0v4.66l-4,4.32-2.06-2.06a6.55,6.55,0,0,0-4.68-1.94,6.62,6.62,0,0,0-5,2.25,6.42,6.42,0,0,0-1.6,4.28,7,7,0,0,0,2,4.93l1.91,1.9-4.32,4h-4.67l-.13.13-.07.08.17.17.08-.07h0v.11h4.6l4,4.32-1.72,1.72a6.63,6.63,0,0,0,.32,9.67,6.44,6.44,0,0,0,4.27,1.59,7,7,0,0,0,4.94-2.06l1.55-1.55,4.32,4v4.65l.14.13.07.08.18-.18-.07-.08h.1V791l4-4.31,2.06,2.06a6.62,6.62,0,0,0,9.36-9.37l-2.06-2.06,4.32-4h4.66l.14-.14.07-.07ZM1301,755.64Z"/><rect class="cls-2" width="1440.98" height="902.44"/></g></g></svg>