<svg xmlns="http://www.w3.org/2000/svg" xmlns:xlink="http://www.w3.org/1999/xlink" viewBox="0 0 1440.98 902.44"><defs><style>.cls-1{fill:none;}.cls-2{clip-path:url(#clip-path);}.cls-3{fill:#f8eed5;}</style><clipPath id="clip-path"><path class="cls-1" d="M750,194.35a112.52,112.52,0,0,1-58.84,0h0a56.17,56.17,0,0,1-13.76-5.22c-16.83-9.1-24.11-24.46-27.5-31.61a83.56,83.56,0,0,1-7.94-34.8H799a91.74,91.74,0,0,1-8.69,34.8c-4.11,8.63-11,23.11-26.77,31.7A53.11,53.11,0,0,1,750,194.35Z"/></clipPath></defs><g id="Layer_2" data-name="Layer 2"><g id="Layer_1-2" data-name="Layer 1"><path d="M750,194.35a112.51,112.51,0,0,1-58.84,0h0a56,56,0,0,1-13.76-5.22c-16.83-9.1-24.12-24.46-27.51-31.61a83.24,83.24,0,0,1-7.87-32.47,2.25,2.25,0,0,1,2.26-2.33H796.68a2.27,2.27,0,0,1,2.25,2.46,91.55,91.55,0,0,1-8.54,32.34c-4.1,8.63-11,23.11-26.76,31.7A53.25,53.25,0,0,1,750,194.35Z"/><path d="M642.77,117.47H798.21a.83.83,0,0,1,.83.83v1.18a1.56,1.56,0,0,1-1.56,1.56H643.74a1.79,1.79,0,0,1-1.79-1.79v-1a.83.83,0,0,1,.83-.83Z"/><g class="cls-2"><rect class="cls-3" x="627.37" y="148.39" width="14.22" height="0.74" transform="translate(485.72 783.24) rotate(-90)"/><rect class="cls-3" x="629.05" y="148.39" width="14.22" height="0.74" transform="translate(487.4 784.91) rotate(-90)"/><rect class="cls-3" x="630.73" y="148.39" width="14.22" height="0.74" transform="translate(489.08 786.59) rotate(-90)"/><rect class="cls-3" x="632.4" y="148.39" width="14.22" height="0.74" transform="translate(490.76 788.27) rotate(-90)"/><rect class="cls-3" x="634.08" y="148.39" width="14.22" height="0.74" transform="translate(492.44 789.95) rotate(-90)"/><rect class="cls-3" x="635.76" y="148.39" width="14.22" height="0.74" transform="translate(494.12 791.63) rotate(-90)"/><rect class="cls-3" x="637.44" y="148.39" width="14.22" height="0.74" transform="translate(495.79 793.31) rotate(-90)"/><polygon class="cls-3" points="650.64 148.92 654.91 155.87 650.64 155.87 646.38 155.87 650.64 148.92"/><polygon class="cls-3" points="650.64 148.6 646.38 141.65 650.64 141.65 654.91 141.65 650.64 148.6"/><rect class="cls-3" x="649.63" y="148.39" width="14.22" height="0.74" transform="translate(507.98 805.5) rotate(-90)"/><rect class="cls-3" x="651.31" y="148.39" width="14.22" height="0.74" transform="translate(509.66 807.17) rotate(-90)"/><rect class="cls-3" x="652.98" y="148.39" width="14.22" height="0.74" transform="translate(511.34 808.85) rotate(-90)"/><rect class="cls-3" x="654.66" y="148.39" width="14.22" height="0.74" transform="translate(513.02 810.53) rotate(-90)"/><rect class="cls-3" x="656.34" y="148.39" width="14.22" height="0.74" transform="translate(514.7 812.21) rotate(-90)"/><rect class="cls-3" x="658.02" y="148.39" width="14.22" height="0.74" transform="translate(516.37 813.89) rotate(-90)"/><rect class="cls-3" x="659.7" y="148.39" width="14.22" height="0.74" transform="translate(518.05 815.57) rotate(-90)"/><polygon class="cls-3" points="672.9 148.92 677.17 155.87 672.9 155.87 668.64 155.87 672.9 148.92"/><polygon class="cls-3" points="672.9 148.6 668.64 141.65 672.9 141.65 677.17 141.65 672.9 148.6"/><rect class="cls-3" x="671.89" y="148.39" width="14.22" height="0.74" transform="translate(530.24 827.76) rotate(-90)"/><rect class="cls-3" x="673.57" y="148.39" width="14.22" height="0.74" transform="translate(531.92 829.43) rotate(-90)"/><rect class="cls-3" x="675.24" y="148.39" width="14.22" height="0.74" transform="translate(533.6 831.11) rotate(-90)"/><rect class="cls-3" x="676.92" y="148.39" width="14.22" height="0.74" transform="translate(535.28 832.79) rotate(-90)"/><rect class="cls-3" x="678.6" y="148.39" width="14.22" height="0.74" transform="translate(536.96 834.47) rotate(-90)"/><rect class="cls-3" x="680.28" y="148.39" width="14.22" height="0.74" transform="translate(538.63 836.15) rotate(-90)"/><rect class="cls-3" x="681.96" y="148.39" width="14.22" height="0.74" transform="translate(540.31 837.82) rotate(-90)"/><polygon class="cls-3" points="695.16 148.92 699.42 155.87 695.16 155.87 690.9 155.87 695.16 148.92"/><polygon class="cls-3" points="695.16 148.6 690.9 141.65 695.16 141.65 699.42 141.65 695.16 148.6"/><rect class="cls-3" x="694.15" y="148.39" width="14.22" height="0.74" transform="translate(552.5 850.01) rotate(-90)"/><rect class="cls-3" x="695.83" y="148.39" width="14.22" height="0.74" transform="translate(554.18 851.69) rotate(-90)"/><rect class="cls-3" x="697.5" y="148.39" width="14.22" height="0.74" transform="translate(555.86 853.37) rotate(-90)"/><rect class="cls-3" x="699.18" y="148.39" width="14.22" height="0.74" transform="translate(557.54 855.05) rotate(-90)"/><rect class="cls-3" x="700.86" y="148.39" width="14.22" height="0.74" transform="translate(559.22 856.73) rotate(-90)"/><rect class="cls-3" x="702.54" y="148.39" width="14.22" height="0.74" transform="translate(560.89 858.41) rotate(-90)"/><rect class="cls-3" x="704.22" y="148.39" width="14.22" height="0.74" transform="translate(562.57 860.08) rotate(-90)"/><polygon class="cls-3" points="717.42 148.92 721.68 155.87 717.42 155.87 713.16 155.87 717.42 148.92"/><polygon class="cls-3" points="717.42 148.6 713.16 141.65 717.42 141.65 721.68 141.65 717.42 148.6"/><rect class="cls-3" x="716.41" y="148.39" width="14.22" height="0.74" transform="translate(574.76 872.27) rotate(-90)"/><rect class="cls-3" x="718.08" y="148.39" width="14.22" height="0.74" transform="translate(576.44 873.95) rotate(-90)"/><rect class="cls-3" x="719.76" y="148.39" width="14.22" height="0.74" transform="translate(578.12 875.63) rotate(-90)"/><rect class="cls-3" x="721.44" y="148.39" width="14.22" height="0.74" transform="translate(579.8 877.31) rotate(-90)"/><rect class="cls-3" x="723.12" y="148.39" width="14.22" height="0.74" transform="translate(581.47 878.99) rotate(-90)"/><rect class="cls-3" x="724.8" y="148.39" width="14.22" height="0.74" transform="translate(583.15 880.67) rotate(-90)"/><rect class="cls-3" x="726.48" y="148.39" width="14.22" height="0.74" transform="translate(584.83 882.34) rotate(-90)"/><polygon class="cls-3" points="739.68 148.92 743.94 155.87 739.68 155.87 735.42 155.87 739.68 148.92"/><polygon class="cls-3" points="739.68 148.6 735.42 141.65 739.68 141.65 743.94 141.65 739.68 148.6"/><rect class="cls-3" x="738.67" y="148.39" width="14.22" height="0.74" transform="translate(597.02 894.53) rotate(-90)"/><rect class="cls-3" x="740.34" y="148.39" width="14.22" height="0.74" transform="translate(598.7 896.21) rotate(-90)"/><rect class="cls-3" x="742.02" y="148.39" width="14.22" height="0.74" transform="translate(600.38 897.89) rotate(-90)"/><rect class="cls-3" x="743.7" y="148.39" width="14.22" height="0.74" transform="translate(602.06 899.57) rotate(-90)"/><rect class="cls-3" x="745.38" y="148.39" width="14.22" height="0.74" transform="translate(603.73 901.25) rotate(-90)"/><rect class="cls-3" x="747.06" y="148.39" width="14.22" height="0.74" transform="translate(605.41 902.92) rotate(-90)"/><rect class="cls-3" x="748.74" y="148.39" width="14.22" height="0.74" transform="translate(607.09 904.6) rotate(-90)"/><polygon class="cls-3" points="761.94 148.92 766.2 155.87 761.94 155.87 757.68 155.87 761.94 148.92"/><polygon class="cls-3" points="761.94 148.6 757.68 141.65 761.94 141.65 766.2 141.65 761.94 148.6"/><rect class="cls-3" x="760.92" y="148.39" width="14.22" height="0.74" transform="translate(619.28 916.79) rotate(-90)"/><rect class="cls-3" x="762.6" y="148.39" width="14.22" height="0.74" transform="translate(620.96 918.47) rotate(-90)"/><rect class="cls-3" x="764.28" y="148.39" width="14.22" height="0.74" transform="translate(622.64 920.15) rotate(-90)"/><rect class="cls-3" x="765.96" y="148.39" width="14.22" height="0.74" transform="translate(624.31 921.83) rotate(-90)"/><rect class="cls-3" x="767.64" y="148.39" width="14.22" height="0.74" transform="translate(625.99 923.51) rotate(-90)"/><rect class="cls-3" x="769.32" y="148.39" width="14.22" height="0.74" transform="translate(627.67 925.18) rotate(-90)"/><rect class="cls-3" x="770.99" y="148.39" width="14.22" height="0.74" transform="translate(629.35 926.86) rotate(-90)"/><polygon class="cls-3" points="784.2 148.92 788.46 155.87 784.2 155.87 779.94 155.87 784.2 148.92"/><polygon class="cls-3" points="784.2 148.6 779.94 141.65 784.2 141.65 788.46 141.65 784.2 148.6"/><rect class="cls-3" x="783.18" y="148.39" width="14.22" height="0.74" transform="translate(641.54 939.05) rotate(-90)"/><rect class="cls-3" x="784.86" y="148.39" width="14.22" height="0.74" transform="translate(643.22 940.73) rotate(-90)"/><rect class="cls-3" x="786.54" y="148.39" width="14.22" height="0.74" transform="translate(644.9 942.41) rotate(-90)"/><rect class="cls-3" x="788.22" y="148.39" width="14.22" height="0.74" transform="translate(646.57 944.09) rotate(-90)"/><rect class="cls-3" x="789.9" y="148.39" width="14.22" height="0.74" transform="translate(648.25 945.77) rotate(-90)"/><rect class="cls-3" x="791.58" y="148.39" width="14.22" height="0.74" transform="translate(649.93 947.44) rotate(-90)"/><rect class="cls-3" x="793.25" y="148.39" width="14.22" height="0.74" transform="translate(651.61 949.12) rotate(-90)"/><polygon class="cls-3" points="806.46 148.92 810.72 155.87 806.46 155.87 802.2 155.87 806.46 148.92"/><polygon class="cls-3" points="806.46 148.6 802.2 141.65 806.46 141.65 810.72 141.65 806.46 148.6"/><rect class="cls-3" x="805.44" y="148.39" width="14.22" height="0.74" transform="translate(663.8 961.31) rotate(-90)"/><rect class="cls-3" x="807.12" y="148.39" width="14.22" height="0.74" transform="translate(665.48 962.99) rotate(-90)"/><rect class="cls-3" x="808.8" y="148.39" width="14.22" height="0.74" transform="translate(667.16 964.67) rotate(-90)"/><rect class="cls-3" x="810.48" y="148.39" width="14.22" height="0.74" transform="translate(668.83 966.35) rotate(-90)"/><rect class="cls-3" x="812.16" y="148.39" width="14.22" height="0.74" transform="translate(670.51 968.02) rotate(-90)"/><rect class="cls-3" x="813.84" y="148.39" width="14.22" height="0.74" transform="translate(672.19 969.7) rotate(-90)"/><rect class="cls-3" x="815.51" y="148.39" width="14.22" height="0.74" transform="translate(673.87 971.38) rotate(-90)"/><polygon class="cls-3" points="828.72 148.92 832.98 155.87 828.72 155.87 824.46 155.87 828.72 148.92"/><polygon class="cls-3" points="828.72 148.6 824.46 141.65 828.72 141.65 832.98 141.65 828.72 148.6"/><rect class="cls-3" x="827.7" y="148.39" width="14.22" height="0.74" transform="translate(686.06 983.57) rotate(-90)"/><rect class="cls-3" x="829.38" y="148.39" width="14.22" height="0.74" transform="translate(687.74 985.25) rotate(-90)"/><rect class="cls-3" x="831.06" y="148.39" width="14.22" height="0.74" transform="translate(689.41 986.93) rotate(-90)"/><rect class="cls-3" x="832.74" y="148.39" width="14.22" height="0.74" transform="translate(691.09 988.61) rotate(-90)"/><rect class="cls-3" x="834.42" y="148.39" width="14.22" height="0.74" transform="translate(692.77 990.28) rotate(-90)"/><rect class="cls-3" x="836.09" y="148.39" width="14.22" height="0.74" transform="translate(694.45 991.96) rotate(-90)"/><rect class="cls-3" x="837.77" y="148.39" width="14.22" height="0.74" transform="translate(696.13 993.64) rotate(-90)"/><polygon class="cls-3" points="850.98 148.92 855.24 155.87 850.98 155.87 846.72 155.87 850.98 148.92"/><polygon class="cls-3" points="850.98 148.6 846.72 141.65 850.98 141.65 855.24 141.65 850.98 148.6"/><path class="cls-3" d="M651.47,126.46a5,5,0,0,1,0,9.26h4.26v-9.26Z"/><path class="cls-3" d="M635.25,131.09a4.77,4.77,0,0,1,3.12-4.63h-4.26v9.26h4.26A4.76,4.76,0,0,1,635.25,131.09Z"/><path class="cls-3" d="M646.06,131.09a4.77,4.77,0,0,1,3.12-4.63h-8.52a5,5,0,0,1,0,9.26h8.52A4.76,4.76,0,0,1,646.06,131.09Z"/><path class="cls-3" d="M673.09,126.46a5,5,0,0,1,0,9.26h4.26v-9.26Z"/><path class="cls-3" d="M656.87,131.09a4.77,4.77,0,0,1,3.12-4.63h-4.26v9.26H660A4.76,4.76,0,0,1,656.87,131.09Z"/><path class="cls-3" d="M667.68,131.09a4.77,4.77,0,0,1,3.12-4.63h-8.52a5,5,0,0,1,0,9.26h8.52A4.76,4.76,0,0,1,667.68,131.09Z"/><path class="cls-3" d="M694.7,126.46a5,5,0,0,1,0,9.26H699v-9.26Z"/><path class="cls-3" d="M678.49,131.09a4.76,4.76,0,0,1,3.11-4.63h-4.26v9.26h4.26A4.75,4.75,0,0,1,678.49,131.09Z"/><path class="cls-3" d="M689.3,131.09a4.76,4.76,0,0,1,3.11-4.63h-8.52a5,5,0,0,1,0,9.26h8.52A4.75,4.75,0,0,1,689.3,131.09Z"/><path class="cls-3" d="M716.32,126.46a5,5,0,0,1,0,9.26h4.26v-9.26Z"/><path class="cls-3" d="M700.11,131.09a4.76,4.76,0,0,1,3.11-4.63H699v9.26h4.26A4.75,4.75,0,0,1,700.11,131.09Z"/><path class="cls-3" d="M710.92,131.09a4.76,4.76,0,0,1,3.11-4.63h-8.52a5,5,0,0,1,0,9.26H714A4.75,4.75,0,0,1,710.92,131.09Z"/><path class="cls-3" d="M737.92,126.46a5,5,0,0,1,0,9.26h4.26v-9.26Z"/><path class="cls-3" d="M721.71,131.09a4.76,4.76,0,0,1,3.11-4.63h-4.26v9.26h4.26A4.75,4.75,0,0,1,721.71,131.09Z"/><path class="cls-3" d="M732.52,131.09a4.76,4.76,0,0,1,3.11-4.63h-8.52a5,5,0,0,1,0,9.26h8.52A4.75,4.75,0,0,1,732.52,131.09Z"/><path class="cls-3" d="M759.54,126.46a5,5,0,0,1,0,9.26h4.26v-9.26Z"/><path class="cls-3" d="M743.33,131.09a4.76,4.76,0,0,1,3.11-4.63h-4.26v9.26h4.26A4.75,4.75,0,0,1,743.33,131.09Z"/><path class="cls-3" d="M754.14,131.09a4.76,4.76,0,0,1,3.11-4.63h-8.52a5,5,0,0,1,0,9.26h8.52A4.75,4.75,0,0,1,754.14,131.09Z"/><path class="cls-3" d="M781.16,126.46a5,5,0,0,1,0,9.26h4.26v-9.26Z"/><path class="cls-3" d="M764.94,131.09a4.76,4.76,0,0,1,3.11-4.63H763.8v9.26h4.25A4.75,4.75,0,0,1,764.94,131.09Z"/><path class="cls-3" d="M775.75,131.09a4.76,4.76,0,0,1,3.11-4.63h-8.51a5,5,0,0,1,0,9.26h8.51A4.75,4.75,0,0,1,775.75,131.09Z"/><path class="cls-3" d="M802.78,126.46a5,5,0,0,1,0,9.26H807v-9.26Z"/><path class="cls-3" d="M786.56,131.09a4.76,4.76,0,0,1,3.11-4.63h-4.25v9.26h4.25A4.75,4.75,0,0,1,786.56,131.09Z"/><path class="cls-3" d="M797.37,131.09a4.76,4.76,0,0,1,3.11-4.63H792a5,5,0,0,1,0,9.26h8.51A4.75,4.75,0,0,1,797.37,131.09Z"/><path class="cls-3" d="M824.4,126.46a5,5,0,0,1,0,9.26h4.26v-9.26Z"/><path class="cls-3" d="M808.18,131.09a4.76,4.76,0,0,1,3.11-4.63H807v9.26h4.25A4.75,4.75,0,0,1,808.18,131.09Z"/><path class="cls-3" d="M819,131.09a4.76,4.76,0,0,1,3.11-4.63h-8.51a5,5,0,0,1,0,9.26h8.51A4.75,4.75,0,0,1,819,131.09Z"/><path class="cls-3" d="M846,126.46a5,5,0,0,1,0,9.26h4.26v-9.26Z"/><path class="cls-3" d="M829.79,131.09a4.76,4.76,0,0,1,3.12-4.63h-4.26v9.26h4.26A4.75,4.75,0,0,1,829.79,131.09Z"/><path class="cls-3" d="M840.6,131.09a4.76,4.76,0,0,1,3.12-4.63H835.2a5,5,0,0,1,0,9.26h8.52A4.75,4.75,0,0,1,840.6,131.09Z"/><rect class="cls-3" x="634.11" y="123.96" width="219.25" height="0.77"/><path class="cls-3" d="M634.11,168.85v11.06h10.81V168.85Zm5.41,10.36a4.87,4.87,0,1,1,4.26-4.83A4.57,4.57,0,0,1,639.52,179.21Z"/><path class="cls-3" d="M646.2,168.85v11.06H657V168.85Zm5.41,10.36a4.87,4.87,0,1,1,4.26-4.83A4.57,4.57,0,0,1,651.61,179.21Z"/><path class="cls-3" d="M658.3,168.85v11.06h10.81V168.85Zm5.4,10.36a4.87,4.87,0,1,1,4.27-4.83A4.57,4.57,0,0,1,663.7,179.21Z"/><path class="cls-3" d="M670.39,168.85v11.06H681.2V168.85Zm5.41,10.36a4.87,4.87,0,1,1,4.26-4.83A4.57,4.57,0,0,1,675.8,179.21Z"/><path class="cls-3" d="M682.49,168.85v11.06H693.3V168.85Zm5.4,10.36a4.87,4.87,0,1,1,4.27-4.83A4.57,4.57,0,0,1,687.89,179.21Z"/><path class="cls-3" d="M694.58,168.85v11.06h10.81V168.85ZM700,179.21a4.87,4.87,0,1,1,4.26-4.83A4.57,4.57,0,0,1,700,179.21Z"/><path class="cls-3" d="M706.68,168.85v11.06h10.81V168.85Zm5.4,10.36a4.87,4.87,0,1,1,4.26-4.83A4.57,4.57,0,0,1,712.08,179.21Z"/><path class="cls-3" d="M718.77,168.85v11.06h10.81V168.85Zm5.41,10.36a4.87,4.87,0,1,1,4.26-4.83A4.57,4.57,0,0,1,724.18,179.21Z"/><path class="cls-3" d="M730.87,168.85v11.06h10.81V168.85Zm5.4,10.36a4.87,4.87,0,1,1,4.26-4.83A4.57,4.57,0,0,1,736.27,179.21Z"/><path class="cls-3" d="M743,168.85v11.06h10.81V168.85Zm5.41,10.36a4.87,4.87,0,1,1,4.26-4.83A4.57,4.57,0,0,1,748.37,179.21Z"/><path class="cls-3" d="M755.06,168.85v11.06h10.81V168.85Zm5.4,10.36a4.87,4.87,0,1,1,4.26-4.83A4.57,4.57,0,0,1,760.46,179.21Z"/><path class="cls-3" d="M767.15,168.85v11.06H778V168.85Zm5.41,10.36a4.87,4.87,0,1,1,4.26-4.83A4.57,4.57,0,0,1,772.56,179.21Z"/><path class="cls-3" d="M779.25,168.85v11.06h10.81V168.85Zm5.4,10.36a4.87,4.87,0,1,1,4.26-4.83A4.57,4.57,0,0,1,784.65,179.21Z"/><path class="cls-3" d="M791.34,168.85v11.06h10.81V168.85Zm5.41,10.36a4.87,4.87,0,1,1,4.26-4.83A4.57,4.57,0,0,1,796.75,179.21Z"/><path class="cls-3" d="M803.43,168.85v11.06h10.81V168.85Zm5.41,10.36a4.87,4.87,0,1,1,4.26-4.83A4.57,4.57,0,0,1,808.84,179.21Z"/><path class="cls-3" d="M815.53,168.85v11.06h10.81V168.85Zm5.4,10.36a4.87,4.87,0,1,1,4.27-4.83A4.57,4.57,0,0,1,820.93,179.21Z"/><path class="cls-3" d="M827.62,168.85v11.06h10.81V168.85ZM833,179.21a4.87,4.87,0,1,1,4.26-4.83A4.57,4.57,0,0,1,833,179.21Z"/><path class="cls-3" d="M839.72,168.85v11.06h10.81V168.85Zm5.4,10.36a4.87,4.87,0,1,1,4.27-4.83A4.57,4.57,0,0,1,845.12,179.21Z"/><rect class="cls-3" x="634.11" y="166.59" width="219.25" height="0.77"/><rect class="cls-3" x="634.11" y="186.71" width="219.25" height="0.77"/><rect class="cls-3" x="634.11" y="189.49" width="219.25" height="0.77"/><rect class="cls-3" x="634.11" y="161.79" width="219.25" height="0.77"/><rect class="cls-3" x="634.11" y="164.19" width="219.25" height="0.77"/></g><rect class="cls-1" width="1440.98" height="902.44"/></g></g></svg>