<svg xmlns="http://www.w3.org/2000/svg" viewBox="0 0 1440.98 902.44"><defs><style>.cls-1{fill:#1f191a;}.cls-2{fill:#fff;}.cls-3{fill:#008d32;}.cls-4{fill:none;}</style></defs><g id="Layer_2" data-name="Layer 2"><g id="Layer_1-2" data-name="Layer 1"><polygon class="cls-1" points="41.29 641.85 44.3 638.84 44.3 637.83 41.29 634.83 41.29 641.85"/><polygon class="cls-1" points="29.01 638.84 32.01 641.85 32.01 634.83 29.01 637.83 29.01 638.84"/><polygon class="cls-1" points="41.29 604.35 44.3 601.34 44.3 600.33 41.29 597.33 41.29 604.35"/><polygon class="cls-1" points="29.01 601.34 32.01 604.35 32.01 597.33 29.01 600.33 29.01 601.34"/><rect class="cls-2" x="30.89" y="595.07" width="11.52" height="11.52" transform="translate(-414.12 201.9) rotate(-45)"/><rect x="32.72" y="596.91" width="7.86" height="7.86" transform="translate(487.42 999.77) rotate(135)"/><rect class="cls-2" x="30.89" y="632.57" width="11.52" height="11.52" transform="translate(-440.64 212.88) rotate(-45)"/><rect x="32.72" y="634.41" width="7.86" height="7.86" transform="translate(513.94 1063.79) rotate(135)"/><rect class="cls-2" x="30.89" y="557.57" width="11.52" height="11.52" transform="translate(-387.6 190.91) rotate(-45)"/><rect x="32.72" y="559.41" width="7.86" height="7.86" transform="translate(460.91 935.76) rotate(135)"/><circle class="cls-3" cx="36.65" cy="613.21" r="1.67"/><circle class="cls-3" cx="36.65" cy="588.46" r="1.67"/><circle class="cls-3" cx="36.65" cy="650.71" r="1.67"/><circle class="cls-3" cx="36.65" cy="625.96" r="1.67"/><circle class="cls-3" cx="36.65" cy="575.71" r="1.67"/><circle class="cls-3" cx="36.65" cy="550.96" r="1.67"/><polygon class="cls-1" points="41.29 741.59 44.3 738.58 44.3 737.58 41.29 734.57 41.29 741.59"/><polygon class="cls-1" points="29.01 738.58 32.01 741.59 32.01 734.57 29.01 737.58 29.01 738.58"/><polygon class="cls-1" points="41.29 704.09 44.3 701.08 44.3 700.08 41.29 697.07 41.29 704.09"/><polygon class="cls-1" points="29.01 701.08 32.01 704.09 32.01 697.07 29.01 700.08 29.01 701.08"/><rect class="cls-2" x="30.89" y="694.82" width="11.52" height="11.52" transform="translate(-484.65 231.11) rotate(-45)"/><rect x="32.72" y="696.65" width="7.86" height="7.86" transform="translate(557.96 1170.05) rotate(135)"/><rect class="cls-2" x="30.89" y="732.32" width="11.52" height="11.52" transform="translate(-511.17 242.1) rotate(-45)"/><rect x="32.72" y="734.15" width="7.86" height="7.86" transform="translate(584.47 1234.07) rotate(135)"/><rect class="cls-2" x="30.89" y="657.32" width="11.52" height="11.52" transform="translate(-458.13 220.13) rotate(-45)"/><rect x="32.72" y="659.15" width="7.86" height="7.86" transform="translate(531.44 1106.03) rotate(135)"/><circle class="cls-3" cx="36.65" cy="712.95" r="1.67"/><circle class="cls-3" cx="36.65" cy="688.21" r="1.67"/><circle class="cls-3" cx="36.65" cy="750.45" r="1.67"/><circle class="cls-3" cx="36.65" cy="725.71" r="1.67"/><circle class="cls-3" cx="36.65" cy="675.45" r="1.67"/><circle class="cls-3" cx="36.65" cy="650.71" r="1.67"/><polygon class="cls-1" points="41.29 542.1 44.3 539.09 44.3 538.09 41.29 535.08 41.29 542.1"/><polygon class="cls-1" points="29.01 539.09 32.01 542.1 32.01 535.08 29.01 538.09 29.01 539.09"/><polygon class="cls-1" points="41.29 504.6 44.3 501.59 44.3 500.59 41.29 497.58 41.29 504.6"/><polygon class="cls-1" points="29.01 501.59 32.01 504.6 32.01 497.58 29.01 500.59 29.01 501.59"/><rect class="cls-2" x="30.89" y="495.33" width="11.52" height="11.52" transform="translate(-343.59 172.68) rotate(-45)"/><rect x="32.72" y="497.16" width="7.86" height="7.86" transform="translate(416.89 829.5) rotate(135)"/><rect class="cls-2" x="30.89" y="532.83" width="11.52" height="11.52" transform="translate(-370.11 183.67) rotate(-45)"/><rect x="32.72" y="534.66" width="7.86" height="7.86" transform="translate(443.41 893.52) rotate(135)"/><rect class="cls-2" x="30.89" y="457.83" width="11.52" height="11.52" transform="translate(-317.07 161.7) rotate(-45)"/><rect x="32.72" y="459.66" width="7.86" height="7.86" transform="translate(390.38 765.48) rotate(135)"/><circle class="cls-3" cx="36.65" cy="513.46" r="1.67"/><circle class="cls-3" cx="36.65" cy="488.72" r="1.67"/><circle class="cls-3" cx="36.65" cy="550.96" r="1.67"/><circle class="cls-3" cx="36.65" cy="526.22" r="1.67"/><circle class="cls-3" cx="36.65" cy="475.96" r="1.67"/><circle class="cls-3" cx="36.65" cy="451.22" r="1.67"/><polygon class="cls-1" points="41.29 442.36 44.3 439.35 44.3 438.34 41.29 435.33 41.29 442.36"/><polygon class="cls-1" points="29.01 439.35 32.01 442.36 32.01 435.33 29.01 438.34 29.01 439.35"/><polygon class="cls-1" points="41.29 404.86 44.3 401.85 44.3 400.84 41.29 397.83 41.29 404.86"/><polygon class="cls-1" points="29.01 401.85 32.01 404.86 32.01 397.83 29.01 400.84 29.01 401.85"/><rect class="cls-2" x="30.89" y="395.58" width="11.52" height="11.52" transform="translate(-273.06 143.47) rotate(-45)"/><rect x="32.72" y="397.42" width="7.86" height="7.86" transform="translate(346.36 659.22) rotate(135)"/><rect class="cls-2" x="30.89" y="433.08" width="11.52" height="11.52" transform="translate(-299.58 154.45) rotate(-45)"/><rect x="32.72" y="434.92" width="7.86" height="7.86" transform="translate(372.88 723.24) rotate(135)"/><rect class="cls-2" x="30.89" y="358.08" width="11.52" height="11.52" transform="translate(-246.54 132.49) rotate(-45)"/><rect x="32.72" y="359.92" width="7.86" height="7.86" transform="translate(319.85 595.21) rotate(135)"/><circle class="cls-3" cx="36.65" cy="413.72" r="1.67"/><circle class="cls-3" cx="36.65" cy="388.97" r="1.67"/><circle class="cls-3" cx="36.65" cy="451.22" r="1.67"/><circle class="cls-3" cx="36.65" cy="426.47" r="1.67"/><circle class="cls-3" cx="36.65" cy="376.22" r="1.67"/><circle class="cls-3" cx="36.65" cy="351.47" r="1.67"/><polygon class="cls-1" points="41.29 342.61 44.3 339.6 44.3 338.6 41.29 335.59 41.29 342.61"/><polygon class="cls-1" points="29.01 339.6 32.01 342.61 32.01 335.59 29.01 338.6 29.01 339.6"/><polygon class="cls-1" points="41.29 305.11 44.3 302.1 44.3 301.1 41.29 298.09 41.29 305.11"/><polygon class="cls-1" points="29.01 302.1 32.01 305.11 32.01 298.09 29.01 301.1 29.01 302.1"/><rect class="cls-2" x="30.89" y="295.84" width="11.52" height="11.52" transform="translate(-202.53 114.25) rotate(-45)"/><rect x="32.72" y="297.67" width="7.86" height="7.86" transform="translate(275.83 488.95) rotate(135)"/><rect class="cls-2" x="30.89" y="333.34" width="11.52" height="11.52" transform="translate(-229.05 125.24) rotate(-45)"/><rect x="32.72" y="335.17" width="7.86" height="7.86" transform="translate(302.35 552.97) rotate(135)"/><rect class="cls-2" x="30.89" y="258.34" width="11.52" height="11.52" transform="translate(-176.01 103.27) rotate(-45)"/><rect x="32.72" y="260.17" width="7.86" height="7.86" transform="translate(249.32 424.93) rotate(135)"/><circle class="cls-3" cx="36.65" cy="313.97" r="1.67"/><circle class="cls-3" cx="36.65" cy="289.23" r="1.67"/><circle class="cls-3" cx="36.65" cy="351.47" r="1.67"/><circle class="cls-3" cx="36.65" cy="326.73" r="1.67"/><circle class="cls-3" cx="36.65" cy="276.47" r="1.67"/><circle class="cls-3" cx="36.65" cy="251.73" r="1.67"/><polygon class="cls-1" points="41.29 242.87 44.3 239.86 44.3 238.85 41.29 235.85 41.29 242.87"/><polygon class="cls-1" points="29.01 239.86 32.01 242.87 32.01 235.85 29.01 238.85 29.01 239.86"/><polygon class="cls-1" points="41.29 205.37 44.3 202.36 44.3 201.35 41.29 198.35 41.29 205.37"/><polygon class="cls-1" points="29.01 202.36 32.01 205.37 32.01 198.35 29.01 201.35 29.01 202.36"/><rect class="cls-2" x="30.89" y="196.09" width="11.52" height="11.52" transform="translate(-132 85.04) rotate(-45)"/><rect x="32.72" y="197.93" width="7.86" height="7.86" transform="translate(205.3 318.67) rotate(135)"/><rect class="cls-2" x="30.89" y="233.59" width="11.52" height="11.52" transform="translate(-158.52 96.02) rotate(-45)"/><rect x="32.72" y="235.43" width="7.86" height="7.86" transform="translate(231.82 382.69) rotate(135)"/><rect class="cls-2" x="30.89" y="158.59" width="11.52" height="11.52" transform="translate(-105.48 74.06) rotate(-45)"/><rect x="32.72" y="160.43" width="7.86" height="7.86" transform="translate(178.79 254.66) rotate(135)"/><circle class="cls-3" cx="36.65" cy="214.23" r="1.67"/><circle class="cls-3" cx="36.65" cy="189.48" r="1.67"/><circle class="cls-3" cx="36.65" cy="251.73" r="1.67"/><circle class="cls-3" cx="36.65" cy="226.98" r="1.67"/><circle class="cls-3" cx="36.65" cy="176.73" r="1.67"/><circle class="cls-3" cx="36.65" cy="151.98" r="1.67"/><rect class="cls-4" width="1440.98" height="902.44"/></g></g></svg>