<svg xmlns="http://www.w3.org/2000/svg" xmlns:xlink="http://www.w3.org/1999/xlink" viewBox="0 0 1440.98 902.44"><defs><style>.cls-1,.cls-2{opacity:0.4;}.cls-1{fill:url(#Áåçûìÿííûé_ãðàäèåíò_905);}.cls-2{fill:url(#Áåçûìÿííûé_ãðàäèåíò_905-2);}.cls-3{fill:none;}</style><linearGradient id="Áåçûìÿííûé_ãðàäèåíò_905" x1="717.03" y1="641.08" x2="721.52" y2="748.21" gradientUnits="userSpaceOnUse"><stop offset="0" stop-color="#fd7c7c"/><stop offset="0.06" stop-color="#f78075"/><stop offset="0.48" stop-color="#d29c48"/><stop offset="0.81" stop-color="#bcae2c"/><stop offset="1" stop-color="#b3b422"/></linearGradient><linearGradient id="Áåçûìÿííûé_ãðàäèåíò_905-2" x1="3026.51" y1="586.74" x2="3031" y2="693.87" gradientTransform="matrix(-1, 0, 0, 1, 3750.46, 0)" xlink:href="#Áåçûìÿííûé_ãðàäèåíò_905"/></defs><g id="Layer_2" data-name="Layer 2"><g id="Layer_1-2" data-name="Layer 1"><path class="cls-1" d="M958.36,706s-42.57-.14-58.52,0-80.73,7.32-98.15,8.46-108.08-.65-103.2,0,62.83-3.42,63.32-5.85-92.46,0-101.08,0S627.2,711,614.17,711s-67.71,7.32-78.78,9-23.6-.33-66.41,2.6-166.07,5.32-164.83,4.77S475,730.71,475,730.71s6-.17,15-.65,37.44-.17,40.37,1.14S489,737.54,496,737.54H602.94c16.12,0,24.26,4.22,32.39,0S713.47,734,713.47,734s41.83-1.63,50.29,0,3.42,0,25.4,0,77,1.46,81.87-.49,18.72-3.74,20.84-5.36,114.26-14.31,127-13.66,43.23.27,55.6,2.39,62.41,3.14,62.41,3.14-112.64-10.41-123.71-11.38-24.33,0-27.46-.73S958.36,706,958.36,706Z"/><path class="cls-2" d="M482.62,651.63s42.57-.15,58.52,0,80.73,7.31,98.15,8.45,108.08-.65,103.2,0-62.83-3.41-63.32-5.85,92.46,0,101.08,0,33.54,2.44,46.56,2.44,67.71,7.31,78.78,8.94,23.6-.33,66.41,2.6,166.07,5.32,164.83,4.78S966,676.36,966,676.36s-6-.16-15-.65-37.43-.16-40.36,1.14S952,683.19,945,683.19H838c-16.12,0-24.25,4.23-32.39,0s-78.13-3.58-78.13-3.58-41.84-1.62-50.3,0-3.42,0-25.39,0-77,1.47-81.88-.49-18.72-3.73-20.84-5.36-114.26-14.31-127-13.66-43.23,1.16-55.6,3.28-62.41,2.25-62.41,2.25,112.64-10.41,123.71-11.38,24.33,0,27.46-.73S482.62,651.63,482.62,651.63Z"/><rect class="cls-3" width="1440.98" height="902.44"/></g></g></svg>