<svg xmlns="http://www.w3.org/2000/svg" viewBox="0 0 1440.98 902.44"><defs><style>.cls-1{fill:#c37d2c;}.cls-2{fill:#008d32;}.cls-3{fill:#fff;}.cls-3,.cls-6{opacity:0.1;}.cls-4{opacity:0.15;}.cls-5,.cls-6,.cls-7{fill:none;}.cls-5,.cls-6{stroke:#ffae32;stroke-linecap:round;stroke-linejoin:round;stroke-width:3.29px;}</style></defs><g id="Layer_2" data-name="Layer 2"><g id="Layer_1-2" data-name="Layer 1"><path class="cls-1" d="M788.78,575.45a74.25,74.25,0,0,1-5.45,27.93l-34.47,84.93a16.53,16.53,0,0,1-15.32,10.32h-26.1a16.53,16.53,0,0,1-15.32-10.32l-34.47-84.93a74.25,74.25,0,0,1-5.45-27.93h2.08v.39a74.31,74.31,0,0,0,5.18,27.24l32.72,83a16.54,16.54,0,0,0,15.38,10.48h25.86a16.54,16.54,0,0,0,15.38-10.48l32.72-83a74.27,74.27,0,0,0,5.18-27.24v-.39Z"/><path class="cls-1" d="M787.27,495.29H653.71a10.52,10.52,0,0,0-6.86,2.54l-.66.56a10.55,10.55,0,0,0-3.68,8v60.65a10.54,10.54,0,0,0,4.61,8.71h0a10.49,10.49,0,0,0,5.94,1.83H787.92a10.49,10.49,0,0,0,5.94-1.83h0a10.54,10.54,0,0,0,4.61-8.71V506.4a10.55,10.55,0,0,0-3.68-8l-.65-.56A10.57,10.57,0,0,0,787.27,495.29Z"/><rect class="cls-1" x="801.39" y="498.38" width="6.74" height="75.06" rx="2.96"/><rect class="cls-1" x="632.86" y="498.38" width="6.74" height="75.06" rx="2.96" transform="translate(1272.45 1071.82) rotate(180)"/><rect class="cls-2" x="814.72" y="508.78" width="1.66" height="54.27"/><rect class="cls-2" x="624.6" y="508.78" width="1.66" height="54.27" transform="translate(1250.86 1071.82) rotate(180)"/><path d="M680,499.78H667.09v-4.73h-1.65v4.73h0v1.65h0V507h0v1.65h0v5.61h0V516h0v41.32h0v1.65h0v5.61h0v1.65h0v5.61h0v1.65h0v4.32h1.65v-4.32H680v4.32h1.65V495.05H680Zm-12.87,8.91H680v5.61H667.09Zm0,7.26H680v41.32H667.09Zm0,43H680v5.61H667.09Z"/><rect x="672.7" y="524.38" width="1.65" height="24.45"/><path d="M774,495.05v4.73H761.13v-4.73h-1.66v4.73h0v1.65h0V507h0v1.65h0v5.61h0V516h0v41.32h0v1.65h0v5.61h0v1.65h0v5.61h0v1.65h0v4.32h1.66v-4.32H774v4.32h1.66V495.05Zm-12.86,13.64H774v5.61H761.13Zm0,7.26H774v41.32H761.13Zm0,43H774v5.61H761.13Z"/><rect x="766.73" y="524.38" width="1.65" height="24.45"/><polygon points="653.46 516.29 658.72 511.5 660.34 511.5 662.27 511.5 662.27 513.48 662.27 515.46 660.34 515.46 660.34 513.48 658.88 513.48 655.94 516.29 658.88 519.1 660.34 519.1 660.34 517.12 662.27 517.12 662.27 519.1 662.27 521.08 660.34 521.08 658.72 521.08 653.46 516.29"/><polygon points="653.46 529.72 658.72 524.93 660.34 524.93 662.27 524.93 662.27 526.91 662.27 528.89 660.34 528.89 660.34 526.91 658.88 526.91 655.94 529.72 658.88 532.54 660.34 532.54 660.34 530.56 662.27 530.56 662.27 532.54 662.27 534.51 660.34 534.51 658.72 534.51 653.46 529.72"/><polygon points="653.46 543.16 658.72 538.36 660.34 538.36 662.27 538.36 662.27 540.34 662.27 542.32 660.34 542.32 660.34 540.34 658.88 540.34 655.94 543.16 658.88 545.97 660.34 545.97 660.34 543.99 662.27 543.99 662.27 545.97 662.27 547.95 660.34 547.95 658.72 547.95 653.46 543.16"/><polygon points="653.46 556.59 658.72 551.8 660.34 551.8 662.27 551.8 662.27 553.78 662.27 555.76 660.34 555.76 660.34 553.78 658.88 553.78 655.94 556.59 658.88 559.4 660.34 559.4 660.34 557.42 662.27 557.42 662.27 559.4 662.27 561.38 660.34 561.38 658.72 561.38 653.46 556.59"/><polygon points="787.52 516.29 782.26 511.5 780.64 511.5 778.72 511.5 778.72 513.48 778.72 515.46 780.64 515.46 780.64 513.48 782.1 513.48 785.04 516.29 782.1 519.1 780.64 519.1 780.64 517.12 778.72 517.12 778.72 519.1 778.72 521.08 780.64 521.08 782.26 521.08 787.52 516.29"/><polygon points="787.52 529.72 782.26 524.93 780.64 524.93 778.72 524.93 778.72 526.91 778.72 528.89 780.64 528.89 780.64 526.91 782.1 526.91 785.04 529.72 782.1 532.54 780.64 532.54 780.64 530.56 778.72 530.56 778.72 532.54 778.72 534.51 780.64 534.51 782.26 534.51 787.52 529.72"/><polygon points="787.52 543.16 782.26 538.36 780.64 538.36 778.72 538.36 778.72 540.34 778.72 542.32 780.64 542.32 780.64 540.34 782.1 540.34 785.04 543.16 782.1 545.97 780.64 545.97 780.64 543.99 778.72 543.99 778.72 545.97 778.72 547.95 780.64 547.95 782.26 547.95 787.52 543.16"/><polygon points="787.52 556.59 782.26 551.8 780.64 551.8 778.72 551.8 778.72 553.78 778.72 555.76 780.64 555.76 780.64 553.78 782.1 553.78 785.04 556.59 782.1 559.4 780.64 559.4 780.64 557.42 778.72 557.42 778.72 559.4 778.72 561.38 780.64 561.38 782.26 561.38 787.52 556.59"/><rect class="cls-3" x="749.37" y="500.74" width="3.91" height="21.52" rx="1.85"/><rect class="cls-3" x="754.77" y="496.78" width="9.96" height="26.87" rx="4.98"/><g class="cls-4"><path class="cls-5" d="M786.72,581.42s1.65-1,1.67-1-2.37,9.7-2.27,9.86,2.11-1.26,2.13-1.23-4.1,10.78-4,10.89,2.26-1.35,2.28-1.32-6.07,11.77-6,12c0,0,2.38-1.43,2.41-1.39s-6.89,12.26-6.77,12.46c0,0,2.21-1.33,2.23-1.29.11.19-6.68,12.2-6.59,12.35s2-1.22,2.06-1.19c.13.22-6.55,12-6.42,12.25,0,0,1.88-1.13,1.9-1.1.12.22-6.38,12-6.26,12.15,0,0,1.71-1,1.73-1,.13.23-6.17,12-6.1,12.08s1.55-.93,1.56-.9c.12.19-6,11.76-5.91,11.95,0,0,1.38-.82,1.39-.81.12.22-5.87,11.7-5.76,11.88,0,0,1.22-.72,1.23-.7"/><path class="cls-5" d="M652.24,581.43s1.66-1,1.67-1-1.2,9-1.11,9.18,1.85-1.1,1.86-1.07-.53,8.73-.47,8.83,1.71-1,1.72-1,.35,8.22.4,8.31,1.57-.94,1.58-.91,1.07,7.78,1.14,7.9,1.47-.89,1.49-.86,1.27,7.71,1.33,7.79,1.41-.84,1.42-.82,1.35,7.69,1.39,7.76,1.35-.8,1.36-.79,1.41,7.65,1.45,7.72,1.28-.76,1.3-.74,1.47,7.59,1.51,7.67,1.22-.73,1.23-.71,1.51,7.5,1.59,7.63,1.15-.68,1.16-.67,1.59,7.51,1.65,7.6,1.09-.64,1.09-.63,1.68,7.49,1.72,7.57,1-.61,1-.6,1.72,7.42,1.79,7.53,1-.57,1-.56,1.79,7.39,1.84,7.48.89-.54.9-.52,1.85,7.33,1.92,7.45l.83-.48c.06.1,1.92,7.3,2,7.4s.76-.46.76-.44,2.07,7.22,2.12,7.31,1-.57,1-.56,3.93,6.14,4,6.25,1.72-1,1.73-1,7.6,4,7.69,4.11,3.47-2.06,3.5-2,11.23,1.9,11.3,2,3.49-2.06,3.51-2"/><path class="cls-5" d="M647.14,503.64c.08.14,3.08-2,3.16-1.83s-4.59,10.93-4.47,11.13,20.7-12.52,20.95-12.1-21.86,20.73-21.67,21.07c.42.73,36.21-21.55,36.49-21.07.45.77-36.12,28.73-35.83,29.24.45.77,48.85-29.64,49.47-28.57.35.6-49.51,36-49,36.85S708,501,708.7,502.3c.6,1-64.54,44.65-64,45.53.82,1.43,78.55-46.84,79.19-45.72.53.91-78.55,52.79-78.07,53.63,1.13,2,94.12-55.73,94.73-54.69s-98.21,63.83-97.59,64.9c1.13,2,109-65.36,110-63.53s-107.21,68.86-106.52,70.05c1,1.68,122.51-74,123.91-71.54,1.31,2.26-122.33,76-121,78.38,1.22,2.12,131.45-78.06,132.39-76.43,1.09,1.88-123.35,77.42-122.34,79.18s133.9-79.13,134.69-77.76c1,1.8-118.3,75-117.49,76.39,1.16,2,117.55-69.76,118.37-68.34S687.16,580.78,688.2,582.58,795,518.48,796.07,520.3,703,580.86,703.73,582.15s90.5-54.38,91.43-52.78c.63,1.1-76.28,50.76-75.49,52.14.67,1.15,74.58-44.17,75.06-43.34.57,1-59.07,41.35-58.51,42.33S795,545,795.72,546.14c.48.84-45.73,34.06-45.35,34.72s43.55-26.42,44.1-25.46c.26.45-30.6,25.39-30.24,26,.26.45,33.55-20,33.83-19.54s-19.09,19-18.83,19.42,15.75-9.42,15.89-9.18"/><path class="cls-5" d="M647.09,503.47c.08.14,3.08-2,3.16-1.83s-4.59,10.92-4.47,11.13,20.7-12.52,21-12.1-21.86,20.73-21.67,21.07c.42.73,36.21-21.56,36.49-21.07.45.77-36.12,28.73-35.83,29.23.45.78,48.85-29.63,49.47-28.56.35.6-49.51,35.94-49,36.84.61,1.06,61.71-37.33,62.45-36,.6,1-64.54,44.65-64,45.53.82,1.43,78.55-46.84,79.19-45.72.53.91-78.55,52.79-78.07,53.63,1.13,1.95,94.12-55.74,94.73-54.69s-98.21,63.83-97.59,64.9c1.13,2,109-65.36,110-63.53s-107.21,68.86-106.52,70c1,1.67,122.51-74,123.91-71.54,1.31,2.26-122.33,76-120.95,78.38,1.22,2.12,131.45-78.07,132.39-76.44,1.09,1.89-123.35,77.43-122.34,79.19s133.9-79.13,134.69-77.76c1,1.79-118.3,75-117.49,76.39,1.16,2,117.55-69.76,118.37-68.34s-107.86,68.43-106.82,70.23S795,518.31,796,520.13,702.93,580.69,703.68,582s90.5-54.38,91.43-52.78c.63,1.09-76.28,50.76-75.49,52.13.67,1.16,74.58-44.16,75.06-43.33.57,1-59.07,41.35-58.51,42.32S795,544.78,795.67,546c.48.83-45.73,34.06-45.35,34.72s43.55-26.42,44.1-25.46c.26.45-30.6,25.39-30.24,26,.26.44,33.55-20,33.83-19.54s-19.09,19-18.83,19.41,15.75-9.41,15.89-9.17"/><path class="cls-5" d="M801.53,505.53c0,.07,3.63-2.19,3.67-2.12s-.63,8.71-.55,8.86,2.76-1.74,2.83-1.63-3.61,10.48-3.54,10.6,3.5-2.13,3.54-2-3,10.09-2.88,10.21,1.64-1.13,1.72-1-2.85,10-2.76,10.15,2.33-1.51,2.4-1.39-2.53,9.87-2.46,10,1.74-1.12,1.79-1-.72,8.87-.67,9,2.46-1.51,2.5-1.44-5.43,11.54-5.36,11.65,2.92-1.83,3-1.72.22,8.32.26,8.4,2.25-1.47,2.32-1.34"/><path class="cls-5" d="M633,505.53c0,.07,3.63-2.19,3.67-2.12s-.64,8.71-.55,8.86,2.76-1.74,2.82-1.63-3.6,10.48-3.53,10.6,3.49-2.13,3.54-2-3,10.09-2.88,10.21,1.64-1.13,1.72-1-2.86,10-2.77,10.15,2.33-1.51,2.41-1.39-2.53,9.87-2.47,10,1.75-1.12,1.8-1-.72,8.87-.67,9,2.46-1.51,2.5-1.44-5.43,11.54-5.37,11.65,2.93-1.83,3-1.72.21,8.32.26,8.4,2.25-1.47,2.32-1.34"/><path class="cls-5" d="M810.75,514.76s1.58-1,1.6-.93-1.69,9.3-1.6,9.47,1.59-1,1.61-.93-1.67,9.38-1.61,9.49,1.6-1,1.61-.93-1.67,9.37-1.61,9.47,1.6-1,1.62-.93-1.7,9.35-1.62,9.49,1.6-1,1.62-.93-1.68,9.38-1.62,9.49,1.61-1,1.63-.94-1.68,9.41-1.63,9.5,1.62-1,1.63-.94"/><path class="cls-5" d="M628.63,514.76s1.58-1,1.6-.93-1.7,9.3-1.6,9.47,1.59-1,1.6-.93-1.66,9.38-1.6,9.49,1.6-1,1.61-.93-1.67,9.37-1.61,9.47,1.6-1,1.61-.93-1.69,9.35-1.61,9.49,1.6-1,1.62-.93-1.68,9.38-1.62,9.49,1.61-1,1.62-.94-1.67,9.41-1.62,9.5,1.62-1,1.63-.94"/><path class="cls-5" d="M664,577.09c.09.15,8-4.84,8.12-4.69s.8,8,.86,8.05,1.6-1,1.62-.93"/><path class="cls-5" d="M661.91,513.59c.1.17,12.26-7.3,12.36-7.14s-1.4,9.19-1.33,9.31,1.56-.94,1.58-.91"/><path class="cls-5" d="M661.78,520.92s2.68-1.6,2.7-1.56,8.37,3.56,8.44,3.68,1.59-.94,1.61-.92-1.67,9.32-1.6,9.45,1.59-.94,1.6-.92S672.9,540,673,540.11s1.57-1,1.59-.92-1.65,9.35-1.58,9.47,1.57-.94,1.58-.92-1.62,9.36-1.57,9.46,1.56-.94,1.58-.91"/><path class="cls-5" d="M661.79,563.88s2.6-1.56,2.62-1.52,8.45,3.5,8.53,3.63,1.6-1,1.62-.93"/><path class="cls-5" d="M672.93,501.05s1.57-.94,1.58-.91"/><path class="cls-5" d="M658.46,501.06s1.52-.92,1.53-.89,1.63,7.43,1.7,7.56,4.36-2.71,4.45-2.56-7.78,12.82-7.68,13,1.56-.93,1.57-.91-1.63,9.35-1.57,9.46,1.52-.92,1.54-.89-1.62,9.3-1.54,9.44,1.53-.92,1.55-.89-1.61,9.35-1.55,9.45,1.55-.92,1.56-.9-1.61,9.38-1.56,9.46,1.57-.93,1.58-.91-1.63,9.38-1.58,9.47,1.57-.94,1.59-.92-1.64,9.38-1.59,9.47,1.56-1,1.58-.92.8,7.92.87,8,9.41-5.68,9.52-5.49"/><path class="cls-5" d="M665.69,530.36s1.57-1,1.59-.92-1.69,9.3-1.59,9.47c0,0,1.59-1,1.6-.93s-1.66,9.38-1.6,9.48,1.6-1,1.61-.93"/><path class="cls-5" d="M772.09,577.09c.08.15,8-4.84,8.11-4.69s.81,8,.86,8.05,1.61-1,1.62-.93"/><path class="cls-5" d="M770,513.59c.1.17,12.26-7.3,12.36-7.14s-1.39,9.19-1.33,9.31,1.56-.94,1.58-.91"/><path class="cls-5" d="M769.89,520.92s2.68-1.6,2.71-1.56S781,522.92,781,523s1.59-.94,1.61-.92-1.67,9.32-1.59,9.45,1.58-.94,1.59-.92-1.63,9.37-1.58,9.46,1.57-1,1.59-.92-1.65,9.35-1.58,9.47,1.57-.94,1.59-.92-1.63,9.36-1.58,9.46,1.57-.94,1.58-.91"/><path class="cls-5" d="M769.9,563.88s2.6-1.56,2.63-1.52,8.44,3.5,8.52,3.63,1.6-1,1.62-.93"/><path class="cls-5" d="M781,501.05s1.57-.94,1.58-.91"/><path class="cls-5" d="M766.57,501.06s1.52-.92,1.53-.89,1.63,7.43,1.71,7.56,4.36-2.71,4.44-2.56-7.78,12.82-7.68,13,1.56-.93,1.57-.91-1.63,9.35-1.57,9.46,1.52-.92,1.54-.89-1.62,9.3-1.54,9.44,1.54-.92,1.55-.89-1.61,9.35-1.55,9.45,1.55-.92,1.57-.9-1.62,9.38-1.57,9.46,1.57-.93,1.58-.91-1.63,9.38-1.58,9.47,1.58-.94,1.59-.92-1.64,9.38-1.59,9.47,1.57-1,1.58-.92.8,7.92.87,8,9.41-5.68,9.52-5.49"/><path class="cls-5" d="M773.8,530.36s1.58-1,1.59-.92-1.68,9.3-1.59,9.47,1.59-1,1.6-.93-1.66,9.38-1.6,9.48,1.6-1,1.61-.93"/><path class="cls-5" d="M651,517.89c0,.08.17-.22.22-.13s.38,8.13.47,8.27,3.49-2.09,3.52-2"/><path class="cls-5" d="M651,531.32c0,.08.17-.21.22-.13s.38,8.13.47,8.28,3.49-2.1,3.52-2"/><path class="cls-5" d="M651,544.75c0,.09.17-.21.22-.12s.38,8.13.47,8.27,3.49-2.1,3.52-2"/><path class="cls-5" d="M651,558.19c0,.08.17-.22.22-.13s.38,8.13.47,8.27,3.49-2.09,3.52-2"/><path class="cls-5" d="M785.78,517.48s1.63-1,1.65-1,1.51,7.49,1.59,7.62,4.61-2.86,4.69-2.71"/><path class="cls-5" d="M785.78,530.91s1.63-1,1.65-.95,1.51,7.49,1.59,7.63,4.61-2.86,4.69-2.72"/><path class="cls-5" d="M785.78,544.34s1.63-1,1.65-1,1.51,7.5,1.59,7.63,4.61-2.86,4.69-2.71"/><path class="cls-5" d="M785.78,557.78s1.63-1,1.65-.95,1.51,7.49,1.59,7.62,4.61-2.86,4.69-2.71"/><path class="cls-6" d="M749.41,507.48s2.69-1.62,2.72-1.57-2.84,9.94-2.73,10.12,3.81-2.29,3.85-2.22-1.39,9.21-1.33,9.32.69-.46.72-.41"/><path class="cls-6" d="M757.46,503.32c0,.09.4-.35.45-.26s0,8.32.13,8.47,6-3.66,6-3.49-6.85,12.3-6.76,12.46,6.7-4,6.77-3.91-2.57,9.88-2.5,10,1.11-.8,1.18-.68"/></g><rect class="cls-7" width="1440.98" height="902.44"/></g></g></svg>