<svg xmlns="http://www.w3.org/2000/svg" viewBox="0 0 1440.98 902.44"><defs><style>.cls-1{opacity:0.6;}.cls-2,.cls-3{fill:#4b5e49;}.cls-3,.cls-5,.cls-7{fill-rule:evenodd;}.cls-4,.cls-5{fill:#c37d2c;}.cls-6,.cls-7{fill:#977b76;}.cls-8{fill:none;}</style></defs><g id="Layer_2" data-name="Layer 2"><g id="Layer_1-2" data-name="Layer 1"><g class="cls-1"><ellipse class="cls-2" cx="297.73" cy="163.83" rx="0.64" ry="0.66"/><ellipse class="cls-2" cx="310.21" cy="235.1" rx="0.64" ry="0.66"/><ellipse class="cls-2" cx="218.06" cy="270.5" rx="0.64" ry="0.66"/><ellipse class="cls-2" cx="199.87" cy="351.7" rx="0.64" ry="0.66"/><path class="cls-3" d="M257.9,243.37a.64.64,0,1,0,1.28,0,.66.66,0,0,0-.64-.66A.65.65,0,0,0,257.9,243.37Z"/><ellipse class="cls-2" cx="288.94" cy="228.27" rx="0.64" ry="0.66"/><ellipse class="cls-2" cx="326.7" cy="198" rx="0.64" ry="0.66"/><ellipse class="cls-2" cx="365.58" cy="148.44" rx="0.64" ry="0.66"/><ellipse class="cls-2" cx="289.58" cy="125.78" rx="0.64" ry="0.66"/><ellipse class="cls-2" cx="248.72" cy="242.71" rx="0.64" ry="0.66"/><path class="cls-3" d="M242.75,120.26a.65.65,0,1,0,.65-.66A.65.65,0,0,0,242.75,120.26Z"/><path class="cls-3" d="M372.17,396.82a.64.64,0,1,0,1.28,0,.65.65,0,0,0-.64-.66A.66.66,0,0,0,372.17,396.82Z"/><ellipse class="cls-2" cx="220.36" cy="134.76" rx="0.64" ry="0.66"/><ellipse class="cls-2" cx="225.9" cy="222.61" rx="0.64" ry="0.66"/><ellipse class="cls-2" cx="390.1" cy="190.85" rx="0.64" ry="0.66"/><ellipse class="cls-2" cx="128.6" cy="128.82" rx="0.64" ry="0.66"/><ellipse class="cls-2" cx="356.15" cy="225.51" rx="0.64" ry="0.66"/><ellipse class="cls-2" cx="297" cy="405.04" rx="0.64" ry="0.66"/><path class="cls-3" d="M83.48,120.28a.65.65,0,1,0,.64-.66A.65.65,0,0,0,83.48,120.28Z"/><ellipse class="cls-2" cx="347.73" cy="143.78" rx="0.64" ry="0.66"/><path class="cls-3" d="M222.14,312.68a.65.65,0,1,0,.65-.66A.66.66,0,0,0,222.14,312.68Z"/><ellipse class="cls-2" cx="427.41" cy="221.33" rx="0.64" ry="0.66"/><ellipse class="cls-2" cx="412.82" cy="127.11" rx="0.64" ry="0.66"/><path class="cls-3" d="M275.19,283.43a.64.64,0,1,0,1.28,0,.65.65,0,0,0-.64-.66A.66.66,0,0,0,275.19,283.43Z"/><path class="cls-3" d="M325.41,173.83a.65.65,0,1,0,.65-.66A.66.66,0,0,0,325.41,173.83Z"/><ellipse class="cls-2" cx="175.74" cy="331.88" rx="0.64" ry="0.66"/><ellipse class="cls-2" cx="212.9" cy="176.49" rx="0.64" ry="0.66"/><ellipse class="cls-2" cx="181.37" cy="182" rx="0.64" ry="0.66"/><path class="cls-3" d="M254.75,353.74a.65.65,0,1,0,.64-.66A.66.66,0,0,0,254.75,353.74Z"/><ellipse class="cls-2" cx="375.82" cy="201.81" rx="0.64" ry="0.66"/><path class="cls-3" d="M315.14,209.81a.65.65,0,1,0,.65-.66A.65.65,0,0,0,315.14,209.81Z"/><ellipse class="cls-2" cx="322.23" cy="126.45" rx="0.64" ry="0.66"/><ellipse class="cls-2" cx="430.72" cy="176.47" rx="0.64" ry="0.66"/><path class="cls-3" d="M276.59,306a.65.65,0,1,0,.65-.66A.66.66,0,0,0,276.59,306Z"/><ellipse class="cls-2" cx="303.84" cy="150.51" rx="0.64" ry="0.66"/><ellipse class="cls-2" cx="182.01" cy="241.13" rx="0.64" ry="0.66"/><ellipse class="cls-2" cx="312.5" cy="308.21" rx="0.64" ry="0.66"/><ellipse class="cls-2" cx="401.25" cy="313.99" rx="0.64" ry="0.66"/><path class="cls-3" d="M182,116.42a.65.65,0,1,0,.65-.67A.66.66,0,0,0,182,116.42Z"/><path class="cls-3" d="M225.61,163.81a.65.65,0,1,0,.65-.67A.66.66,0,0,0,225.61,163.81Z"/><ellipse class="cls-2" cx="248.07" cy="201.81" rx="0.64" ry="0.66"/><ellipse class="cls-2" cx="314.51" cy="202.03" rx="0.64" ry="0.66"/><ellipse class="cls-2" cx="293.83" cy="317.6" rx="0.64" ry="0.66"/><ellipse class="cls-2" cx="311.85" cy="260.39" rx="0.64" ry="0.66"/><ellipse class="cls-2" cx="352.33" cy="233.26" rx="0.64" ry="0.66"/><ellipse class="cls-2" cx="382.73" cy="218.16" rx="0.64" ry="0.66"/><ellipse class="cls-2" cx="420.49" cy="187.88" rx="0.64" ry="0.66"/><ellipse class="cls-2" cx="459.37" cy="138.33" rx="0.64" ry="0.66"/><path class="cls-3" d="M382.73,115.67a.65.65,0,1,0,.64-.66A.66.66,0,0,0,382.73,115.67Z"/><ellipse class="cls-2" cx="448.55" cy="287.76" rx="0.64" ry="0.66"/><path class="cls-3" d="M341.87,232.6a.65.65,0,0,0,.64.66.66.66,0,0,0,0-1.32A.64.64,0,0,0,341.87,232.6Z"/><ellipse class="cls-2" cx="337.19" cy="110.15" rx="0.64" ry="0.66"/><ellipse class="cls-2" cx="483.9" cy="180.74" rx="0.64" ry="0.66"/><ellipse class="cls-2" cx="449.94" cy="215.4" rx="0.64" ry="0.66"/><ellipse class="cls-2" cx="441.52" cy="133.67" rx="0.64" ry="0.66"/><path class="cls-3" d="M444.42,308.15a.65.65,0,0,0,.64.66.66.66,0,0,0,0-1.32A.64.64,0,0,0,444.42,308.15Z"/><ellipse class="cls-2" cx="521.2" cy="211.22" rx="0.64" ry="0.66"/><ellipse class="cls-2" cx="506.62" cy="117" rx="0.64" ry="0.66"/><ellipse class="cls-2" cx="419.85" cy="163.72" rx="0.64" ry="0.66"/><path class="cls-3" d="M469,191.7a.65.65,0,1,0,.64-.66A.66.66,0,0,0,469,191.7Z"/><ellipse class="cls-2" cx="416.03" cy="116.34" rx="0.64" ry="0.66"/><ellipse class="cls-2" cx="371.03" cy="295.92" rx="0.64" ry="0.66"/><ellipse class="cls-2" cx="406.3" cy="298.1" rx="0.64" ry="0.66"/><ellipse class="cls-2" cx="495.04" cy="303.88" rx="0.64" ry="0.66"/><ellipse class="cls-2" cx="320.05" cy="153.7" rx="0.64" ry="0.66"/><ellipse class="cls-2" cx="341.87" cy="191.7" rx="0.64" ry="0.66"/><ellipse class="cls-2" cx="406.22" cy="196.58" rx="0.64" ry="0.66"/><ellipse class="cls-2" cx="387.62" cy="307.49" rx="0.64" ry="0.66"/><path class="cls-3" d="M225.75,304.31a.65.65,0,1,0,.65-.66A.66.66,0,0,0,225.75,304.31Z"/><path class="cls-3" d="M135.9,220.67a.65.65,0,1,0,.64-.67A.66.66,0,0,0,135.9,220.67Z"/><path class="cls-3" d="M188.94,191.42a.65.65,0,1,0,.65-.67A.66.66,0,0,0,188.94,191.42Z"/><ellipse class="cls-2" cx="471.09" cy="124.24" rx="0.64" ry="0.66"/><ellipse class="cls-2" cx="234.91" cy="239.22" rx="0.64" ry="0.66"/><ellipse class="cls-2" cx="169.15" cy="261.72" rx="0.64" ry="0.66"/><ellipse class="cls-2" cx="140.15" cy="212.3" rx="0.64" ry="0.66"/><ellipse class="cls-2" cx="274.28" cy="209.45" rx="0.64" ry="0.66"/><ellipse class="cls-2" cx="261.8" cy="280.72" rx="0.64" ry="0.66"/><ellipse class="cls-2" cx="353.96" cy="316.12" rx="0.64" ry="0.66"/><ellipse class="cls-2" cx="372.15" cy="397.32" rx="0.64" ry="0.66"/><path class="cls-3" d="M314.12,289a.65.65,0,1,1-.64-.66A.65.65,0,0,1,314.12,289Z"/><ellipse class="cls-2" cx="283.08" cy="273.89" rx="0.64" ry="0.66"/><ellipse class="cls-2" cx="245.32" cy="243.61" rx="0.64" ry="0.66"/><ellipse class="cls-2" cx="206.44" cy="194.06" rx="0.64" ry="0.66"/><ellipse class="cls-2" cx="282.43" cy="171.4" rx="0.64" ry="0.66"/><ellipse class="cls-2" cx="323.3" cy="288.33" rx="0.64" ry="0.66"/><path class="cls-3" d="M329.26,165.88a.65.65,0,0,1-.64.66.66.66,0,0,1,0-1.32A.64.64,0,0,1,329.26,165.88Z"/><path class="cls-3" d="M199.85,442.44a.65.65,0,1,1-.64-.66A.66.66,0,0,1,199.85,442.44Z"/><ellipse class="cls-2" cx="351.66" cy="180.37" rx="0.64" ry="0.66"/><ellipse class="cls-2" cx="346.12" cy="268.23" rx="0.64" ry="0.66"/><ellipse class="cls-2" cx="181.91" cy="236.47" rx="0.64" ry="0.66"/><ellipse class="cls-2" cx="443.42" cy="174.44" rx="0.64" ry="0.66"/><ellipse class="cls-2" cx="215.87" cy="271.13" rx="0.64" ry="0.66"/><ellipse class="cls-2" cx="275.02" cy="450.66" rx="0.64" ry="0.66"/><path class="cls-3" d="M488.54,165.9a.65.65,0,1,1-.65-.66A.65.65,0,0,1,488.54,165.9Z"/><ellipse class="cls-2" cx="224.29" cy="189.4" rx="0.64" ry="0.66"/><path class="cls-3" d="M349.87,358.3a.64.64,0,1,1-.64-.66A.65.65,0,0,1,349.87,358.3Z"/><ellipse class="cls-2" cx="144.61" cy="266.95" rx="0.64" ry="0.66"/><ellipse class="cls-2" cx="159.19" cy="172.73" rx="0.64" ry="0.66"/><path class="cls-3" d="M296.83,329.05a.65.65,0,1,1-.65-.66A.65.65,0,0,1,296.83,329.05Z"/><path class="cls-3" d="M246.6,219.45a.64.64,0,1,1-.64-.66A.65.65,0,0,1,246.6,219.45Z"/><ellipse class="cls-2" cx="396.28" cy="377.5" rx="0.64" ry="0.66"/><ellipse class="cls-2" cx="359.12" cy="222.11" rx="0.64" ry="0.66"/><ellipse class="cls-2" cx="390.65" cy="227.62" rx="0.64" ry="0.66"/><path class="cls-3" d="M317.27,399.36a.65.65,0,1,1-1.29,0,.65.65,0,1,1,1.29,0Z"/><ellipse class="cls-2" cx="196.2" cy="247.43" rx="0.64" ry="0.66"/><path class="cls-3" d="M256.87,255.43a.64.64,0,1,1-.64-.66A.64.64,0,0,1,256.87,255.43Z"/><ellipse class="cls-2" cx="249.78" cy="172.07" rx="0.64" ry="0.66"/><ellipse class="cls-2" cx="141.29" cy="222.09" rx="0.64" ry="0.66"/><path class="cls-3" d="M295.42,351.65a.64.64,0,1,1-.64-.66A.65.65,0,0,1,295.42,351.65Z"/><ellipse class="cls-2" cx="268.17" cy="196.13" rx="0.64" ry="0.66"/><ellipse class="cls-2" cx="390" cy="286.75" rx="0.64" ry="0.66"/><ellipse class="cls-2" cx="259.51" cy="353.83" rx="0.64" ry="0.66"/><ellipse class="cls-2" cx="170.77" cy="359.61" rx="0.64" ry="0.66"/><path class="cls-3" d="M390,162a.64.64,0,1,1-.64-.66A.65.65,0,0,1,390,162Z"/><path class="cls-3" d="M346.4,209.43a.64.64,0,1,1-.64-.67A.65.65,0,0,1,346.4,209.43Z"/><ellipse class="cls-2" cx="323.94" cy="247.43" rx="0.64" ry="0.66"/><ellipse class="cls-2" cx="257.51" cy="247.65" rx="0.64" ry="0.66"/><ellipse class="cls-2" cx="278.19" cy="363.22" rx="0.64" ry="0.66"/><ellipse class="cls-2" cx="260.16" cy="306.01" rx="0.64" ry="0.66"/><ellipse class="cls-2" cx="219.68" cy="278.88" rx="0.64" ry="0.66"/><ellipse class="cls-2" cx="189.28" cy="263.77" rx="0.64" ry="0.66"/><ellipse class="cls-2" cx="151.53" cy="233.5" rx="0.64" ry="0.66"/><ellipse class="cls-2" cx="112.64" cy="183.95" rx="0.64" ry="0.66"/><path class="cls-3" d="M189.28,161.29a.64.64,0,1,1-.64-.66A.65.65,0,0,1,189.28,161.29Z"/><ellipse class="cls-2" cx="123.47" cy="333.38" rx="0.64" ry="0.66"/><path class="cls-3" d="M230.15,278.22a.65.65,0,1,1-.64-.67A.66.66,0,0,1,230.15,278.22Z"/><ellipse class="cls-2" cx="234.83" cy="155.77" rx="0.64" ry="0.66"/><ellipse class="cls-2" cx="88.12" cy="226.36" rx="0.64" ry="0.66"/><ellipse class="cls-2" cx="122.07" cy="261.02" rx="0.64" ry="0.66"/><ellipse class="cls-2" cx="130.5" cy="179.29" rx="0.64" ry="0.66"/><path class="cls-3" d="M127.6,353.77a.65.65,0,1,1-.64-.66A.66.66,0,0,1,127.6,353.77Z"/><ellipse class="cls-2" cx="50.81" cy="256.84" rx="0.64" ry="0.66"/><ellipse class="cls-2" cx="65.4" cy="162.62" rx="0.64" ry="0.66"/><ellipse class="cls-2" cx="152.17" cy="209.34" rx="0.64" ry="0.66"/><path class="cls-3" d="M103.05,237.32a.65.65,0,1,1-.65-.66A.65.65,0,0,1,103.05,237.32Z"/><ellipse class="cls-2" cx="155.99" cy="161.96" rx="0.64" ry="0.66"/><ellipse class="cls-2" cx="200.99" cy="341.54" rx="0.64" ry="0.66"/><ellipse class="cls-2" cx="165.72" cy="343.72" rx="0.64" ry="0.66"/><ellipse class="cls-2" cx="76.97" cy="349.5" rx="0.64" ry="0.66"/><ellipse class="cls-2" cx="251.97" cy="199.31" rx="0.64" ry="0.66"/><ellipse class="cls-2" cx="230.15" cy="237.32" rx="0.64" ry="0.66"/><ellipse class="cls-2" cx="165.79" cy="242.2" rx="0.64" ry="0.66"/><ellipse class="cls-2" cx="184.39" cy="353.11" rx="0.64" ry="0.66"/><path class="cls-3" d="M346.26,349.93a.64.64,0,1,1-1.28,0,.65.65,0,0,1,.64-.66A.66.66,0,0,1,346.26,349.93Z"/><path class="cls-3" d="M436.12,266.29a.65.65,0,1,1-.65-.67A.66.66,0,0,1,436.12,266.29Z"/><path class="cls-3" d="M383.07,237a.66.66,0,0,1-.64.66.67.67,0,0,1,0-1.33A.66.66,0,0,1,383.07,237Z"/><ellipse class="cls-2" cx="100.92" cy="169.86" rx="0.64" ry="0.66"/><ellipse class="cls-2" cx="337.11" cy="284.84" rx="0.64" ry="0.66"/><ellipse class="cls-2" cx="402.87" cy="307.34" rx="0.64" ry="0.66"/><ellipse class="cls-2" cx="431.86" cy="257.92" rx="0.64" ry="0.66"/><ellipse class="cls-4" cx="306.25" cy="468.47" rx="0.67" ry="0.69"/><ellipse class="cls-4" cx="319.27" cy="542.79" rx="0.67" ry="0.69"/><ellipse class="cls-4" cx="223.17" cy="579.7" rx="0.67" ry="0.69"/><ellipse class="cls-4" cx="204.2" cy="664.37" rx="0.67" ry="0.69"/><path class="cls-5" d="M264.71,551.41a.68.68,0,1,0,.67-.69A.68.68,0,0,0,264.71,551.41Z"/><ellipse class="cls-4" cx="297.08" cy="535.66" rx="0.67" ry="0.69"/><ellipse class="cls-4" cx="336.46" cy="504.1" rx="0.67" ry="0.69"/><ellipse class="cls-4" cx="377" cy="452.42" rx="0.67" ry="0.69"/><ellipse class="cls-4" cx="297.76" cy="428.8" rx="0.67" ry="0.69"/><ellipse class="cls-4" cx="255.14" cy="550.72" rx="0.67" ry="0.69"/><path class="cls-5" d="M248.92,423a.67.67,0,1,0,.67-.69A.68.68,0,0,0,248.92,423Z"/><path class="cls-5" d="M383.87,711.43a.67.67,0,1,0,.67-.69A.68.68,0,0,0,383.87,711.43Z"/><ellipse class="cls-4" cx="225.57" cy="438.15" rx="0.67" ry="0.69"/><ellipse class="cls-4" cx="231.35" cy="529.76" rx="0.67" ry="0.69"/><ellipse class="cls-4" cx="402.58" cy="496.64" rx="0.67" ry="0.69"/><ellipse class="cls-4" cx="129.88" cy="431.96" rx="0.67" ry="0.69"/><ellipse class="cls-4" cx="367.17" cy="532.79" rx="0.67" ry="0.69"/><ellipse class="cls-4" cx="305.49" cy="720" rx="0.67" ry="0.69"/><path class="cls-5" d="M82.84,423.06a.67.67,0,1,0,.67-.69A.68.68,0,0,0,82.84,423.06Z"/><ellipse class="cls-4" cx="358.39" cy="447.57" rx="0.67" ry="0.69"/><path class="cls-5" d="M227.43,623.69a.67.67,0,1,0,.67-.69A.68.68,0,0,0,227.43,623.69Z"/><ellipse class="cls-4" cx="441.48" cy="528.43" rx="0.67" ry="0.69"/><ellipse class="cls-4" cx="426.27" cy="430.18" rx="0.67" ry="0.69"/><path class="cls-5" d="M282.75,593.19a.67.67,0,1,0,.67-.69A.68.68,0,0,0,282.75,593.19Z"/><path class="cls-5" d="M335.12,478.9a.67.67,0,1,0,.67-.69A.68.68,0,0,0,335.12,478.9Z"/><ellipse class="cls-4" cx="179.04" cy="643.7" rx="0.67" ry="0.69"/><ellipse class="cls-4" cx="217.79" cy="481.67" rx="0.67" ry="0.69"/><ellipse class="cls-4" cx="184.91" cy="487.41" rx="0.67" ry="0.69"/><path class="cls-5" d="M261.43,666.5a.67.67,0,1,0,.67-.69A.68.68,0,0,0,261.43,666.5Z"/><ellipse class="cls-4" cx="387.68" cy="508.08" rx="0.67" ry="0.69"/><path class="cls-5" d="M324.41,516.42a.67.67,0,1,0,.67-.69A.68.68,0,0,0,324.41,516.42Z"/><ellipse class="cls-4" cx="331.8" cy="429.49" rx="0.67" ry="0.69"/><ellipse class="cls-4" cx="444.93" cy="481.65" rx="0.67" ry="0.69"/><path class="cls-5" d="M284.21,616.75a.67.67,0,1,0,.67-.69A.68.68,0,0,0,284.21,616.75Z"/><ellipse class="cls-4" cx="312.63" cy="454.58" rx="0.67" ry="0.69"/><ellipse class="cls-4" cx="185.58" cy="549.08" rx="0.67" ry="0.69"/><ellipse class="cls-4" cx="321.66" cy="619.02" rx="0.67" ry="0.69"/><ellipse class="cls-4" cx="414.2" cy="625.05" rx="0.67" ry="0.69"/><path class="cls-5" d="M185.58,419a.68.68,0,0,0,.67.69.69.69,0,0,0,0-1.38A.67.67,0,0,0,185.58,419Z"/><path class="cls-5" d="M231.05,468.44a.67.67,0,1,0,.67-.69A.68.68,0,0,0,231.05,468.44Z"/><ellipse class="cls-4" cx="254.47" cy="508.08" rx="0.67" ry="0.69"/><ellipse class="cls-4" cx="323.75" cy="508.3" rx="0.67" ry="0.69"/><ellipse class="cls-4" cx="302.18" cy="628.81" rx="0.67" ry="0.69"/><ellipse class="cls-4" cx="320.98" cy="569.16" rx="0.67" ry="0.69"/><ellipse class="cls-4" cx="363.19" cy="540.87" rx="0.67" ry="0.69"/><ellipse class="cls-4" cx="394.89" cy="525.12" rx="0.67" ry="0.69"/><ellipse class="cls-4" cx="434.26" cy="493.55" rx="0.67" ry="0.69"/><ellipse class="cls-4" cx="474.81" cy="441.88" rx="0.67" ry="0.69"/><path class="cls-5" d="M394.89,418.25a.67.67,0,1,0,.67-.69A.67.67,0,0,0,394.89,418.25Z"/><ellipse class="cls-4" cx="463.52" cy="597.7" rx="0.67" ry="0.69"/><path class="cls-5" d="M352.28,540.18a.67.67,0,1,0,.67-.69A.68.68,0,0,0,352.28,540.18Z"/><ellipse class="cls-4" cx="347.4" cy="412.49" rx="0.67" ry="0.69"/><ellipse class="cls-4" cx="500.38" cy="486.1" rx="0.67" ry="0.69"/><ellipse class="cls-4" cx="464.97" cy="522.25" rx="0.67" ry="0.69"/><ellipse class="cls-4" cx="456.19" cy="437.02" rx="0.67" ry="0.69"/><path class="cls-5" d="M459.21,619a.67.67,0,1,0,.67-.69A.68.68,0,0,0,459.21,619Z"/><ellipse class="cls-4" cx="539.28" cy="517.88" rx="0.67" ry="0.69"/><ellipse class="cls-4" cx="524.07" cy="419.64" rx="0.67" ry="0.69"/><ellipse class="cls-4" cx="433.59" cy="468.36" rx="0.67" ry="0.69"/><path class="cls-5" d="M484.82,497.53a.67.67,0,1,0,.67-.69A.68.68,0,0,0,484.82,497.53Z"/><ellipse class="cls-4" cx="429.61" cy="418.94" rx="0.67" ry="0.69"/><ellipse class="cls-4" cx="382.69" cy="606.21" rx="0.67" ry="0.69"/><ellipse class="cls-4" cx="419.46" cy="608.48" rx="0.67" ry="0.69"/><ellipse class="cls-4" cx="512" cy="614.51" rx="0.67" ry="0.69"/><ellipse class="cls-4" cx="329.52" cy="457.9" rx="0.67" ry="0.69"/><ellipse class="cls-4" cx="352.28" cy="497.53" rx="0.67" ry="0.69"/><ellipse class="cls-4" cx="419.39" cy="502.63" rx="0.67" ry="0.69"/><ellipse class="cls-4" cx="399.99" cy="618.27" rx="0.67" ry="0.69"/><path class="cls-5" d="M231.2,615a.67.67,0,1,0,.67-.69A.68.68,0,0,0,231.2,615Z"/><path class="cls-5" d="M137.5,527.74a.67.67,0,1,0,.67-.69A.68.68,0,0,0,137.5,527.74Z"/><path class="cls-5" d="M192.81,497.24a.67.67,0,1,0,.67-.69A.68.68,0,0,0,192.81,497.24Z"/><ellipse class="cls-4" cx="487.03" cy="427.19" rx="0.67" ry="0.69"/><ellipse class="cls-4" cx="240.74" cy="547.08" rx="0.67" ry="0.69"/><ellipse class="cls-4" cx="172.17" cy="570.55" rx="0.67" ry="0.69"/><ellipse class="cls-4" cx="141.93" cy="519.01" rx="0.67" ry="0.69"/><ellipse class="cls-6" cx="329.56" cy="525.86" rx="0.67" ry="0.69"/><ellipse class="cls-6" cx="316.54" cy="600.18" rx="0.67" ry="0.69"/><ellipse class="cls-6" cx="412.64" cy="637.09" rx="0.67" ry="0.69"/><ellipse class="cls-6" cx="431.61" cy="721.76" rx="0.67" ry="0.69"/><path class="cls-7" d="M371.1,608.8a.67.67,0,1,1-.67-.69A.68.68,0,0,1,371.1,608.8Z"/><ellipse class="cls-6" cx="338.73" cy="593.05" rx="0.67" ry="0.69"/><ellipse class="cls-6" cx="299.35" cy="561.49" rx="0.67" ry="0.69"/><ellipse class="cls-6" cx="258.81" cy="509.81" rx="0.67" ry="0.69"/><ellipse class="cls-6" cx="338.06" cy="486.19" rx="0.67" ry="0.69"/><ellipse class="cls-6" cx="380.67" cy="608.11" rx="0.67" ry="0.69"/><path class="cls-7" d="M386.89,480.42a.67.67,0,1,1-.67-.69A.67.67,0,0,1,386.89,480.42Z"/><path class="cls-7" d="M251.94,768.82a.67.67,0,1,1-.67-.69A.68.68,0,0,1,251.94,768.82Z"/><ellipse class="cls-6" cx="410.24" cy="495.54" rx="0.67" ry="0.69"/><ellipse class="cls-6" cx="404.46" cy="587.15" rx="0.67" ry="0.69"/><ellipse class="cls-6" cx="233.24" cy="554.03" rx="0.67" ry="0.69"/><ellipse class="cls-6" cx="505.93" cy="489.35" rx="0.67" ry="0.69"/><ellipse class="cls-6" cx="268.64" cy="590.18" rx="0.67" ry="0.69"/><ellipse class="cls-6" cx="330.33" cy="777.39" rx="0.67" ry="0.69"/><path class="cls-7" d="M553,480.45a.67.67,0,1,1-.67-.69A.68.68,0,0,1,553,480.45Z"/><ellipse class="cls-6" cx="277.42" cy="504.96" rx="0.67" ry="0.69"/><path class="cls-7" d="M408.38,681.08a.67.67,0,1,1-.67-.69A.68.68,0,0,1,408.38,681.08Z"/><ellipse class="cls-6" cx="194.33" cy="585.81" rx="0.67" ry="0.69"/><ellipse class="cls-6" cx="209.54" cy="487.57" rx="0.67" ry="0.69"/><path class="cls-7" d="M353.07,650.58a.67.67,0,1,1-.67-.69A.68.68,0,0,1,353.07,650.58Z"/><path class="cls-7" d="M300.69,536.29a.67.67,0,1,1-.67-.69A.68.68,0,0,1,300.69,536.29Z"/><ellipse class="cls-6" cx="456.77" cy="701.09" rx="0.67" ry="0.69"/><ellipse class="cls-6" cx="418.02" cy="539.06" rx="0.67" ry="0.69"/><ellipse class="cls-6" cx="450.9" cy="544.8" rx="0.67" ry="0.69"/><path class="cls-7" d="M374.38,723.89a.67.67,0,1,1-.67-.69A.68.68,0,0,1,374.38,723.89Z"/><ellipse class="cls-6" cx="248.13" cy="565.47" rx="0.67" ry="0.69"/><path class="cls-7" d="M311.4,573.81a.67.67,0,1,1-.67-.69A.68.68,0,0,1,311.4,573.81Z"/><ellipse class="cls-6" cx="304.01" cy="486.88" rx="0.67" ry="0.69"/><ellipse class="cls-6" cx="190.88" cy="539.04" rx="0.67" ry="0.69"/><path class="cls-7" d="M351.6,674.14a.67.67,0,1,1-.67-.69A.67.67,0,0,1,351.6,674.14Z"/><ellipse class="cls-6" cx="323.19" cy="511.97" rx="0.67" ry="0.69"/><ellipse class="cls-6" cx="450.23" cy="606.47" rx="0.67" ry="0.69"/><ellipse class="cls-6" cx="314.16" cy="676.41" rx="0.67" ry="0.69"/><ellipse class="cls-6" cx="221.61" cy="682.44" rx="0.67" ry="0.69"/><path class="cls-7" d="M450.23,476.42a.67.67,0,1,1-.67-.7A.68.68,0,0,1,450.23,476.42Z"/><path class="cls-7" d="M404.76,525.83a.67.67,0,1,1-.67-.69A.67.67,0,0,1,404.76,525.83Z"/><ellipse class="cls-6" cx="381.34" cy="565.47" rx="0.67" ry="0.69"/><ellipse class="cls-6" cx="312.06" cy="565.69" rx="0.67" ry="0.69"/><ellipse class="cls-6" cx="333.63" cy="686.2" rx="0.67" ry="0.69"/><ellipse class="cls-6" cx="314.84" cy="626.55" rx="0.67" ry="0.69"/><ellipse class="cls-6" cx="272.62" cy="598.26" rx="0.67" ry="0.69"/><ellipse class="cls-6" cx="240.92" cy="582.51" rx="0.67" ry="0.69"/><ellipse class="cls-6" cx="201.55" cy="550.94" rx="0.67" ry="0.69"/><ellipse class="cls-6" cx="161" cy="499.27" rx="0.67" ry="0.69"/><path class="cls-7" d="M240.92,475.64a.67.67,0,1,1-.67-.69A.68.68,0,0,1,240.92,475.64Z"/><ellipse class="cls-6" cx="172.29" cy="655.09" rx="0.67" ry="0.69"/><path class="cls-7" d="M283.54,597.57a.67.67,0,1,1-.67-.69A.68.68,0,0,1,283.54,597.57Z"/><ellipse class="cls-6" cx="288.42" cy="469.88" rx="0.67" ry="0.69"/><ellipse class="cls-6" cx="135.43" cy="543.49" rx="0.67" ry="0.69"/><ellipse class="cls-6" cx="170.84" cy="579.64" rx="0.67" ry="0.69"/><ellipse class="cls-6" cx="179.62" cy="494.41" rx="0.67" ry="0.69"/><path class="cls-7" d="M176.6,676.35a.67.67,0,1,1-.67-.69A.68.68,0,0,1,176.6,676.35Z"/><ellipse class="cls-6" cx="96.53" cy="575.27" rx="0.67" ry="0.69"/><ellipse class="cls-6" cx="111.74" cy="477.02" rx="0.67" ry="0.69"/><ellipse class="cls-6" cx="202.22" cy="525.75" rx="0.67" ry="0.69"/><path class="cls-7" d="M151,554.92a.67.67,0,1,1-.67-.69A.67.67,0,0,1,151,554.92Z"/><ellipse class="cls-6" cx="206.2" cy="476.33" rx="0.67" ry="0.69"/><ellipse class="cls-6" cx="253.13" cy="663.6" rx="0.67" ry="0.69"/><ellipse class="cls-6" cx="216.35" cy="665.87" rx="0.67" ry="0.69"/><ellipse class="cls-6" cx="123.81" cy="671.9" rx="0.67" ry="0.69"/><ellipse class="cls-6" cx="306.29" cy="515.29" rx="0.67" ry="0.69"/><ellipse class="cls-6" cx="283.54" cy="554.92" rx="0.67" ry="0.69"/><ellipse class="cls-6" cx="216.43" cy="560.01" rx="0.67" ry="0.69"/><ellipse class="cls-6" cx="235.82" cy="675.66" rx="0.67" ry="0.69"/><path class="cls-7" d="M404.62,672.35a.67.67,0,1,1-.67-.69A.68.68,0,0,1,404.62,672.35Z"/><path class="cls-7" d="M498.31,585.13a.67.67,0,1,1-.67-.69A.68.68,0,0,1,498.31,585.13Z"/><path class="cls-7" d="M443,554.63a.67.67,0,1,1-.67-.7A.68.68,0,0,1,443,554.63Z"/><ellipse class="cls-6" cx="148.78" cy="484.58" rx="0.67" ry="0.69"/><ellipse class="cls-6" cx="395.07" cy="604.47" rx="0.67" ry="0.69"/><ellipse class="cls-6" cx="463.64" cy="627.94" rx="0.67" ry="0.69"/><ellipse class="cls-6" cx="493.88" cy="576.4" rx="0.67" ry="0.69"/></g><g class="cls-1"><ellipse class="cls-2" cx="1135" cy="163.83" rx="0.64" ry="0.66"/><ellipse class="cls-2" cx="1147.48" cy="235.1" rx="0.64" ry="0.66"/><ellipse class="cls-2" cx="1055.33" cy="270.5" rx="0.64" ry="0.66"/><ellipse class="cls-2" cx="1037.13" cy="351.7" rx="0.64" ry="0.66"/><path class="cls-3" d="M1095.16,243.37a.65.65,0,1,0,.65-.66A.65.65,0,0,0,1095.16,243.37Z"/><ellipse class="cls-2" cx="1126.21" cy="228.27" rx="0.64" ry="0.66"/><ellipse class="cls-2" cx="1163.97" cy="198" rx="0.64" ry="0.66"/><ellipse class="cls-2" cx="1202.85" cy="148.44" rx="0.64" ry="0.66"/><ellipse class="cls-2" cx="1126.85" cy="125.78" rx="0.64" ry="0.66"/><ellipse class="cls-2" cx="1085.98" cy="242.71" rx="0.64" ry="0.66"/><path class="cls-3" d="M1080,120.26a.65.65,0,1,0,.64-.66A.65.65,0,0,0,1080,120.26Z"/><path class="cls-3" d="M1209.43,396.82a.65.65,0,1,0,.65-.66A.66.66,0,0,0,1209.43,396.82Z"/><ellipse class="cls-2" cx="1057.63" cy="134.76" rx="0.64" ry="0.66"/><ellipse class="cls-2" cx="1063.17" cy="222.61" rx="0.64" ry="0.66"/><ellipse class="cls-2" cx="1227.37" cy="190.85" rx="0.64" ry="0.66"/><ellipse class="cls-2" cx="965.86" cy="128.82" rx="0.64" ry="0.66"/><ellipse class="cls-2" cx="1193.42" cy="225.51" rx="0.64" ry="0.66"/><ellipse class="cls-2" cx="1134.26" cy="405.04" rx="0.64" ry="0.66"/><path class="cls-3" d="M920.75,120.28a.64.64,0,1,0,.64-.66A.64.64,0,0,0,920.75,120.28Z"/><ellipse class="cls-2" cx="1185" cy="143.78" rx="0.64" ry="0.66"/><path class="cls-3" d="M1059.41,312.68a.65.65,0,1,0,.64-.66A.66.66,0,0,0,1059.41,312.68Z"/><ellipse class="cls-2" cx="1264.68" cy="221.33" rx="0.64" ry="0.66"/><ellipse class="cls-2" cx="1250.09" cy="127.11" rx="0.64" ry="0.66"/><path class="cls-3" d="M1112.46,283.43a.64.64,0,1,0,.64-.66A.65.65,0,0,0,1112.46,283.43Z"/><path class="cls-3" d="M1162.68,173.83a.65.65,0,1,0,.64-.66A.66.66,0,0,0,1162.68,173.83Z"/><ellipse class="cls-2" cx="1013.01" cy="331.88" rx="0.64" ry="0.66"/><ellipse class="cls-2" cx="1050.16" cy="176.49" rx="0.64" ry="0.66"/><ellipse class="cls-2" cx="1018.64" cy="182" rx="0.64" ry="0.66"/><path class="cls-3" d="M1092,353.74a.66.66,0,0,0,.64.66.66.66,0,1,0-.64-.66Z"/><ellipse class="cls-2" cx="1213.09" cy="201.81" rx="0.64" ry="0.66"/><path class="cls-3" d="M1152.41,209.81a.65.65,0,1,0,1.29,0,.65.65,0,1,0-1.29,0Z"/><ellipse class="cls-2" cx="1159.5" cy="126.45" rx="0.64" ry="0.66"/><ellipse class="cls-2" cx="1267.99" cy="176.47" rx="0.64" ry="0.66"/><path class="cls-3" d="M1113.86,306a.65.65,0,1,0,.64-.66A.66.66,0,0,0,1113.86,306Z"/><ellipse class="cls-2" cx="1141.11" cy="150.51" rx="0.64" ry="0.66"/><ellipse class="cls-2" cx="1019.28" cy="241.13" rx="0.64" ry="0.66"/><ellipse class="cls-2" cx="1149.77" cy="308.21" rx="0.64" ry="0.66"/><ellipse class="cls-2" cx="1238.52" cy="313.99" rx="0.64" ry="0.66"/><path class="cls-3" d="M1019.28,116.42a.65.65,0,1,0,.64-.67A.66.66,0,0,0,1019.28,116.42Z"/><path class="cls-3" d="M1062.88,163.81a.65.65,0,1,0,.64-.67A.66.66,0,0,0,1062.88,163.81Z"/><ellipse class="cls-2" cx="1085.34" cy="201.81" rx="0.64" ry="0.66"/><ellipse class="cls-2" cx="1151.78" cy="202.03" rx="0.64" ry="0.66"/><ellipse class="cls-2" cx="1131.1" cy="317.6" rx="0.64" ry="0.66"/><ellipse class="cls-2" cx="1149.12" cy="260.39" rx="0.64" ry="0.66"/><ellipse class="cls-2" cx="1189.6" cy="233.26" rx="0.64" ry="0.66"/><ellipse class="cls-2" cx="1220" cy="218.16" rx="0.64" ry="0.66"/><ellipse class="cls-2" cx="1257.76" cy="187.88" rx="0.64" ry="0.66"/><ellipse class="cls-2" cx="1296.64" cy="138.33" rx="0.64" ry="0.66"/><path class="cls-3" d="M1220,115.67a.64.64,0,1,0,1.28,0,.65.65,0,0,0-.64-.66A.66.66,0,0,0,1220,115.67Z"/><ellipse class="cls-2" cx="1285.81" cy="287.76" rx="0.64" ry="0.66"/><path class="cls-3" d="M1179.13,232.6a.65.65,0,1,0,1.29,0,.65.65,0,1,0-1.29,0Z"/><ellipse class="cls-2" cx="1174.45" cy="110.15" rx="0.64" ry="0.66"/><ellipse class="cls-2" cx="1321.16" cy="180.74" rx="0.64" ry="0.66"/><ellipse class="cls-2" cx="1287.21" cy="215.4" rx="0.64" ry="0.66"/><ellipse class="cls-2" cx="1278.79" cy="133.67" rx="0.64" ry="0.66"/><path class="cls-3" d="M1281.68,308.15a.65.65,0,1,0,1.29,0,.65.65,0,1,0-1.29,0Z"/><ellipse class="cls-2" cx="1358.47" cy="211.22" rx="0.64" ry="0.66"/><ellipse class="cls-2" cx="1343.88" cy="117" rx="0.64" ry="0.66"/><ellipse class="cls-2" cx="1257.12" cy="163.72" rx="0.64" ry="0.66"/><path class="cls-3" d="M1306.24,191.7a.64.64,0,1,0,.64-.66A.65.65,0,0,0,1306.24,191.7Z"/><ellipse class="cls-2" cx="1253.29" cy="116.34" rx="0.64" ry="0.66"/><ellipse class="cls-2" cx="1208.3" cy="295.92" rx="0.64" ry="0.66"/><ellipse class="cls-2" cx="1243.56" cy="298.1" rx="0.64" ry="0.66"/><ellipse class="cls-2" cx="1332.31" cy="303.88" rx="0.64" ry="0.66"/><ellipse class="cls-2" cx="1157.32" cy="153.7" rx="0.64" ry="0.66"/><ellipse class="cls-2" cx="1179.13" cy="191.7" rx="0.64" ry="0.66"/><ellipse class="cls-2" cx="1243.49" cy="196.58" rx="0.64" ry="0.66"/><ellipse class="cls-2" cx="1224.89" cy="307.49" rx="0.64" ry="0.66"/><path class="cls-3" d="M1063,304.31a.65.65,0,1,0,.64-.66A.66.66,0,0,0,1063,304.31Z"/><path class="cls-3" d="M973.17,220.67a.65.65,0,0,0,.64.66.67.67,0,1,0-.64-.66Z"/><path class="cls-3" d="M1026.21,191.42a.65.65,0,1,0,.64-.67A.66.66,0,0,0,1026.21,191.42Z"/><ellipse class="cls-2" cx="1308.36" cy="124.24" rx="0.64" ry="0.66"/><ellipse class="cls-2" cx="1072.18" cy="239.22" rx="0.64" ry="0.66"/><ellipse class="cls-2" cx="1006.42" cy="261.72" rx="0.64" ry="0.66"/><ellipse class="cls-2" cx="977.42" cy="212.3" rx="0.64" ry="0.66"/><ellipse class="cls-2" cx="1111.55" cy="209.45" rx="0.64" ry="0.66"/><ellipse class="cls-2" cx="1099.07" cy="280.72" rx="0.64" ry="0.66"/><ellipse class="cls-2" cx="1191.22" cy="316.12" rx="0.64" ry="0.66"/><ellipse class="cls-2" cx="1209.42" cy="397.32" rx="0.64" ry="0.66"/><path class="cls-3" d="M1151.39,289a.65.65,0,1,1-.65-.66A.65.65,0,0,1,1151.39,289Z"/><ellipse class="cls-2" cx="1120.34" cy="273.89" rx="0.64" ry="0.66"/><ellipse class="cls-2" cx="1082.58" cy="243.61" rx="0.64" ry="0.66"/><ellipse class="cls-2" cx="1043.7" cy="194.06" rx="0.64" ry="0.66"/><ellipse class="cls-2" cx="1119.7" cy="171.4" rx="0.64" ry="0.66"/><ellipse class="cls-2" cx="1160.57" cy="288.33" rx="0.64" ry="0.66"/><path class="cls-3" d="M1166.53,165.88a.65.65,0,1,1-.64-.66A.66.66,0,0,1,1166.53,165.88Z"/><path class="cls-3" d="M1037.12,442.44a.65.65,0,1,1-.65-.66A.66.66,0,0,1,1037.12,442.44Z"/><ellipse class="cls-2" cx="1188.92" cy="180.37" rx="0.64" ry="0.66"/><ellipse class="cls-2" cx="1183.38" cy="268.23" rx="0.64" ry="0.66"/><ellipse class="cls-2" cx="1019.18" cy="236.47" rx="0.64" ry="0.66"/><ellipse class="cls-2" cx="1280.69" cy="174.44" rx="0.64" ry="0.66"/><ellipse class="cls-2" cx="1053.13" cy="271.13" rx="0.64" ry="0.66"/><ellipse class="cls-2" cx="1112.29" cy="450.66" rx="0.64" ry="0.66"/><path class="cls-3" d="M1325.8,165.9a.64.64,0,1,1-.64-.66A.64.64,0,0,1,1325.8,165.9Z"/><ellipse class="cls-2" cx="1061.56" cy="189.4" rx="0.64" ry="0.66"/><path class="cls-3" d="M1187.14,358.3a.65.65,0,1,1-1.29,0,.65.65,0,1,1,1.29,0Z"/><ellipse class="cls-2" cx="981.87" cy="266.95" rx="0.64" ry="0.66"/><ellipse class="cls-2" cx="996.46" cy="172.73" rx="0.64" ry="0.66"/><path class="cls-3" d="M1134.09,329.05a.64.64,0,1,1-1.28,0,.66.66,0,0,1,.64-.66A.65.65,0,0,1,1134.09,329.05Z"/><path class="cls-3" d="M1083.87,219.45a.65.65,0,1,1-.64-.66A.66.66,0,0,1,1083.87,219.45Z"/><ellipse class="cls-2" cx="1233.54" cy="377.5" rx="0.64" ry="0.66"/><ellipse class="cls-2" cx="1196.39" cy="222.11" rx="0.64" ry="0.66"/><ellipse class="cls-2" cx="1227.91" cy="227.62" rx="0.64" ry="0.66"/><path class="cls-3" d="M1154.53,399.36a.66.66,0,0,1-.64.66.66.66,0,1,1,.64-.66Z"/><ellipse class="cls-2" cx="1033.46" cy="247.43" rx="0.64" ry="0.66"/><path class="cls-3" d="M1094.14,255.43a.65.65,0,1,1-.64-.66A.65.65,0,0,1,1094.14,255.43Z"/><ellipse class="cls-2" cx="1087.05" cy="172.07" rx="0.64" ry="0.66"/><ellipse class="cls-2" cx="978.56" cy="222.09" rx="0.64" ry="0.66"/><path class="cls-3" d="M1132.69,351.65a.65.65,0,1,1-1.29,0,.65.65,0,1,1,1.29,0Z"/><ellipse class="cls-2" cx="1105.44" cy="196.13" rx="0.64" ry="0.66"/><ellipse class="cls-2" cx="1227.27" cy="286.75" rx="0.64" ry="0.66"/><ellipse class="cls-2" cx="1096.78" cy="353.83" rx="0.64" ry="0.66"/><ellipse class="cls-2" cx="1008.03" cy="359.61" rx="0.64" ry="0.66"/><path class="cls-3" d="M1227.27,162a.65.65,0,1,1-.64-.66A.66.66,0,0,1,1227.27,162Z"/><path class="cls-3" d="M1183.67,209.43a.65.65,0,1,1-.64-.67A.66.66,0,0,1,1183.67,209.43Z"/><ellipse class="cls-2" cx="1161.21" cy="247.43" rx="0.64" ry="0.66"/><ellipse class="cls-2" cx="1094.77" cy="247.65" rx="0.64" ry="0.66"/><ellipse class="cls-2" cx="1115.45" cy="363.22" rx="0.64" ry="0.66"/><ellipse class="cls-2" cx="1097.43" cy="306.01" rx="0.64" ry="0.66"/><ellipse class="cls-2" cx="1056.95" cy="278.88" rx="0.64" ry="0.66"/><ellipse class="cls-2" cx="1026.55" cy="263.77" rx="0.64" ry="0.66"/><ellipse class="cls-2" cx="988.79" cy="233.5" rx="0.64" ry="0.66"/><ellipse class="cls-2" cx="949.91" cy="183.95" rx="0.64" ry="0.66"/><path class="cls-3" d="M1026.55,161.29a.64.64,0,1,1-1.28,0,.65.65,0,0,1,.64-.66A.66.66,0,0,1,1026.55,161.29Z"/><ellipse class="cls-2" cx="960.74" cy="333.38" rx="0.64" ry="0.66"/><path class="cls-3" d="M1067.42,278.22a.65.65,0,1,1-.65-.67A.66.66,0,0,1,1067.42,278.22Z"/><ellipse class="cls-2" cx="1072.1" cy="155.77" rx="0.64" ry="0.66"/><ellipse class="cls-2" cx="925.39" cy="226.36" rx="0.64" ry="0.66"/><ellipse class="cls-2" cx="959.34" cy="261.02" rx="0.64" ry="0.66"/><ellipse class="cls-2" cx="967.76" cy="179.29" rx="0.64" ry="0.66"/><path class="cls-3" d="M964.87,353.77a.65.65,0,1,1-1.29,0,.65.65,0,1,1,1.29,0Z"/><ellipse class="cls-2" cx="888.08" cy="256.84" rx="0.64" ry="0.66"/><ellipse class="cls-2" cx="902.67" cy="162.62" rx="0.64" ry="0.66"/><ellipse class="cls-2" cx="989.44" cy="209.34" rx="0.64" ry="0.66"/><path class="cls-3" d="M940.31,237.32a.64.64,0,1,1-1.28,0,.66.66,0,0,1,.64-.66A.65.65,0,0,1,940.31,237.32Z"/><ellipse class="cls-2" cx="993.26" cy="161.96" rx="0.64" ry="0.66"/><ellipse class="cls-2" cx="1038.25" cy="341.54" rx="0.64" ry="0.66"/><ellipse class="cls-2" cx="1002.99" cy="343.72" rx="0.64" ry="0.66"/><ellipse class="cls-2" cx="914.24" cy="349.5" rx="0.64" ry="0.66"/><ellipse class="cls-2" cx="1089.23" cy="199.31" rx="0.64" ry="0.66"/><ellipse class="cls-2" cx="1067.42" cy="237.32" rx="0.64" ry="0.66"/><ellipse class="cls-2" cx="1003.06" cy="242.2" rx="0.64" ry="0.66"/><ellipse class="cls-2" cx="1021.66" cy="353.11" rx="0.64" ry="0.66"/><path class="cls-3" d="M1183.53,349.93a.65.65,0,1,1-.64-.66A.66.66,0,0,1,1183.53,349.93Z"/><path class="cls-3" d="M1273.38,266.29a.65.65,0,0,1-.64.66.67.67,0,1,1,.64-.66Z"/><path class="cls-3" d="M1220.34,237a.65.65,0,1,1-.64-.67A.66.66,0,0,1,1220.34,237Z"/><ellipse class="cls-2" cx="938.19" cy="169.86" rx="0.64" ry="0.66"/><ellipse class="cls-2" cx="1174.37" cy="284.84" rx="0.64" ry="0.66"/><ellipse class="cls-2" cx="1240.13" cy="307.34" rx="0.64" ry="0.66"/><ellipse class="cls-2" cx="1269.13" cy="257.92" rx="0.64" ry="0.66"/><ellipse class="cls-4" cx="1143.52" cy="468.47" rx="0.67" ry="0.69"/><ellipse class="cls-4" cx="1156.53" cy="542.79" rx="0.67" ry="0.69"/><ellipse class="cls-4" cx="1060.44" cy="579.7" rx="0.67" ry="0.69"/><ellipse class="cls-4" cx="1041.47" cy="664.37" rx="0.67" ry="0.69"/><path class="cls-5" d="M1102,551.41a.67.67,0,1,0,.67-.69A.68.68,0,0,0,1102,551.41Z"/><ellipse class="cls-4" cx="1134.35" cy="535.66" rx="0.67" ry="0.69"/><ellipse class="cls-4" cx="1173.73" cy="504.1" rx="0.67" ry="0.69"/><ellipse class="cls-4" cx="1214.27" cy="452.42" rx="0.67" ry="0.69"/><ellipse class="cls-4" cx="1135.02" cy="428.8" rx="0.67" ry="0.69"/><ellipse class="cls-4" cx="1092.41" cy="550.72" rx="0.67" ry="0.69"/><path class="cls-5" d="M1086.19,423a.67.67,0,1,0,.67-.69A.68.68,0,0,0,1086.19,423Z"/><path class="cls-5" d="M1221.14,711.43a.67.67,0,1,0,.67-.69A.68.68,0,0,0,1221.14,711.43Z"/><ellipse class="cls-4" cx="1062.84" cy="438.15" rx="0.67" ry="0.69"/><ellipse class="cls-4" cx="1068.62" cy="529.76" rx="0.67" ry="0.69"/><ellipse class="cls-4" cx="1239.84" cy="496.64" rx="0.67" ry="0.69"/><ellipse class="cls-4" cx="967.15" cy="431.96" rx="0.67" ry="0.69"/><ellipse class="cls-4" cx="1204.44" cy="532.79" rx="0.67" ry="0.69"/><ellipse class="cls-4" cx="1142.75" cy="720" rx="0.67" ry="0.69"/><path class="cls-5" d="M920.1,423.06a.67.67,0,1,0,.67-.69A.68.68,0,0,0,920.1,423.06Z"/><ellipse class="cls-4" cx="1195.66" cy="447.57" rx="0.67" ry="0.69"/><path class="cls-5" d="M1064.7,623.69a.67.67,0,1,0,.67-.69A.68.68,0,0,0,1064.7,623.69Z"/><ellipse class="cls-4" cx="1278.74" cy="528.43" rx="0.67" ry="0.69"/><ellipse class="cls-4" cx="1263.54" cy="430.18" rx="0.67" ry="0.69"/><path class="cls-5" d="M1120,593.19a.67.67,0,1,0,.67-.69A.68.68,0,0,0,1120,593.19Z"/><path class="cls-5" d="M1172.39,478.9a.67.67,0,1,0,.67-.69A.68.68,0,0,0,1172.39,478.9Z"/><ellipse class="cls-4" cx="1016.31" cy="643.7" rx="0.67" ry="0.69"/><ellipse class="cls-4" cx="1055.06" cy="481.67" rx="0.67" ry="0.69"/><ellipse class="cls-4" cx="1022.18" cy="487.41" rx="0.67" ry="0.69"/><path class="cls-5" d="M1098.7,666.5a.67.67,0,1,0,.67-.69A.68.68,0,0,0,1098.7,666.5Z"/><ellipse class="cls-4" cx="1224.95" cy="508.08" rx="0.67" ry="0.69"/><path class="cls-5" d="M1161.68,516.42a.67.67,0,1,0,.67-.69A.68.68,0,0,0,1161.68,516.42Z"/><ellipse class="cls-4" cx="1169.07" cy="429.49" rx="0.67" ry="0.69"/><ellipse class="cls-4" cx="1282.2" cy="481.65" rx="0.67" ry="0.69"/><path class="cls-5" d="M1121.48,616.75a.67.67,0,1,0,.67-.69A.68.68,0,0,0,1121.48,616.75Z"/><ellipse class="cls-4" cx="1149.89" cy="454.58" rx="0.67" ry="0.69"/><ellipse class="cls-4" cx="1022.85" cy="549.08" rx="0.67" ry="0.69"/><ellipse class="cls-4" cx="1158.92" cy="619.02" rx="0.67" ry="0.69"/><ellipse class="cls-4" cx="1251.47" cy="625.05" rx="0.67" ry="0.69"/><path class="cls-5" d="M1022.85,419a.67.67,0,1,0,.67-.69A.68.68,0,0,0,1022.85,419Z"/><path class="cls-5" d="M1068.32,468.44a.67.67,0,1,0,.67-.69A.68.68,0,0,0,1068.32,468.44Z"/><ellipse class="cls-4" cx="1091.74" cy="508.08" rx="0.67" ry="0.69"/><ellipse class="cls-4" cx="1161.01" cy="508.3" rx="0.67" ry="0.69"/><ellipse class="cls-4" cx="1139.45" cy="628.81" rx="0.67" ry="0.69"/><ellipse class="cls-4" cx="1158.24" cy="569.16" rx="0.67" ry="0.69"/><ellipse class="cls-4" cx="1200.46" cy="540.87" rx="0.67" ry="0.69"/><ellipse class="cls-4" cx="1232.16" cy="525.12" rx="0.67" ry="0.69"/><ellipse class="cls-4" cx="1271.53" cy="493.55" rx="0.67" ry="0.69"/><ellipse class="cls-4" cx="1312.08" cy="441.88" rx="0.67" ry="0.69"/><path class="cls-5" d="M1232.16,418.25a.67.67,0,1,0,.67-.69A.67.67,0,0,0,1232.16,418.25Z"/><ellipse class="cls-4" cx="1300.79" cy="597.7" rx="0.67" ry="0.69"/><path class="cls-5" d="M1189.54,540.18a.67.67,0,1,0,.67-.69A.68.68,0,0,0,1189.54,540.18Z"/><ellipse class="cls-4" cx="1184.66" cy="412.49" rx="0.67" ry="0.69"/><ellipse class="cls-4" cx="1337.65" cy="486.1" rx="0.67" ry="0.69"/><ellipse class="cls-4" cx="1302.24" cy="522.25" rx="0.67" ry="0.69"/><ellipse class="cls-4" cx="1293.46" cy="437.02" rx="0.67" ry="0.69"/><path class="cls-5" d="M1296.48,619a.67.67,0,1,0,.67-.69A.68.68,0,0,0,1296.48,619Z"/><ellipse class="cls-4" cx="1376.55" cy="517.88" rx="0.67" ry="0.69"/><ellipse class="cls-4" cx="1361.34" cy="419.64" rx="0.67" ry="0.69"/><ellipse class="cls-4" cx="1270.86" cy="468.36" rx="0.67" ry="0.69"/><path class="cls-5" d="M1322.08,497.53a.67.67,0,1,0,.67-.69A.68.68,0,0,0,1322.08,497.53Z"/><ellipse class="cls-4" cx="1266.87" cy="418.94" rx="0.67" ry="0.69"/><ellipse class="cls-4" cx="1219.95" cy="606.21" rx="0.67" ry="0.69"/><ellipse class="cls-4" cx="1256.73" cy="608.48" rx="0.67" ry="0.69"/><ellipse class="cls-4" cx="1349.27" cy="614.51" rx="0.67" ry="0.69"/><ellipse class="cls-4" cx="1166.79" cy="457.9" rx="0.67" ry="0.69"/><ellipse class="cls-4" cx="1189.54" cy="497.53" rx="0.67" ry="0.69"/><ellipse class="cls-4" cx="1256.65" cy="502.63" rx="0.67" ry="0.69"/><ellipse class="cls-4" cx="1237.26" cy="618.27" rx="0.67" ry="0.69"/><path class="cls-5" d="M1068.46,615a.67.67,0,1,0,.67-.69A.68.68,0,0,0,1068.46,615Z"/><path class="cls-5" d="M974.77,527.74a.67.67,0,1,0,.67-.69A.68.68,0,0,0,974.77,527.74Z"/><path class="cls-5" d="M1030.08,497.24a.67.67,0,1,0,.67-.69A.68.68,0,0,0,1030.08,497.24Z"/><ellipse class="cls-4" cx="1324.3" cy="427.19" rx="0.67" ry="0.69"/><ellipse class="cls-4" cx="1078.01" cy="547.08" rx="0.67" ry="0.69"/><ellipse class="cls-4" cx="1009.44" cy="570.55" rx="0.67" ry="0.69"/><ellipse class="cls-4" cx="979.2" cy="519.01" rx="0.67" ry="0.69"/><ellipse class="cls-6" cx="1166.82" cy="525.86" rx="0.67" ry="0.69"/><ellipse class="cls-6" cx="1153.81" cy="600.18" rx="0.67" ry="0.69"/><ellipse class="cls-6" cx="1249.91" cy="637.09" rx="0.67" ry="0.69"/><ellipse class="cls-6" cx="1268.88" cy="721.76" rx="0.67" ry="0.69"/><path class="cls-7" d="M1208.37,608.8a.68.68,0,1,1-.68-.69A.68.68,0,0,1,1208.37,608.8Z"/><ellipse class="cls-6" cx="1175.99" cy="593.05" rx="0.67" ry="0.69"/><ellipse class="cls-6" cx="1136.62" cy="561.49" rx="0.67" ry="0.69"/><ellipse class="cls-6" cx="1096.08" cy="509.81" rx="0.67" ry="0.69"/><ellipse class="cls-6" cx="1175.32" cy="486.19" rx="0.67" ry="0.69"/><ellipse class="cls-6" cx="1217.94" cy="608.11" rx="0.67" ry="0.69"/><path class="cls-7" d="M1224.16,480.42a.67.67,0,1,1-.67-.69A.67.67,0,0,1,1224.16,480.42Z"/><path class="cls-7" d="M1089.21,768.82a.67.67,0,1,1-.67-.69A.68.68,0,0,1,1089.21,768.82Z"/><ellipse class="cls-6" cx="1247.51" cy="495.54" rx="0.67" ry="0.69"/><ellipse class="cls-6" cx="1241.73" cy="587.15" rx="0.67" ry="0.69"/><ellipse class="cls-6" cx="1070.5" cy="554.03" rx="0.67" ry="0.69"/><ellipse class="cls-6" cx="1343.2" cy="489.35" rx="0.67" ry="0.69"/><ellipse class="cls-6" cx="1105.91" cy="590.18" rx="0.67" ry="0.69"/><ellipse class="cls-6" cx="1167.59" cy="777.39" rx="0.67" ry="0.69"/><path class="cls-7" d="M1390.24,480.45a.67.67,0,1,1-.67-.69A.68.68,0,0,1,1390.24,480.45Z"/><ellipse class="cls-6" cx="1114.69" cy="504.96" rx="0.67" ry="0.69"/><path class="cls-7" d="M1245.65,681.08a.67.67,0,1,1-.67-.69A.68.68,0,0,1,1245.65,681.08Z"/><ellipse class="cls-6" cx="1031.6" cy="585.81" rx="0.67" ry="0.69"/><ellipse class="cls-6" cx="1046.81" cy="487.57" rx="0.67" ry="0.69"/><path class="cls-7" d="M1190.33,650.58a.67.67,0,1,1-.67-.69A.68.68,0,0,1,1190.33,650.58Z"/><path class="cls-7" d="M1138,536.29a.67.67,0,1,1-.67-.69A.68.68,0,0,1,1138,536.29Z"/><ellipse class="cls-6" cx="1294.03" cy="701.09" rx="0.67" ry="0.69"/><ellipse class="cls-6" cx="1255.29" cy="539.06" rx="0.67" ry="0.69"/><ellipse class="cls-6" cx="1288.17" cy="544.8" rx="0.67" ry="0.69"/><path class="cls-7" d="M1211.65,723.89a.68.68,0,0,1-.67.69.69.69,0,0,1,0-1.38A.68.68,0,0,1,1211.65,723.89Z"/><ellipse class="cls-6" cx="1085.4" cy="565.47" rx="0.67" ry="0.69"/><path class="cls-7" d="M1148.67,573.81a.67.67,0,1,1-.67-.69A.68.68,0,0,1,1148.67,573.81Z"/><ellipse class="cls-6" cx="1141.28" cy="486.88" rx="0.67" ry="0.69"/><ellipse class="cls-6" cx="1028.15" cy="539.04" rx="0.67" ry="0.69"/><path class="cls-7" d="M1188.87,674.14a.67.67,0,1,1-.67-.69A.67.67,0,0,1,1188.87,674.14Z"/><ellipse class="cls-6" cx="1160.45" cy="511.97" rx="0.67" ry="0.69"/><ellipse class="cls-6" cx="1287.5" cy="606.47" rx="0.67" ry="0.69"/><ellipse class="cls-6" cx="1151.42" cy="676.41" rx="0.67" ry="0.69"/><ellipse class="cls-6" cx="1058.88" cy="682.44" rx="0.67" ry="0.69"/><path class="cls-7" d="M1287.5,476.42a.68.68,0,1,1-.68-.7A.68.68,0,0,1,1287.5,476.42Z"/><path class="cls-7" d="M1242,525.83a.67.67,0,1,1-.67-.69A.67.67,0,0,1,1242,525.83Z"/><ellipse class="cls-6" cx="1218.61" cy="565.47" rx="0.67" ry="0.69"/><ellipse class="cls-6" cx="1149.33" cy="565.69" rx="0.67" ry="0.69"/><ellipse class="cls-6" cx="1170.89" cy="686.2" rx="0.67" ry="0.69"/><ellipse class="cls-6" cx="1152.1" cy="626.55" rx="0.67" ry="0.69"/><ellipse class="cls-6" cx="1109.89" cy="598.26" rx="0.67" ry="0.69"/><ellipse class="cls-6" cx="1078.19" cy="582.51" rx="0.67" ry="0.69"/><ellipse class="cls-6" cx="1038.82" cy="550.94" rx="0.67" ry="0.69"/><ellipse class="cls-6" cx="998.27" cy="499.27" rx="0.67" ry="0.69"/><path class="cls-7" d="M1078.19,475.64a.67.67,0,1,1-.67-.69A.68.68,0,0,1,1078.19,475.64Z"/><ellipse class="cls-6" cx="1009.56" cy="655.09" rx="0.67" ry="0.69"/><path class="cls-7" d="M1120.8,597.57a.67.67,0,1,1-.67-.69A.68.68,0,0,1,1120.8,597.57Z"/><ellipse class="cls-6" cx="1125.68" cy="469.88" rx="0.67" ry="0.69"/><ellipse class="cls-6" cx="972.7" cy="543.49" rx="0.67" ry="0.69"/><ellipse class="cls-6" cx="1008.1" cy="579.64" rx="0.67" ry="0.69"/><ellipse class="cls-6" cx="1016.89" cy="494.41" rx="0.67" ry="0.69"/><path class="cls-7" d="M1013.87,676.35a.67.67,0,1,1-.67-.69A.68.68,0,0,1,1013.87,676.35Z"/><ellipse class="cls-6" cx="933.8" cy="575.27" rx="0.67" ry="0.69"/><ellipse class="cls-6" cx="949.01" cy="477.02" rx="0.67" ry="0.69"/><ellipse class="cls-6" cx="1039.49" cy="525.75" rx="0.67" ry="0.69"/><path class="cls-7" d="M988.26,554.92a.67.67,0,1,1-.67-.69A.67.67,0,0,1,988.26,554.92Z"/><ellipse class="cls-6" cx="1043.47" cy="476.33" rx="0.67" ry="0.69"/><ellipse class="cls-6" cx="1090.39" cy="663.6" rx="0.67" ry="0.69"/><ellipse class="cls-6" cx="1053.62" cy="665.87" rx="0.67" ry="0.69"/><ellipse class="cls-6" cx="961.08" cy="671.9" rx="0.67" ry="0.69"/><ellipse class="cls-6" cx="1143.55" cy="515.29" rx="0.67" ry="0.69"/><ellipse class="cls-6" cx="1120.8" cy="554.92" rx="0.67" ry="0.69"/><ellipse class="cls-6" cx="1053.69" cy="560.01" rx="0.67" ry="0.69"/><ellipse class="cls-6" cx="1073.09" cy="675.66" rx="0.67" ry="0.69"/><path class="cls-7" d="M1241.88,672.35a.67.67,0,1,1-.67-.69A.68.68,0,0,1,1241.88,672.35Z"/><path class="cls-7" d="M1335.58,585.13a.67.67,0,1,1-.67-.69A.68.68,0,0,1,1335.58,585.13Z"/><path class="cls-7" d="M1280.27,554.63a.67.67,0,1,1-.67-.7A.68.68,0,0,1,1280.27,554.63Z"/><ellipse class="cls-6" cx="986.05" cy="484.58" rx="0.67" ry="0.69"/><ellipse class="cls-6" cx="1232.34" cy="604.47" rx="0.67" ry="0.69"/><ellipse class="cls-6" cx="1300.91" cy="627.94" rx="0.67" ry="0.69"/><ellipse class="cls-6" cx="1331.15" cy="576.4" rx="0.67" ry="0.69"/></g><rect class="cls-8" width="1440.98" height="902.44"/></g></g></svg>