<svg xmlns="http://www.w3.org/2000/svg" viewBox="0 0 1440.98 902.44"><defs><style>.cls-1{fill:#1f191a;}.cls-2{fill:#fff;}.cls-3{fill:#008d32;}.cls-4{fill:none;}</style></defs><g id="Layer_2" data-name="Layer 2"><g id="Layer_1-2" data-name="Layer 1"><polygon class="cls-1" points="683.22 862.72 685.96 865.46 686.87 865.46 689.6 862.72 683.22 862.72"/><polygon class="cls-1" points="685.96 851.56 683.22 854.29 689.6 854.29 686.87 851.56 685.96 851.56"/><polygon class="cls-1" points="717.3 862.72 720.03 865.46 720.95 865.46 723.68 862.72 717.3 862.72"/><polygon class="cls-1" points="720.03 851.56 717.3 854.29 723.68 854.29 720.95 851.56 720.03 851.56"/><rect class="cls-2" x="715.25" y="853.27" width="10.47" height="10.47" transform="translate(-396.03 760.92) rotate(-45)"/><rect x="716.92" y="854.94" width="7.14" height="7.14" transform="translate(622.9 1975.03) rotate(-135)"/><rect class="cls-2" x="681.18" y="853.27" width="10.47" height="10.47" transform="translate(-406.01 736.82) rotate(-45)"/><rect x="682.84" y="854.94" width="7.14" height="7.14" transform="translate(564.72 1950.93) rotate(-135)"/><rect class="cls-2" x="749.33" y="853.27" width="10.47" height="10.47" transform="translate(-386.05 785.01) rotate(-45)"/><rect x="751" y="854.94" width="7.14" height="7.14" transform="translate(681.07 1999.12) rotate(-135)"/><circle class="cls-3" cx="709.25" cy="858.51" r="1.52"/><circle class="cls-3" cx="731.73" cy="858.51" r="1.52"/><circle class="cls-3" cx="675.17" cy="858.51" r="1.52"/><circle class="cls-3" cx="697.66" cy="858.51" r="1.52"/><circle class="cls-3" cx="743.32" cy="858.51" r="1.52"/><circle class="cls-3" cx="765.81" cy="858.51" r="1.52"/><polygon class="cls-1" points="592.58 862.72 595.32 865.46 596.23 865.46 598.96 862.72 592.58 862.72"/><polygon class="cls-1" points="595.32 851.56 592.58 854.29 598.96 854.29 596.23 851.56 595.32 851.56"/><polygon class="cls-1" points="626.66 862.72 629.39 865.46 630.31 865.46 633.04 862.72 626.66 862.72"/><polygon class="cls-1" points="629.39 851.56 626.66 854.29 633.04 854.29 630.31 851.56 629.39 851.56"/><rect class="cls-2" x="624.61" y="853.27" width="10.47" height="10.47" transform="translate(-422.58 696.82) rotate(-45)"/><rect x="626.28" y="854.94" width="7.14" height="7.14" transform="translate(468.16 1910.93) rotate(-135)"/><rect class="cls-2" x="590.54" y="853.27" width="10.47" height="10.47" transform="translate(-432.56 672.73) rotate(-45)"/><rect x="592.2" y="854.94" width="7.14" height="7.14" transform="translate(409.99 1886.84) rotate(-135)"/><rect class="cls-2" x="658.69" y="853.27" width="10.47" height="10.47" transform="translate(-412.6 720.92) rotate(-45)"/><rect x="660.36" y="854.94" width="7.14" height="7.14" transform="translate(526.34 1935.03) rotate(-135)"/><circle class="cls-3" cx="618.61" cy="858.51" r="1.52"/><circle class="cls-3" cx="641.09" cy="858.51" r="1.52"/><circle class="cls-3" cx="584.53" cy="858.51" r="1.52"/><circle class="cls-3" cx="607.02" cy="858.51" r="1.52"/><circle class="cls-3" cx="652.68" cy="858.51" r="1.52"/><circle class="cls-3" cx="675.17" cy="858.51" r="1.52"/><polygon class="cls-1" points="773.86 862.72 776.6 865.46 777.51 865.46 780.25 862.72 773.86 862.72"/><polygon class="cls-1" points="776.6 851.56 773.86 854.29 780.25 854.29 777.51 851.56 776.6 851.56"/><polygon class="cls-1" points="807.94 862.72 810.68 865.46 811.59 865.46 814.32 862.72 807.94 862.72"/><polygon class="cls-1" points="810.68 851.56 807.94 854.29 814.32 854.29 811.59 851.56 810.68 851.56"/><rect class="cls-2" x="805.9" y="853.27" width="10.47" height="10.47" transform="translate(-369.48 825.01) rotate(-45)"/><rect x="807.56" y="854.94" width="7.14" height="7.14" transform="translate(777.63 2039.12) rotate(-135)"/><rect class="cls-2" x="771.82" y="853.27" width="10.47" height="10.47" transform="translate(-379.46 800.91) rotate(-45)"/><rect x="773.48" y="854.94" width="7.14" height="7.14" transform="translate(719.46 2015.02) rotate(-135)"/><rect class="cls-2" x="839.97" y="853.27" width="10.47" height="10.47" transform="translate(-359.5 849.1) rotate(-45)"/><rect x="841.64" y="854.94" width="7.14" height="7.14" transform="translate(835.81 2063.22) rotate(-135)"/><circle class="cls-3" cx="799.89" cy="858.51" r="1.52"/><circle class="cls-3" cx="822.38" cy="858.51" r="1.52"/><circle class="cls-3" cx="765.81" cy="858.51" r="1.52"/><circle class="cls-3" cx="788.3" cy="858.51" r="1.52"/><circle class="cls-3" cx="833.97" cy="858.51" r="1.52"/><circle class="cls-3" cx="856.45" cy="858.51" r="1.52"/><rect class="cls-4" width="1440.98" height="902.44"/></g></g></svg>