<svg xmlns="http://www.w3.org/2000/svg" viewBox="0 0 1440.98 902.44"><defs><style>.cls-1{fill:#f8eed5;}.cls-2{fill:#c37d2c;}.cls-3{fill:#006831;}.cls-4{fill:none;}</style></defs><g id="Layer_2" data-name="Layer 2"><g id="Layer_1-2" data-name="Layer 1"><rect x="694.66" y="219.56" width="2.16" height="4.11"/><rect x="702.91" y="219.56" width="2.16" height="4.11"/><rect x="711.16" y="219.56" width="2.16" height="4.11"/><rect x="719.41" y="219.56" width="2.16" height="4.11"/><rect x="727.66" y="219.56" width="2.16" height="4.11"/><rect x="735.91" y="219.56" width="2.16" height="4.11"/><rect x="744.16" y="219.56" width="2.16" height="4.11"/><rect x="622.23" y="123.61" width="4.11" height="2.16" transform="translate(42.61 383.4) rotate(-35.27)"/><rect x="626.29" y="129.41" width="4.11" height="2.16" transform="translate(39.85 386.45) rotate(-35.24)"/><rect x="630.36" y="135.22" width="4.11" height="2.16" transform="translate(37.08 389.48) rotate(-35.2)"/><rect x="634.42" y="141.02" width="4.11" height="2.16" transform="matrix(0.82, -0.58, 0.58, 0.82, 34.33, 392.51)"/><rect x="638.49" y="146.82" width="4.11" height="2.16" transform="translate(31.57 395.54) rotate(-35.13)"/><rect x="642.55" y="152.63" width="4.11" height="2.16" transform="translate(28.82 398.55) rotate(-35.1)"/><rect x="646.62" y="158.43" width="4.11" height="2.16" transform="translate(26.07 401.55) rotate(-35.06)"/><rect x="650.68" y="164.24" width="4.11" height="2.16" transform="translate(23.32 404.55) rotate(-35.02)"/><rect x="654.75" y="170.04" width="4.11" height="2.16" transform="translate(20.58 407.54) rotate(-34.99)"/><rect x="658.81" y="175.85" width="4.11" height="2.16" transform="translate(17.84 410.52) rotate(-34.95)"/><rect x="662.88" y="181.65" width="4.11" height="2.16" transform="translate(15.11 413.49) rotate(-34.92)"/><rect x="666.94" y="187.46" width="4.11" height="2.16" transform="translate(12.37 416.45) rotate(-34.88)"/><rect x="671" y="193.26" width="4.11" height="2.16" transform="translate(9.64 419.41) rotate(-34.85)"/><rect x="675.07" y="199.07" width="4.11" height="2.16" transform="translate(6.92 422.35) rotate(-34.81)"/><rect x="679.13" y="204.87" width="4.11" height="2.16" transform="translate(4.19 425.29) rotate(-34.77)"/><rect x="683.2" y="210.67" width="4.11" height="2.16" transform="translate(1.48 428.22) rotate(-34.74)"/><rect x="687.26" y="216.48" width="4.11" height="2.16" transform="translate(-1.24 431.14) rotate(-34.7)"/><rect x="815.7" y="122.63" width="2.16" height="4.11" transform="translate(243.32 719.51) rotate(-54.73)"/><rect x="811.64" y="128.44" width="2.16" height="4.11" transform="translate(237.23 719) rotate(-54.76)"/><rect x="807.57" y="134.24" width="2.16" height="4.11" transform="matrix(0.58, -0.82, 0.82, 0.58, 231.13, 718.49)"/><rect x="803.51" y="140.04" width="2.16" height="4.11" transform="translate(225.02 717.99) rotate(-54.83)"/><rect x="799.44" y="145.85" width="2.16" height="4.11" transform="translate(218.91 717.49) rotate(-54.87)"/><rect x="795.38" y="151.65" width="2.16" height="4.11" transform="translate(212.78 717) rotate(-54.9)"/><rect x="791.31" y="157.46" width="2.16" height="4.11" transform="translate(206.65 716.5) rotate(-54.94)"/><rect x="787.25" y="163.26" width="2.16" height="4.11" transform="translate(200.51 716.01) rotate(-54.98)"/><rect x="783.19" y="169.07" width="2.16" height="4.11" transform="translate(194.37 715.52) rotate(-55.01)"/><rect x="779.12" y="174.87" width="2.16" height="4.11" transform="translate(188.21 715.04) rotate(-55.05)"/><rect x="775.06" y="180.68" width="2.16" height="4.11" transform="matrix(0.57, -0.82, 0.82, 0.57, 182.05, 714.56)"/><rect x="770.99" y="186.48" width="2.16" height="4.11" transform="translate(175.88 714.08) rotate(-55.12)"/><rect x="766.93" y="192.29" width="2.16" height="4.11" transform="translate(169.7 713.6) rotate(-55.15)"/><rect x="762.86" y="198.09" width="2.16" height="4.11" transform="translate(163.51 713.12) rotate(-55.19)"/><rect x="758.8" y="203.89" width="2.16" height="4.11" transform="translate(157.32 712.65) rotate(-55.23)"/><rect x="754.73" y="209.7" width="2.16" height="4.11" transform="translate(151.12 712.18) rotate(-55.26)"/><rect x="750.67" y="215.5" width="2.16" height="4.11" transform="translate(144.9 711.72) rotate(-55.3)"/><rect class="cls-1" x="733.14" y="255.49" width="4.11" height="2.16"/><rect class="cls-1" x="733.14" y="263.8" width="4.11" height="2.16"/><rect class="cls-1" x="733.14" y="272.12" width="4.11" height="2.16"/><rect class="cls-1" x="733.14" y="280.44" width="4.11" height="2.16"/><rect class="cls-1" x="733.14" y="288.75" width="4.11" height="2.16"/><rect class="cls-1" x="733.14" y="297.07" width="4.11" height="2.16"/><rect class="cls-1" x="733.14" y="305.39" width="4.11" height="2.16"/><rect class="cls-1" x="733.14" y="313.7" width="4.11" height="2.16"/><rect class="cls-1" x="733.14" y="322.02" width="4.11" height="2.16"/><rect class="cls-1" x="733.14" y="330.34" width="4.11" height="2.16"/><rect class="cls-1" x="733.14" y="338.65" width="4.11" height="2.16"/><rect class="cls-1" x="733.14" y="346.97" width="4.11" height="2.16"/><rect class="cls-1" x="733.14" y="355.28" width="4.11" height="2.16"/><rect class="cls-1" x="733.14" y="363.6" width="4.11" height="2.16"/><rect class="cls-1" x="733.14" y="371.92" width="4.11" height="2.16"/><rect class="cls-1" x="733.14" y="380.23" width="4.11" height="2.16"/><rect class="cls-1" x="733.14" y="388.55" width="4.11" height="2.16"/><rect class="cls-1" x="703.74" y="255.49" width="4.11" height="2.16"/><rect class="cls-1" x="703.74" y="263.8" width="4.11" height="2.16"/><rect class="cls-1" x="703.74" y="272.12" width="4.11" height="2.16"/><rect class="cls-1" x="703.74" y="280.44" width="4.11" height="2.16"/><rect class="cls-1" x="703.74" y="288.75" width="4.11" height="2.16"/><rect class="cls-1" x="703.74" y="297.07" width="4.11" height="2.16"/><rect class="cls-1" x="703.74" y="305.39" width="4.11" height="2.16"/><rect class="cls-1" x="703.74" y="313.7" width="4.11" height="2.16"/><rect class="cls-1" x="703.74" y="322.02" width="4.11" height="2.16"/><rect class="cls-1" x="703.74" y="330.34" width="4.11" height="2.16"/><rect class="cls-1" x="703.74" y="338.65" width="4.11" height="2.16"/><rect class="cls-1" x="703.74" y="346.97" width="4.11" height="2.16"/><rect class="cls-1" x="703.74" y="355.28" width="4.11" height="2.16"/><rect class="cls-1" x="703.74" y="363.6" width="4.11" height="2.16"/><rect class="cls-1" x="703.74" y="371.92" width="4.11" height="2.16"/><rect class="cls-1" x="703.74" y="380.23" width="4.11" height="2.16"/><rect class="cls-1" x="703.74" y="388.55" width="4.11" height="2.16"/><rect class="cls-1" x="711.16" y="269.61" width="18.67" height="122.64"/><rect class="cls-1" x="711.16" y="254.79" width="18.67" height="10.55"/><path class="cls-2" d="M677.28,221.61H705.8a0,0,0,0,1,0,0v170.3a1.41,1.41,0,0,1-1.41,1.41H677.28a0,0,0,0,1,0,0V221.61A0,0,0,0,1,677.28,221.61Z"/><polygon class="cls-2" points="705.8 250.08 712.08 250.08 619.45 117.77 619.4 117.8 619.4 167.44 692.45 271.75 705.8 262.4 705.8 250.08"/><path class="cls-2" d="M735.19,221.61H762.3A1.41,1.41,0,0,1,763.7,223v170.3a0,0,0,0,1,0,0H735.19a0,0,0,0,1,0,0V221.61A0,0,0,0,1,735.19,221.61Z" transform="translate(1498.89 614.93) rotate(-180)"/><polygon class="cls-2" points="821.54 117.77 728.9 250.08 735.18 250.08 735.18 262.4 748.53 271.75 821.58 167.44 821.58 117.8 821.54 117.77"/><polygon points="762.65 224.52 762.65 250.13 720.49 253.22 678.74 250.13 678.74 224.52 762.65 224.52"/><rect class="cls-2" x="706.44" y="192.45" width="28.52" height="86.83" transform="translate(484.83 956.57) rotate(-90)"/><rect class="cls-3" x="709.87" y="366.36" width="21.24" height="86.43" transform="translate(1130.07 -310.92) rotate(90)"/><rect class="cls-1" x="709.87" y="393.24" width="21.24" height="86.43" transform="translate(1156.95 -284.04) rotate(90)"/><path class="cls-3" d="M709.87,420.12h13.28a8,8,0,0,1,8,8v70.51a8,8,0,0,1-8,8H709.87a0,0,0,0,1,0,0V420.12A0,0,0,0,1,709.87,420.12Z" transform="translate(1183.83 -257.16) rotate(90)"/><rect class="cls-4" width="1440.98" height="902.44"/></g></g></svg>