<svg xmlns="http://www.w3.org/2000/svg" viewBox="0 0 1440.98 902.44"><defs><style>.cls-1{fill:#c37d2c;}.cls-2{fill:none;}</style></defs><g id="Layer_2" data-name="Layer 2"><g id="Layer_1-2" data-name="Layer 1"><path class="cls-1" d="M1164.68,427.94l14.52,13.41.71.28a1.15,1.15,0,0,0,.74-.31l6-6A21,21,0,0,1,1216.35,465l-6,6a1.11,1.11,0,0,0,0,1.45L1223.77,487l-14.54,13.41a1.19,1.19,0,0,0-.34.76,1.17,1.17,0,0,0,.31.75l7.15,7.15a21,21,0,0,1,0,29.71,21,21,0,0,1-29.71,0l-7.15-7.14a1.13,1.13,0,0,0-.74-.31,1.15,1.15,0,0,0-.77.33l-13.41,14.52-14.52-13.42-.71-.27a1.15,1.15,0,0,0-.74.31l-5.43,5.43a22.43,22.43,0,0,1-15.72,6.53,20.49,20.49,0,0,1-13.52-5,21,21,0,0,1-1-30.68l6-6a1.13,1.13,0,0,0,0-1.46l-13.44-14.53L1120,473.7a1.14,1.14,0,0,0,.34-.74,1.2,1.2,0,0,0-.31-.77l-6.62-6.62c-8.12-8.12-8.76-21-1.46-29.24a21,21,0,0,1,30.64-1l7.15,7.15a1.15,1.15,0,0,0,.74.31,1.12,1.12,0,0,0,.77-.34l13.41-14.51m-.06,29a1.14,1.14,0,0,0,.75-.3l11.74-11.75a1.18,1.18,0,0,0,.31-.76,1.16,1.16,0,0,0-.34-.75l-11.75-10.7-.7-.27a1.12,1.12,0,0,0-.77.34l-10.7,11.74a1.12,1.12,0,0,0,0,1.45l10.7,10.7a1.11,1.11,0,0,0,.73.3m36.87,83.35a16.23,16.23,0,0,0,11.21-4.45,15.75,15.75,0,0,0,4.86-11.36,17.52,17.52,0,0,0-5.07-12.59l-6.67-6.67-3.28-3.3-10.84-10.82L1187,486.4l-21.73-21.73-4.66-4.69-10.83-10.82-10.51-10.51a16.3,16.3,0,0,0-22.8-.28,15.76,15.76,0,0,0-4.81,11.36,17.45,17.45,0,0,0,5.06,12.53l20.8,20.81,4.69,4.68L1164,509.47l26,26a16.22,16.22,0,0,0,11.52,4.77M1191,483.31a1.15,1.15,0,0,0,.74-.31l11.82-11.81,9.46-9.46A16.32,16.32,0,1,0,1190,438.65l-9.48,9.48-11.81,11.81a1.15,1.15,0,0,0-.31.75,1.12,1.12,0,0,0,.31.73l21.6,21.59a1.19,1.19,0,0,0,.74.3m15.51,15.51.71-.27L1219,487.84a1.11,1.11,0,0,0,.34-.73,1.08,1.08,0,0,0-.27-.75l-10.72-11.76a1.16,1.16,0,0,0-.77-.34,1.15,1.15,0,0,0-.74.31l-11.75,11.76a1.05,1.05,0,0,0,0,1.48l10.71,10.71a1.19,1.19,0,0,0,.74.3m-84.84,1a1.15,1.15,0,0,0,.74-.31l11.74-11.73a1.1,1.1,0,0,0,0-1.48l-10.69-10.71a1.15,1.15,0,0,0-.74-.31l-.71.28-11.74,10.71a1.11,1.11,0,0,0-.34.73,1.1,1.1,0,0,0,.27.75l10.7,11.73a1.12,1.12,0,0,0,.77.34m6.07,40.41a16.28,16.28,0,0,0,11.54-4.77l6-6,3.41-3.43,11.81-11.79a1.13,1.13,0,0,0,0-1.48L1139,491.13a1.08,1.08,0,0,0-1.49,0l-11.78,11.81-3.44,3.42-6,6a16.32,16.32,0,0,0,11.55,27.85m36.86,1.5a1.16,1.16,0,0,0,.77-.34l10.73-11.75a1.13,1.13,0,0,0,0-1.45l-10.71-10.69a1.05,1.05,0,0,0-1.49,0l-11.74,11.72a1.12,1.12,0,0,0-.31.77,1.18,1.18,0,0,0,.34.75l11.75,10.72.7.27m0-115.14-.07,0-14,15.15-.07,0-.07,0-7.14-7.15a22,22,0,0,0-32,1c-7.74,8.78-6.77,22.27,1.51,30.55l6.61,6.62V473l-15.17,14v.13l14,15.16v.13l-6,6a22,22,0,0,0,1.07,32.06,21.31,21.31,0,0,0,14.15,5.26,23.27,23.27,0,0,0,16.39-6.82l5.43-5.43.07,0,.06,0,15.16,14,.06,0,.07,0,14-15.15.07,0,.06,0,7.15,7.15A22,22,0,1,0,1217,508.42l-7.14-7.15v-.13l15.17-14V487l-14-15.17v-.12l6-6A22,22,0,0,0,1186,434.66l-6,6-.07,0-.06,0-15.16-14Zm0,29.34-.06,0-10.7-10.69v-.13l10.7-11.75.07,0,.06,0,11.74,10.69v.14l-11.74,11.74Zm36.87,83.34a15.27,15.27,0,0,1-10.84-4.49l-26-26-21.71-21.71-4.68-4.69-20.81-20.8c-6.12-6.13-6.53-16.55-.27-22.53a15.35,15.35,0,0,1,21.47.26l10.52,10.52L1160,460.66l4.66,4.69,21.74,21.73,4.66,4.66,10.85,10.83,3.27,3.3,6.68,6.67c6.14,6.15,6.54,16.61.23,22.58A15.33,15.33,0,0,1,1201.49,539.3ZM1191,482.36l-.06,0-21.61-21.58v-.13l11.82-11.82,9.48-9.48a15.36,15.36,0,1,1,21.71,21.74l-9.46,9.46-11.81,11.81Zm15.51,15.51-.06,0-10.72-10.71V487l11.74-11.75.07,0,.07,0L1218.35,487v.13l-11.74,10.71Zm-84.84,1-.07,0-10.69-11.72V487l11.75-10.72.06,0,.06,0,10.7,10.7v.13l-11.75,11.74Zm6.07,40.41a15.35,15.35,0,0,1-10.87-26.22l6-6.05,3.43-3.41,11.79-11.81.07,0,.06,0,21.61,21.6v.13l-11.82,11.79-3.41,3.43-6.05,6A15.3,15.3,0,0,1,1127.76,539.3Zm36.86,1.5-.06,0-11.74-10.72v-.13l11.75-11.72.06,0,.07,0,10.72,10.69V529l-10.72,11.74Z"/><path class="cls-1" d="M1164.53,428.1l14.55,13.44.75.29,0,0h0a1.45,1.45,0,0,0,.9-.37l6-6a20.79,20.79,0,0,1,29.4,29.4l-6,6a1.28,1.28,0,0,0-.35.91,1.23,1.23,0,0,0,.31.85L1223.46,487l-14.38,13.27a1.42,1.42,0,0,0-.41.91h.22l-.22,0v0a1.35,1.35,0,0,0,.37.9l7.15,7.15a20.79,20.79,0,1,1-29.4,29.4l-7.14-7.15a1.27,1.27,0,0,0-1.83,0l-13.26,14.35-14.39-13.3-.75-.29h-.08a1.32,1.32,0,0,0-.9.37l-5.43,5.43a22.19,22.19,0,0,1-15.56,6.47,20.2,20.2,0,0,1-13.37-5,20.8,20.8,0,0,1-1-30.35l6-6a1.33,1.33,0,0,0,0-1.75l-13.29-14.38,14.37-13.26a1.38,1.38,0,0,0,.42-.91h0v0a1.4,1.4,0,0,0-.37-.9l-6.62-6.62a21.93,21.93,0,0,1-6.48-15.49,20.26,20.26,0,0,1,5-13.46,20.84,20.84,0,0,1,15.63-7.06,20.62,20.62,0,0,1,14.69,6.08l7.16,7.15a1.35,1.35,0,0,0,.89.37,1.37,1.37,0,0,0,.93-.41l13.41-14.52-.32-.29-13.41,14.51a.82.82,0,0,1-1.19,0l-7.15-7.15a21.26,21.26,0,0,0-31,1,20.67,20.67,0,0,0-5.13,13.75,22.37,22.37,0,0,0,6.61,15.8l6.61,6.62a.91.91,0,0,1,.25.59v0h0a.93.93,0,0,1-.27.59l-14.7,13.57,13.59,14.69a.84.84,0,0,1,.19.56.82.82,0,0,1-.22.59l-6,6a21.24,21.24,0,0,0,1,31,20.68,20.68,0,0,0,13.66,5.07,22.58,22.58,0,0,0,15.87-6.6l5.43-5.43a.94.94,0,0,1,.59-.24v-.22l-.08.2.67.26,14.65,13.54,13.56-14.68a.85.85,0,0,1,1.2,0l7.14,7.15a21.23,21.23,0,0,0,30-30l-7.15-7.15a1,1,0,0,1-.24-.59h0a.93.93,0,0,1,.27-.59l14.7-13.57-13.59-14.7a.83.83,0,0,1-.19-.55.85.85,0,0,1,.22-.6l6-6a21.23,21.23,0,1,0-30-30l-6,6a1,1,0,0,1-.59.25v.22l.08-.21-.67-.26-14.49-13.39-.3.33Zm.09,29a1.31,1.31,0,0,0,.9-.37L1177.27,445a1.45,1.45,0,0,0,.37-.91h-.16l.16,0v0h-.16l.16,0h0v0a1.38,1.38,0,0,0-.42-.91l-11.77-10.72-.74-.29h-.08a1.33,1.33,0,0,0-.94.41L1153,444.32a1.21,1.21,0,0,0-.31.85,1.27,1.27,0,0,0,.34.9l10.7,10.7a1.36,1.36,0,0,0,.89.36v-.44a.9.9,0,0,1-.58-.23l-10.7-10.7a.88.88,0,0,1-.21-.59.84.84,0,0,1,.19-.56l10.7-11.74a.88.88,0,0,1,.61-.27v-.22l-.08.2.67.26,11.71,10.67a1,1,0,0,1,.27.59h.22l-.22,0v0a1,1,0,0,1-.25.6l-11.74,11.74a.9.9,0,0,1-.59.24v.44Zm36.87,83.35a16.45,16.45,0,0,0,11.36-4.51,16,16,0,0,0,4.93-11.52v-.24a17.74,17.74,0,0,0-5.13-12.5L1206,505l-3.28-3.31-10.85-10.82-4.66-4.66-21.73-21.73-4.67-4.69L1150,449l-10.52-10.52a16.53,16.53,0,0,0-23.11-.28,16,16,0,0,0-4.87,11.52v.21a17.73,17.73,0,0,0,5.13,12.48l20.81,20.8,4.68,4.69,21.71,21.71,26,26a16.37,16.37,0,0,0,11.67,4.84V540a15.94,15.94,0,0,1-11.36-4.71l-26-26-21.71-21.71-4.68-4.69-20.81-20.8a17.3,17.3,0,0,1-5-12.17v-.21a15.58,15.58,0,0,1,4.75-11.2,16.09,16.09,0,0,1,22.49.27l10.52,10.52,10.82,10.82,4.67,4.69,21.73,21.73,4.66,4.66L1202.39,502l3.28,3.31,6.67,6.67a17.35,17.35,0,0,1,5,12.19v.24a15.5,15.5,0,0,1-4.79,11.2,16,16,0,0,1-11.06,4.39v.44Zm-10.47-57a1.31,1.31,0,0,0,.9-.37l11.81-11.81,9.46-9.46a16.54,16.54,0,1,0-23.37-23.4l-9.48,9.48-11.82,11.82a1.35,1.35,0,0,0-.37.9,1.4,1.4,0,0,0,.37.89l21.61,21.58a1.3,1.3,0,0,0,.89.37v-.44a.89.89,0,0,1-.58-.24l-21.61-21.58a1,1,0,0,1-.24-.59.89.89,0,0,1,.24-.58l11.82-11.82,9.48-9.48a16.1,16.1,0,0,1,22.75,22.78l-9.46,9.45-11.81,11.82a.94.94,0,0,1-.59.24v.44Zm15.59,15.5.71-.28h0L1219.13,488a1.32,1.32,0,0,0,.41-.88v-.05a1.3,1.3,0,0,0-.33-.86l-10.72-11.76a1.4,1.4,0,0,0-.93-.41,1.38,1.38,0,0,0-.9.38l-11.74,11.75a1.32,1.32,0,0,0-.37.9,1.28,1.28,0,0,0,.37.89l10.72,10.71a1.3,1.3,0,0,0,.89.37v-.44a.89.89,0,0,1-.58-.24l-10.72-10.71a.89.89,0,0,1-.24-.58.94.94,0,0,1,.24-.59L1207,474.73a1,1,0,0,1,.59-.25,1,1,0,0,1,.61.27l10.72,11.75a.91.91,0,0,1,.21.57v0a.92.92,0,0,1-.27.58l-11.71,10.68-.67.26.16.41Zm-84.92,1a1.35,1.35,0,0,0,.89-.37L1134.33,488a1.35,1.35,0,0,0,0-1.79l-10.69-10.7a1.32,1.32,0,0,0-.9-.37h0l-.75.28,0,0-11.77,10.73a1.37,1.37,0,0,0-.41.89h.22l-.22,0v.06a1.3,1.3,0,0,0,.33.86l10.7,11.73a1.35,1.35,0,0,0,.93.41v-.44a.93.93,0,0,1-.61-.27l-10.7-11.73a.93.93,0,0,1-.22-.56v0h0a.9.9,0,0,1,.27-.57l11.71-10.68.67-.26-.08-.21v.22a1,1,0,0,1,.59.25l10.69,10.7a.88.88,0,0,1,.21.59.84.84,0,0,1-.21.58l-11.75,11.74a.94.94,0,0,1-.58.24v.44Zm6.07,40.41a16.44,16.44,0,0,0,11.69-4.84l6.06-6,3.4-3.43,11.82-11.79a1.35,1.35,0,0,0,0-1.79L1139.12,491a1.27,1.27,0,0,0-1.79,0l-11.79,11.81-3.43,3.41-6,6.05a16.53,16.53,0,0,0,11.7,28.23V540a16.09,16.09,0,0,1-11.39-27.48l6.05-6,3.43-3.41,11.79-11.81a1,1,0,0,1,.59-.25.9.9,0,0,1,.58.25l21.61,21.6a.86.86,0,0,1,.21.59.84.84,0,0,1-.21.58l-11.82,11.79-3.41,3.43-6,6.05a16,16,0,0,1-11.38,4.71v.44Zm36.86,1.5a1.35,1.35,0,0,0,.93-.41l10.73-11.75a1.36,1.36,0,0,0,0-1.75l-10.72-10.7a1.27,1.27,0,0,0-1.79,0L1152,529.1a1.35,1.35,0,0,0-.37.9v.06l.22,0h-.22a1.4,1.4,0,0,0,.41.91l11.78,10.75.74.28.16-.41-.67-.25-11.71-10.7a.93.93,0,0,1-.27-.59v0h0l-.15,0h.15v0l-.15,0h.15a1,1,0,0,1,.24-.59L1164,517.68a.94.94,0,0,1,.58-.24.93.93,0,0,1,.59.25l10.72,10.69a.86.86,0,0,1,.21.59.83.83,0,0,1-.19.55l-10.72,11.75a1,1,0,0,1-.61.27V542Zm0-115.36-.09-.2-.07,0,0,0-14,15.15h0l.09.2.08-.2h0l-7.12-7.12a22.21,22.21,0,0,0-32.35,1.05,21.51,21.51,0,0,0-5.35,14.34,23.46,23.46,0,0,0,6.86,16.52l6.55,6.55v0h.22l-.15-.16L1104,486.91v.31l14,15.17v0h.22l-.15-.16-6,6a22.2,22.2,0,0,0,1.09,32.39,21.57,21.57,0,0,0,14.29,5.31,23.49,23.49,0,0,0,16.55-6.88l5.4-5.4h0l-.08-.21-.08.21h0l15.16,14,.1,0,.08,0,.15-.07h0l14-15.15h0l-.09-.21-.08.21h0l7.12,7.11a22.18,22.18,0,1,0,31.37-31.37l-7.08-7.08v0h-.22l.15.16,15.23-14.07v-.31l-14-15.17v0H1211l.15.15,6-6a22.18,22.18,0,0,0-31.37-31.37l-6,6h0l.08.2.08-.2h0l-15.15-14-.1,0-.09,0-.08,0,.09.2-.08.21h0l15.16,14,.1,0,.08,0,.15-.06,0,0,6-6a21.74,21.74,0,0,1,30.75,30.74l-6,6.05v.31l14,15.16v0h.22l-.15-.16L1209.66,501v.32l7.22,7.21a21.74,21.74,0,1,1-30.75,30.75l-7.18-7.18-.11,0-.08,0-.16.07,0,0-14,15.15h0l.09.2.08-.2h0l-15.16-14-.1,0-.09,0-.14.06h0l-5.46,5.46a23.06,23.06,0,0,1-16.24,6.76,21.07,21.07,0,0,1-14-5.2,21.76,21.76,0,0,1-1.07-31.75l6-6.05v-.3l-14-15.17v0h-.22l.15.16,15.24-14.07v-.32l-6.68-6.68a23,23,0,0,1-6.73-16.21,21.09,21.09,0,0,1,5.24-14.05,21.74,21.74,0,0,1,31.71-1l7.18,7.17.1.05.09,0,.16-.07,0,0,14-15.14h0l-.09-.21-.08.21Zm0,29.34.09-.21h0l-10.6-10.6v0h-.22l.16.15,10.67-11.72h0l-.09-.2-.08.21h0l11.64,10.6v0h.22l-.15-.16-11.72,11.71h0l.08.21.09-.21-.09.21.09.2.06,0h0l11.84-11.84V444l-11.84-10.78-.1,0-.09,0-.15.07,0,0L1153.64,445v.31l10.78,10.79.11,0,.08,0,.09,0Zm36.87,83.34v-.22a15.08,15.08,0,0,1-10.69-4.42l-26-26-21.71-21.72-4.69-4.68-20.8-20.81a16.33,16.33,0,0,1-4.72-11.5,14.62,14.62,0,0,1,4.45-10.71,15.12,15.12,0,0,1,21.16.26L1149,450l10.82,10.83,4.67,4.68,21.73,21.73,4.67,4.67,10.84,10.82L1205,506l6.67,6.67a16.36,16.36,0,0,1,4.73,11.52,14.66,14.66,0,0,1-4.5,10.75,15.07,15.07,0,0,1-10.4,4.12v.44a15.55,15.55,0,0,0,10.71-4.24,15.13,15.13,0,0,0,4.63-11.07,16.79,16.79,0,0,0-4.86-11.83l-6.67-6.67-3.28-3.3-10.84-10.82-4.67-4.67-21.73-21.73-4.66-4.68-10.83-10.83-10.51-10.51a15.57,15.57,0,0,0-21.78-.27,15.14,15.14,0,0,0-4.58,11,16.76,16.76,0,0,0,4.85,11.81l20.8,20.81,4.69,4.68L1164.47,509l26,26a15.56,15.56,0,0,0,11,4.55ZM1191,482.36l.08-.21h0l-21.51-21.48v0h-.22l.16.15L1181.32,449l9.48-9.48a15.14,15.14,0,1,1,21.4,21.42l-9.46,9.46L1191,482.14h0l.08.21.08-.21-.08.21.08.2.07,0h0l11.84-11.85,9.46-9.46a15.58,15.58,0,1,0-22-22l-9.48,9.48-11.88,11.88v.31l21.7,21.68.11,0,.08,0,.08,0Zm15.51,15.51.09-.21h0L1196,487v0h-.22l.16.16,11.71-11.73h0l-.08-.2-.09.2h0l10.62,11.65v0h.22l-.15-.16-11.71,10.68h0l.08.21.09-.21-.09.21.08.2.06,0,0,0,11.84-10.8v-.31l-10.81-11.85-.11-.05-.09,0-.15.06,0,0-11.84,11.85v.31L1206.34,498l.11,0,.08,0,.08,0Zm-84.84,1,.09-.2h0l-10.6-11.63v0h-.22l.15.16,11.71-10.69h0l-.08-.21-.09.2h0l10.6,10.61v0h.22l-.16-.15-11.71,11.7h0l.09.2.09-.2-.09.2.08.21.07,0,0,0,11.84-11.83v-.31l-10.79-10.8-.11,0-.08,0-.14.06h0l-11.85,10.8v.32l10.79,11.83.11.05.09,0,.08,0Zm6.07,40.41v-.22a15.13,15.13,0,0,1-10.71-25.84l6-6.06,3.44-3.4L1138.28,492h0l-.08-.21-.09.2h0l21.51,21.51v0h.22l-.16-.15-11.81,11.79-3.41,3.43-6,6a15.13,15.13,0,0,1-10.71,4.42v.44a15.6,15.6,0,0,0,11-4.55l6-6.05,3.41-3.43,11.88-11.86v-.31l-21.7-21.7-.11,0-.08,0-.15.06,0,0-11.82,11.85-3.44,3.4-6,6.06a15.57,15.57,0,0,0,11,26.59Zm36.86,1.5.08-.2h0L1153,530v0h-.22l.16.15,11.71-11.69h0l-.09-.2-.08.2h0l10.63,10.6v0h.22l-.16-.15-10.7,11.71h0l.09.2.08-.2-.08.2.09.2.06,0h0l10.81-11.85v-.3L1164.81,518l-.1,0-.08,0-.16.06,0,0-11.84,11.82v.32L1164.44,541l.1,0,.08,0,.09,0Z"/><polyline class="cls-1" points="1164.97 427 1164.97 411.23 1164.63 410.89 1164.28 411.23 1164.28 427 1164.63 427.34 1164.97 427"/><polygon class="cls-1" points="1165.19 427 1165.19 411.14 1164.78 410.73 1164.62 410.58 1164.13 411.07 1164.06 411.14 1164.06 427.09 1164.47 427.5 1164.62 427.65 1165.12 427.16 1164.81 426.85 1164.63 427.03 1164.5 426.91 1164.5 411.32 1164.62 411.2 1164.75 411.32 1164.75 427 1165.19 427 1165.19 427"/><polyline class="cls-1" points="1164.97 562.91 1164.97 547.13 1164.63 546.79 1164.28 547.13 1164.28 562.91 1164.63 563.25 1164.97 562.91"/><polygon class="cls-1" points="1165.19 562.91 1165.19 547.04 1164.78 546.64 1164.62 546.48 1164.13 546.98 1164.06 547.04 1164.06 563 1164.47 563.4 1164.62 563.56 1165.12 563.06 1164.81 562.75 1164.63 562.94 1164.5 562.82 1164.5 547.23 1164.62 547.1 1164.75 547.23 1164.75 562.91 1165.19 562.91 1165.19 562.91"/><polyline class="cls-1" points="1224.69 487.41 1240.46 487.41 1240.81 487.07 1240.46 486.73 1224.69 486.73 1224.35 487.07 1224.69 487.41"/><polygon class="cls-1" points="1224.69 487.63 1240.56 487.63 1240.96 487.22 1241.12 487.07 1240.62 486.57 1240.56 486.51 1224.6 486.51 1224.19 486.91 1224.04 487.07 1224.53 487.56 1224.85 487.25 1224.66 487.07 1224.78 486.95 1240.37 486.95 1240.49 487.07 1240.37 487.19 1224.69 487.19 1224.69 487.63 1224.69 487.63"/><polyline class="cls-1" points="1088.78 487.41 1104.56 487.41 1104.9 487.07 1104.56 486.73 1088.78 486.73 1088.44 487.07 1088.78 487.41"/><polygon class="cls-1" points="1088.78 487.63 1104.65 487.63 1105.06 487.22 1105.21 487.07 1104.71 486.57 1104.65 486.51 1088.69 486.51 1088.29 486.91 1088.13 487.07 1088.63 487.56 1088.94 487.25 1088.75 487.07 1088.88 486.95 1104.47 486.95 1104.59 487.07 1104.47 487.19 1088.78 487.19 1088.78 487.63 1088.78 487.63"/><rect class="cls-2" width="1440.98" height="902.44"/></g></g></svg>