<svg xmlns="http://www.w3.org/2000/svg" xmlns:xlink="http://www.w3.org/1999/xlink" viewBox="0 0 1440.98 902.44"><defs><style>.cls-1,.cls-12,.cls-13,.cls-17,.cls-18,.cls-19,.cls-28,.cls-31,.cls-34,.cls-38{fill:none;}.cls-2{fill:#ffae32;}.cls-3{isolation:isolate;}.cls-4{fill:#dbb83e;}.cls-5{fill:#c37d2c;}.cls-6{fill:#977b76;}.cls-7{fill:#006831;}.cls-8{fill:#ff3f32;}.cls-9{clip-path:url(#clip-path);}.cls-10{clip-path:url(#clip-path-2);}.cls-11,.cls-27{opacity:0.2;}.cls-12,.cls-13,.cls-31{stroke:#dbb83e;}.cls-12,.cls-18,.cls-28,.cls-31,.cls-34,.cls-38{stroke-linecap:round;}.cls-12,.cls-13,.cls-28,.cls-31,.cls-34,.cls-38{stroke-linejoin:round;}.cls-12,.cls-13{stroke-width:0.64px;}.cls-13{stroke-linecap:square;}.cls-14{clip-path:url(#clip-path-3);}.cls-15,.cls-23,.cls-33{opacity:0.4;}.cls-16{fill:#fbb25a;}.cls-17,.cls-18,.cls-19,.cls-34{stroke:#ff3f32;}.cls-17,.cls-18,.cls-19{stroke-miterlimit:10;}.cls-17,.cls-18{stroke-width:3.49px;}.cls-19{stroke-width:0.58px;}.cls-20{clip-path:url(#clip-path-4);}.cls-21{clip-path:url(#clip-path-5);}.cls-22{clip-path:url(#clip-path-6);}.cls-23{fill:#fff;}.cls-24{opacity:0.65;}.cls-25{fill:#008d32;}.cls-26{opacity:0.7;mix-blend-mode:screen;fill:url(#radial-gradient);}.cls-28{stroke:#ffae32;}.cls-28,.cls-31,.cls-34,.cls-38{stroke-width:3.35px;}.cls-29{clip-path:url(#clip-path-7);}.cls-30{clip-path:url(#clip-path-8);}.cls-32{clip-path:url(#clip-path-9);}.cls-35{clip-path:url(#clip-path-10);}.cls-36{clip-path:url(#clip-path-11);}.cls-37{clip-path:url(#clip-path-12);}.cls-38{stroke:#008d32;}</style><clipPath id="clip-path"><polygon class="cls-1" points="902.73 328.82 893.74 353.58 887.16 331.46 870.98 332.93 865.85 329.37 866.53 327.31 864 325.41 862.89 321.9 864.65 316.65 858.89 316.65 868.03 301.87 862.89 301.87 869.21 288.82 867.12 287.93 867.12 280.5 889.17 284.95 908.83 302.89 904.14 310.32 899.92 322.44 902.73 328.82"/></clipPath><clipPath id="clip-path-2"><path class="cls-1" d="M910.66,309.54,904,312l-9.6-13.72s-13.71-11.88-14.86-11.88-16.68-1.14-16.68-1.14L864,270.67l1.84-1.54L888,278.21,918.5,285a2.08,2.08,0,0,1,1.46,2.85Z"/></clipPath><clipPath id="clip-path-3"><polygon class="cls-1" points="952.88 449.37 965.94 472.54 1002.28 473.68 1018.52 415.57 943.13 347.22 908.41 333.62 897.67 359.9 923.26 409.95 943.52 448.51 952.88 449.37"/></clipPath><clipPath id="clip-path-4"><path class="cls-1" d="M981.32,484.23l-16.92-4.57-2.51,5.95L919,509.09a10.6,10.6,0,0,0-5.39,10.9l4.85,32a9,9,0,0,0,6.6,7.36l12.34,3.28Z"/></clipPath><clipPath id="clip-path-5"><path class="cls-1" d="M1008.76,591.08l-19.21-15.32a2.46,2.46,0,0,0-4.14.87l-15.23,43.89a32.9,32.9,0,0,0-1.57,14.63L982.8,753.8l24-151.6,2.69-4.67A5.47,5.47,0,0,0,1008.76,591.08Z"/></clipPath><clipPath id="clip-path-6"><path class="cls-1" d="M908.55,219.47c4.1-14.6-9.53-25.73-9.53-25.73a43.53,43.53,0,0,1-3.68,11.12c-.15.72.82,3.39,3,6.71a17.39,17.39,0,0,1-4.15-4.45c-.75,1.38-5.33,10.17-5.33,10.17l1.53,9.82-5.29-7.52-11.6,21.26s2.23,6.45,3.87,8.91c-.51,0-7.3-7-7.3-7l9.56,19.7h0c-2.92-.22-5.53,2.74-5.53,2.74a6.7,6.7,0,0,1,5-.18c-2.71,3.4.16,8.13.16,8.13-.71-5.33,4.85-8.35,4.85-8.35s-2.45-7.63,2.64-.41c2.74-1.85,5.12-8.68,9.74-16.67-1.4-.37-7.58.41-10.62,3.78,2.58-4.9,10.26-8.52,10.26-8.52l-5.09-1.09,6.64-1.67L908,222s-4.24-.74-6.33,2a7.46,7.46,0,0,1,6.88-4.54Z"/></clipPath><radialGradient id="radial-gradient" cx="1131.91" cy="-2318.62" r="30.6" gradientTransform="matrix(3.32, 0, 0, -1.21, -2868.99, -2547.64)" gradientUnits="userSpaceOnUse"><stop offset="0.01" stop-color="#a55100"/><stop offset="0.17" stop-color="#904700"/><stop offset="0.5" stop-color="#5b2d00"/><stop offset="0.97" stop-color="#060300"/><stop offset="1"/></radialGradient><clipPath id="clip-path-7"><path class="cls-2" d="M896.45,344.73a1.8,1.8,0,0,1-1.52.31,1.64,1.64,0,0,1-1.06-.79c-.52-.89-.52-.89,3.26-8.18l.35-.68-.69.41c-6.56,3.93-6.56,3.93-7.4,3.72a1.71,1.71,0,0,1-1-.79c-.58-1-.58-1,4.13-7.68.53-.74,1.11-1.57,1.71-2.42-7.66,4.58-7.68,4.58-8.55,4.35a1.72,1.72,0,0,1-1-.79c-.71-1.23-.71-1.23,8.67-11.51l.75-.82-4.93,3c-14.92,9.06-15.08,9-16.11,8.76a1.73,1.73,0,0,1-1-.8c-.78-1.35-.59-1.5,4.24-5.51,2.41-2,5.7-4.67,9.22-7.54,2.22-1.8,4.78-3.89,7.3-6l-8.34,5c-15.45,9.27-15.45,9.27-16.42,9a1.74,1.74,0,0,1-1-.78c-.79-1.38-.48-1.65,4.79-6,2.72-2.27,6.42-5.29,10.25-8.41l4.65-3.79L882.91,309c-16.65,9.92-16.65,9.92-17.64,9.66a1.66,1.66,0,0,1-1-.79c-.77-1.32-.66-1.41,4.74-6.13,2.68-2.34,6.28-5.43,9.89-8.53l1.43-1.23c-16.16,9.68-16.38,9.62-17.37,9.36a1.75,1.75,0,0,1-1-.8c-.78-1.35-.78-1.35,11.63-13l.94-.89c-9.34,5.6-9.49,5.56-10.36,5.34a1.74,1.74,0,0,1-1-.8c-.63-1.08-.63-1.08,5.81-9.23l1.59-2a2.4,2.4,0,0,1-.43-.07,1.69,1.69,0,0,1-1-.8,24.27,24.27,0,0,1-1.12-3.59c-.22-.71-.47-1.55-.68-2.27a1.6,1.6,0,0,1-.64-.05l.29-1.11c-.1-.34-.18-.57-.2-.65l.22-.07-.65-1.28.44-.26c.91-.54,1.28-.77,2-.59a1.73,1.73,0,0,1,1,.79c.13.22.13.22,1.42,4.54.12.43.25.86.37,1.25l1.29-.8c3.3-2,3.42-2.11,4.23-1.91a1.71,1.71,0,0,1,1,.79c.65,1.12.65,1.12-6.51,10.17l-.73.92,5.23-3.13c9.15-5.5,9.15-5.49,10-5.27a1.72,1.72,0,0,1,1,.79c.73,1.26.4,1.57-3.64,5.44-2,2-4.81,4.57-7.59,7.19l-2.36,2.22c2.76-1.64,5.65-3.37,8.09-4.84,12.38-7.42,12.37-7.42,13.28-7.19a1.71,1.71,0,0,1,1,.79c.77,1.33.66,1.42-4.8,6.19-2.72,2.38-6.36,5.51-10,8.63l-1.75,1.51,1.9-1.14c19.24-11.47,19.33-11.44,20.35-11.18a1.72,1.72,0,0,1,1,.79c.91,1.59.92,1.6-18,17.06,20.88-12.52,21.16-12.45,22.2-12.18a1.78,1.78,0,0,1,1.06.8c.91,1.59.95,1.65-18.06,17.14,11.44-6.94,11.59-6.9,12.53-6.66a1.78,1.78,0,0,1,1.06.8c.69,1.19.69,1.19-7.59,10.27L894,324.83c5.29-3.16,5.32-3.15,6.07-3a1.64,1.64,0,0,1,1,.79c.62,1.07.63,1.08-5.71,10.06,5.67-3.4,5.68-3.4,6.47-3.19a1.69,1.69,0,0,1,1,.79c.5.86.5.86-2.83,7.29-.49.94-1,2-1.55,3a1.82,1.82,0,0,1,.58.59,1.68,1.68,0,0,1-.62,2.29,1.14,1.14,0,0,1-.34.15l-.85.54Zm-.22-1.84a1.4,1.4,0,0,0,.36.43A1.5,1.5,0,0,1,896.23,342.89Zm-28.22-62,.38-.22Z"/></clipPath><clipPath id="clip-path-8"><path class="cls-2" d="M905.17,310.25c-2.17,1.25-2.35,1.2-2.93,1.05a1.67,1.67,0,0,1-1-.79c-.69-1.18-.69-1.18,7.69-10.93l.4-.47c-7,4.28-7.1,4.26-8,4a1.68,1.68,0,0,1-1.05-.79c-.64-1.1-.64-1.1,5.5-8.39.82-1,1.77-2.12,2.72-3.24L905,292.79c-7.71,4.64-7.71,4.64-8.54,4.43a1.7,1.7,0,0,1-1-.79c-.55-.95-.55-.95,3.59-7.65l1.22-2-3.07,1.83c-7.78,4.64-7.78,4.65-8.61,4.43a1.67,1.67,0,0,1-1-.79c-.44-.75-.44-.75,1.92-6.93.15-.37.3-.77.45-1.18l-.45.28c-7.52,4.52-7.54,4.52-8.42,4.29a1.66,1.66,0,0,1-1-.79c-.18-.32-.18-.32-.91-4.59-.08-.5-.17-1-.26-1.54l-2,1.19c-6.17,3.74-6.19,3.73-7.06,3.51a1.69,1.69,0,0,1-1-.79c-.37-.64-.37-.64,1-6,.12-.5.26-1,.39-1.58l-.46.29c-4.42,2.71-4.59,2.81-5.44,2.6a1.71,1.71,0,0,1-1-.79c-.35-.6-.35-.6.69-5.48l.42-2a1.32,1.32,0,0,1-.92,0l.42-1.62,1-.55h0l-1,.55-.71-1.51c.16-.08.62-.36,1.11-.65,2-1.2,2.15-1.29,2.87-1.11a1.71,1.71,0,0,1,1,.79c.37.63.37.63-.94,6.75l-.15.68.92-.56c4.23-2.59,4.3-2.64,5.13-2.43a1.71,1.71,0,0,1,1.05.79c.38.66.38.66-1.11,6.6-.09.34-.17.69-.26,1l2.4-1.46c4.57-2.76,4.57-2.76,5.36-2.56a1.7,1.7,0,0,1,1,.78c.17.31.17.31.87,4.44.1.56.2,1.19.31,1.78,1.45-.85,3.49-2.07,5-3,5-3,5-3,5.78-2.81a1.66,1.66,0,0,1,1,.78c.43.75.43.75-1.95,7-.15.39-.3.8-.46,1.21l3.33-2c8.93-5.34,8.93-5.34,9.81-5.11a1.72,1.72,0,0,1,1,.79c.57,1,.57,1-4.43,9.09l-.23.37,1.64-1c11.22-6.76,11.3-6.74,12.25-6.49a1.69,1.69,0,0,1,1,.79c.69,1.2.71,1.22-7.7,11.22,7.29-4.46,7.33-4.45,8.22-4.22a1.68,1.68,0,0,1,1,.79c.66,1.15.66,1.15-6.73,9.76-.48.55-1,1.14-1.5,1.75,2.29-1.35,2.41-1.32,3-1.16a1.67,1.67,0,0,1,.42,3.07l-.27.12c-.48.26-2.3,1.34-3.77,2.23Z"/></clipPath><clipPath id="clip-path-9"><path class="cls-2" d="M1000.47,474.74c-1,.58-1.2.59-1.76.44a1.68,1.68,0,0,1-1-.78c-.49-.86-.49-.86,3-8,.11-.23.23-.47.34-.71l-4.93,2.92c-10.33,6.13-10.33,6.13-11.19,5.91a1.73,1.73,0,0,1-1-.79c-.76-1.32-.76-1.32,10.42-12.36l1.5-1.49-6.27,3.8c-14.59,8.86-14.69,8.84-15.71,8.57a1.73,1.73,0,0,1-1.06-.79c-.82-1.42-.44-1.74,5.91-7,3.36-2.8,7.87-6.48,12.22-10l1.48-1.21-5.86,3.52c-20.43,12.29-20.56,12.25-21.63,12a1.79,1.79,0,0,1-1.05-.8c-.79-1.38.22-2.19,2.45-4,1.28-1,3.12-2.44,5.65-4.34,4.66-3.53,10.93-8.17,17-12.67l1.09-.8c-27.52,16.44-27.8,16.37-28.93,16.08a1.73,1.73,0,0,1-1.05-.8c-.79-1.36.26-2.16,2-3.48,1-.8,2.55-1.92,4.4-3.28,3.7-2.7,8.77-6.35,14.2-10.27L992,436.1l-2.81,1.67c-28.18,16.8-28.37,16.75-29.48,16.46a1.71,1.71,0,0,1-1-.8c-.81-1.4.21-2.19,2.68-4.08,1.4-1.08,3.44-2.59,6.22-4.63,5.16-3.76,12.17-8.8,18.95-13.67l2.06-1.47c-33.43,20-35.35,20.81-36.65,20.47a1.75,1.75,0,0,1-1.07-.81c-.82-1.41.35-2.31,2.46-3.95,1.28-1,3.16-2.38,5.72-4.25,4.76-3.47,11.06-8,17.73-12.73l8.49-6.06c-4.32,2.57-8.76,5.23-12.76,7.63-26.44,15.87-26.58,15.83-27.69,15.55a1.74,1.74,0,0,1-1-.8c-1.11-1.91-1.13-1.94,29.35-23.28l4.07-2.85L973,421c-32.36,19.34-32.63,19.27-33.8,19a1.73,1.73,0,0,1-1.05-.8c-1.08-1.87-1.12-1.94,31.32-25l-5.65,3.39c-26.64,16-26.84,16-28,15.67a1.75,1.75,0,0,1-1.05-.8c-.79-1.37.23-2.15,2.27-3.72,1.15-.88,2.83-2.14,5.13-3.82,4.27-3.15,10-7.3,16.11-11.7L966.8,407l-5.15,3.1c-26.82,16.13-27.06,16.07-28.21,15.78a1.78,1.78,0,0,1-1.05-.81c-1-1.75-1.06-1.82,26.1-21.75-25.46,15.17-25.71,15.11-26.77,14.83a1.68,1.68,0,0,1-1.05-.79c-1-1.76-1-1.77,24.38-20.88l-2.85,1.7c-26.93,16-27.1,16-28.17,15.7a1.74,1.74,0,0,1-1-.8c-.79-1.36.19-2.12,2.33-3.79,1.2-.94,2.93-2.25,5.3-4,4.4-3.29,10.19-7.55,16.32-12.07,1.74-1.27,3.54-2.6,5.35-3.94l-3.84,2.31c-22.64,13.64-22.81,13.59-23.9,13.31a1.78,1.78,0,0,1-1-.79c-.87-1.52-.56-1.77,7.55-8.05,4.34-3.36,10.13-7.76,15.73-12l1.05-.8L945,385c-25.84,15.45-26,15.4-27.14,15.11a1.78,1.78,0,0,1-1.05-.79c-.76-1.33.26-2.15,1.8-3.39.92-.74,2.27-1.79,3.93-3.06,3.28-2.52,7.76-5.9,12.51-9.48l7.11-5.37c-26.81,16-27.08,15.94-28.19,15.65a1.75,1.75,0,0,1-1.06-.8c-.87-1.51-.26-2,7.18-7.82,4.12-3.23,9.63-7.46,15-11.56l.69-.53c-20.44,12.38-20.71,12.31-21.8,12a1.75,1.75,0,0,1-1.06-.8c-.79-1.36-.49-1.61,4.49-5.66,2.56-2.08,6-4.87,9.78-7.86l7.78-6.23-8,4.8c-15.71,9.42-15.71,9.42-16.69,9.16a1.69,1.69,0,0,1-1-.78c-.81-1.39-.38-1.75,4.87-6.09,2.78-2.3,6.56-5.36,10.46-8.52l4.87-4c-1.78,1.07-3.58,2.13-5.29,3.15C906,372.94,906,372.94,905,372.68a1.71,1.71,0,0,1-1-.79c-.77-1.33-.56-1.52,4.87-6.21,2.76-2.39,6.47-5.55,10.18-8.71l1.52-1.28c-18.91,11.32-19.15,11.26-20.18,11a1.78,1.78,0,0,1-1.05-.79c-.78-1.36-.78-1.36,11.63-13l1-.94c-11.43,6.85-11.56,6.81-12.48,6.57a1.71,1.71,0,0,1-1-.79c-.68-1.18-.68-1.18,7.54-10.26l1.38-1.53c-2.28,1.34-2.47,1.3-3.09,1.14a1.68,1.68,0,0,1-1.05-.79c-.45-.78-.45-.78,1.93-6.44.8-1.91,1.84-4.39,2.3-5.56l-.42-.83.56-.34c1.09-.65,1.42-.85,2.12-.67a1.68,1.68,0,0,1,1,.79c.47.81.47.81-2.5,7.91-.07.15-.14.31-.2.47l1.36-.83c5.61-3.42,5.61-3.42,6.47-3.21a1.73,1.73,0,0,1,1.05.8c.7,1.21.7,1.21-8.46,11.33l-.84.94,5-3c10-6,10-6,10.86-5.76a1.65,1.65,0,0,1,1,.78c.73,1.27.4,1.58-3.63,5.45-2.06,2-4.83,4.58-7.61,7.19l-2.46,2.33c3.4-2,7.07-4.22,10.12-6.05,13.57-8.14,13.57-8.14,14.5-7.9a1.67,1.67,0,0,1,1,.79c.78,1.34.56,1.52-4.94,6.27-2.79,2.42-6.54,5.61-10.29,8.8l-1.87,1.59,3.08-1.83c20.94-12.48,21-12.45,22.08-12.18a1.69,1.69,0,0,1,1,.79c.92,1.59.93,1.61-18.36,17.24,21.23-12.72,21.51-12.65,22.56-12.37a1.75,1.75,0,0,1,1.06.8c.94,1.64,1,1.68-19.93,18.4l3.78-2.29c19.49-11.81,19.69-11.76,20.76-11.49a1.73,1.73,0,0,1,1,.8c.84,1.45.45,1.76-6.16,6.93-3.53,2.77-8.23,6.37-13.19,10.19l-5.76,4.42c3.4-2,6.88-4.09,10-6C961,362.82,961,362.82,962,363.09a1.72,1.72,0,0,1,1,.79c1,1.73,1,1.76-24.6,21.08l4.81-2.87C966.81,368,966.92,368,968,368.3a1.73,1.73,0,0,1,1,.8c.84,1.45.57,1.66-6.44,7.08-3.7,2.86-8.61,6.58-13.81,10.53L944,390.33l2.7-1.62c25.89-15.58,26.16-15.51,27.32-15.21a1.77,1.77,0,0,1,1.06.8c.79,1.38-.19,2.15-2.56,4-1.33,1.05-3.26,2.51-5.89,4.48-4.87,3.65-11.41,8.46-17.73,13.12l-2.36,1.74,3.91-2.33c24.25-14.43,24.33-14.4,25.38-14.13a1.72,1.72,0,0,1,1,.79c.85,1.47.45,1.78-6.18,6.87-3.56,2.73-8.34,6.33-13.4,10.14l-7.31,5.5,9.08-5.4c22.8-13.6,22.86-13.59,23.91-13.31a1.72,1.72,0,0,1,1,.79c.77,1.34-.25,2.14-1.95,3.47-1,.79-2.49,1.91-4.31,3.26-3.6,2.68-8.52,6.3-13.76,10.14l-10.09,7.41,6-3.6c27.91-16.79,28.19-16.72,29.35-16.42a1.82,1.82,0,0,1,1.07.81c.82,1.43-.28,2.28-2.93,4.34-1.56,1.22-3.8,2.91-6.87,5.17-5.39,4-12.39,9-19.25,14l.81-.49c31.4-18.87,31.77-18.78,33-18.47a1.8,1.8,0,0,1,1.06.81c.8,1.38-.26,2.18-2.18,3.64-1.1.84-2.71,2-4.92,3.63-4.12,3-9.75,7-15.71,11.24l-12.13,8.65,10.09-6c30.14-18,30.35-18,31.48-17.67a1.7,1.7,0,0,1,1,.8c1.11,1.92,1.11,1.92-28.76,22.83l-3.58,2.51c33.76-20.26,34.18-20.15,35.41-19.83a1.78,1.78,0,0,1,1.06.8c1.07,1.85,1.07,1.85-29.22,23.46l-4.53,3.23c5.1-3,10.42-6.21,15.17-9.06,24.56-14.71,24.62-14.69,25.68-14.41a1.66,1.66,0,0,1,1,.79c.81,1.4-.2,2.18-2.65,4.06-1.39,1.07-3.4,2.56-6.16,4.58-5.1,3.72-12.06,8.72-18.79,13.55l-4.29,3.08,3.29-2c25.49-15.19,25.6-15.17,26.67-14.89a1.74,1.74,0,0,1,1,.8c1.06,1.82,1.12,1.92-29.09,23.69l3.38-2c22.22-13.28,22.28-13.26,23.33-13a1.69,1.69,0,0,1,1,.79c.79,1.36-.22,2.16-2.23,3.76-1.14.9-2.8,2.18-5.07,3.89-4.22,3.18-9.77,7.29-15.64,11.64L987,452.47c19.61-11.78,19.82-11.72,20.87-11.45a1.73,1.73,0,0,1,1,.8c.8,1.37.58,1.56-5.09,6.26-2.9,2.41-6.82,5.61-10.82,8.87l-3.1,2.53c14.31-8.67,14.53-8.62,15.54-8.36a1.79,1.79,0,0,1,1.06.81c.75,1.29.75,1.29-9.86,11.77L995,465.31c9.33-5.55,9.35-5.54,10.18-5.32a1.63,1.63,0,0,1,1,.78c.48.83.48.83-2.53,7-.31.63-.64,1.32-1,2a2.27,2.27,0,0,1,.37.08,1.67,1.67,0,0,1,.42,3.07,1.51,1.51,0,0,1-.26.12l-1.73,1ZM907.76,334.88l1.39-.8Z"/></clipPath><clipPath id="clip-path-10"><path class="cls-2" d="M933.66,561.23c-2.23,1.28-2.41,1.24-3,1.08a1.66,1.66,0,0,1-1-.78c-.73-1.26-.73-1.26,9.16-11.81l.59-.63-1.55.94c-12,7.27-12.06,7.25-13.05,7a1.71,1.71,0,0,1-1-.79c-.76-1.32-.5-1.54,3.88-5.28,2.19-1.87,5.19-4.4,8.39-7.08l6.44-5.42-6.59,3.94c-13.72,8.24-13.72,8.24-14.66,8a1.69,1.69,0,0,1-1-.79c-.77-1.33.27-2.19,1.85-3.48.93-.77,2.28-1.84,4.14-3.29,3.45-2.67,8.06-6.19,13-9.92l6.18-4.71L940,531.37c-20.69,12.32-20.73,12.31-21.76,12a1.67,1.67,0,0,1-1-.79c-.8-1.38.16-2.12,2.48-3.93,1.29-1,3.16-2.42,5.72-4.32,4.74-3.51,11.19-8.23,17.44-12.79l1.94-1.42c-27.4,16.39-27.82,16.28-29,16a1.75,1.75,0,0,1-1.06-.8c-.83-1.44.24-2.26,2.82-4.24,1.5-1.14,3.67-2.75,6.65-4.89,5.5-4,13-9.25,20.18-14.36l1.78-1.25c-29.14,17.38-29.52,17.28-30.64,17a1.83,1.83,0,0,1-1.06-.81c-.81-1.4.19-2.16,2.6-4,1.36-1,3.33-2.48,6-4.43,5-3.61,11.63-8.31,18.64-13.28l6.06-4.3-1.95,1.17c-29.77,17.94-30.13,17.85-31.32,17.54a1.77,1.77,0,0,1-1.07-.8c-.78-1.36.21-2.13,2.18-3.66,1.1-.86,2.71-2.07,4.91-3.7,4.09-3,9.6-7.05,15.43-11.3,10.09-7.36,23.5-17.14,27.16-20.16l-.19-.38c.1-.05.36-.21.63-.38,1.19-.71,1.51-.9,2.22-.72a1.73,1.73,0,0,1,1,.79c.82,1.42-.25,2.25-2.82,4.28-1.5,1.17-3.66,2.81-6.6,5-5.43,4.05-12.56,9.25-19.46,14.28l-.49.35,6.66-4c27.71-16.7,28-16.62,29.14-16.33a1.83,1.83,0,0,1,1.06.81c.83,1.44-.28,2.28-2.94,4.32-1.56,1.2-3.83,2.87-6.92,5.11-5.72,4.13-13.38,9.57-20.78,14.82l-3.42,2.42,8.58-5.12c24-14.33,24.06-14.31,25.1-14a1.66,1.66,0,0,1,1,.79c.83,1.43-.28,2.28-2.72,4.14-1.43,1.1-3.52,2.63-6.38,4.69-5.29,3.82-12.54,8.95-19.55,13.91l-6.75,4.77,8.36-5c20.72-12.42,20.74-12.42,21.77-12.15a1.71,1.71,0,0,1,1,.79c.79,1.38-.18,2.14-2.53,4-1.31,1-3.2,2.45-5.8,4.37-4.8,3.57-11.32,8.34-17.63,12.94L942.47,526c19.75-11.75,19.94-11.7,20.94-11.44a1.74,1.74,0,0,1,1,.8c1,1.69,1,1.72-21.91,19.18,11.89-7.08,12.18-7,13.06-6.77a1.75,1.75,0,0,1,1,.8c.88,1.53.92,1.59-16.28,16.05,6.85-4.14,7-4.1,7.85-3.89a1.75,1.75,0,0,1,1,.8c.7,1.21.7,1.21-8,10.52l-1.74,1.86c1.61-.92,1.77-.88,2.3-.74a1.67,1.67,0,0,1,.42,3.07,1.39,1.39,0,0,1-.28.12c-.49.26-2.38,1.4-3.92,2.32C936,559.83,934.64,560.66,933.66,561.23Zm30.25-80.39,1.21-.7Z"/></clipPath><clipPath id="clip-path-11"><path class="cls-2" d="M983.38,754a1.68,1.68,0,0,1-2.36-.57c-.35-.62-.35-.62.78-6.39.07-.33.14-.66.2-1a1.3,1.3,0,0,1-.93,0,1.7,1.7,0,0,1-1-.79c-.38-.65-.38-.65,1.13-6.54.16-.64.34-1.34.51-2A1.66,1.66,0,0,1,981,736c-.33-.56-.33-.56.4-4.78.27-1.6.66-3.84.83-5-.27-.63.05-1.34,2.55-7,.16-.34.32-.7.48-1.07-4.84,2.91-4.89,2.9-5.69,2.69a1.72,1.72,0,0,1-1-.79c-.55-1-.55-1,3.81-8,.29-.48.61-1,.92-1.49-1.91,1.16-2,1.13-2.67,1a1.63,1.63,0,0,1-1-.79c-.64-1.09-.64-1.09,5.29-9.22l.75-1c-7.24,4.35-7.25,4.35-8.1,4.13a1.73,1.73,0,0,1-1-.79c-.68-1.18-.69-1.2,7.54-11.13-6.44,3.9-6.45,3.9-7.3,3.68a1.72,1.72,0,0,1-1-.79c-.67-1.15-.67-1.15,7-9.66l2.11-2.34c-7,4.25-7.05,4.25-7.93,4a1.71,1.71,0,0,1-1-.79c-.72-1.25-.74-1.29,9.25-12-6.47,3.88-6.57,3.86-7.39,3.65a1.69,1.69,0,0,1-1-.79c-.74-1.28-.74-1.28,9.07-12l.1-.1-.91.54c-11.43,6.83-11.44,6.83-12.37,6.59a1.76,1.76,0,0,1-1-.79c-.69-1.21.16-2,1.34-3.12.69-.64,1.68-1.54,2.88-2.61,2.38-2.14,5.58-5,8.83-7.84l2.4-2.13c-10.42,6.29-10.46,6.28-11.39,6a1.71,1.71,0,0,1-1.05-.79c-.76-1.32-.37-1.68,4.47-6.13,2.54-2.33,5.92-5.37,9.21-8.34l.63-.57-1,.58c-15.51,9.29-15.57,9.27-16.56,9a1.66,1.66,0,0,1-1-.79c-.77-1.32-.4-1.63,4.09-5.45,2.32-2,5.48-4.62,8.83-7.42l4.85-4.06c-17,10.16-17.17,10.12-18.17,9.86a1.73,1.73,0,0,1-1-.79c-.83-1.43-.45-1.74,5.81-7,3.33-2.78,7.77-6.41,12.06-9.93l.45-.37c-13.64,8.27-13.84,8.22-14.83,8a1.72,1.72,0,0,1-1.06-.8c-.77-1.33-.5-1.56,4.13-5.42,2.33-2,5.53-4.59,8.94-7.39l6.82-5.62L985.69,622c-13.46,8.08-13.46,8.08-14.4,7.84a1.7,1.7,0,0,1-1-.79c-.82-1.42-.35-1.8,5.37-6.39,3.08-2.46,7.2-5.71,11.56-9.14l5.23-4.11-2.79,1.65C972.3,621.4,972.3,621.4,971.3,621.14a1.74,1.74,0,0,1-1-.79c-.74-1.29.2-2.1,1.76-3.44.93-.8,2.28-1.93,3.9-3.26,3.22-2.65,7.54-6.15,11.87-9.65l1.47-1.19c-14.21,8.49-14.46,8.42-15.4,8.17a1.68,1.68,0,0,1-1.05-.79c-.74-1.28-.31-1.69,3.84-5.65,2.17-2.07,5.09-4.8,8-7.51l.87-.81c-6,3.57-6.16,3.52-6.93,3.32a1.71,1.71,0,0,1-1.05-.79c-.64-1.11-.64-1.11,6.27-9.51l1.2-1.46c-1.66,1-1.94,1-2.53.82a1.69,1.69,0,0,1-1-.79c-.47-.81-.47-.81,2.32-6.73l1.15-2.42-.21,0,.42-1.62.78-.46h0l-.78.46-.71-1.52c.18-.09.7-.4,1.26-.74,2.26-1.36,2.35-1.41,3.08-1.22a1.66,1.66,0,0,1,1,.78c.49.86.49.86-3,8.23l-.19.38.12-.06c4.8-3,4.8-3,5.65-2.73a1.69,1.69,0,0,1,1,.79c.66,1.14.66,1.14-7,10.47l-.69.83,2.92-1.75c7.85-4.72,7.85-4.72,8.69-4.5a1.74,1.74,0,0,1,1,.78c.73,1.27.39,1.59-3.7,5.49-2.09,2-4.9,4.62-7.73,7.26l-2.42,2.27c2.9-1.72,5.93-3.54,8.49-5.08,12.71-7.62,12.71-7.62,13.62-7.39a1.76,1.76,0,0,1,1,.79c.74,1.29-.21,2.11-1.79,3.46-.94.82-2.31,2-4,3.31-3.27,2.69-7.64,6.23-12,9.76L988,608.15c20-11.9,20.06-11.87,21.09-11.6a1.66,1.66,0,0,1,1,.79c.95,1.63,1,1.66-19.83,18,13.53-8.08,13.79-8,14.73-7.77a1.74,1.74,0,0,1,1,.79c.91,1.58.94,1.63-17.76,17,13.87-8.42,14-8.39,15-8.13a1.75,1.75,0,0,1,1.06.8c.79,1.38.47,1.65-5,6.22-2.86,2.38-6.71,5.54-10.66,8.76l-3.95,3.24,3.4-2c13.5-8.07,13.5-8.07,14.42-7.83a1.69,1.69,0,0,1,1,.79c.88,1.53.91,1.56-17.12,16.64,13.74-8.21,13.74-8.21,14.72-8a1.74,1.74,0,0,1,1,.79c.74,1.29.4,1.6-3.83,5.48-2.17,2-5.09,4.62-8.09,7.32l-2.42,2.18c10.91-6.58,11.05-6.54,12-6.31a1.76,1.76,0,0,1,1,.8c.75,1.31.55,1.49-4.66,6.17-2.63,2.36-6.14,5.47-9.6,8.53l-.9.79c7.65-4.56,7.72-4.54,8.52-4.33a1.71,1.71,0,0,1,1,.78c.69,1.2.69,1.2-7.24,9.84l-2.19,2.4c7.29-4.39,7.3-4.39,8.14-4.17a1.66,1.66,0,0,1,1,.79c.67,1.16.67,1.16-6.82,9.23l-2.86,3.08c6.61-4,6.69-4,7.55-3.77a1.69,1.69,0,0,1,1,.79c.7,1.22.71,1.22-8.76,11.75,5.22-3.15,5.33-3.12,6.13-2.91a1.69,1.69,0,0,1,1,.79c.64,1.1.64,1.1-5.47,8.47l-2.3,2.78c6.2-3.72,6.23-3.72,7-3.51a1.67,1.67,0,0,1,1,.79c.63,1.09.63,1.09-5.19,9.07l-.76,1.05c.88-.46,1.17-.46,1.65-.33a1.68,1.68,0,0,1,1,.79c.57,1,.57,1-4.29,8.81-.15.23-.29.47-.44.71,3.7-2.23,3.72-2.23,4.46-2a1.72,1.72,0,0,1,1,.78c.46.81.46.81-2.39,7.29-.76,1.73-1.75,4-2.19,5,0,.73-.28,2.25-1,6.21l-.15.87a1.73,1.73,0,0,1,.93.75c.37.65.37.65-1,6.09-.12.5-.26,1-.4,1.59a1.34,1.34,0,0,1,.71,0,1.68,1.68,0,0,1,1,.79c.35.59.35.59-.66,5.71-.38,1.94-.91,4.6-1,5l-1.28-.14.72,1.33-.11.06Zm-.91-1.41h0Zm-1.13.65,1.13-.65Z"/></clipPath><clipPath id="clip-path-12"><path class="cls-2" d="M888.49,261.46a1.82,1.82,0,0,1-1.34.25,1.75,1.75,0,0,1-1.12-.81,1.68,1.68,0,0,1,.62-2.29,2,2,0,0,1,.3-.14l.13-.09a2,2,0,0,1,1.75-.54,1.67,1.67,0,0,1,.31,3.18l-.1.08C888.86,261.22,888.68,261.35,888.49,261.46Zm.45-2.24Zm-5.72,5.1a1.71,1.71,0,0,1-2.38-.57c-.6-1-.6-1,5.28-9.35.22-.3.43-.61.65-.92l-1.87,1.13c-6,3.64-6,3.65-6.86,3.44a1.71,1.71,0,0,1-1-.79,32,32,0,0,1-1.27-3.84c-.19-.61-.4-1.28-.6-1.89a1.45,1.45,0,0,1-.9,0,1.65,1.65,0,0,1-1-.78l-2.08-3.27c-1.92-3-1.93-3-2-3.09l1.21-.7-.81-1.47A1.81,1.81,0,0,1,871,242a1.68,1.68,0,0,1,1,.78c.06.1,1,1.52,1.89,3l1.25,2a1.68,1.68,0,0,1,2.36.58,32.72,32.72,0,0,1,1.37,4.16c.17.51.34,1.06.5,1.57,1.07-.63,2.49-1.49,3.74-2.24,8.57-5.16,8.6-5.15,9.51-4.92a1.66,1.66,0,0,1,1,.79c.59,1,.59,1-4.86,8.72-1.32,1.87-3,4.18-4,5.71a1.73,1.73,0,0,1-1.08,1.92l-.17.11Zm-1.46-1.1a1.48,1.48,0,0,0,.29.36A1.48,1.48,0,0,1,881.76,263.22Zm0,0ZM876.06,249l0,.06Zm-5.45-5.46Zm0,0,1.21-.7Zm7.78.31c-3.41,2-3.64,1.91-4.24,1.75a1.66,1.66,0,0,1-1-.79c-.65-1.12-.65-1.12,5.94-9.69.29-.39.6-.79.91-1.19a2,2,0,0,1-.52-.07,1.69,1.69,0,0,1-1.05-.8c-.5-.87-.5-.87,2.72-7.51.94-1.94,2.19-4.51,2.58-5.42l-.3-.59.44-.26c.95-.57,1.31-.78,2-.6a1.73,1.73,0,0,1,1,.79c.5.87.5.87-2.74,7.54-.15.32-.31.66-.48,1,1.61-1,2-1.06,2.63-.9a1.7,1.7,0,0,1,1.05.8c.64,1.1.64,1.1-5.62,9.25l-1.18,1.54c2.06-1.22,4.33-2.59,6.41-3.83,15.81-9.46,15.89-9.44,16.88-9.18a1.71,1.71,0,0,1,1.05.79,1.68,1.68,0,0,1-.62,2.29,1.56,1.56,0,0,1-.56.2c-1.48.67-9.28,5.33-15,8.77C883.59,240.8,880.42,242.7,878.39,243.88ZM902,228.18a1.66,1.66,0,0,0,.72.68A1.63,1.63,0,0,1,902,228.18Zm-18.22-7.93a1.61,1.61,0,0,0,.22.92l1.65-.95-1.46.84Zm12.09-2.39c-2.08,1.2-2.29,1.15-2.87,1a1.68,1.68,0,0,1-1.05-.79c-.34-.58-.34-.58.45-6.61.19-1.49.43-3.35.45-3.63h.09l-.38-.75.43-.25c.89-.54,1.26-.76,2-.58a1.73,1.73,0,0,1,1,.79c.3.53.3.53-.26,4.85-.09.71-.2,1.55-.3,2.35l3.45-2.09c5.75-3.49,5.75-3.49,6.59-3.28a1.75,1.75,0,0,1,1.05.79,1.68,1.68,0,0,1-.62,2.29,1.62,1.62,0,0,1-.41.17c-.66.34-3,1.75-4.87,2.89C898.35,216.37,896.86,217.27,895.83,217.86Zm7.74-6.52a1.45,1.45,0,0,0,.41.47A1.56,1.56,0,0,1,903.57,211.34Zm-9.19-3.41.35-.2Zm3.89-2.15c-1,.6-1.35.65-1.91.51a1.69,1.69,0,0,1-1.05-.8c-.37-.65-.37-.65,1-5.75.6-2.16,1.41-5.12,1.49-5.57l.47.08-.45-.85.3-.18a2.06,2.06,0,0,1,1.76-.46,1.68,1.68,0,0,1,1,.78c.39.69.39.69-1.37,7.09l-.14.52c1.7-1.05,2-1.12,2.63-1a1.68,1.68,0,0,1,.44,3.08,1.31,1.31,0,0,1-.37.15c-.36.21-1.3.78-1.94,1.18C899.35,205.14,898.74,205.52,898.27,205.78Zm2-3.11a1.61,1.61,0,0,0,.73.67A1.63,1.63,0,0,1,900.22,202.67Zm-.85-8.22.7-.41Z"/></clipPath></defs><g class="cls-3"><g id="Layer_2" data-name="Layer 2"><g id="Layer_1-2" data-name="Layer 1"><rect class="cls-1" width="1440.98" height="902.44"/><polygon class="cls-4" points="908.71 254.92 909.43 254.44 910.04 254.2 908.73 258.63 910.27 259.25 910.61 267.33 905.56 274.2 906.91 274.08 908.43 274.83 901.92 284.76 903.05 276.93 898.31 270.14 899.81 263.41 900.58 265.77 901.98 267.16 900.63 261.73 902.71 255.05 903.03 257.73 903.9 258.29 905.9 253.45 910.9 250.15 908.83 253.99 908.71 254.92"/><path class="cls-4" d="M898.77,249.51l-18.21,27.73-13.51-5.79v-2.91A74.48,74.48,0,0,1,879.34,257c7.31-5.46,17.23-9.21,17.23-9.21Z"/><path class="cls-4" d="M927.38,264.44l.93.57-13.51,21.1-16-4.07a48,48,0,0,1,28.56-17.6Z"/><path class="cls-5" d="M902.24,367a95.33,95.33,0,0,1-20.8,56.45L900,436.92l16.69-46.16-8.92-24.92Z"/><polygon class="cls-6" points="902.73 328.82 893.74 353.58 887.16 331.46 870.98 332.93 865.85 329.37 866.53 327.31 864 325.41 862.89 321.9 864.65 316.65 858.89 316.65 868.03 301.87 862.89 301.87 869.21 288.82 867.12 287.93 867.12 280.5 889.17 284.95 908.83 302.89 904.14 310.32 899.92 322.44 902.73 328.82"/><polygon class="cls-4" points="898.59 431.71 864.67 372.41 852.63 388.17 885.14 448.73 898.59 431.71"/><polygon class="cls-7" points="857.17 345.09 865.09 323.72 859.76 326.71 860.15 329.18 857.17 328.26 854.66 348.08 857.17 345.09"/><path class="cls-5" d="M981.32,484.23l-16.92-4.57-2.51,5.95-49.37,27,6,39.34a9,9,0,0,0,6.6,7.36l12.34,3.28Z"/><polygon class="cls-5" points="916.98 576.16 879.91 609.25 871.06 555.86 885.14 527.43 908.07 514.68 916.98 576.16"/><path class="cls-5" d="M1008.76,591.08l-19.21-15.32a2.46,2.46,0,0,0-4.14.87l-15.23,43.89a32.9,32.9,0,0,0-1.57,14.63L982.8,753.8l24-151.6,2.69-4.67A5.47,5.47,0,0,0,1008.76,591.08Z"/><polygon class="cls-6" points="906.76 594.88 881.43 616.91 897.67 695.74 906.76 594.88"/><polygon class="cls-8" points="894.47 355.36 897.21 356.29 906.22 331.88 903.61 331.4 894.47 355.36"/><g class="cls-9"><polygon points="891.91 290.02 866.83 282.67 867.12 287.93 869.21 288.82 879.8 288.67 889.85 295.35 890.11 316.34 870.8 332.95 887.16 331.46 889.94 321.67 903.49 323.81 917.45 307.24 903.49 291.16 891.91 290.02"/></g><path class="cls-7" d="M910.66,309.54,904,312l-9.6-13.72s-13.71-11.88-14.86-11.88-16.68-1.14-16.68-1.14L864,270.67l1.84-1.54L888,278.21,918.5,285a2.08,2.08,0,0,1,1.46,2.85Z"/><g class="cls-10"><polygon class="cls-11" points="887.61 278.13 879.57 286.44 860.65 287.39 859.94 279.95 860.6 265.83 867.74 266.38 887.61 278.13"/><polyline class="cls-12" points="917.4 295.07 905.98 294.12 882.27 280.2 862.89 278.94"/><polyline class="cls-13" points="916.02 298.76 904.6 297.82 881.51 281.76 863.34 279.57"/></g><polygon class="cls-7" points="952.88 449.37 965.94 472.54 1002.28 473.68 1018.52 415.57 943.13 347.22 908.41 333.62 897.67 359.9 923.26 409.95 943.52 448.51 952.88 449.37"/><g class="cls-14"><polygon class="cls-15" points="975.41 472.69 998.16 486.19 1011.09 452.25 1008.61 436.19 975.41 472.69"/><path class="cls-15" d="M909.09,328.82s17.77,15.81,26.91,52.84,2.47,60.08,2.47,60.08l-20.39-13.58-22.54-65.88Z"/></g><path class="cls-16" d="M908.41,333.62,900.89,352a102.33,102.33,0,0,1-15.75,96.71l19.16,30.93c7.3-9.9,18.84-29.27,23.29-52C936.82,380.58,914.56,343.24,908.41,333.62Z"/><path class="cls-17" d="M986.74,348.16c-.91,0-81.53-14.72-81.53-14.72"/><line class="cls-17" x1="971" y1="412.86" x2="901.37" y2="342.52"/><line class="cls-17" x1="938.7" y1="437.3" x2="899.46" y2="346"/><line class="cls-17" x1="866.29" y1="450.33" x2="896.12" y2="355.86"/><circle class="cls-8" cx="988.13" cy="348.22" r="5.7"/><circle class="cls-8" cx="972.69" cy="413.77" r="5.7"/><line class="cls-17" x1="993.4" y1="376.47" x2="903.25" y2="337.28"/><circle class="cls-8" cx="995.29" cy="376.83" r="5.7"/><circle class="cls-8" cx="938.97" cy="439.71" r="5.7"/><circle class="cls-8" cx="864.58" cy="454.21" r="5.7"/><line class="cls-18" x1="905.25" y1="457.94" x2="897.48" y2="352.05"/><circle class="cls-8" cx="905.45" cy="462.18" r="5.7"/><circle class="cls-19" cx="905.45" cy="462.18" r="7.66"/><circle class="cls-19" cx="864.58" cy="454.21" r="7.66"/><circle class="cls-19" cx="938.97" cy="439.71" r="7.66"/><circle class="cls-19" cx="972.69" cy="413.77" r="7.66"/><circle class="cls-19" cx="995.29" cy="376.83" r="7.66"/><circle class="cls-19" cx="988.13" cy="348.22" r="7.66"/><g class="cls-20"><polygon class="cls-15" points="956.63 478.6 922.28 551.91 935.69 562.63 961.97 539.09 989.54 482.86 969.74 477.07 956.63 478.6"/></g><path class="cls-5" d="M1003,436.92l7.54,11.21a33.09,33.09,0,0,1,3.66,29.72L964.18,616.11,925.44,551Z"/><g class="cls-21"><polygon class="cls-6" points="1005.66 655.28 967.71 705.67 970.67 764.92 1012.08 788.45 1005.66 655.28"/></g><path class="cls-4" d="M908.55,219.47c4.1-14.6-9.53-25.73-9.53-25.73a43.53,43.53,0,0,1-3.68,11.12c-.15.72.82,3.39,3,6.71a17.39,17.39,0,0,1-4.15-4.45c-.75,1.38-5.33,10.17-5.33,10.17l1.53,9.82-5.29-7.52-11.6,21.26s2.23,6.45,3.87,8.91c-.51,0-7.3-7-7.3-7l9.56,19.7h0c-2.92-.22-5.53,2.74-5.53,2.74a6.7,6.7,0,0,1,5-.18c-2.71,3.4.16,8.13.16,8.13-.71-5.33,4.85-8.35,4.85-8.35s-2.45-7.63,2.64-.41c2.74-1.85,5.12-8.68,9.74-16.67-1.4-.37-7.58.41-10.62,3.78,2.58-4.9,10.26-8.52,10.26-8.52l-5.09-1.09,6.64-1.67L908,222s-4.24-.74-6.33,2a7.46,7.46,0,0,1,6.88-4.54Z"/><path class="cls-4" d="M913.67,288.23v0a3,3,0,0,1-1.61,4.09l-.42.18a3.06,3.06,0,0,1-4-1.67h0a3.07,3.07,0,0,1,1.48-3.91l.41-.2A3.06,3.06,0,0,1,913.67,288.23Z"/><rect class="cls-4" x="902.4" y="299.48" width="5.5" height="6.03" rx="2.75" transform="translate(1784.14 -69.23) rotate(138.6)"/><circle class="cls-4" cx="866.34" cy="282.98" r="1.64"/><circle class="cls-4" cx="876.12" cy="282.57" r="1.06"/><circle class="cls-4" cx="885.77" cy="287.08" r="0.97"/><circle class="cls-4" cx="890.07" cy="290.58" r="1.43"/><circle class="cls-4" cx="895.91" cy="295.11" r="2.1"/><circle class="cls-4" cx="901.21" cy="286.67" r="2.14"/><circle class="cls-4" cx="895.48" cy="283.99" r="1.36"/><circle class="cls-4" cx="890.09" cy="281.53" r="1.04"/><circle class="cls-4" cx="884.78" cy="279.3" r="0.65"/><circle class="cls-4" cx="880.98" cy="278.13" r="0.52"/><circle class="cls-4" cx="877" cy="276.89" r="0.88"/><circle class="cls-4" cx="880.77" cy="283.99" r="0.88"/><circle class="cls-4" cx="872.12" cy="275.94" r="1.42"/><circle class="cls-4" cx="871.52" cy="282.57" r="1.42"/><circle class="cls-4" cx="866.34" cy="275.94" r="1.85"/><path class="cls-4" d="M930,242.75l1.2-.88,1.4.55-4.77,5.13.21,3.57-3.1,3,3.85-.65,1.85-5.07-.44,11.51-10.39,4.95,3,1.1L914,277.16l1-10a18.08,18.08,0,0,1-.8-12.19,17,17,0,0,1,2.8-5.35,9,9,0,0,0,0,3,8.92,8.92,0,0,0,.81,2.39c-.28-1.08.55-8,.55-8l5-6.08-.93,2.18.32,1.44,2-3.1,9.67-4.12-4.44,3.67Z"/><path class="cls-6" d="M862.82,370.13,858,361.64l1.58-.89a3,3,0,0,0,1.42-3.47l-.6-2,.74-8a2.67,2.67,0,0,0-1.46-3.1l-.73-.33a6.08,6.08,0,0,1-3.28-3.79l-.74-2.5a1.46,1.46,0,0,0-1.39-1h0a2.86,2.86,0,0,0-2.64,1.74l-11.65,25v0a3,3,0,0,0,2.26,3.95l.33.06,9.35,18Z"/><g class="cls-22"><polygon class="cls-23" points="898.76 191.91 900.65 201.72 900.16 216.03 886.18 240.56 879.15 243.26 879.19 253.69 867.77 240.02 857.81 236.97 891.5 195.11 898.76 191.91"/></g><path class="cls-5" d="M1019.66,428.88l-2.21,7.47a11.55,11.55,0,0,0-.21,5.78l.2.93a7.79,7.79,0,0,0,8.7,6.07A9.84,9.84,0,0,1,1028,449c2.23.14,4.47.94,3.82,3.61s-2.34,15.67-6,24-3.19,9.6-1.79,14.35,8.22,9.25,8.22,9.25-2.22-4.9-1-7.57,12-14,11.25-19.55-2.66-24.17-3.06-25.28-2.85-1.34-2.74-2.2,2.07-3.12-.35-5S1019.66,428.88,1019.66,428.88Z"/><polygon class="cls-6" points="970.63 765.95 977.94 758.64 970.63 751.32 970.63 765.95"/><polygon class="cls-6" points="885.82 704.64 891.7 698.77 885.82 692.89 885.82 704.64"/><rect class="cls-7" x="874.57" y="305.95" width="3.79" height="7.53" transform="translate(1637.79 843.08) rotate(-164.45)"/><g class="cls-24"><path class="cls-25" d="M1009,520.29c-.63,2.06-1.34,4.08-2,6.12l-2.11,6.08c-1.41,4-2.91,8.06-4.4,12.08s-3.05,8-4.65,12l-2.42,6c-.85,2-1.65,4-2.53,5.92.63-2.05,1.33-4.08,2-6.12l2.11-6.07c1.41-4,2.9-8.07,4.4-12.09s3-8,4.65-12l2.42-6C1007.27,524.24,1008.08,522.25,1009,520.29Z"/><path class="cls-25" d="M960.35,647.84c.49,2.62.9,5.24,1.36,7.87l1.23,7.89c.81,5.26,1.51,10.53,2.28,15.8s1.39,10.55,2,15.83l.91,7.93c.27,2.65.57,5.3.79,8-.48-2.62-.9-5.25-1.35-7.87l-1.23-7.89c-.81-5.26-1.52-10.53-2.28-15.8s-1.39-10.55-2-15.84l-.92-7.93C960.88,653.13,960.58,650.49,960.35,647.84Z"/><path class="cls-25" d="M866.29,586.77c.61,2.6,1.14,5.2,1.71,7.8l1.58,7.83c1,5.22,2,10.46,3,15.68s1.86,10.48,2.72,15.73l1.26,7.89c.38,2.63.8,5.26,1.15,7.9-.61-2.59-1.14-5.2-1.71-7.8L874.4,634c-1-5.22-2-10.45-3-15.68s-1.86-10.48-2.72-15.73l-1.26-7.88C867.06,592,866.64,589.41,866.29,586.77Z"/><path class="cls-25" d="M944.52,487.9c-1.41,1-2.85,1.84-4.28,2.76l-4.34,2.65c-2.89,1.76-5.83,3.45-8.77,5.14s-5.91,3.32-8.9,4.9l-4.5,2.37c-1.52.75-3,1.54-4.56,2.26,1.4-1,2.85-1.84,4.27-2.76l4.34-2.65c2.9-1.76,5.84-3.45,8.78-5.14s5.9-3.32,8.9-4.9l4.5-2.37C941.48,489.41,943,488.62,944.52,487.9Z"/><path class="cls-25" d="M1031.32,418.59c-1.35-1-2.65-2.13-4-3.19l-3.89-3.28c-2.59-2.18-5.12-4.44-7.65-6.69s-5-4.56-7.46-6.9l-3.67-3.52c-1.2-1.2-2.42-2.38-3.59-3.61,1.35,1,2.64,2.13,4,3.19l3.88,3.27c2.59,2.19,5.12,4.45,7.65,6.7s5,4.56,7.47,6.9l3.67,3.52C1028.92,416.18,1030.14,417.36,1031.32,418.59Z"/><path class="cls-25" d="M895.39,483.51c-1-1.37-1.92-2.79-2.89-4.19l-2.78-4.25c-1.85-2.84-3.63-5.73-5.41-8.61s-3.5-5.8-5.17-8.75l-2.51-4.43c-.8-1.49-1.63-3-2.4-4.48,1,1.37,1.93,2.79,2.89,4.19l2.78,4.25c1.86,2.84,3.63,5.73,5.41,8.61s3.5,5.8,5.17,8.75L893,479C893.79,480.52,894.62,482,895.39,483.51Z"/></g><ellipse class="cls-26" cx="886.23" cy="258.93" rx="101.51" ry="37.04" transform="translate(399.17 1043.3) rotate(-74.45)"/><g class="cls-27"><path class="cls-28" d="M899.36,264.64l.51-.3c0,.08,4.39,6,4.47,6.13s2.6-1.67,2.68-1.55-4.7,11.26-4.64,11.37,3.55-2.11,3.58-2.07"/><path class="cls-28" d="M905,254.47c.06.11,2.75-1.78,2.83-1.63s-5,11.41-4.91,11.53,4.32-2.68,4.4-2.53"/><path class="cls-28" d="M879.18,257.54c.15.26,13.92-8.52,14.13-8.16s-23.18,21.68-23,22,19.33-11.68,19.56-11.29-11.15,14.86-11,15.06.46-.34.49-.28"/><path class="cls-28" d="M907.91,273.61c.12.21,10.49-6.45,10.66-6.16s-11.71,15.22-11.6,15.4,12.4-7.53,12.56-7.25"/><path class="cls-28" d="M902,368s2.66-1.61,2.69-1.56-2.05,9.76-2,9.86,4.16-2.6,4.24-2.45-6.35,12.15-6.26,12.3,7.39-4.44,7.46-4.31-11.87,15.23-11.72,15.48,17.16-10.18,17.28-10-21.64,20.76-21.46,21.07,21.92-13.11,22.12-12.77c.36.63-29.89,25.34-29.62,25.81.18.31,24.74-15,25-14.46s-18.28,18.91-18.13,19.16,13.78-8.4,14-8.07S894.8,432.73,895,433s7.44-4.42,7.49-4.33"/><path class="cls-28" d="M866.94,281.5s1.23-.74,1.24-.72,2.19,7.34,2.23,7.42,6-3.71,6.13-3.54-12.18,15.43-12,15.65c.25.43,20.93-12.45,21.08-12.18s-22.48,21.15-22.25,21.56c.37.64,30.87-18.29,31.07-17.94S865.45,316.62,865.68,317s35.14-21,35.45-20.47-33.07,27.12-32.78,27.63,37.57-22.72,38-21.95-33.22,27.33-33,27.74c.38.66,28.16-17.06,28.51-16.46.16.27-16,17.52-15.83,17.85s13.52-8,13.61-7.87-10,14.23-9.87,14.4,11.56-6.91,11.67-6.74-6.27,12.08-6.16,12.26,2.29-1.48,2.36-1.36"/><path class="cls-28" d="M863.14,374.19s1.72-1,1.74-1c.14.24-10.63,14.6-10.53,14.77s11.31-6.87,11.46-6.61-8.12,13.15-8,13.32,10.29-6.16,10.39-6-7.88,13-7.77,13.2,14.38-8.54,14.48-8.36-9.8,14.1-9.69,14.28,14.19-8.51,14.32-8.27-9.08,13.69-9,13.88,11.93-7.29,12.1-7-8.38,13.33-8.29,13.48c.19.33,11.67-7.13,11.84-6.84s-11.83,15.18-11.68,15.45,16.07-9.52,16.18-9.34-12.25,15.52-12.14,15.71,15.9-9.5,16-9.26-9.31,13.78-9.18,14,12.07-7.37,12.24-7.07"/><path class="cls-28" d="M859.56,327.72c.06.1,2.69-1.75,2.78-1.61s-5.21,11.55-5.14,11.67.26-.25.3-.18"/><path class="cls-28" d="M963.67,481s1.67-1,1.69-1c.48.84-50.9,37.3-50.56,37.89.66,1.14,57.45-34.54,58.05-33.51s-57.4,40.81-57,41.57c.59,1,57.25-33.91,57.62-33.26.51.88-57.88,40.89-57.35,41.82s52.79-31.26,53.12-30.67-51.06,37.29-50.68,37.95,44-26.3,44.4-25.64c.49.84-41.75,32-41.39,32.61.23.4,33.19-20.09,33.59-19.4s-30.23,25.65-30,26c.31.54,22.35-13.56,22.63-13.07.16.29-16.93,18-16.73,18.37.11.19,10.22-6.06,10.29-5.94"/><path class="cls-28" d="M887,527.24c.19.32,18.57-11.32,18.83-10.87s-26.24,23.4-26.05,23.74c.33.56,26.18-15.8,26.47-15.29s-32.89,27.07-32.63,27.53,32.19-19.1,32.42-18.71-34,27.57-33.68,28.15c.45.77,37.57-22.25,37.81-21.83s-35.54,28.58-35.27,29,37-22.12,37.33-21.55S877.71,575.39,878,575.92s34.36-20.79,34.78-20.08-33.45,27.46-33.22,27.87c.45.78,33.79-20.43,34.19-19.73.31.54-36.65,29-36.27,29.65s37.94-22.48,38.19-22c.42.73-36.67,29.26-36.41,29.71s25.88-15.45,26.1-15.07"/><path class="cls-28" d="M985.11,577s3.18-1.92,3.21-1.86-5.51,11.72-5.44,11.84,8.94-5.46,9.07-5.23-13.1,16-13,16.17c.22.38,17.78-10.58,17.92-10.34S974,608.94,974.26,609.35c.38.66,31.73-18.8,31.93-18.44s-34.75,28.14-34.48,28.6,36.63-21.9,36.95-21.34c.44.76-37.29,29.48-37,30.05.23.4,32.51-19.68,32.91-19s-32.27,26.8-32,27.2c.4.7,30-18.14,30.33-17.51s-33.11,27-32.76,27.62,31.79-18.84,32-18.48c.36.63-30.79,26-30.56,26.34s29-17.28,29.2-16.86-25.2,22.65-24.94,23.1,23.33-14.14,23.62-13.63-26.82,23.74-26.63,24.08,20.86-12.42,21-12.14-16.1,17.49-15.88,17.88,15.49-9.27,15.63-9S977,685.62,977.16,686s15.16-9.21,15.36-8.87-15.6,17.42-15.47,17.64,13.7-8.33,13.88-8S977.66,702.68,977.85,703s13.26-7.94,13.38-7.72S980.77,709.62,981,709.93s6.9-4.29,7-4.06-8.16,13.15-8,13.34,8.73-5.19,8.8-5.08-5,11.43-5,11.56.12-.18.17-.09-1.6,9.5-1.55,9.59,1.55-1,1.58-.92-2.56,10-2.49,10.13,2.79-1.67,2.81-1.63-1.91,9.65-1.83,9.78a3.3,3.3,0,0,1,.32-.18"/><path class="cls-28" d="M903.2,597.83s3.19-1.92,3.22-1.86c.25.43-23.38,21.8-23.21,22.11s19.35-11.7,19.58-11.31-18.27,18.86-18.11,19.15,15.78-9.4,15.9-9.18-15.42,17.2-15.24,17.51,17.27-10.25,17.38-10-14.69,16.86-14.56,17.1,14.5-8.69,14.64-8.45-11.37,15-11.24,15.19,9.65-5.92,9.8-5.66-8,13.14-8,13.29,6.81-4.21,6.93-4-8.87,13.52-8.73,13.75,8.59-5.1,8.65-5-6.66,12.36-6.59,12.5,5.87-3.52,5.93-3.42-1.1,9.17-1,9.3.35-.31.39-.23S896,688.85,896.09,689s2-1.21,2.06-1.19"/><path class="cls-28" d="M903,332.68s1.75-1.06,1.77-1c.1.18-6.11,12.06-6,12.19s3.63-2.18,3.67-2.12-8,13.09-7.92,13.26,3.84-2.27,3.87-2.23"/><path class="cls-2" d="M896.45,344.73a1.8,1.8,0,0,1-1.52.31,1.64,1.64,0,0,1-1.06-.79c-.52-.89-.52-.89,3.26-8.18l.35-.68-.69.41c-6.56,3.93-6.56,3.93-7.4,3.72a1.71,1.71,0,0,1-1-.79c-.58-1-.58-1,4.13-7.68.53-.74,1.11-1.57,1.71-2.42-7.66,4.58-7.68,4.58-8.55,4.35a1.72,1.72,0,0,1-1-.79c-.71-1.23-.71-1.23,8.67-11.51l.75-.82-4.93,3c-14.92,9.06-15.08,9-16.11,8.76a1.73,1.73,0,0,1-1-.8c-.78-1.35-.59-1.5,4.24-5.51,2.41-2,5.7-4.67,9.22-7.54,2.22-1.8,4.78-3.89,7.3-6l-8.34,5c-15.45,9.27-15.45,9.27-16.42,9a1.74,1.74,0,0,1-1-.78c-.79-1.38-.48-1.65,4.79-6,2.72-2.27,6.42-5.29,10.25-8.41l4.65-3.79L882.91,309c-16.65,9.92-16.65,9.92-17.64,9.66a1.66,1.66,0,0,1-1-.79c-.77-1.32-.66-1.41,4.74-6.13,2.68-2.34,6.28-5.43,9.89-8.53l1.43-1.23c-16.16,9.68-16.38,9.62-17.37,9.36a1.75,1.75,0,0,1-1-.8c-.78-1.35-.78-1.35,11.63-13l.94-.89c-9.34,5.6-9.49,5.56-10.36,5.34a1.74,1.74,0,0,1-1-.8c-.63-1.08-.63-1.08,5.81-9.23l1.59-2a2.4,2.4,0,0,1-.43-.07,1.69,1.69,0,0,1-1-.8,24.27,24.27,0,0,1-1.12-3.59c-.22-.71-.47-1.55-.68-2.27a1.6,1.6,0,0,1-.64-.05l.29-1.11c-.1-.34-.18-.57-.2-.65l.22-.07-.65-1.28.44-.26c.91-.54,1.28-.77,2-.59a1.73,1.73,0,0,1,1,.79c.13.22.13.22,1.42,4.54.12.43.25.86.37,1.25l1.29-.8c3.3-2,3.42-2.11,4.23-1.91a1.71,1.71,0,0,1,1,.79c.65,1.12.65,1.12-6.51,10.17l-.73.92,5.23-3.13c9.15-5.5,9.15-5.49,10-5.27a1.72,1.72,0,0,1,1,.79c.73,1.26.4,1.57-3.64,5.44-2,2-4.81,4.57-7.59,7.19l-2.36,2.22c2.76-1.64,5.65-3.37,8.09-4.84,12.38-7.42,12.37-7.42,13.28-7.19a1.71,1.71,0,0,1,1,.79c.77,1.33.66,1.42-4.8,6.19-2.72,2.38-6.36,5.51-10,8.63l-1.75,1.51,1.9-1.14c19.24-11.47,19.33-11.44,20.35-11.18a1.72,1.72,0,0,1,1,.79c.91,1.59.92,1.6-18,17.06,20.88-12.52,21.16-12.45,22.2-12.18a1.78,1.78,0,0,1,1.06.8c.91,1.59.95,1.65-18.06,17.14,11.44-6.94,11.59-6.9,12.53-6.66a1.78,1.78,0,0,1,1.06.8c.69,1.19.69,1.19-7.59,10.27L894,324.83c5.29-3.16,5.32-3.15,6.07-3a1.64,1.64,0,0,1,1,.79c.62,1.07.63,1.08-5.71,10.06,5.67-3.4,5.68-3.4,6.47-3.19a1.69,1.69,0,0,1,1,.79c.5.86.5.86-2.83,7.29-.49.94-1,2-1.55,3a1.82,1.82,0,0,1,.58.59,1.68,1.68,0,0,1-.62,2.29,1.14,1.14,0,0,1-.34.15l-.85.54Zm-.22-1.84a1.4,1.4,0,0,0,.36.43A1.5,1.5,0,0,1,896.23,342.89Zm-28.22-62,.38-.22Z"/><g class="cls-29"><path class="cls-28" d="M891.63,321.52c.19.32,20.72-12.56,21-12.11"/><path class="cls-28" d="M866.71,283.65s1-.64,1.06-.62,6.7,4.73,6.74,4.81.4-.34.45-.26,8.57,3.61,8.63,3.71,4.13-2.44,4.16-2.4,2.34,7.22,2.39,7.32,8.08-4.8,8.14-4.69-6.89,12.47-6.8,12.61,14.88-8.92,15-8.67-13.27,16-13.12,16.28,17.32-10.54,17.56-10.13c.44.76-35.49,28.6-35.24,29s12.4-7.57,12.58-7.26"/></g><path class="cls-28" d="M863.8,271.21s2.82-1.7,2.85-1.64-2.07,9.76-2,9.86,7.9-4.84,8-4.63-2.5,10-2.43,10.09,9.76-5.85,9.85-5.69,1.33,7.81,1.39,7.91c.15.26,11.56-6.86,11.64-6.72s-4.17,10.94-4.1,11.06,15.72-9.42,15.87-9.16-8.08,13.12-8,13.3,18-10.95,18.24-10.53-13.55,16.25-13.43,16.45c.23.4,14.8-9,15-8.66s-14.24,16.52-14.06,16.83,9.8-5.82,9.87-5.7"/><path class="cls-2" d="M905.17,310.25c-2.17,1.25-2.35,1.2-2.93,1.05a1.67,1.67,0,0,1-1-.79c-.69-1.18-.69-1.18,7.69-10.93l.4-.47c-7,4.28-7.1,4.26-8,4a1.68,1.68,0,0,1-1.05-.79c-.64-1.1-.64-1.1,5.5-8.39.82-1,1.77-2.12,2.72-3.24L905,292.79c-7.71,4.64-7.71,4.64-8.54,4.43a1.7,1.7,0,0,1-1-.79c-.55-.95-.55-.95,3.59-7.65l1.22-2-3.07,1.83c-7.78,4.64-7.78,4.65-8.61,4.43a1.67,1.67,0,0,1-1-.79c-.44-.75-.44-.75,1.92-6.93.15-.37.3-.77.45-1.18l-.45.28c-7.52,4.52-7.54,4.52-8.42,4.29a1.66,1.66,0,0,1-1-.79c-.18-.32-.18-.32-.91-4.59-.08-.5-.17-1-.26-1.54l-2,1.19c-6.17,3.74-6.19,3.73-7.06,3.51a1.69,1.69,0,0,1-1-.79c-.37-.64-.37-.64,1-6,.12-.5.26-1,.39-1.58l-.46.29c-4.42,2.71-4.59,2.81-5.44,2.6a1.71,1.71,0,0,1-1-.79c-.35-.6-.35-.6.69-5.48l.42-2a1.32,1.32,0,0,1-.92,0l.42-1.62,1-.55h0l-1,.55-.71-1.51c.16-.08.62-.36,1.11-.65,2-1.2,2.15-1.29,2.87-1.11a1.71,1.71,0,0,1,1,.79c.37.63.37.63-.94,6.75l-.15.68.92-.56c4.23-2.59,4.3-2.64,5.13-2.43a1.71,1.71,0,0,1,1.05.79c.38.66.38.66-1.11,6.6-.09.34-.17.69-.26,1l2.4-1.46c4.57-2.76,4.57-2.76,5.36-2.56a1.7,1.7,0,0,1,1,.78c.17.31.17.31.87,4.44.1.56.2,1.19.31,1.78,1.45-.85,3.49-2.07,5-3,5-3,5-3,5.78-2.81a1.66,1.66,0,0,1,1,.78c.43.75.43.75-1.95,7-.15.39-.3.8-.46,1.21l3.33-2c8.93-5.34,8.93-5.34,9.81-5.11a1.72,1.72,0,0,1,1,.79c.57,1,.57,1-4.43,9.09l-.23.37,1.64-1c11.22-6.76,11.3-6.74,12.25-6.49a1.69,1.69,0,0,1,1,.79c.69,1.2.71,1.22-7.7,11.22,7.29-4.46,7.33-4.45,8.22-4.22a1.68,1.68,0,0,1,1,.79c.66,1.15.66,1.15-6.73,9.76-.48.55-1,1.14-1.5,1.75,2.29-1.35,2.41-1.32,3-1.16a1.67,1.67,0,0,1,.42,3.07l-.27.12c-.48.26-2.3,1.34-3.77,2.23Z"/><g class="cls-30"><g class="cls-27"><path class="cls-28" d="M860.37,266.86s1.51-.91,1.53-.89-.45,8.85-.4,8.94,7.41-4.54,7.52-4.35-7.51,12.81-7.42,13,13.38-8,13.49-7.79-3.75,10.67-3.67,10.82c.18.31,14-8.3,14.1-8.14"/></g><path class="cls-28" d="M898.5,289.81l.27-.16c.06.09,7.26,4.32,7.35,4.47s2.61-1.55,2.63-1.52"/><path class="cls-28" d="M864.05,279.32l.4-.23c.08.13,9.51,3.08,9.57,3.17s4-2.37,4-2.3,5.91,5.16,6,5.25,3.29-1.95,3.31-1.91,6.6,4.75,6.66,4.86.82-.48.82-.47"/><path class="cls-31" d="M863.22,279.27s.9-.54.91-.52,12.58,1.27,12.65,1.39.89-.53.9-.52,8.83,3.46,8.89,3.56.58-.34.58-.33,6.83,4.61,6.9,4.72.57-.34.58-.33,6.83,4.62,6.88,4.71l.58-.33c.09.15,9.35,3.15,9.42,3.27s.87-.53.88-.51"/><path class="cls-28" d="M895.65,291.7s.27-.16.27-.15,6.5,4.77,6.58,4.91,2.65-1.57,2.67-1.54,8.67,3.57,8.72,3.66.5-.31.51-.3"/><path class="cls-28" d="M864.41,280s.35-.21.36-.2,8.83,3.48,8.88,3.57,3.55-2.13,3.59-2.07,5.59,5.35,5.64,5.43,3-1.77,3-1.74,6.17,5,6.23,5.11.61-.36.62-.35"/><path class="cls-31" d="M863.38,279.92s.87-.52.88-.51,11.55,1.89,11.62,2,.84-.51.84-.49,8.33,3.75,8.39,3.85l.56-.33c.06.11,6.22,5,6.28,5.08s.56-.33.56-.32,6.23,5,6.27,5.07.56-.33.56-.32,7.46,4.26,7.52,4.36.88-.53.89-.51"/></g><path class="cls-28" d="M907.7,334.92s1.5-.9,1.51-.87-4.69,11.25-4.62,11.37c.16.28,10.65-6.49,10.8-6.24s-15.72,17.43-15.57,17.68c.26.47,23-13.66,23.16-13.37s-22.49,21.15-22.26,21.56c.41.71,34-20.14,34.21-19.75s-29.79,25.35-29.55,25.75,38.31-22.9,38.65-22.31-33.72,27.48-33.42,28,38.22-23.12,38.68-22.33-35.25,28.46-35,28.9c.52.9,40.2-24.29,40.66-23.48.35.6-41,31.45-40.63,32.17s46.95-27.81,47.26-27.29c.49.86-43.66,33.2-43.36,33.73.47.8,49-29.22,49.38-28.51S924.54,402.54,925,403.26s48.15-29.09,48.71-28.12c.38.65-49.56,36.55-49.22,37.13s50.65-30.07,51-29.45-43.85,32.83-43.33,33.72,50.11-29.75,50.47-29.14-49.29,35.92-48.75,36.86,54.46-32.8,55-31.78c.5.85-53,38.48-52.62,39.09.52.89,57.77-34.86,58.42-33.73.38.65-55.72,39.4-55.08,40.5s62.24-37.14,62.76-36.24c.69,1.19-57.84,40.47-57.13,41.69.48.84,60.57-36.57,61.26-35.37.59,1-54.66,39.13-54.17,40,.71,1.23,61.92-36.66,62.31-36s-54.93,39.42-54.5,40.17,53.21-31.65,53.61-31c.62,1.08-52.6,38.3-52.27,38.87.52.91,50.56-30,50.93-29.4s-47.56,35.17-47.14,35.9,41.74-25.14,42.19-24.36c.28.49-33.59,27.34-33.26,27.92S1004.61,452,1005,452.76c.21.37-19.95,19.69-19.72,20.08s19.32-11.46,19.45-11.23-5.73,11.79-5.64,11.95,3.5-2.11,3.54-2"/><path class="cls-2" d="M1000.47,474.74c-1,.58-1.2.59-1.76.44a1.68,1.68,0,0,1-1-.78c-.49-.86-.49-.86,3-8,.11-.23.23-.47.34-.71l-4.93,2.92c-10.33,6.13-10.33,6.13-11.19,5.91a1.73,1.73,0,0,1-1-.79c-.76-1.32-.76-1.32,10.42-12.36l1.5-1.49-6.27,3.8c-14.59,8.86-14.69,8.84-15.71,8.57a1.73,1.73,0,0,1-1.06-.79c-.82-1.42-.44-1.74,5.91-7,3.36-2.8,7.87-6.48,12.22-10l1.48-1.21-5.86,3.52c-20.43,12.29-20.56,12.25-21.63,12a1.79,1.79,0,0,1-1.05-.8c-.79-1.38.22-2.19,2.45-4,1.28-1,3.12-2.44,5.65-4.34,4.66-3.53,10.93-8.17,17-12.67l1.09-.8c-27.52,16.44-27.8,16.37-28.93,16.08a1.73,1.73,0,0,1-1.05-.8c-.79-1.36.26-2.16,2-3.48,1-.8,2.55-1.92,4.4-3.28,3.7-2.7,8.77-6.35,14.2-10.27L992,436.1l-2.81,1.67c-28.18,16.8-28.37,16.75-29.48,16.46a1.71,1.71,0,0,1-1-.8c-.81-1.4.21-2.19,2.68-4.08,1.4-1.08,3.44-2.59,6.22-4.63,5.16-3.76,12.17-8.8,18.95-13.67l2.06-1.47c-33.43,20-35.35,20.81-36.65,20.47a1.75,1.75,0,0,1-1.07-.81c-.82-1.41.35-2.31,2.46-3.95,1.28-1,3.16-2.38,5.72-4.25,4.76-3.47,11.06-8,17.73-12.73l8.49-6.06c-4.32,2.57-8.76,5.23-12.76,7.63-26.44,15.87-26.58,15.83-27.69,15.55a1.74,1.74,0,0,1-1-.8c-1.11-1.91-1.13-1.94,29.35-23.28l4.07-2.85L973,421c-32.36,19.34-32.63,19.27-33.8,19a1.73,1.73,0,0,1-1.05-.8c-1.08-1.87-1.12-1.94,31.32-25l-5.65,3.39c-26.64,16-26.84,16-28,15.67a1.75,1.75,0,0,1-1.05-.8c-.79-1.37.23-2.15,2.27-3.72,1.15-.88,2.83-2.14,5.13-3.82,4.27-3.15,10-7.3,16.11-11.7L966.8,407l-5.15,3.1c-26.82,16.13-27.06,16.07-28.21,15.78a1.78,1.78,0,0,1-1.05-.81c-1-1.75-1.06-1.82,26.1-21.75-25.46,15.17-25.71,15.11-26.77,14.83a1.68,1.68,0,0,1-1.05-.79c-1-1.76-1-1.77,24.38-20.88l-2.85,1.7c-26.93,16-27.1,16-28.17,15.7a1.74,1.74,0,0,1-1-.8c-.79-1.36.19-2.12,2.33-3.79,1.2-.94,2.93-2.25,5.3-4,4.4-3.29,10.19-7.55,16.32-12.07,1.74-1.27,3.54-2.6,5.35-3.94l-3.84,2.31c-22.64,13.64-22.81,13.59-23.9,13.31a1.78,1.78,0,0,1-1-.79c-.87-1.52-.56-1.77,7.55-8.05,4.34-3.36,10.13-7.76,15.73-12l1.05-.8L945,385c-25.84,15.45-26,15.4-27.14,15.11a1.78,1.78,0,0,1-1.05-.79c-.76-1.33.26-2.15,1.8-3.39.92-.74,2.27-1.79,3.93-3.06,3.28-2.52,7.76-5.9,12.51-9.48l7.11-5.37c-26.81,16-27.08,15.94-28.19,15.65a1.75,1.75,0,0,1-1.06-.8c-.87-1.51-.26-2,7.18-7.82,4.12-3.23,9.63-7.46,15-11.56l.69-.53c-20.44,12.38-20.71,12.31-21.8,12a1.75,1.75,0,0,1-1.06-.8c-.79-1.36-.49-1.61,4.49-5.66,2.56-2.08,6-4.87,9.78-7.86l7.78-6.23-8,4.8c-15.71,9.42-15.71,9.42-16.69,9.16a1.69,1.69,0,0,1-1-.78c-.81-1.39-.38-1.75,4.87-6.09,2.78-2.3,6.56-5.36,10.46-8.52l4.87-4c-1.78,1.07-3.58,2.13-5.29,3.15C906,372.94,906,372.94,905,372.68a1.71,1.71,0,0,1-1-.79c-.77-1.33-.56-1.52,4.87-6.21,2.76-2.39,6.47-5.55,10.18-8.71l1.52-1.28c-18.91,11.32-19.15,11.26-20.18,11a1.78,1.78,0,0,1-1.05-.79c-.78-1.36-.78-1.36,11.63-13l1-.94c-11.43,6.85-11.56,6.81-12.48,6.57a1.71,1.71,0,0,1-1-.79c-.68-1.18-.68-1.18,7.54-10.26l1.38-1.53c-2.28,1.34-2.47,1.3-3.09,1.14a1.68,1.68,0,0,1-1.05-.79c-.45-.78-.45-.78,1.93-6.44.8-1.91,1.84-4.39,2.3-5.56l-.42-.83.56-.34c1.09-.65,1.42-.85,2.12-.67a1.68,1.68,0,0,1,1,.79c.47.81.47.81-2.5,7.91-.07.15-.14.31-.2.47l1.36-.83c5.61-3.42,5.61-3.42,6.47-3.21a1.73,1.73,0,0,1,1.05.8c.7,1.21.7,1.21-8.46,11.33l-.84.94,5-3c10-6,10-6,10.86-5.76a1.65,1.65,0,0,1,1,.78c.73,1.27.4,1.58-3.63,5.45-2.06,2-4.83,4.58-7.61,7.19l-2.46,2.33c3.4-2,7.07-4.22,10.12-6.05,13.57-8.14,13.57-8.14,14.5-7.9a1.67,1.67,0,0,1,1,.79c.78,1.34.56,1.52-4.94,6.27-2.79,2.42-6.54,5.61-10.29,8.8l-1.87,1.59,3.08-1.83c20.94-12.48,21-12.45,22.08-12.18a1.69,1.69,0,0,1,1,.79c.92,1.59.93,1.61-18.36,17.24,21.23-12.72,21.51-12.65,22.56-12.37a1.75,1.75,0,0,1,1.06.8c.94,1.64,1,1.68-19.93,18.4l3.78-2.29c19.49-11.81,19.69-11.76,20.76-11.49a1.73,1.73,0,0,1,1,.8c.84,1.45.45,1.76-6.16,6.93-3.53,2.77-8.23,6.37-13.19,10.19l-5.76,4.42c3.4-2,6.88-4.09,10-6C961,362.82,961,362.82,962,363.09a1.72,1.72,0,0,1,1,.79c1,1.73,1,1.76-24.6,21.08l4.81-2.87C966.81,368,966.92,368,968,368.3a1.73,1.73,0,0,1,1,.8c.84,1.45.57,1.66-6.44,7.08-3.7,2.86-8.61,6.58-13.81,10.53L944,390.33l2.7-1.62c25.89-15.58,26.16-15.51,27.32-15.21a1.77,1.77,0,0,1,1.06.8c.79,1.38-.19,2.15-2.56,4-1.33,1.05-3.26,2.51-5.89,4.48-4.87,3.65-11.41,8.46-17.73,13.12l-2.36,1.74,3.91-2.33c24.25-14.43,24.33-14.4,25.38-14.13a1.72,1.72,0,0,1,1,.79c.85,1.47.45,1.78-6.18,6.87-3.56,2.73-8.34,6.33-13.4,10.14l-7.31,5.5,9.08-5.4c22.8-13.6,22.86-13.59,23.91-13.31a1.72,1.72,0,0,1,1,.79c.77,1.34-.25,2.14-1.95,3.47-1,.79-2.49,1.91-4.31,3.26-3.6,2.68-8.52,6.3-13.76,10.14l-10.09,7.41,6-3.6c27.91-16.79,28.19-16.72,29.35-16.42a1.82,1.82,0,0,1,1.07.81c.82,1.43-.28,2.28-2.93,4.34-1.56,1.22-3.8,2.91-6.87,5.17-5.39,4-12.39,9-19.25,14l.81-.49c31.4-18.87,31.77-18.78,33-18.47a1.8,1.8,0,0,1,1.06.81c.8,1.38-.26,2.18-2.18,3.64-1.1.84-2.71,2-4.92,3.63-4.12,3-9.75,7-15.71,11.24l-12.13,8.65,10.09-6c30.14-18,30.35-18,31.48-17.67a1.7,1.7,0,0,1,1,.8c1.11,1.92,1.11,1.92-28.76,22.83l-3.58,2.51c33.76-20.26,34.18-20.15,35.41-19.83a1.78,1.78,0,0,1,1.06.8c1.07,1.85,1.07,1.85-29.22,23.46l-4.53,3.23c5.1-3,10.42-6.21,15.17-9.06,24.56-14.71,24.62-14.69,25.68-14.41a1.66,1.66,0,0,1,1,.79c.81,1.4-.2,2.18-2.65,4.06-1.39,1.07-3.4,2.56-6.16,4.58-5.1,3.72-12.06,8.72-18.79,13.55l-4.29,3.08,3.29-2c25.49-15.19,25.6-15.17,26.67-14.89a1.74,1.74,0,0,1,1,.8c1.06,1.82,1.12,1.92-29.09,23.69l3.38-2c22.22-13.28,22.28-13.26,23.33-13a1.69,1.69,0,0,1,1,.79c.79,1.36-.22,2.16-2.23,3.76-1.14.9-2.8,2.18-5.07,3.89-4.22,3.18-9.77,7.29-15.64,11.64L987,452.47c19.61-11.78,19.82-11.72,20.87-11.45a1.73,1.73,0,0,1,1,.8c.8,1.37.58,1.56-5.09,6.26-2.9,2.41-6.82,5.61-10.82,8.87l-3.1,2.53c14.31-8.67,14.53-8.62,15.54-8.36a1.79,1.79,0,0,1,1.06.81c.75,1.29.75,1.29-9.86,11.77L995,465.31c9.33-5.55,9.35-5.54,10.18-5.32a1.63,1.63,0,0,1,1,.78c.48.83.48.83-2.53,7-.31.63-.64,1.32-1,2a2.27,2.27,0,0,1,.37.08,1.67,1.67,0,0,1,.42,3.07,1.51,1.51,0,0,1-.26.12l-1.73,1ZM907.76,334.88l1.39-.8Z"/><g class="cls-32"><g class="cls-33"><path class="cls-28" d="M1006.53,438.3s2-1.19,2-1.15c.19.33-17.26,18.35-17.12,18.58s15.36-9.3,15.55-9c.29.5-29.65,25.24-29.4,25.66s28.45-16.89,28.65-16.54-22.39,21.1-22.15,21.5,20.75-12.3,20.88-12.06-12.35,15.55-12.23,15.75,8.82-5.3,8.91-5.14"/></g><g class="cls-33"><path class="cls-28" d="M908.39,330.13s1.12-.68,1.14-.66-4.27,11-4.2,11.13,6.32-3.89,6.42-3.71S900.49,351.81,900.61,352s14-8.36,14.14-8.16-18.71,19-18.51,19.39c.31.53,25.18-14.92,25.35-14.63S899.77,369.48,900,369.79s25.75-15.4,26-15S904,375.66,904.23,376s23.84-14.46,24.14-13.94S906.8,382.86,907,383.14c.33.57,23.59-14.3,23.89-13.78s-25.07,22.55-24.8,23,27.68-16.4,27.86-16.09c.31.53-25.1,22.76-24.91,23.08s26.8-16,27-15.61-21.48,20.58-21.25,21,22.8-13.83,23.09-13.33c.2.35-24.76,22.58-24.58,22.9s21.62-12.87,21.79-12.58S919.73,418.8,920,419.17s17.16-10.25,17.31-10-16.36,17.66-16.14,18,16.81-10.21,17-9.84S926.94,432.32,927,432.5s10.8-6.6,11-6.33c.07.11-4.24,10.9-4.13,11.09s5.11-3.09,5.17-3"/></g></g><path class="cls-28" d="M907.69,335s.95-.58,1-.56-4.14,10.94-4.07,11.06,5-3.11,5.1-2.95-6.44,12.21-6.35,12.36,8.36-5,8.44-4.88-7.5,12.78-7.38,13,13.37-7.94,13.47-7.77S907,369.9,907.07,370.09s14.31-8.57,14.44-8.34S909.6,377,909.73,377.26s13.38-8.16,13.57-7.83-13.22,16.07-13.11,16.26c.23.4,14.71-9,14.91-8.6s-19.1,19.23-18.88,19.6,21.07-12.48,21.21-12.24c.28.48-22.4,21.23-22.23,21.53s23.3-13.91,23.5-13.57-23.1,21.48-22.85,21.9,23.33-14.15,23.62-13.64-32.09,26.71-31.86,27.11,27.56-16.39,27.76-16S894.66,437.32,895,438s30.69-18.25,30.92-17.85-37.22,29.23-36.8,30,35.33-21.32,35.72-20.63S891.81,456.72,892,457.12s29.86-18.07,30.22-17.45c.2.34-26.75,23.38-26.42,23.95.23.41,24.21-14.46,24.42-14.1s-18.59,18.83-18.32,19.29c.12.21,11-6.77,11.2-6.47s-9.34,13.81-9.22,14,3.88-2.31,3.91-2.25"/><path class="cls-28" d="M945.84,340.84h0c.09.16,11.4,2,11.46,2.08h0c.08.15,11.37,1.95,11.45,2.08h0"/><path class="cls-34" d="M905.14,332.84s1.45-.88,1.47-.85,8.36,3.76,8.41,3.85.19-.22.24-.14,11.75,1.73,11.83,1.86.21-.19.24-.14,9.44,3.08,9.52,3.21,2.88-1.73,2.91-1.68,9.69,2.95,9.76,3.06,2.55-1.57,2.58-1.5,10.61,2.41,10.68,2.54.14-.19.19-.11,9.93,2.83,10,2.93.2-.22.25-.14,9.35,3.12,9.43,3.26,3.59-2.13,3.62-2.09"/><path class="cls-34" d="M900.05,343.65s2.92-1.76,3-1.7,2.34,7.25,2.38,7.32,3.07-1.84,3.1-1.78,2.33,7.23,2.38,7.31S914,353,914,353s2.8,7,2.86,7.06,1.39-.85,1.41-.82,5.24,5.56,5.28,5.64,1.07-.67,1.09-.63,2.66,7.06,2.71,7.15,3.06-1.85,3.1-1.79,2.34,7.25,2.38,7.32,3.06-1.84,3.1-1.79,2.65,7,2.71,7.14,2.39-1.42,2.41-1.39,3.5,6.58,3.54,6.65,2.07-1.25,2.1-1.21,2.53,7.11,2.59,7.21,3.06-1.85,3.1-1.79,2.35,7.26,2.39,7.33,3.08-1.82,3.1-1.79,2.32,7.21,2.39,7.33,3.08-1.82,3.1-1.79,2.32,7.21,2.39,7.33,3.06-1.84,3.09-1.79"/><path class="cls-34" d="M898,347.47s3-1.78,3-1.72,0,8.61,0,8.7,3-1.78,3-1.73,0,8.59,0,8.69,3-1.76,3-1.73.41,8.32.48,8.43,1.29-.79,1.31-.75,2.86,6.93,2.9,7,1-.61,1-.57.26,8.42.32,8.52,3-1.78,3-1.73-.06,8.62,0,8.7,3-1.79,3-1.73.26,8.4.33,8.52,2.29-1.37,2.31-1.34,1.1,8,1.15,8,2-1.2,2-1.16.13,8.47.2,8.59,3-1.79,3-1.74-.06,8.64,0,8.72,3-1.77,3-1.74-.09,8.57,0,8.72,3-1.78,3-1.74-.09,8.58,0,8.71,3-1.79,3-1.74"/><path class="cls-34" d="M893.89,356.55s1.45-.87,1.47-.85-3.34,10.5-3.28,10.6,0-.1,0,0-2.84,10.18-2.78,10.29,0-.07.06,0-5.22,11.5-5.13,11.67,2.7-1.62,2.73-1.58-4.93,11.37-4.86,11.5,2.37-1.45,2.41-1.39-4.06,10.86-4,11,0-.08,0,0-4.74,11.27-4.67,11.39,0-.12.07,0-5.39,11.58-5.28,11.76,3.7-2.21,3.73-2.16c.13.22-6.7,12.39-6.63,12.52s3.4-2,3.44-2"/><path class="cls-28" d="M985.66,344c0,.07.28-.3.34-.2s.47,8.32.51,8.4,4.18-2.6,4.26-2.46"/><path class="cls-28" d="M970.22,409.5c0,.07.29-.29.34-.19s.47,8.32.52,8.4,4.17-2.6,4.26-2.46"/><path class="cls-34" d="M903.19,337s1.5-.9,1.51-.87,4.84,5.81,4.88,5.89,3.69-2.22,3.72-2.16,4.82,5.8,4.87,5.89,3.7-2.19,3.72-2.16,5.3,5.52,5.35,5.62,2-1.22,2-1.18,7.71,4.12,7.77,4.21,1.68-1.05,1.71-1,5.15,5.61,5.2,5.7,3.69-2.22,3.73-2.15,4.83,5.81,4.87,5.89,3.69-2.22,3.72-2.16,5.15,5.6,5.21,5.71,3-1.8,3-1.76,6,5.14,6,5.22,2.7-1.63,2.73-1.58,5,5.67,5.08,5.77,3.69-2.22,3.73-2.15,4.84,5.82,4.88,5.89,3.71-2.19,3.73-2.15"/><path class="cls-28" d="M992.84,372.55c0,.07.27-.28.32-.19s.47,8.33.52,8.41,4.18-2.6,4.26-2.46"/><path class="cls-28" d="M936.5,435.44c0,.07.28-.29.34-.19s.47,8.32.51,8.4,4.18-2.6,4.26-2.46"/><path class="cls-28" d="M862.12,449.94c0,.07.28-.29.34-.19s.46,8.32.51,8.4,4.18-2.6,4.26-2.46"/><path class="cls-34" d="M895.56,352s2.52-1.52,2.55-1.47-2,9.73-2,9.82,3.27-1.95,3.3-1.9-2.75,10.13-2.69,10.24,3.28-1.94,3.3-1.9-2.29,9.85-2.21,10,1.59-1,1.61-.93.17,8.48.22,8.56,1.26-.79,1.29-.74-2.44,9.95-2.37,10.07,3.27-2,3.3-1.9-2.74,10.15-2.69,10.25,3.27-2,3.3-1.91-2.44,9.93-2.36,10.07,2.59-1.54,2.61-1.5-1.58,9.48-1.53,9.57,2.27-1.37,2.3-1.32-2.56,10-2.48,10.13,3.27-2,3.3-1.9-2.74,10.16-2.68,10.26,3.27-1.94,3.29-1.91-2.78,10.09-2.68,10.26,3.28-1.94,3.3-1.9-2.78,10.1-2.69,10.26,3.27-2,3.3-1.91"/><path class="cls-28" d="M903,457.91c0,.07.29-.3.35-.2s.46,8.33.5,8.41,4.18-2.6,4.26-2.46"/><path class="cls-28" d="M901.56,456.46c.05.09,1.16-.82,1.23-.71s-2.25,9.88-2.2,10,8.67-5.3,8.79-5.08"/><path class="cls-34" d="M905,454.75s.76-.45.77-.44,6.23,4.93,6.31,5.06l.4-.23"/><path class="cls-34" d="M898.65,457.84s1.05-.63,1.07-.61-1.1,9.21-1.05,9.3.4-.24.4-.23"/><path class="cls-28" d="M860.69,448.5c0,.08,1.17-.82,1.23-.71s-2.25,9.87-2.2,10,8.67-5.29,8.79-5.08"/><path class="cls-34" d="M864.16,446.79s.77-.46.77-.45,6.24,4.93,6.32,5.07l.4-.24"/><path class="cls-34" d="M857.78,449.88s1-.63,1.06-.61-1.09,9.21-1,9.3l.4-.23"/><path class="cls-28" d="M935.08,434c0,.08,1.16-.82,1.23-.71s-2.26,9.87-2.2,10,8.66-5.29,8.79-5.07"/><path class="cls-34" d="M938.57,432.28s.75-.45.76-.44,6.23,4.93,6.31,5.07l.4-.23"/><path class="cls-34" d="M932.16,435.38s1-.63,1.05-.61-1.07,9.21-1,9.3l.4-.23"/><path class="cls-28" d="M968.8,408.06c.05.08,1.16-.82,1.23-.71s-2.26,9.88-2.2,10c.14.24,8.66-5.29,8.79-5.07"/><path class="cls-34" d="M972.28,406.34s.76-.45.77-.44,6.23,4.93,6.31,5.07.39-.24.4-.23"/><path class="cls-34" d="M965.89,409.44s1-.63,1.05-.61-1.08,9.21-1,9.3l.4-.23"/><path class="cls-28" d="M991.4,371.12c.05.08,1.16-.82,1.23-.71s-2.25,9.87-2.2,10,8.67-5.29,8.79-5.07"/><path class="cls-34" d="M994.89,369.4s.75-.45.76-.44,6.23,4.93,6.31,5.07l.4-.24"/><path class="cls-34" d="M988.49,372.5s1-.63,1-.61-1.08,9.21-1,9.3l.4-.23"/><path class="cls-28" d="M984.24,342.5c0,.08,1.16-.82,1.23-.71s-2.26,9.88-2.2,10c.14.24,8.66-5.29,8.79-5.07"/><path class="cls-34" d="M987.72,340.79s.76-.45.77-.44,6.23,4.93,6.31,5.06l.4-.23"/><path class="cls-34" d="M981.33,343.88s1.06-.64,1.07-.62-1.1,9.22-1,9.31l.4-.23"/><path class="cls-2" d="M933.66,561.23c-2.23,1.28-2.41,1.24-3,1.08a1.66,1.66,0,0,1-1-.78c-.73-1.26-.73-1.26,9.16-11.81l.59-.63-1.55.94c-12,7.27-12.06,7.25-13.05,7a1.71,1.71,0,0,1-1-.79c-.76-1.32-.5-1.54,3.88-5.28,2.19-1.87,5.19-4.4,8.39-7.08l6.44-5.42-6.59,3.94c-13.72,8.24-13.72,8.24-14.66,8a1.69,1.69,0,0,1-1-.79c-.77-1.33.27-2.19,1.85-3.48.93-.77,2.28-1.84,4.14-3.29,3.45-2.67,8.06-6.19,13-9.92l6.18-4.71L940,531.37c-20.69,12.32-20.73,12.31-21.76,12a1.67,1.67,0,0,1-1-.79c-.8-1.38.16-2.12,2.48-3.93,1.29-1,3.16-2.42,5.72-4.32,4.74-3.51,11.19-8.23,17.44-12.79l1.94-1.42c-27.4,16.39-27.82,16.28-29,16a1.75,1.75,0,0,1-1.06-.8c-.83-1.44.24-2.26,2.82-4.24,1.5-1.14,3.67-2.75,6.65-4.89,5.5-4,13-9.25,20.18-14.36l1.78-1.25c-29.14,17.38-29.52,17.28-30.64,17a1.83,1.83,0,0,1-1.06-.81c-.81-1.4.19-2.16,2.6-4,1.36-1,3.33-2.48,6-4.43,5-3.61,11.63-8.31,18.64-13.28l6.06-4.3-1.95,1.17c-29.77,17.94-30.13,17.85-31.32,17.54a1.77,1.77,0,0,1-1.07-.8c-.78-1.36.21-2.13,2.18-3.66,1.1-.86,2.71-2.07,4.91-3.7,4.09-3,9.6-7.05,15.43-11.3,10.09-7.36,23.5-17.14,27.16-20.16l-.19-.38c.1-.05.36-.21.63-.38,1.19-.71,1.51-.9,2.22-.72a1.73,1.73,0,0,1,1,.79c.82,1.42-.25,2.25-2.82,4.28-1.5,1.17-3.66,2.81-6.6,5-5.43,4.05-12.56,9.25-19.46,14.28l-.49.35,6.66-4c27.71-16.7,28-16.62,29.14-16.33a1.83,1.83,0,0,1,1.06.81c.83,1.44-.28,2.28-2.94,4.32-1.56,1.2-3.83,2.87-6.92,5.11-5.72,4.13-13.38,9.57-20.78,14.82l-3.42,2.42,8.58-5.12c24-14.33,24.06-14.31,25.1-14a1.66,1.66,0,0,1,1,.79c.83,1.43-.28,2.28-2.72,4.14-1.43,1.1-3.52,2.63-6.38,4.69-5.29,3.82-12.54,8.95-19.55,13.91l-6.75,4.77,8.36-5c20.72-12.42,20.74-12.42,21.77-12.15a1.71,1.71,0,0,1,1,.79c.79,1.38-.18,2.14-2.53,4-1.31,1-3.2,2.45-5.8,4.37-4.8,3.57-11.32,8.34-17.63,12.94L942.47,526c19.75-11.75,19.94-11.7,20.94-11.44a1.74,1.74,0,0,1,1,.8c1,1.69,1,1.72-21.91,19.18,11.89-7.08,12.18-7,13.06-6.77a1.75,1.75,0,0,1,1,.8c.88,1.53.92,1.59-16.28,16.05,6.85-4.14,7-4.1,7.85-3.89a1.75,1.75,0,0,1,1,.8c.7,1.21.7,1.21-8,10.52l-1.74,1.86c1.61-.92,1.77-.88,2.3-.74a1.67,1.67,0,0,1,.42,3.07,1.39,1.39,0,0,1-.28.12c-.49.26-2.38,1.4-3.92,2.32C936,559.83,934.64,560.66,933.66,561.23Zm30.25-80.39,1.21-.7Z"/><g class="cls-35"><g class="cls-33"><path class="cls-28" d="M955.82,480s2.69-1.62,2.72-1.57-6.84,12.47-6.76,12.61c.25.43,18.91-11.44,19.13-11.05s-25,22.66-24.84,23c.36.63,33.25-19.73,33.48-19.33.37.64-40.41,31.15-40,31.82.54.93,45.62-27,45.92-26.52.38.67-50.66,37.07-50.28,37.73s44.84-26.8,45.23-26.12c.56,1-49.46,36.28-49,37,.29.49,42-25.38,42.47-24.52.59,1-48.14,35.72-47.8,36.3.53.92,41.18-24.89,41.66-24.06.33.58-39.56,30.62-39.16,31.32s33.74-20,34-19.61c.33.57-27.37,24-27.16,24.38,0,.08,4.06-2.45,4.11-2.37"/></g></g><path class="cls-28" d="M1001.74,438.57s1.53-.93,1.55-.9c.13.23-9.85,14.17-9.76,14.34s11-6.71,11.17-6.45-21.22,20.51-21,20.83c.27.48,23.6-14,23.78-13.73.32.56-34.82,28-34.49,28.62.48.83,40.17-23.79,40.43-23.34.37.65-49.31,36.31-48.94,36.95s50.72-30.3,51.16-29.54c.67,1.16-59.63,42-59.12,42.84.38.66,57-34.39,57.6-33.26.8,1.38-67.55,46.66-67.1,47.44.78,1.35,62.5-37.7,63.2-36.49s-77.11,51.51-76.36,52.8,72.67-43,73.13-42.23c.88,1.52-80.86,54.14-80.32,55.07.71,1.24,75.87-45.26,76.5-44.17.54.94-70,47.62-69.36,48.75s64.84-39.14,65.58-37.86c.49.86-66.14,45.89-65.7,46.64s57.23-34,57.63-33.27S941.1,568,941.69,569c.43.75,46.55-27.64,46.88-27.07s-45.32,33.72-44.82,34.58,40.81-24.6,41.26-23.82-38.75,30.47-38.49,30.93S980.56,563,981,563.7c.22.39-31.13,25.81-30.76,26.46.27.47,28.34-16.93,28.59-16.51s-22.92,21.22-22.61,21.76c.16.28,16.66-10.16,16.89-9.75s-15.19,17.08-15,17.38,13.22-7.85,13.31-7.69-8.74,13.51-8.64,13.69,2.55-1.58,2.6-1.5"/><path class="cls-2" d="M983.38,754a1.68,1.68,0,0,1-2.36-.57c-.35-.62-.35-.62.78-6.39.07-.33.14-.66.2-1a1.3,1.3,0,0,1-.93,0,1.7,1.7,0,0,1-1-.79c-.38-.65-.38-.65,1.13-6.54.16-.64.34-1.34.51-2A1.66,1.66,0,0,1,981,736c-.33-.56-.33-.56.4-4.78.27-1.6.66-3.84.83-5-.27-.63.05-1.34,2.55-7,.16-.34.32-.7.48-1.07-4.84,2.91-4.89,2.9-5.69,2.69a1.72,1.72,0,0,1-1-.79c-.55-1-.55-1,3.81-8,.29-.48.61-1,.92-1.49-1.91,1.16-2,1.13-2.67,1a1.63,1.63,0,0,1-1-.79c-.64-1.09-.64-1.09,5.29-9.22l.75-1c-7.24,4.35-7.25,4.35-8.1,4.13a1.73,1.73,0,0,1-1-.79c-.68-1.18-.69-1.2,7.54-11.13-6.44,3.9-6.45,3.9-7.3,3.68a1.72,1.72,0,0,1-1-.79c-.67-1.15-.67-1.15,7-9.66l2.11-2.34c-7,4.25-7.05,4.25-7.93,4a1.71,1.71,0,0,1-1-.79c-.72-1.25-.74-1.29,9.25-12-6.47,3.88-6.57,3.86-7.39,3.65a1.69,1.69,0,0,1-1-.79c-.74-1.28-.74-1.28,9.07-12l.1-.1-.91.54c-11.43,6.83-11.44,6.83-12.37,6.59a1.76,1.76,0,0,1-1-.79c-.69-1.21.16-2,1.34-3.12.69-.64,1.68-1.54,2.88-2.61,2.38-2.14,5.58-5,8.83-7.84l2.4-2.13c-10.42,6.29-10.46,6.28-11.39,6a1.71,1.71,0,0,1-1.05-.79c-.76-1.32-.37-1.68,4.47-6.13,2.54-2.33,5.92-5.37,9.21-8.34l.63-.57-1,.58c-15.51,9.29-15.57,9.27-16.56,9a1.66,1.66,0,0,1-1-.79c-.77-1.32-.4-1.63,4.09-5.45,2.32-2,5.48-4.62,8.83-7.42l4.85-4.06c-17,10.16-17.17,10.12-18.17,9.86a1.73,1.73,0,0,1-1-.79c-.83-1.43-.45-1.74,5.81-7,3.33-2.78,7.77-6.41,12.06-9.93l.45-.37c-13.64,8.27-13.84,8.22-14.83,8a1.72,1.72,0,0,1-1.06-.8c-.77-1.33-.5-1.56,4.13-5.42,2.33-2,5.53-4.59,8.94-7.39l6.82-5.62L985.69,622c-13.46,8.08-13.46,8.08-14.4,7.84a1.7,1.7,0,0,1-1-.79c-.82-1.42-.35-1.8,5.37-6.39,3.08-2.46,7.2-5.71,11.56-9.14l5.23-4.11-2.79,1.65C972.3,621.4,972.3,621.4,971.3,621.14a1.74,1.74,0,0,1-1-.79c-.74-1.29.2-2.1,1.76-3.44.93-.8,2.28-1.93,3.9-3.26,3.22-2.65,7.54-6.15,11.87-9.65l1.47-1.19c-14.21,8.49-14.46,8.42-15.4,8.17a1.68,1.68,0,0,1-1.05-.79c-.74-1.28-.31-1.69,3.84-5.65,2.17-2.07,5.09-4.8,8-7.51l.87-.81c-6,3.57-6.16,3.52-6.93,3.32a1.71,1.71,0,0,1-1.05-.79c-.64-1.11-.64-1.11,6.27-9.51l1.2-1.46c-1.66,1-1.94,1-2.53.82a1.69,1.69,0,0,1-1-.79c-.47-.81-.47-.81,2.32-6.73l1.15-2.42-.21,0,.42-1.62.78-.46h0l-.78.46-.71-1.52c.18-.09.7-.4,1.26-.74,2.26-1.36,2.35-1.41,3.08-1.22a1.66,1.66,0,0,1,1,.78c.49.86.49.86-3,8.23l-.19.38.12-.06c4.8-3,4.8-3,5.65-2.73a1.69,1.69,0,0,1,1,.79c.66,1.14.66,1.14-7,10.47l-.69.83,2.92-1.75c7.85-4.72,7.85-4.72,8.69-4.5a1.74,1.74,0,0,1,1,.78c.73,1.27.39,1.59-3.7,5.49-2.09,2-4.9,4.62-7.73,7.26l-2.42,2.27c2.9-1.72,5.93-3.54,8.49-5.08,12.71-7.62,12.71-7.62,13.62-7.39a1.76,1.76,0,0,1,1,.79c.74,1.29-.21,2.11-1.79,3.46-.94.82-2.31,2-4,3.31-3.27,2.69-7.64,6.23-12,9.76L988,608.15c20-11.9,20.06-11.87,21.09-11.6a1.66,1.66,0,0,1,1,.79c.95,1.63,1,1.66-19.83,18,13.53-8.08,13.79-8,14.73-7.77a1.74,1.74,0,0,1,1,.79c.91,1.58.94,1.63-17.76,17,13.87-8.42,14-8.39,15-8.13a1.75,1.75,0,0,1,1.06.8c.79,1.38.47,1.65-5,6.22-2.86,2.38-6.71,5.54-10.66,8.76l-3.95,3.24,3.4-2c13.5-8.07,13.5-8.07,14.42-7.83a1.69,1.69,0,0,1,1,.79c.88,1.53.91,1.56-17.12,16.64,13.74-8.21,13.74-8.21,14.72-8a1.74,1.74,0,0,1,1,.79c.74,1.29.4,1.6-3.83,5.48-2.17,2-5.09,4.62-8.09,7.32l-2.42,2.18c10.91-6.58,11.05-6.54,12-6.31a1.76,1.76,0,0,1,1,.8c.75,1.31.55,1.49-4.66,6.17-2.63,2.36-6.14,5.47-9.6,8.53l-.9.79c7.65-4.56,7.72-4.54,8.52-4.33a1.71,1.71,0,0,1,1,.78c.69,1.2.69,1.2-7.24,9.84l-2.19,2.4c7.29-4.39,7.3-4.39,8.14-4.17a1.66,1.66,0,0,1,1,.79c.67,1.16.67,1.16-6.82,9.23l-2.86,3.08c6.61-4,6.69-4,7.55-3.77a1.69,1.69,0,0,1,1,.79c.7,1.22.71,1.22-8.76,11.75,5.22-3.15,5.33-3.12,6.13-2.91a1.69,1.69,0,0,1,1,.79c.64,1.1.64,1.1-5.47,8.47l-2.3,2.78c6.2-3.72,6.23-3.72,7-3.51a1.67,1.67,0,0,1,1,.79c.63,1.09.63,1.09-5.19,9.07l-.76,1.05c.88-.46,1.17-.46,1.65-.33a1.68,1.68,0,0,1,1,.79c.57,1,.57,1-4.29,8.81-.15.23-.29.47-.44.71,3.7-2.23,3.72-2.23,4.46-2a1.72,1.72,0,0,1,1,.78c.46.81.46.81-2.39,7.29-.76,1.73-1.75,4-2.19,5,0,.73-.28,2.25-1,6.21l-.15.87a1.73,1.73,0,0,1,.93.75c.37.65.37.65-1,6.09-.12.5-.26,1-.4,1.59a1.34,1.34,0,0,1,.71,0,1.68,1.68,0,0,1,1,.79c.35.59.35.59-.66,5.71-.38,1.94-.91,4.6-1,5l-1.28-.14.72,1.33-.11.06Zm-.91-1.41h0Zm-1.13.65,1.13-.65Z"/><g class="cls-36"><path class="cls-28" d="M1004.14,657.07s1.32-.79,1.33-.77c.15.26-11.49,15.1-11.38,15.28s8.86-5.41,9-5.19S982.2,686.71,982.38,687s19.58-11.65,19.73-11.39c.3.52-32.6,26.79-32.28,27.34.42.74,35.42-21,35.65-20.58s-36.19,28.94-35.91,29.42,36.89-22.05,37.22-21.49c.41.73-35.32,28.38-35,28.92s34.38-20.81,34.8-20.09-34.38,28-34.13,28.4c.45.78,33.94-20.53,34.34-19.83S969.09,737.32,969.48,738s38.24-22.66,38.48-22.22c.44.75-37.86,29.94-37.59,30.4.36.62,37.84-22.59,38.16-22s-34.79,28-34.45,28.6,34.64-21,35-20.24c.31.52-38.88,30.54-38.61,31s34.69-20.61,34.94-20.17-24.64,22.21-24.32,22.75,25.79-15.36,26-15S986.7,771,987,771.43s20.77-12.58,21-12.14-14.63,16.87-14.51,17.08,14.65-8.91,14.84-8.57c.09.14-7.56,12.74-7.42,13s9.55-5.73,9.65-5.57-3.38,10.39-3.27,10.59,4.28-2.58,4.32-2.5"/></g><path class="cls-28" d="M887.49,260.06c.06.12,1-.66,1-.58"/><path class="cls-28" d="M870.37,243.71l.24-.14c0,.1,4,6.25,4,6.36s1.44-.88,1.46-.85,2.29,7.24,2.35,7.34,13.63-8.28,13.81-8-10.1,14.26-10,14.46c0,0,.87-.62.92-.53"/><path class="cls-28" d="M884.15,221.06s1.25-.75,1.26-.73c.12.21-5.69,11.72-5.57,11.93s5.9-3.71,6-3.48S874.39,243.7,874.56,244s28.56-17.16,28.85-16.65"/><path class="cls-28" d="M893.28,208.57s1.19-.72,1.2-.7-1.21,9.2-1.12,9.36,11.52-7,11.66-6.73"/><path class="cls-28" d="M898.62,194.88s.86-.52.87-.5-2.79,10.18-2.73,10.28,4.82-3,4.9-2.83"/><path class="cls-28" d="M907.35,288.84c0,.05,3.95-2.38,4-2.31"/><path class="cls-28" d="M902.13,301.65s3.36-2,3.4-2"/><path class="cls-28" d="M893.65,294.87s2.84-1.71,2.87-1.65"/><path class="cls-28" d="M898.91,286.41s2.88-1.73,2.91-1.68"/><path class="cls-28" d="M915.64,251.36s1-.59,1-.57.89,8,1,8.14,9.17-5.57,9.29-5.36-9.5,14-9.41,14.13.67-.51.72-.42"/><path class="cls-28" d="M921.56,243s1-.6,1-.58-3.48,10.57-3.42,10.68,5.56-3.44,5.66-3.27"/><path class="cls-28" d="M850.55,338.68c0,.05,3.42-2.06,3.46-2s-7.53,12.87-7.45,13,8.25-5.05,8.37-4.84-14.16,16.55-14,16.79,15.45-9.21,15.57-9S843,368.76,843.19,369s16.31-9.67,16.42-9.48S847.76,374.81,847.88,375s12.74-7.64,12.86-7.42-7.7,12.91-7.59,13.09,1.48-1,1.54-.89"/><path class="cls-2" d="M888.49,261.46a1.82,1.82,0,0,1-1.34.25,1.75,1.75,0,0,1-1.12-.81,1.68,1.68,0,0,1,.62-2.29,2,2,0,0,1,.3-.14l.13-.09a2,2,0,0,1,1.75-.54,1.67,1.67,0,0,1,.31,3.18l-.1.08C888.86,261.22,888.68,261.35,888.49,261.46Zm.45-2.24Zm-5.72,5.1a1.71,1.71,0,0,1-2.38-.57c-.6-1-.6-1,5.28-9.35.22-.3.43-.61.65-.92l-1.87,1.13c-6,3.64-6,3.65-6.86,3.44a1.71,1.71,0,0,1-1-.79,32,32,0,0,1-1.27-3.84c-.19-.61-.4-1.28-.6-1.89a1.45,1.45,0,0,1-.9,0,1.65,1.65,0,0,1-1-.78l-2.08-3.27c-1.92-3-1.93-3-2-3.09l1.21-.7-.81-1.47A1.81,1.81,0,0,1,871,242a1.68,1.68,0,0,1,1,.78c.06.1,1,1.52,1.89,3l1.25,2a1.68,1.68,0,0,1,2.36.58,32.72,32.72,0,0,1,1.37,4.16c.17.51.34,1.06.5,1.57,1.07-.63,2.49-1.49,3.74-2.24,8.57-5.16,8.6-5.15,9.51-4.92a1.66,1.66,0,0,1,1,.79c.59,1,.59,1-4.86,8.72-1.32,1.87-3,4.18-4,5.71a1.73,1.73,0,0,1-1.08,1.92l-.17.11Zm-1.46-1.1a1.48,1.48,0,0,0,.29.36A1.48,1.48,0,0,1,881.76,263.22Zm0,0ZM876.06,249l0,.06Zm-5.45-5.46Zm0,0,1.21-.7Zm7.78.31c-3.41,2-3.64,1.91-4.24,1.75a1.66,1.66,0,0,1-1-.79c-.65-1.12-.65-1.12,5.94-9.69.29-.39.6-.79.91-1.19a2,2,0,0,1-.52-.07,1.69,1.69,0,0,1-1.05-.8c-.5-.87-.5-.87,2.72-7.51.94-1.94,2.19-4.51,2.58-5.42l-.3-.59.44-.26c.95-.57,1.31-.78,2-.6a1.73,1.73,0,0,1,1,.79c.5.87.5.87-2.74,7.54-.15.32-.31.66-.48,1,1.61-1,2-1.06,2.63-.9a1.7,1.7,0,0,1,1.05.8c.64,1.1.64,1.1-5.62,9.25l-1.18,1.54c2.06-1.22,4.33-2.59,6.41-3.83,15.81-9.46,15.89-9.44,16.88-9.18a1.71,1.71,0,0,1,1.05.79,1.68,1.68,0,0,1-.62,2.29,1.56,1.56,0,0,1-.56.2c-1.48.67-9.28,5.33-15,8.77C883.59,240.8,880.42,242.7,878.39,243.88ZM902,228.18a1.66,1.66,0,0,0,.72.68A1.63,1.63,0,0,1,902,228.18Zm-18.22-7.93a1.61,1.61,0,0,0,.22.92l1.65-.95-1.46.84Zm12.09-2.39c-2.08,1.2-2.29,1.15-2.87,1a1.68,1.68,0,0,1-1.05-.79c-.34-.58-.34-.58.45-6.61.19-1.49.43-3.35.45-3.63h.09l-.38-.75.43-.25c.89-.54,1.26-.76,2-.58a1.73,1.73,0,0,1,1,.79c.3.53.3.53-.26,4.85-.09.71-.2,1.55-.3,2.35l3.45-2.09c5.75-3.49,5.75-3.49,6.59-3.28a1.75,1.75,0,0,1,1.05.79,1.68,1.68,0,0,1-.62,2.29,1.62,1.62,0,0,1-.41.17c-.66.34-3,1.75-4.87,2.89C898.35,216.37,896.86,217.27,895.83,217.86Zm7.74-6.52a1.45,1.45,0,0,0,.41.47A1.56,1.56,0,0,1,903.57,211.34Zm-9.19-3.41.35-.2Zm3.89-2.15c-1,.6-1.35.65-1.91.51a1.69,1.69,0,0,1-1.05-.8c-.37-.65-.37-.65,1-5.75.6-2.16,1.41-5.12,1.49-5.57l.47.08-.45-.85.3-.18a2.06,2.06,0,0,1,1.76-.46,1.68,1.68,0,0,1,1,.78c.39.69.39.69-1.37,7.09l-.14.52c1.7-1.05,2-1.12,2.63-1a1.68,1.68,0,0,1,.44,3.08,1.31,1.31,0,0,1-.37.15c-.36.21-1.3.78-1.94,1.18C899.35,205.14,898.74,205.52,898.27,205.78Zm2-3.11a1.61,1.61,0,0,0,.73.67A1.63,1.63,0,0,1,900.22,202.67Zm-.85-8.22.7-.41Z"/><g class="cls-37"><g class="cls-33"><path class="cls-28" d="M892.58,195.36c.07.12,3.79-2.4,3.88-2.24.21.35-18.29,18.93-18.14,19.18.24.42,18.69-11.31,18.91-10.92.31.54-32.37,26.77-32.1,27.22s30.66-18.2,30.88-17.82c.3.53-32.94,27-32.62,27.54s34.08-20.2,34.31-19.81-26.05,23.24-25.84,23.61,19.18-11.49,19.36-11.18-16.31,17.74-16.15,18c0,0,3.81-2.3,3.85-2.23"/></g></g><path class="cls-28" d="M1019.12,430.1s1.1-.67,1.11-.64-1.93,9.69-1.88,9.78,5.85-3.6,5.94-3.43-3.28,10.43-3.21,10.55,8.56-5.13,8.64-5,1.15,7.9,1.21,8,4.52-2.7,4.55-2.63-3.32,10.45-3.25,10.57,7.33-4.42,7.41-4.28-7.87,13-7.76,13.19,7.95-4.9,8.08-4.67S1028.2,476.8,1028.31,477s12.21-7.46,12.39-7.16-17.37,18.27-17.17,18.62,16.88-10,17-9.81-13.28,16.1-13.16,16.3,3.38-2,3.41-2"/><path class="cls-28" d="M970.45,752.36l.61-.36c.07.11.89,8.09.93,8.17s1.75-1.15,1.8-1"/><path class="cls-28" d="M885.64,693.93s.61-.37.62-.35.88,8.08.93,8.16.19-.21.23-.13"/><path class="cls-28" d="M875.14,306.77s1.44-.87,1.46-.84"/><path class="cls-2" d="M1028.76,496.09c-1,.6-1.26.61-1.82.47a1.67,1.67,0,0,1-1-.79c-.64-1.09-.64-1.09,5.57-8.56l2.18-2.63c-9.6,5.74-9.62,5.73-10.54,5.5a1.76,1.76,0,0,1-1-.79c-.73-1.27-.73-1.27,9.4-12a3.45,3.45,0,0,0,.26-.28c-3,1.78-3.16,1.73-3.83,1.56a1.7,1.7,0,0,1-1.05-.8c-.61-1.05-.61-1.05,4.75-7.93l2.16-2.79c-1.59.93-1.73.9-2.3.75a1.66,1.66,0,0,1-1-.79c-.55-.94-.55-.94,3.49-7.58.35-.58.73-1.19,1.1-1.82-2.47,1.48-2.56,1.45-3.21,1.28a1.69,1.69,0,0,1-1-.78c-.4-.7-.4-.7,1.47-6.6.12-.37.24-.77.37-1.17-1.3.81-1.53.76-2.1.62a1.7,1.7,0,0,1-1-.79c-.19-.33-.19-.33-.82-4.68-.08-.49-.15-1-.23-1.51l-1.42.86c-5.47,3.32-5.48,3.32-6.34,3.1a1.69,1.69,0,0,1-1-.79c-.4-.7-.4-.7,1.37-6.31.15-.46.3-1,.46-1.47-2.53,1.56-2.76,1.64-3.51,1.45a1.71,1.71,0,0,1-1.05-.79c-.34-.59-.34-.59.64-5.45.41-2.05,1-4.86,1-5.28l.18,0-.39-.76.39-.23c.83-.5,1.21-.73,1.9-.55a1.73,1.73,0,0,1,1,.79c.35.62.35.62-.87,6.67,0,.22-.09.44-.13.67,3-1.87,3.21-2,4-1.78a1.71,1.71,0,0,1,1,.8c.41.71.41.71-1.55,6.92l-.3,1,1.39-.85c4.07-2.47,4.07-2.47,4.85-2.27a1.68,1.68,0,0,1,1,.78c.19.33.19.33.8,4.53.08.52.16,1.11.24,1.68l.64-.39c2.24-1.35,2.32-1.41,3.05-1.22a1.66,1.66,0,0,1,1,.78c.41.7.41.7-1.49,6.66-.11.38-.24.77-.36,1.16,4.19-2.52,4.21-2.51,5-2.31a1.66,1.66,0,0,1,1,.78c.57,1,.57,1-4.3,9l-.15.23c2.83-1.69,3-1.7,3.73-1.52a1.69,1.69,0,0,1,1,.79c.66,1.14.67,1.16-6.68,10.6,5.47-3.35,5.53-3.33,6.37-3.12a1.69,1.69,0,0,1,1.05.8c.7,1.22.7,1.22-8.24,10.65l-1.93,2,.7-.41c7.45-4.46,7.45-4.46,8.26-4.25a1.67,1.67,0,0,1,1,.79c.69,1.19.69,1.19-7.92,11.54l-2,2.48a1.29,1.29,0,0,1,.22.3,1.69,1.69,0,0,1-.84,2.39l-1.37.82Zm-8.64-66.57.46-.26Z"/><g class="cls-24"><path class="cls-38" d="M1008,522.13l.19-.1c.09.16-4.94,11.39-4.88,11.51s1.17-.7,1.19-.68-5.59,11.72-5.51,11.86,1.49-.88,1.5-.86-5.61,11.72-5.51,11.89,1.18-.7,1.19-.69-5,11.38-4.88,11.51l.21-.12"/><path class="cls-38" d="M960.33,649.47l.07,0c.06.11.74,8.17.78,8.25s.54-.32.55-.31.35,8.36.41,8.45.81-.49.82-.48.14,8.48.2,8.59,1-.56,1-.55.07,8.53.12,8.62,1-.59,1-.58.08,8.52.14,8.63.9-.54.91-.53.25,8.45.3,8.53.67-.41.68-.4.53,8.25.6,8.36l.31-.17"/><path class="cls-38" d="M866.34,588.38l.07,0c.06.11,1.08,8,1.12,8s.53-.31.53-.3.71,8.15.76,8.24.8-.47.81-.46.49,8.28.56,8.39.93-.56.93-.55.42,8.34.47,8.43,1-.59,1-.58.42,8.33.48,8.43.89-.53.9-.52.58,8.26.63,8.34.7-.42.7-.41.83,8.08.9,8.19l.36-.21"/><path class="cls-38" d="M1001.82,392.32l.11-.06c.06.11,5.44,5.46,5.49,5.54l.7-.41c.06.1,5,5.69,5,5.78s1-.57,1-.56,4.88,5.75,4.94,5.85.93-.55.94-.54,5.06,5.66,5.1,5.74.61-.36.61-.35"/><path class="cls-38" d="M874.65,449.93l.1-.06,3.55,6.66s.64-.39.65-.38S882,463,882.08,463s.91-.54.92-.53,3,6.88,3,7,.92-.54.92-.53,3.08,6.81,3.13,6.89l.66-.39c.07.12,3.47,6.59,3.53,6.68l.13-.08"/></g></g></g></g></g></svg>