<svg xmlns="http://www.w3.org/2000/svg" xmlns:xlink="http://www.w3.org/1999/xlink" viewBox="0 0 1440.98 902.44"><defs><style>.cls-1{fill:#ffae32;}.cls-2{opacity:0.1;}.cls-3,.cls-5{fill:none;}.cls-3{stroke:#ffae32;stroke-linecap:round;stroke-linejoin:round;stroke-width:3.08px;}.cls-4{clip-path:url(#clip-path);}</style><clipPath id="clip-path"><path id="SVGID" class="cls-1" d="M745,191.7c-5.51,3.18-5.86,3.09-6.5,2.92a1.59,1.59,0,0,1-1-.74c-.76-1.31.28-2.11,2.54-3.88,1.35-1.05,3.31-2.52,6-4.48,4.93-3.63,11.52-8.37,17.89-13l2.71-1.95-10.86,6.54c-32.56,19.65-34.38,20.43-35.65,20.1a1.66,1.66,0,0,1-1-.75c-.79-1.36.21-2.08,3.53-4.46,1.91-1.37,4.68-3.29,8.46-5.88,7-4.79,16.42-11.13,25.53-17.26l4.54-3.06L752.66,171c-38.67,23.33-43.27,25.77-44.8,25.38a1.66,1.66,0,0,1-1-.76c-.81-1.39.22-2.1,3.61-4.46,2-1.37,4.85-3.31,8.79-5.91,7.33-4.85,17.12-11.22,27.48-18,5-3.27,10.38-6.75,15.6-10.16l-14.85,8.79c-45.93,27.19-46.2,27.13-47.3,26.84a1.61,1.61,0,0,1-1-.73c-1.17-2-1.32-2.3,54.86-38.08l-11.31,6.7c-53.45,31.67-53.8,31.57-55,31.26a1.59,1.59,0,0,1-1-.73c-.92-1.6-1.09-1.88,17-13.57,10.11-6.53,23.82-15.17,37.08-23.53L752.16,147c-5.32,3.14-10.75,6.36-16,9.5C680.55,189.4,680.19,189.31,679,189a1.59,1.59,0,0,1-1-.73c-.85-1.47.27-2.23,4.41-5.07,2.46-1.69,6-4.06,10.95-7.24,9.11-5.91,21.11-13.55,33.81-21.63,6.76-4.3,14-8.92,20.92-13.33-9,5.29-18.63,11-27.55,16.37-46.18,27.52-46.46,27.45-47.63,27.14a1.54,1.54,0,0,1-1-.73c-.92-1.6-1.12-1.93,18.57-14.88,7.21-4.74,16-10.44,24.89-16.14-39.43,23.62-45.38,26.8-47,26.39a1.72,1.72,0,0,1-1-.75c-1.12-1.94-1.18-2.06,41.45-29.58l5.41-3.5c-46.76,27.88-49.68,29.2-51.07,28.83a1.59,1.59,0,0,1-1-.74c-.79-1.37.31-2.15,3-4.05,1.58-1.13,3.9-2.73,7.08-4.88,5.93-4,13.92-9.3,22.39-14.9,6.08-4,13-8.6,19.38-12.89-7.39,4.38-15.45,9.21-22.51,13.43-29.84,17.88-30,17.85-31,17.58a1.57,1.57,0,0,1-1-.73c-1-1.82-1.07-1.86,31.55-23.94l6.36-4.3L690.46,143c-33.7,20.27-35.42,21-36.69,20.69a1.65,1.65,0,0,1-1-.74c-1-1.79-1-1.83,30.65-23.61l3.92-2.7-6,3.55c-29.49,17.56-29.65,17.52-30.69,17.25a1.61,1.61,0,0,1-1-.73c-.73-1.27.16-2,2.31-3.63,1.2-.93,2.94-2.24,5.31-4,4.4-3.26,10.4-7.63,16.21-11.86l3.21-2.34-.85.51C651.36,150,651.2,150,650.21,149.71a1.57,1.57,0,0,1-1-.73c-.87-1.52-.87-1.52,18-16.28l2-1.58-2.56,1.53c-17.8,10.68-17.88,10.65-18.85,10.41a1.64,1.64,0,0,1-1-.73c-.76-1.32-.77-1.34,12.17-13.32L657,130.28c-10.53,6.3-10.53,6.3-11.36,6.09a1.58,1.58,0,0,1-.95-.73c-.59-1-.59-1,5.66-9.37l.16-.21c-5.13,3.07-5.15,3.07-5.87,2.88a1.49,1.49,0,0,1-.94-.72c-.17-.28-.17-.28-1.06-4.53-.07-.35-.14-.68-.2-1a1.36,1.36,0,0,1-.85,0l.39-1.49.13-.08h0l-.13.08-.67-1.38.68-.4c1-.58,1.27-.75,1.9-.59a1.56,1.56,0,0,1,.94.72c.15.25.15.25.82,3.48.14.64.29,1.39.44,2.06l3.32-2c6.24-3.73,6.24-3.73,7-3.53a1.51,1.51,0,0,1,1,.72c.56,1,.56,1-4.55,7.79l-1.47,2,4.08-2.44c13.44-8,13.52-8,14.42-7.8a1.55,1.55,0,0,1,.95.73c.66,1.14.33,1.45-2.82,4.41-1.58,1.5-3.75,3.5-6.05,5.63l-4.12,3.81,7.37-4.41c19.08-11.44,19.21-11.4,20.19-11.15a1.6,1.6,0,0,1,1,.73c.85,1.48.85,1.48-17.14,15.53L665.53,138l8.84-5.25c23.14-13.79,23.24-13.76,24.22-13.5a1.59,1.59,0,0,1,1,.72c.73,1.28-.17,2-2.35,3.66-1.21,1-3,2.28-5.39,4.07-4.47,3.31-10.54,7.73-16.41,12l-3.6,2.63,8-4.78c31.89-19,32.15-18.93,33.2-18.66a1.57,1.57,0,0,1,1,.73c1,1.76,1,1.76-28.81,22.25l-8.09,5.57,11.78-7.08c32.36-19.46,33.88-20.13,35.1-19.81a1.62,1.62,0,0,1,1,.74c1.06,1.84,1.08,1.88-32.05,24.31l-2.34,1.58c41.81-25.05,45.81-27,47.26-26.66a1.63,1.63,0,0,1,1,.75c1.11,1.91,1.17,2-42.4,30.89l-3.93,2.6c7.66-4.52,15.78-9.37,23-13.66C751.79,119.4,752,119.44,753,119.72a1.57,1.57,0,0,1,1,.73c1.11,1.93,1.23,2.13-43.4,30.94-4.49,2.9-9.13,5.89-13.59,8.79,7.9-4.7,16.47-9.84,24.35-14.57,41.85-25.13,43.92-26.08,45.21-25.74a1.62,1.62,0,0,1,1,.74c.8,1.39-.24,2.1-3.31,4.21-1.8,1.23-4.42,3-8,5.32-6.73,4.39-16,10.33-25.78,16.62-7.45,4.78-15.8,10.14-23.73,15.27L719,154.72c55.68-33.18,60.86-35.84,62.39-35.44a1.66,1.66,0,0,1,1,.75c.87,1.51-.34,2.35-4.85,5.45-2.73,1.88-6.69,4.51-12.1,8-10,6.51-23.52,15.1-36.58,23.4l-6.77,4.32,12.47-7.39c57.5-34.06,57.91-33.95,59.12-33.63a1.59,1.59,0,0,1,1,.73c.92,1.6,1.06,1.84-16.27,13-9.68,6.25-23,14.62-35.8,22.71l-13.33,8.41,12-7.09c55.74-33,56.15-32.92,57.35-32.61a1.62,1.62,0,0,1,1,.74c.83,1.43-.33,2.23-3.76,4.59-2.08,1.42-5.11,3.43-9.27,6.14-7.76,5-18.25,11.72-29.36,18.79-6.86,4.38-14.22,9.06-21.25,13.57l10-6c48.49-28.71,48.8-28.63,50-28.33a1.62,1.62,0,0,1,1,.74c.85,1.46-.28,2.26-4.48,5.2-2.51,1.76-6.12,4.21-11.06,7.48-9.12,6.06-21.19,13.91-32.87,21.51l-2.13,1.38,4.78-2.88c37.62-22.7,39.68-23.61,41-23.27a1.66,1.66,0,0,1,1,.75c.78,1.34-.15,2-3.24,4.21-1.74,1.24-4.26,3-7.71,5.35-6.4,4.38-14.82,10-23.74,16l-7.78,5.23,3.59-2.16c30.93-18.66,32.39-19.3,33.63-19a1.65,1.65,0,0,1,1,.75c.81,1.4.51,1.62-7.3,7.35-4.22,3.1-9.83,7.14-15.77,11.42l-5.55,4c19.29-11.66,19.45-11.62,20.46-11.36a1.62,1.62,0,0,1,1,.73,1.54,1.54,0,0,1-.57,2.1,1.42,1.42,0,0,1-.62.2c-1.72.73-11.12,6.41-18.71,11C753.48,186.69,748.31,189.79,745,191.7ZM778.94,170a1.61,1.61,0,0,0,.42.47A1.47,1.47,0,0,1,778.94,170Z"/></clipPath></defs><g id="Layer_2" data-name="Layer 2"><g id="Layer_1-2" data-name="Layer 1"><g class="cls-2"><path class="cls-3" d="M642.84,121.74s1.48-.9,1.5-.86.78,7.35.85,7.48,12.46-7.46,12.58-7.26-11.69,14.34-11.51,14.64,24.67-14.85,24.94-14.39c.17.3-22.92,20.52-22.62,21s37.76-22.68,38.14-22S650.52,148.27,651,149s48.61-28.93,49-28.29-48.78,35.33-48.43,35.95c.47.81,62.35-37.2,62.87-36.29.63,1.09-60.47,41.31-59.78,42.5s70-42.06,70.73-40.83-64.57,43.57-63.84,44.84c.5.85,76.81-46.41,77.7-44.86s-75.52,50.25-74.94,51.25c.89,1.54,89.57-53,90.12-52,1,1.72-85.76,55.35-84.83,57,1.08,1.87,97.54-58.26,98.38-56.81.58,1-94.82,60.34-93.78,62.13.69,1.2,107.6-64.44,108.6-62.7.9,1.55-103.2,65.72-102.4,67.11s113.76-67.43,114.51-66.12c1,1.75-106.57,67.07-105.51,68.92.69,1.19,108-64.07,108.77-62.8s-97.31,61.73-96.25,63.56c.57,1,92.83-55,93.44-53.94.75,1.29-86.2,56.44-85.63,57.43,1,1.68,80.86-48.65,81.71-47.17.44.77-69.65,47.06-69.15,47.91.75,1.3,64-38.53,64.65-37.33.37.63-46.14,33.62-45.7,34.37s37.73-22.73,38.14-22"/><path class="cls-3" d="M642.69,115.91s.48-.31.49-.29,11.08,1.34,11.19,1.53,2.2-1.38,2.25-1.3,11.33,1.2,11.44,1.39,1.93-1.24,2-1.15,12.27.63,12.39.84,3.08-1.91,3.14-1.81,10.6,1.63,10.7,1.8,2.47-1.52,2.51-1.45,9,2.68,9,2.77,5.36-3.2,5.41-3.12,8.21,3.06,8.3,3.2,2.59-1.63,2.65-1.53,12.56.46,12.68.67,2-1.32,2.09-1.21,11.74,1,11.82,1.16,2.41-1.48,2.45-1.42,11.5,1.1,11.61,1.28,1.89-1.2,1.94-1.12,10.46,1.71,10.56,1.88,4.21-2.55,4.26-2.46,8.72,2.81,8.79,2.92,3.42-2.07,3.46-2"/><path id="SVGID-2" data-name="SVGID" class="cls-1" d="M745,191.7c-5.51,3.18-5.86,3.09-6.5,2.92a1.59,1.59,0,0,1-1-.74c-.76-1.31.28-2.11,2.54-3.88,1.35-1.05,3.31-2.52,6-4.48,4.93-3.63,11.52-8.37,17.89-13l2.71-1.95-10.86,6.54c-32.56,19.65-34.38,20.43-35.65,20.1a1.66,1.66,0,0,1-1-.75c-.79-1.36.21-2.08,3.53-4.46,1.91-1.37,4.68-3.29,8.46-5.88,7-4.79,16.42-11.13,25.53-17.26l4.54-3.06L752.66,171c-38.67,23.33-43.27,25.77-44.8,25.38a1.66,1.66,0,0,1-1-.76c-.81-1.39.22-2.1,3.61-4.46,2-1.37,4.85-3.31,8.79-5.91,7.33-4.85,17.12-11.22,27.48-18,5-3.27,10.38-6.75,15.6-10.16l-14.85,8.79c-45.93,27.19-46.2,27.13-47.3,26.84a1.61,1.61,0,0,1-1-.73c-1.17-2-1.32-2.3,54.86-38.08l-11.31,6.7c-53.45,31.67-53.8,31.57-55,31.26a1.59,1.59,0,0,1-1-.73c-.92-1.6-1.09-1.88,17-13.57,10.11-6.53,23.82-15.17,37.08-23.53L752.16,147c-5.32,3.14-10.75,6.36-16,9.5C680.55,189.4,680.19,189.31,679,189a1.59,1.59,0,0,1-1-.73c-.85-1.47.27-2.23,4.41-5.07,2.46-1.69,6-4.06,10.95-7.24,9.11-5.91,21.11-13.55,33.81-21.63,6.76-4.3,14-8.92,20.92-13.33-9,5.29-18.63,11-27.55,16.37-46.18,27.52-46.46,27.45-47.63,27.14a1.54,1.54,0,0,1-1-.73c-.92-1.6-1.12-1.93,18.57-14.88,7.21-4.74,16-10.44,24.89-16.14-39.43,23.62-45.38,26.8-47,26.39a1.72,1.72,0,0,1-1-.75c-1.12-1.94-1.18-2.06,41.45-29.58l5.41-3.5c-46.76,27.88-49.68,29.2-51.07,28.83a1.59,1.59,0,0,1-1-.74c-.79-1.37.31-2.15,3-4.05,1.58-1.13,3.9-2.73,7.08-4.88,5.93-4,13.92-9.3,22.39-14.9,6.08-4,13-8.6,19.38-12.89-7.39,4.38-15.45,9.21-22.51,13.43-29.84,17.88-30,17.85-31,17.58a1.57,1.57,0,0,1-1-.73c-1-1.82-1.07-1.86,31.55-23.94l6.36-4.3L690.46,143c-33.7,20.27-35.42,21-36.69,20.69a1.65,1.65,0,0,1-1-.74c-1-1.79-1-1.83,30.65-23.61l3.92-2.7-6,3.55c-29.49,17.56-29.65,17.52-30.69,17.25a1.61,1.61,0,0,1-1-.73c-.73-1.27.16-2,2.31-3.63,1.2-.93,2.94-2.24,5.31-4,4.4-3.26,10.4-7.63,16.21-11.86l3.21-2.34-.85.51C651.36,150,651.2,150,650.21,149.71a1.57,1.57,0,0,1-1-.73c-.87-1.52-.87-1.52,18-16.28l2-1.58-2.56,1.53c-17.8,10.68-17.88,10.65-18.85,10.41a1.64,1.64,0,0,1-1-.73c-.76-1.32-.77-1.34,12.17-13.32L657,130.28c-10.53,6.3-10.53,6.3-11.36,6.09a1.58,1.58,0,0,1-.95-.73c-.59-1-.59-1,5.66-9.37l.16-.21c-5.13,3.07-5.15,3.07-5.87,2.88a1.49,1.49,0,0,1-.94-.72c-.17-.28-.17-.28-1.06-4.53-.07-.35-.14-.68-.2-1a1.36,1.36,0,0,1-.85,0l.39-1.49.13-.08h0l-.13.08-.67-1.38.68-.4c1-.58,1.27-.75,1.9-.59a1.56,1.56,0,0,1,.94.72c.15.25.15.25.82,3.48.14.64.29,1.39.44,2.06l3.32-2c6.24-3.73,6.24-3.73,7-3.53a1.51,1.51,0,0,1,1,.72c.56,1,.56,1-4.55,7.79l-1.47,2,4.08-2.44c13.44-8,13.52-8,14.42-7.8a1.55,1.55,0,0,1,.95.73c.66,1.14.33,1.45-2.82,4.41-1.58,1.5-3.75,3.5-6.05,5.63l-4.12,3.81,7.37-4.41c19.08-11.44,19.21-11.4,20.19-11.15a1.6,1.6,0,0,1,1,.73c.85,1.48.85,1.48-17.14,15.53L665.53,138l8.84-5.25c23.14-13.79,23.24-13.76,24.22-13.5a1.59,1.59,0,0,1,1,.72c.73,1.28-.17,2-2.35,3.66-1.21,1-3,2.28-5.39,4.07-4.47,3.31-10.54,7.73-16.41,12l-3.6,2.63,8-4.78c31.89-19,32.15-18.93,33.2-18.66a1.57,1.57,0,0,1,1,.73c1,1.76,1,1.76-28.81,22.25l-8.09,5.57,11.78-7.08c32.36-19.46,33.88-20.13,35.1-19.81a1.62,1.62,0,0,1,1,.74c1.06,1.84,1.08,1.88-32.05,24.31l-2.34,1.58c41.81-25.05,45.81-27,47.26-26.66a1.63,1.63,0,0,1,1,.75c1.11,1.91,1.17,2-42.4,30.89l-3.93,2.6c7.66-4.52,15.78-9.37,23-13.66C751.79,119.4,752,119.44,753,119.72a1.57,1.57,0,0,1,1,.73c1.11,1.93,1.23,2.13-43.4,30.94-4.49,2.9-9.13,5.89-13.59,8.79,7.9-4.7,16.47-9.84,24.35-14.57,41.85-25.13,43.92-26.08,45.21-25.74a1.62,1.62,0,0,1,1,.74c.8,1.39-.24,2.1-3.31,4.21-1.8,1.23-4.42,3-8,5.32-6.73,4.39-16,10.33-25.78,16.62-7.45,4.78-15.8,10.14-23.73,15.27L719,154.72c55.68-33.18,60.86-35.84,62.39-35.44a1.66,1.66,0,0,1,1,.75c.87,1.51-.34,2.35-4.85,5.45-2.73,1.88-6.69,4.51-12.1,8-10,6.51-23.52,15.1-36.58,23.4l-6.77,4.32,12.47-7.39c57.5-34.06,57.91-33.95,59.12-33.63a1.59,1.59,0,0,1,1,.73c.92,1.6,1.06,1.84-16.27,13-9.68,6.25-23,14.62-35.8,22.71l-13.33,8.41,12-7.09c55.74-33,56.15-32.92,57.35-32.61a1.62,1.62,0,0,1,1,.74c.83,1.43-.33,2.23-3.76,4.59-2.08,1.42-5.11,3.43-9.27,6.14-7.76,5-18.25,11.72-29.36,18.79-6.86,4.38-14.22,9.06-21.25,13.57l10-6c48.49-28.71,48.8-28.63,50-28.33a1.62,1.62,0,0,1,1,.74c.85,1.46-.28,2.26-4.48,5.2-2.51,1.76-6.12,4.21-11.06,7.48-9.12,6.06-21.19,13.91-32.87,21.51l-2.13,1.38,4.78-2.88c37.62-22.7,39.68-23.61,41-23.27a1.66,1.66,0,0,1,1,.75c.78,1.34-.15,2-3.24,4.21-1.74,1.24-4.26,3-7.71,5.35-6.4,4.38-14.82,10-23.74,16l-7.78,5.23,3.59-2.16c30.93-18.66,32.39-19.3,33.63-19a1.65,1.65,0,0,1,1,.75c.81,1.4.51,1.62-7.3,7.35-4.22,3.1-9.83,7.14-15.77,11.42l-5.55,4c19.29-11.66,19.45-11.62,20.46-11.36a1.62,1.62,0,0,1,1,.73,1.54,1.54,0,0,1-.57,2.1,1.42,1.42,0,0,1-.62.2c-1.72.73-11.12,6.41-18.71,11C753.48,186.69,748.31,189.79,745,191.7ZM778.94,170a1.61,1.61,0,0,0,.42.47A1.47,1.47,0,0,1,778.94,170Z"/><g class="cls-4"><path class="cls-3" d="M634.14,140.16s.68-.4.68-.39-.76,8.23-.68,8.37.69-.41.7-.4"/><path class="cls-3" d="M635.82,140.16s.68-.4.68-.39-.76,8.23-.68,8.37.69-.41.7-.4"/><path class="cls-3" d="M637.5,140.16s.67-.4.68-.39-.77,8.23-.68,8.37.69-.41.69-.4"/><path class="cls-3" d="M639.17,140.16s.68-.4.69-.39-.77,8.23-.69,8.37.7-.41.7-.4"/><path class="cls-3" d="M640.85,140.16s.68-.4.68-.39-.76,8.23-.68,8.37.7-.41.7-.4"/><path class="cls-3" d="M642.53,140.16s.68-.4.68-.39-.76,8.23-.68,8.37.69-.41.7-.4"/><path class="cls-3" d="M644.21,140.16s.68-.4.68-.39-.76,8.23-.68,8.37.69-.41.7-.4"/><path class="cls-3" d="M649.8,148s1.24-.74,1.25-.72"/><path class="cls-3" d="M646.84,139.93s1.13-.67,1.13-.66"/><path class="cls-3" d="M656.4,140.16s.68-.4.68-.39-.76,8.23-.68,8.37.69-.41.7-.4"/><path class="cls-3" d="M658.08,140.16s.67-.4.68-.39-.77,8.23-.68,8.37.69-.41.7-.4"/><path class="cls-3" d="M659.76,140.16s.67-.4.68-.39-.77,8.23-.68,8.37.69-.41.69-.4"/><path class="cls-3" d="M661.43,140.16s.68-.4.69-.39-.77,8.23-.69,8.37.7-.41.7-.4"/><path class="cls-3" d="M663.11,140.16s.68-.4.68-.39-.76,8.23-.68,8.37.7-.41.7-.4"/><path class="cls-3" d="M664.79,140.16s.68-.4.68-.39-.76,8.23-.68,8.37.69-.41.7-.4"/><path class="cls-3" d="M666.47,140.16s.68-.4.68-.39-.76,8.23-.68,8.37.69-.41.7-.4"/><path class="cls-3" d="M672.06,148s1.24-.74,1.25-.72"/><path class="cls-3" d="M669.1,139.93s1.13-.67,1.13-.66"/><path class="cls-3" d="M678.66,140.16s.68-.4.68-.39-.76,8.23-.68,8.37.69-.41.7-.4"/><path class="cls-3" d="M680.34,140.16s.67-.4.68-.39-.77,8.23-.68,8.37.69-.41.7-.4"/><path class="cls-3" d="M682,140.16s.67-.4.68-.39-.77,8.23-.68,8.37.69-.41.69-.4"/><path class="cls-3" d="M683.69,140.16s.68-.4.68-.39-.76,8.23-.68,8.37.7-.41.7-.4"/><path class="cls-3" d="M685.37,140.16s.68-.4.68-.39-.76,8.23-.68,8.37.7-.41.7-.4"/><path class="cls-3" d="M687.05,140.16s.68-.4.68-.39-.76,8.23-.68,8.37.69-.41.7-.4"/><path class="cls-3" d="M688.73,140.16s.68-.4.68-.39-.76,8.23-.68,8.37.69-.41.7-.4"/><path class="cls-3" d="M694.32,148s1.24-.74,1.25-.72"/><path class="cls-3" d="M691.36,139.93s1.13-.67,1.13-.66"/><path class="cls-3" d="M700.92,140.16s.67-.4.68-.39-.76,8.23-.68,8.37.69-.41.7-.4"/><path class="cls-3" d="M702.6,140.16s.67-.4.68-.39-.77,8.23-.68,8.37.69-.41.69-.4"/><path class="cls-3" d="M704.27,140.16s.68-.4.69-.39-.77,8.23-.69,8.37.7-.41.7-.4"/><path class="cls-3" d="M706,140.16s.68-.4.68-.39-.76,8.23-.68,8.37.7-.41.7-.4"/><path class="cls-3" d="M707.63,140.16s.68-.4.68-.39-.76,8.23-.68,8.37.69-.41.7-.4"/><path class="cls-3" d="M709.31,140.16s.68-.4.68-.39-.76,8.23-.68,8.37.69-.41.7-.4"/><path class="cls-3" d="M711,140.16s.67-.4.68-.39-.76,8.23-.68,8.37.69-.41.7-.4"/><path class="cls-3" d="M716.58,148s1.24-.74,1.24-.72"/><path class="cls-3" d="M713.62,139.93s1.12-.67,1.13-.66"/><path class="cls-3" d="M723.18,140.16s.67-.4.68-.39-.77,8.23-.68,8.37.69-.41.7-.4"/><path class="cls-3" d="M724.86,140.16s.67-.4.68-.39-.77,8.23-.68,8.37.69-.41.69-.4"/><path class="cls-3" d="M726.53,140.16s.68-.4.69-.39-.77,8.23-.69,8.37.7-.41.7-.4"/><path class="cls-3" d="M728.21,140.16s.68-.4.68-.39-.76,8.23-.68,8.37.7-.41.7-.4"/><path class="cls-3" d="M729.89,140.16s.68-.4.68-.39-.76,8.23-.68,8.37.69-.41.7-.4"/><path class="cls-3" d="M731.57,140.16s.68-.4.68-.39-.76,8.23-.68,8.37.69-.41.7-.4"/><path class="cls-3" d="M733.25,140.16s.67-.4.68-.39-.77,8.23-.68,8.37.69-.41.7-.4"/><path class="cls-3" d="M738.84,148s1.24-.74,1.24-.72"/><path class="cls-3" d="M735.88,139.93s1.12-.67,1.13-.66"/><path class="cls-3" d="M745.44,140.16s.67-.4.68-.39-.77,8.23-.68,8.37.69-.41.7-.4"/><path class="cls-3" d="M747.12,140.16s.67-.4.68-.39-.77,8.23-.68,8.37.69-.41.69-.4"/><path class="cls-3" d="M748.79,140.16s.68-.4.68-.39-.76,8.23-.68,8.37.7-.41.7-.4"/><path class="cls-3" d="M750.47,140.16s.68-.4.68-.39-.76,8.23-.68,8.37.7-.41.7-.4"/><path class="cls-3" d="M752.15,140.16s.68-.4.68-.39-.76,8.23-.68,8.37.69-.41.7-.4"/><path class="cls-3" d="M753.83,140.16s.68-.4.68-.39-.76,8.23-.68,8.37.69-.41.7-.4"/><path class="cls-3" d="M755.51,140.16s.67-.4.68-.39-.77,8.23-.68,8.37.69-.41.69-.4"/><path class="cls-3" d="M761.1,148s1.24-.74,1.24-.72"/><path class="cls-3" d="M758.14,139.93s1.12-.67,1.13-.66"/><path class="cls-3" d="M767.7,140.16s.67-.4.68-.39-.77,8.23-.68,8.37.69-.41.69-.4"/><path class="cls-3" d="M769.37,140.16s.68-.4.69-.39-.77,8.23-.69,8.37.7-.41.7-.4"/><path class="cls-3" d="M771.05,140.16s.68-.4.68-.39-.76,8.23-.68,8.37.7-.41.7-.4"/><path class="cls-3" d="M772.73,140.16s.68-.4.68-.39-.76,8.23-.68,8.37.69-.41.7-.4"/><path class="cls-3" d="M774.41,140.16s.68-.4.68-.39-.76,8.23-.68,8.37.69-.41.7-.4"/><path class="cls-3" d="M776.09,140.16s.67-.4.68-.39-.77,8.23-.68,8.37.69-.41.7-.4"/><path class="cls-3" d="M777.77,140.16s.67-.4.68-.39-.77,8.23-.68,8.37.69-.41.69-.4"/><path class="cls-3" d="M783.36,148s1.23-.74,1.24-.72"/><path class="cls-3" d="M780.39,139.93s1.13-.67,1.14-.66"/><path class="cls-3" d="M790,140.16s.67-.4.68-.39-.77,8.23-.68,8.37.69-.41.69-.4"/><path class="cls-3" d="M791.63,140.16s.68-.4.69-.39-.77,8.23-.69,8.37.7-.41.7-.4"/><path class="cls-3" d="M793.31,140.16s.68-.4.68-.39-.76,8.23-.68,8.37.7-.41.7-.4"/><path class="cls-3" d="M795,140.16s.68-.4.68-.39-.76,8.23-.68,8.37.69-.41.7-.4"/><path class="cls-3" d="M796.67,140.16s.68-.4.68-.39-.76,8.23-.68,8.37.69-.41.7-.4"/><path class="cls-3" d="M798.35,140.16s.67-.4.68-.39-.77,8.23-.68,8.37.69-.41.7-.4"/><path class="cls-3" d="M800,140.16s.67-.4.68-.39-.77,8.23-.68,8.37.69-.41.69-.4"/><path class="cls-3" d="M805.62,148s1.23-.74,1.24-.72"/><path class="cls-3" d="M802.65,139.93s1.13-.67,1.14-.66"/><path class="cls-3" d="M812.22,140.16s.67-.4.68-.39-.77,8.23-.68,8.37.69-.41.69-.4"/><path class="cls-3" d="M813.89,140.16s.68-.4.68-.39-.76,8.23-.68,8.37.7-.41.7-.4"/><path class="cls-3" d="M815.57,140.16s.68-.4.68-.39-.76,8.23-.68,8.37.69-.41.7-.4"/><path class="cls-3" d="M817.25,140.16s.68-.4.68-.39-.76,8.23-.68,8.37.69-.41.7-.4"/><path class="cls-3" d="M818.93,140.16s.67-.4.68-.39-.76,8.23-.68,8.37.69-.41.7-.4"/><path class="cls-3" d="M820.61,140.16s.67-.4.68-.39-.77,8.23-.68,8.37.69-.41.69-.4"/><path class="cls-3" d="M822.28,140.16s.68-.4.69-.39-.77,8.23-.69,8.37.7-.41.7-.4"/><path class="cls-3" d="M827.88,148s1.23-.74,1.24-.72"/><path class="cls-3" d="M824.91,139.93s1.13-.67,1.14-.66"/><path class="cls-3" d="M834.47,140.16s.68-.4.69-.39-.77,8.23-.69,8.37.7-.41.7-.4"/><path class="cls-3" d="M836.15,140.16s.68-.4.68-.39-.76,8.23-.68,8.37.7-.41.7-.4"/><path class="cls-3" d="M837.83,140.16s.68-.4.68-.39-.76,8.23-.68,8.37.69-.41.7-.4"/><path class="cls-3" d="M839.51,140.16s.68-.4.68-.39-.76,8.23-.68,8.37.69-.41.7-.4"/><path class="cls-3" d="M841.19,140.16s.67-.4.68-.39-.77,8.23-.68,8.37.69-.41.7-.4"/><path class="cls-3" d="M842.87,140.16s.67-.4.68-.39-.77,8.23-.68,8.37.69-.41.69-.4"/><path class="cls-3" d="M844.54,140.16s.68-.4.69-.39-.77,8.23-.69,8.37.7-.41.7-.4"/><path class="cls-3" d="M850.14,148s1.23-.74,1.24-.72"/><path class="cls-3" d="M847.17,139.93s1.13-.67,1.14-.66"/><path class="cls-3" d="M652.46,124.5s.72-.43.73-.42.31,7.62.39,7.75,2.13-1.26,2.14-1.23"/><path class="cls-3" d="M634.14,125s1.53-.91,1.54-.89-1.63,8.72-1.54,8.87,2.06-1.22,2.07-1.2"/><path class="cls-3" d="M641.65,124.5s.71-.42.71-.41.33,7.62.4,7.75,3.38-2,3.41-2"/><path class="cls-3" d="M674.08,124.5s.72-.43.73-.42.31,7.62.39,7.75,2.13-1.26,2.14-1.23"/><path class="cls-3" d="M655.76,125s1.53-.91,1.54-.89-1.63,8.72-1.54,8.87,2.06-1.22,2.07-1.2"/><path class="cls-3" d="M663.27,124.5s.71-.42.71-.41.33,7.62.4,7.75,3.38-2,3.41-2"/><path class="cls-3" d="M695.69,124.5s.72-.43.73-.42.31,7.62.39,7.75,2.13-1.26,2.14-1.23"/><path class="cls-3" d="M677.37,125s1.53-.91,1.54-.89-1.63,8.72-1.54,8.87,2.06-1.22,2.07-1.2"/><path class="cls-3" d="M684.88,124.5s.71-.42.71-.41.33,7.62.41,7.75,3.38-2,3.4-2"/><path class="cls-3" d="M717.31,124.5s.72-.43.73-.42.31,7.62.39,7.75,2.13-1.26,2.14-1.23"/><path class="cls-3" d="M699,125s1.53-.91,1.54-.89S698.9,132.81,699,133s2.06-1.22,2.07-1.2"/><path class="cls-3" d="M706.5,124.5s.71-.42.71-.41.33,7.62.41,7.75,3.38-2,3.4-2"/><path class="cls-3" d="M738.91,124.5s.72-.43.73-.42.31,7.62.39,7.75,2.13-1.26,2.14-1.23"/><path class="cls-3" d="M720.59,125s1.53-.91,1.54-.89-1.63,8.72-1.54,8.87,2.06-1.22,2.07-1.2"/><path class="cls-3" d="M728.1,124.5s.71-.42.71-.41.33,7.62.4,7.75,3.39-2,3.41-2"/><path class="cls-3" d="M760.53,124.5s.72-.43.73-.42.31,7.62.39,7.75,2.13-1.26,2.14-1.23"/><path class="cls-3" d="M742.21,125s1.53-.91,1.54-.89-1.63,8.72-1.54,8.87,2.06-1.22,2.07-1.2"/><path class="cls-3" d="M749.72,124.5s.71-.42.71-.41.33,7.62.4,7.75,3.39-2,3.41-2"/><path class="cls-3" d="M782.14,124.5s.73-.43.73-.42.31,7.62.39,7.75,2.13-1.26,2.15-1.23"/><path class="cls-3" d="M763.83,125s1.52-.91,1.53-.89-1.62,8.72-1.53,8.87,2-1.22,2.07-1.2"/><path class="cls-3" d="M771.33,124.5s.71-.42.72-.41.32,7.62.4,7.75,3.38-2,3.4-2"/><path class="cls-3" d="M803.76,124.5s.73-.43.73-.42.31,7.62.39,7.75,2.13-1.26,2.15-1.23"/><path class="cls-3" d="M785.45,125s1.52-.91,1.53-.89-1.62,8.72-1.53,8.87,2-1.22,2.07-1.2"/><path class="cls-3" d="M793,124.5s.71-.42.72-.41.32,7.62.4,7.75,3.38-2,3.4-2"/><path class="cls-3" d="M825.38,124.5s.73-.43.73-.42.31,7.62.39,7.75,2.13-1.26,2.15-1.23"/><path class="cls-3" d="M807.07,125s1.52-.91,1.53-.89-1.62,8.72-1.53,8.87,2-1.22,2.07-1.2"/><path class="cls-3" d="M814.57,124.5s.71-.42.72-.41.32,7.62.4,7.75,3.38-2,3.4-2"/><path class="cls-3" d="M847,124.5s.73-.43.73-.42.32,7.62.39,7.75,2.13-1.26,2.15-1.23"/><path class="cls-3" d="M828.68,125s1.53-.91,1.54-.89-1.63,8.72-1.54,8.87,2.05-1.22,2.07-1.2"/><path class="cls-3" d="M836.19,124.5s.7-.42.71-.41.32,7.62.4,7.75,3.38-2,3.41-2"/><path class="cls-3" d="M634.39,122.33s1.28-.76,1.29-.74,12.42.52,12.54.74c0,0,1.28-.76,1.29-.74s12.45.53,12.57.73c0,0,1.27-.76,1.28-.74s12.43.53,12.55.74c0,0,1.27-.76,1.28-.74.11.19,12.43.54,12.55.74,0,0,1.27-.76,1.28-.74s13.11.24,13.19.37.6-.37.61-.35c.11.19,12.49.51,12.61.72,0,0,1.27-.77,1.28-.74.12.2,12.43.53,12.55.73,0,0,1.27-.76,1.28-.74.12.2,12.46.6,12.54.74s1.28-.75,1.28-.74c.13.21,12.44.54,12.55.74,0,0,1.28-.76,1.29-.74s12.42.54,12.54.74c0,0,1.27-.76,1.28-.74s12.47.59,12.56.74,1.27-.76,1.28-.74c.11.18,13.29.06,13.4.26,0,0,.18-.13.19-.11s12.72.38,12.83.58c0,0,1.28-.75,1.29-.74s12.5.62,12.57.74,1.27-.76,1.29-.74,12.47.61,12.55.74,1.27-.76,1.28-.74"/><path class="cls-3" d="M640.05,167.13s1.12-.66,1.13-.65,2.5,6.4,2.56,6.51,1.14-.69,1.15-.66"/><path class="cls-3" d="M634.17,167.4s1.53-.91,1.55-.89-1.64,8.72-1.55,8.87,1.61-.95,1.62-.93"/><path class="cls-3" d="M652.15,167.13s1.12-.66,1.12-.65,2.5,6.4,2.56,6.51,1.14-.69,1.16-.66"/><path class="cls-3" d="M646.26,167.4s1.54-.91,1.55-.89-1.63,8.72-1.55,8.87,1.61-.95,1.62-.93"/><path class="cls-3" d="M664.24,167.13s1.12-.66,1.13-.65,2.49,6.4,2.56,6.51,1.14-.69,1.15-.66"/><path class="cls-3" d="M658.36,167.4s1.53-.91,1.54-.89-1.63,8.72-1.54,8.87,1.61-.95,1.62-.93"/><path class="cls-3" d="M676.34,167.13s1.12-.66,1.12-.65,2.5,6.4,2.56,6.51,1.14-.69,1.16-.66"/><path class="cls-3" d="M670.45,167.4s1.54-.91,1.55-.89-1.63,8.72-1.55,8.87,1.61-.95,1.62-.93"/><path class="cls-3" d="M688.43,167.13s1.12-.66,1.13-.65,2.49,6.4,2.56,6.51,1.14-.69,1.15-.66"/><path class="cls-3" d="M682.55,167.4s1.53-.91,1.54-.89-1.63,8.72-1.54,8.87,1.61-.95,1.62-.93"/><path class="cls-3" d="M700.53,167.13s1.11-.66,1.12-.65,2.5,6.4,2.56,6.51,1.14-.69,1.16-.66"/><path class="cls-3" d="M694.64,167.4s1.54-.91,1.55-.89-1.64,8.72-1.55,8.87,1.61-.95,1.62-.93"/><path class="cls-3" d="M712.62,167.13s1.12-.66,1.13-.65,2.49,6.4,2.56,6.51,1.14-.69,1.15-.66"/><path class="cls-3" d="M706.74,167.4s1.53-.91,1.54-.89-1.63,8.72-1.54,8.87,1.61-.95,1.62-.93"/><path class="cls-3" d="M724.72,167.13s1.11-.66,1.12-.65,2.5,6.4,2.56,6.51,1.14-.69,1.15-.66"/><path class="cls-3" d="M718.83,167.4s1.54-.91,1.55-.89-1.64,8.72-1.55,8.87,1.61-.95,1.62-.93"/><path class="cls-3" d="M736.81,167.13s1.12-.66,1.13-.65,2.49,6.4,2.56,6.51,1.14-.69,1.15-.66"/><path class="cls-3" d="M730.93,167.4s1.53-.91,1.54-.89-1.63,8.72-1.54,8.87,1.6-.95,1.62-.93"/><path class="cls-3" d="M748.91,167.13s1.11-.66,1.12-.65,2.5,6.4,2.56,6.51,1.14-.69,1.15-.66"/><path class="cls-3" d="M743,167.4s1.54-.91,1.55-.89-1.64,8.72-1.55,8.87,1.61-.95,1.62-.93"/><path class="cls-3" d="M761,167.13s1.12-.66,1.12-.65,2.5,6.4,2.57,6.51,1.14-.69,1.15-.66"/><path class="cls-3" d="M755.12,167.4s1.53-.91,1.54-.89-1.63,8.72-1.54,8.87,1.6-.95,1.62-.93"/><path class="cls-3" d="M773.1,167.13s1.11-.66,1.12-.65,2.5,6.4,2.56,6.51,1.14-.69,1.15-.66"/><path class="cls-3" d="M767.21,167.4s1.54-.91,1.55-.89-1.64,8.72-1.55,8.87,1.61-.95,1.62-.93"/><path class="cls-3" d="M785.19,167.13s1.12-.66,1.12-.65,2.5,6.4,2.57,6.51,1.14-.69,1.15-.66"/><path class="cls-3" d="M779.31,167.4s1.53-.91,1.54-.89-1.63,8.72-1.54,8.87,1.6-.95,1.61-.93"/><path class="cls-3" d="M797.28,167.13s1.12-.66,1.13-.65,2.5,6.4,2.56,6.51,1.14-.69,1.15-.66"/><path class="cls-3" d="M791.4,167.4s1.53-.91,1.55-.89-1.64,8.72-1.55,8.87,1.61-.95,1.62-.93"/><path class="cls-3" d="M809.38,167.13s1.12-.66,1.12-.65,2.5,6.4,2.56,6.51,1.14-.69,1.16-.66"/><path class="cls-3" d="M803.49,167.4s1.54-.91,1.55-.89-1.63,8.72-1.55,8.87,1.61-.95,1.62-.93"/><path class="cls-3" d="M821.47,167.13s1.12-.66,1.13-.65,2.49,6.4,2.56,6.51,1.14-.69,1.15-.66"/><path class="cls-3" d="M815.59,167.4s1.53-.91,1.54-.89-1.63,8.72-1.54,8.87,1.61-.95,1.62-.93"/><path class="cls-3" d="M833.57,167.13s1.12-.66,1.12-.65,2.5,6.4,2.56,6.51,1.14-.69,1.16-.66"/><path class="cls-3" d="M827.68,167.4s1.54-.91,1.55-.89-1.63,8.72-1.55,8.87,1.61-.95,1.62-.93"/><path class="cls-3" d="M845.66,167.13s1.12-.66,1.13-.65,2.49,6.4,2.56,6.51,1.14-.69,1.15-.66"/><path class="cls-3" d="M839.78,167.4s1.53-.91,1.54-.89-1.63,8.72-1.54,8.87,1.61-.95,1.62-.93"/><path class="cls-3" d="M634.39,165s1.28-.75,1.29-.74,12.42.53,12.54.74c0,0,1.28-.76,1.29-.74s12.45.53,12.56.74c0,0,1.28-.76,1.29-.74s12.43.53,12.55.74c0,0,1.27-.76,1.28-.74.11.18,12.43.54,12.55.74,0,0,1.27-.76,1.28-.75s13.11.24,13.19.38.6-.37.61-.35c.11.19,12.49.51,12.61.71,0,0,1.27-.76,1.28-.74.12.21,12.43.54,12.55.74,0,0,1.27-.76,1.28-.74.12.2,12.46.6,12.54.74s1.28-.76,1.28-.74c.13.21,12.44.54,12.55.74,0,0,1.28-.76,1.29-.74s12.42.53,12.54.73c0,0,1.27-.76,1.28-.74s12.47.6,12.56.74,1.27-.75,1.28-.74c.11.19,13.29.07,13.4.26,0,0,.18-.12.19-.11s12.72.38,12.83.59c0,0,1.28-.76,1.29-.74s12.5.62,12.57.74,1.27-.77,1.29-.74,12.47.61,12.55.73,1.27-.76,1.28-.74"/><path class="cls-3" d="M634.39,185.08s1.28-.76,1.29-.74,12.42.52,12.54.74c0,0,1.28-.76,1.29-.74s12.45.53,12.57.74c0,0,1.27-.76,1.28-.74s12.43.52,12.55.73c0,0,1.27-.76,1.28-.74.11.19,12.43.54,12.55.74,0,0,1.27-.75,1.28-.74s13.11.24,13.19.38.6-.37.61-.35c.11.18,12.49.5,12.61.71,0,0,1.27-.76,1.28-.74.12.21,12.43.53,12.55.74,0,0,1.27-.77,1.28-.74.12.2,12.46.6,12.54.74s1.28-.76,1.28-.75c.13.22,12.44.55,12.55.74,0,0,1.28-.76,1.29-.74s12.42.54,12.54.74c0,0,1.27-.76,1.28-.74s12.47.6,12.56.74,1.27-.76,1.28-.74c.11.19,13.29.06,13.4.26,0,0,.18-.12.19-.11s12.72.38,12.83.59c0,0,1.28-.76,1.29-.74s12.5.61,12.57.73,1.27-.76,1.29-.74,12.47.61,12.55.74,1.27-.76,1.28-.74"/><path class="cls-3" d="M634.39,187.86s1.28-.75,1.29-.74,12.42.52,12.54.74c0,0,1.28-.76,1.29-.74s12.45.53,12.57.74c0,0,1.27-.76,1.28-.74s12.43.52,12.55.74c0,0,1.27-.77,1.28-.75.11.19,12.43.54,12.55.74,0,0,1.27-.75,1.28-.74s13.11.24,13.19.38.6-.37.61-.35c.11.18,12.49.5,12.61.71,0,0,1.27-.76,1.28-.74.12.21,12.43.53,12.55.74,0,0,1.27-.77,1.28-.74.12.2,12.46.6,12.54.74s1.28-.76,1.28-.74c.13.21,12.44.54,12.55.73,0,0,1.28-.76,1.29-.74s12.42.54,12.54.74c0,0,1.27-.76,1.28-.74s12.47.6,12.56.74,1.27-.76,1.28-.74c.11.19,13.29.06,13.4.26,0,0,.18-.12.19-.11s12.72.38,12.83.59c0,0,1.28-.76,1.29-.74s12.5.61,12.57.73,1.27-.76,1.29-.74,12.47.61,12.55.74,1.27-.76,1.28-.74"/><path class="cls-3" d="M634.39,160.16s1.28-.75,1.29-.74,12.42.53,12.54.74c0,0,1.28-.76,1.29-.74s12.45.53,12.56.74c0,0,1.28-.76,1.29-.74s12.43.53,12.55.74c0,0,1.27-.77,1.28-.75.11.19,12.43.54,12.55.74,0,0,1.27-.75,1.28-.74s13.11.24,13.19.38.6-.37.61-.35c.11.18,12.49.51,12.61.71,0,0,1.27-.76,1.28-.74.12.21,12.43.53,12.55.74,0,0,1.27-.77,1.28-.74.12.2,12.46.6,12.54.74s1.28-.76,1.28-.74c.13.21,12.44.54,12.55.73,0,0,1.28-.75,1.29-.74s12.42.54,12.54.74c0,0,1.27-.76,1.28-.74s12.47.6,12.56.74,1.27-.75,1.28-.74c.11.19,13.29.06,13.4.26,0,0,.18-.12.19-.11s12.72.38,12.83.59c0,0,1.28-.76,1.29-.74s12.5.61,12.57.73,1.27-.76,1.29-.74,12.47.62,12.55.74,1.27-.76,1.28-.74"/><path class="cls-3" d="M634.39,162.56s1.28-.75,1.29-.74,12.42.53,12.54.74c0,0,1.28-.76,1.29-.74s12.45.53,12.56.74c0,0,1.28-.76,1.29-.74s12.43.53,12.55.74c0,0,1.27-.76,1.28-.74.11.18,12.43.53,12.55.73,0,0,1.27-.75,1.28-.74s13.11.24,13.19.38.6-.37.61-.35c.11.19,12.49.51,12.61.71,0,0,1.27-.76,1.28-.74.12.21,12.43.53,12.55.74,0,0,1.27-.77,1.28-.74.12.2,12.46.6,12.54.74s1.28-.76,1.28-.74c.13.21,12.44.54,12.55.74,0,0,1.28-.76,1.29-.75s12.42.54,12.54.74c0,0,1.27-.76,1.28-.74s12.47.6,12.56.74,1.27-.75,1.28-.74c.11.19,13.29.07,13.4.26,0,0,.18-.12.19-.11s12.72.38,12.83.59c0,0,1.28-.76,1.29-.74s12.5.61,12.57.74,1.27-.77,1.29-.75,12.47.62,12.55.74,1.27-.76,1.28-.74"/></g><path class="cls-3" d="M694.69,220.47s1.57-.92,1.58-.91"/><path class="cls-3" d="M702.94,220.47s1.57-.92,1.58-.91"/><path class="cls-3" d="M711.19,220.47s1.57-.92,1.58-.91"/><path class="cls-3" d="M719.44,220.47s1.57-.92,1.58-.91"/><path class="cls-3" d="M727.69,220.47s1.57-.92,1.58-.91"/><path class="cls-3" d="M735.94,220.47s1.57-.92,1.58-.91"/><path class="cls-3" d="M744.19,220.47s1.57-.92,1.58-.91"/><path class="cls-3" d="M815.39,123.75s.12-.1.13-.08"/><path class="cls-3" d="M811.33,129.55s.11-.1.13-.08"/><path class="cls-3" d="M807.26,135.35s.12-.09.13-.07"/><path class="cls-3" d="M803.2,141.16s.11-.1.13-.08"/><path class="cls-3" d="M799.14,147s.11-.09.12-.07"/><path class="cls-3" d="M795.07,152.76s.11-.09.13-.07"/><path class="cls-3" d="M791,158.57s.11-.09.12-.07"/><path class="cls-3" d="M787,164.37s.1-.09.11-.07"/><path class="cls-3" d="M782.88,170.18s.11-.09.12-.07"/><path class="cls-3" d="M778.82,176s.1-.09.11-.07"/><path class="cls-3" d="M774.76,181.78s.1-.08.11-.06"/><path class="cls-3" d="M770.69,187.59s.1-.09.11-.07"/><path class="cls-3" d="M766.63,193.39s.1-.08.11-.06"/><path class="cls-3" d="M762.56,199.2s.1-.09.11-.07"/><path class="cls-3" d="M758.5,205s.1-.08.11-.06"/><path class="cls-3" d="M754.44,210.8s.09-.08.1-.06"/><path class="cls-3" d="M750.37,216.61s.09-.08.11-.06"/><path class="cls-3" d="M733.17,256.41s1.54-.92,1.55-.9"/><path class="cls-3" d="M733.17,264.72s1.54-.91,1.55-.9"/><path class="cls-3" d="M733.17,273s1.54-.92,1.55-.9"/><path class="cls-3" d="M733.17,281.35s1.54-.91,1.55-.89"/><path class="cls-3" d="M733.17,289.67s1.54-.92,1.55-.9"/><path class="cls-3" d="M733.17,298s1.54-.92,1.55-.9"/><path class="cls-3" d="M733.17,306.3s1.54-.91,1.55-.9"/><path class="cls-3" d="M733.17,314.62s1.54-.92,1.55-.9"/><path class="cls-3" d="M733.17,322.94s1.54-.92,1.55-.9"/><path class="cls-3" d="M733.17,331.25s1.54-.91,1.55-.9"/><path class="cls-3" d="M733.17,339.57s1.54-.92,1.55-.9"/><path class="cls-3" d="M733.17,347.89s1.54-.92,1.55-.9"/><path class="cls-3" d="M733.17,356.2s1.54-.92,1.55-.9"/><path class="cls-3" d="M733.17,364.52s1.54-.92,1.55-.9"/><path class="cls-3" d="M733.17,372.83s1.54-.91,1.55-.89"/><path class="cls-3" d="M733.17,381.15s1.54-.92,1.55-.9"/><path class="cls-3" d="M733.17,389.47s1.54-.92,1.55-.9"/><path class="cls-3" d="M703.77,256.41s1.55-.92,1.56-.9"/><path class="cls-3" d="M703.77,264.72s1.55-.91,1.56-.9"/><path class="cls-3" d="M703.77,273s1.55-.92,1.56-.9"/><path class="cls-3" d="M703.77,281.35s1.55-.91,1.56-.89"/><path class="cls-3" d="M703.77,289.67s1.55-.92,1.56-.9"/><path class="cls-3" d="M703.77,298s1.55-.92,1.56-.9"/><path class="cls-3" d="M703.77,306.3s1.55-.91,1.56-.9"/><path class="cls-3" d="M703.77,314.62s1.55-.92,1.56-.9"/><path class="cls-3" d="M703.77,322.94s1.55-.92,1.56-.9"/><path class="cls-3" d="M703.77,331.25s1.55-.91,1.56-.9"/><path class="cls-3" d="M703.77,339.57s1.55-.92,1.56-.9"/><path class="cls-3" d="M703.77,347.89s1.55-.92,1.56-.9"/><path class="cls-3" d="M703.77,356.2s1.55-.92,1.56-.9"/><path class="cls-3" d="M703.77,364.52s1.55-.92,1.56-.9"/><path class="cls-3" d="M703.77,372.83s1.55-.91,1.56-.89"/><path class="cls-3" d="M703.77,381.15s1.55-.92,1.56-.9"/><path class="cls-3" d="M703.77,389.47s1.55-.92,1.56-.9"/><path class="cls-3" d="M711.19,270.52s1.53-.91,1.54-.89.92,7.28,1,7.41,11.46-6.87,11.57-6.68-11.9,14.46-11.72,14.77,14.33-8.67,14.5-8.38-14.18,15.7-14,16.06,15.49-9.34,15.66-9.05-15.86,16.65-15.65,17,14.91-8.91,15-8.68-17.48,17.73-17.33,18,17.78-10.62,17.94-10.35-18.32,18-18.08,18.42,15-9.07,15.19-8.76-12.19,14.6-12,14.92,11.84-7.3,12-7S713.14,333,713.27,333.21s14.88-8.84,15-8.65c.22.37-15,16.15-14.76,16.5s14.33-8.62,14.48-8.36-16,16.73-15.8,17.1c.12.2,16.64-10,16.81-9.7S711.23,358,711.4,358.24s15.89-9.45,16-9.24S711.82,365.55,712,365.88s17.41-10.33,17.53-10.12-15,16.16-14.76,16.52c.11.18,13.44-8,13.55-7.83s-16.84,17.42-16.7,17.65,15.38-9.32,15.57-9-16,16.9-15.86,17.14,15.63-9.47,15.82-9.13c.06.1-2.63,9.32-2.55,9.45s1.45-1,1.53-.88"/><path class="cls-3" d="M711.19,255.71s1.53-.91,1.54-.89.92,7.28,1,7.41,11.46-6.87,11.57-6.68-.79,8.26-.71,8.4,3.44-2.14,3.51-2"/><path class="cls-3" d="M677.31,222.53s1.53-.91,1.54-.89.92,7.28,1,7.41,11.45-6.86,11.56-6.67-11.89,14.44-11.71,14.75,24.1-14.51,24.35-14.06-24.14,21.2-23.83,21.74,25.26-15.18,25.52-14.73-25.81,22.16-25.5,22.71c.22.37,24.69-14.72,24.89-14.37s-27.39,23.31-27.18,23.68,27.55-16.45,27.78-16-28.26,23.51-27.92,24.11,24.76-14.92,25-14.45-22.14,20.11-21.85,20.6c.16.29,21.58-13.16,21.88-12.64s-23.67,21.18-23.47,21.53,24.67-14.62,24.83-14.33c.32.56-24.9,21.66-24.6,22.19s24.09-14.45,24.32-14-26,22.23-25.64,22.78c.18.31,26.38-15.83,26.64-15.38s-27.66,23.41-27.42,23.82,25.66-15.24,25.84-14.92c.27.47-25.51,22.06-25.22,22.56.17.31,27.17-16.13,27.36-15.8s-24.89,21.66-24.59,22.19c.17.29,23.21-13.81,23.38-13.5s-26.73,23-26.54,23.32c.33.57,25.12-15.16,25.4-14.66.18.31-25.88,22.46-25.68,22.81.32.55,25.35-15.31,25.64-14.8.2.34-23.16,20.81-22.93,21.22s21.65-13.1,21.91-12.65-25,21.75-24.68,22.24,26.2-15.66,26.43-15.26c.32.55-25,21.79-24.75,22.28s22.95-13.64,23.12-13.35S680.68,371.72,681,372.19s21.92-13.33,22.21-12.82-23.2,20.77-22.93,21.24,24.61-14.88,24.9-14.38c.18.32-24.3,21.62-24.12,21.92.3.52,23.56-14.25,23.84-13.77.19.33-16.22,17-16.07,17.27s13.33-8,13.48-7.78-.55,8.13-.47,8.27,1.93-1.2,2-1.14"/><path class="cls-3" d="M619.42,118.71s.46-.27.46-.26,2,6.66,2.08,6.78.57-.4.6-.35-.84,8.3-.76,8.43,4.25-2.62,4.32-2.49-3.89,10-3.79,10.17,9.35-5.66,9.46-5.46S622.2,148.7,622.35,149s12.7-7.6,12.81-7.4-15.23,16.47-15.1,16.71,19.52-11.66,19.69-11.37-20.08,19-19.82,19.44,20.68-12.48,20.91-12.08-14.36,15.81-14.16,16.16,17.91-10.94,18.18-10.49S628.93,176.77,629.08,177s21-12.44,21.11-12.19c.24.41-17.12,17.35-16.9,17.74s20.4-12.25,20.6-11.9S635.72,188.62,636,189s22.7-13.62,22.92-13.23S639,194.85,639.15,195.17s22-13.06,22.12-12.78-17.73,17.74-17.52,18.11,23.49-13.94,23.65-13.65-17.11,17.35-16.88,17.74S670,193,670.18,193.24s-19,18.62-18.83,18.87c.28.49,21.43-13,21.68-12.52.14.24-18.13,18.11-18,18.37.28.48,21.67-13.1,21.92-12.66.15.25-15.4,16.48-15.23,16.78.27.47,18-10.89,18.19-10.5S662.75,229,663,229.37s22.52-13.46,22.71-13.11-17.26,17.47-17,17.83,19.26-11.45,19.4-11.2-13.74,15.48-13.54,15.81S692.71,227.58,693,228c.16.28-15.42,16.46-15.23,16.8s20.94-12.67,21.19-12.24c.13.24-16.55,17.26-16.42,17.48.26.45,19.88-12,20.13-11.63s-17.14,17.54-17,17.81c.25.42,18.2-10.93,18.38-10.62s-15.17,16.26-15,16.63,18.59-11.08,18.74-10.81S694.47,266.76,694.62,267s10.32-6.29,10.47-6"/><path class="cls-3" d="M735.22,222.53s1.53-.91,1.54-.89.91,7.28,1,7.41,11.45-6.86,11.55-6.67-11.88,14.44-11.71,14.75,24.1-14.51,24.36-14.06-24.14,21.2-23.83,21.74,25.26-15.18,25.52-14.73-25.81,22.16-25.5,22.71c.22.37,24.69-14.72,24.89-14.37s-27.4,23.3-27.18,23.68,27.55-16.45,27.79-16.05-28.28,23.52-27.93,24.12,24.76-14.93,25-14.45-22.14,20.11-21.86,20.6c.17.29,21.6-13.16,21.9-12.64s-23.68,21.18-23.48,21.53,24.67-14.62,24.84-14.34c.32.56-24.91,21.67-24.61,22.2s24.09-14.45,24.33-14.05-26,22.24-25.65,22.79c.18.31,26.39-15.84,26.65-15.39s-27.67,23.42-27.44,23.83S761.1,295,761.28,295.32c.27.47-25.52,22.07-25.24,22.57.18.31,27.19-16.14,27.38-15.81s-24.9,21.67-24.6,22.2c.17.29,23.22-13.82,23.4-13.51s-26.75,23-26.56,23.33c.33.57,25.13-15.17,25.42-14.67.18.31-25.9,22.47-25.7,22.82.32.55,25.37-15.32,25.66-14.81.2.34-23.19,20.82-22.95,21.23S759.76,335.56,760,336s-25,21.76-24.7,22.25,26.22-15.67,26.45-15.27-25.06,21.8-24.77,22.29,23-13.65,23.14-13.36-21.55,19.8-21.27,20.27,21.94-13.34,22.23-12.84-23.23,20.79-23,21.26,24.64-14.9,24.93-14.4c.19.33-24.32,21.64-24.15,21.94.3.52,23.6-14.27,23.88-13.79s-16.21,17-16.07,17.27,13.33-8,13.47-7.77-.57,8.14-.49,8.27,2-1.21,2-1.15"/><path class="cls-3" d="M820.5,119.3s1-.62,1-.6c.1.17-8,12.28-7.9,12.54.07.1,6.52-3.94,6.6-3.81s-16.37,16.93-16.15,17.32c.13.22,15.55-9.39,15.73-9.08s-24.91,21.62-24.59,22.18,26-15.64,26.28-15.17c.39.68-36.06,27.83-35.64,28.56.3.51,34.75-20.7,35-20.22s-47,34.35-46.7,34.95,46.92-28,47.31-27.32c.6,1-57.5,39.68-56.84,40.81s53.4-32.1,54-31.14c.7,1.22-60.85,41.52-60.16,42.71.34.6,51.13-30.94,51.75-29.88.7,1.22-63.2,43.35-62.72,44.19s54.37-32.17,54.71-31.58c.75,1.31-64.57,43.62-63.86,44.85.62,1.07,53.72-32.12,54.2-31.29.37.65-59.85,41-59.19,42.15.33.57,50.34-30.17,50.82-29.34S735,255.58,735.41,256.27c.25.43,37.54-22.27,37.8-21.82.36.63-36,27.89-35.62,28.56.19.32,28.17-16.72,28.37-16.38s-19.58,18.72-19.33,19.15c.08.14,8.64-5.18,8.73-5"/><path class="cls-3" d="M678.77,225.44s1.53-.91,1.54-.89.92,7.28,1,7.41,11.43-6.85,11.54-6.66S681,239.74,681.15,240.05s24.86-15,25.12-14.51-24.92,21.63-24.6,22.19,39.74-23.86,40.13-23.17-29.3,24.09-28.95,24.7S734.7,224.35,735,224.91s-32.44,26.14-32.19,26.57c.35.6,46.26-27.6,46.64-26.93S714.56,251.74,715,252.46s44.25-26.61,44.71-25.81c.35.6-27.79,23.24-27.45,23.83.2.34,27.13-16.5,27.49-15.87.19.32-13.37,15.4-13.24,15.62s14.5-8.62,14.61-8.43-.94,8.34-.86,8.48,2.39-1.43,2.41-1.39"/><path class="cls-3" d="M677.31,222.53s1.53-.91,1.54-.89.92,7.28,1,7.41,11.43-6.85,11.54-6.66-11.87,14.43-11.69,14.74,24.86-15,25.13-14.51-24.92,21.64-24.6,22.19S720,221,720.35,221.65s-33,26.12-32.59,26.79,45.46-27.05,45.81-26.45-34.51,27.31-34.25,27.77c.36.63,48.29-28.82,48.7-28.12s-35.41,27.46-35,28.19S758.5,222.49,759,223.31c.37.63-29.28,24.07-28.93,24.68.22.39,30.74-18.67,31.14-18,.25.43-19.06,18.6-18.89,18.89s20.12-11.94,20.26-11.7-6.31,11.36-6.2,11.57,5.85-3.57,5.93-3.42"/><path class="cls-3" d="M677.31,399.87s1.53-.9,1.54-.88.92,7.28,1,7.4,11.43-6.85,11.54-6.66-11.87,14.44-11.69,14.75,24.86-15,25.12-14.51c.15.26-18.53,18.11-18.28,18.54S720,398.41,720.34,399c.24.42-20.21,19.06-20,19.51s32.92-19.61,33.18-19.16-21.8,20.17-21.62,20.48S747.71,398.47,748,399s-22.65,20.4-22.36,20.9c.37.65,33-19.85,33.32-19.24.23.4-16.53,17-16.31,17.4s17.86-10.91,18.12-10.46c.12.2-6,11.23-5.87,11.37s7.18-4.29,7.24-4.18"/><path class="cls-3" d="M677.31,426.75s1.53-.9,1.54-.88.92,7.28,1,7.4,11.43-6.84,11.54-6.66-11.87,14.44-11.69,14.75,24.86-15,25.12-14.51c.15.26-18.53,18.11-18.28,18.54s33.47-20.1,33.81-19.52c.24.42-20.21,19.06-20,19.51s32.92-19.61,33.18-19.16-21.8,20.17-21.62,20.48c.27.46,35.77-21.35,36.07-20.83s-22.65,20.4-22.36,20.9c.37.65,33-19.85,33.32-19.24.23.4-16.53,17-16.31,17.4s17.86-10.91,18.12-10.46c.12.21-6,11.23-5.87,11.37s7.18-4.29,7.24-4.18"/><path class="cls-3" d="M677.31,453.63s1.53-.9,1.54-.88.92,7.28,1,7.4,11.43-6.84,11.54-6.66-11.18,14.06-11,14.35,24.19-14.55,24.44-14.11c.15.26-18.27,18-18,18.4s33.22-20,33.55-19.38c.24.42-20.17,19-19.92,19.48s32.89-19.58,33.14-19.13S711.79,473.25,712,473.56c.27.47,35.74-21.33,36-20.81s-22.62,20.39-22.34,20.89,33-19.84,33.3-19.23c.23.4-16.52,17-16.29,17.39s17.83-10.89,18.09-10.44c.12.2-5.94,11.22-5.86,11.36s7-4.15,7-4.05"/></g><rect class="cls-5" width="1440.98" height="902.44"/></g></g></svg>