<svg width="1130" height="756" viewBox="0 0 1130 756" fill="none" xmlns="http://www.w3.org/2000/svg">
<path d="M1129.45 754.224H0.55127L203.199 634.58H929.904L1129.45 754.224Z" fill="#D0F0E4"/>
<path d="M647.8 169.314H444.701V51.8985C444.701 43.9484 451.146 37.5039 459.098 37.5039H633.403C641.354 37.5039 647.8 43.9484 647.8 51.8985V169.314V169.314Z" fill="white" stroke="#66B0F0" stroke-width="6" stroke-miterlimit="10"/>
<path d="M632.469 161.665H460.875C456.357 161.665 452.683 157.991 452.683 153.474V52.8322C452.683 48.3151 456.357 44.6411 460.875 44.6411H632.469C636.987 44.6411 640.661 48.3151 640.661 52.8322V153.504C640.661 158.021 636.987 161.665 632.469 161.665Z" fill="#66B0F0"/>
<path d="M683.402 196.869C691.173 201.928 689.365 211.835 680.179 211.835H403.496C395.756 211.835 393.105 201.386 400.695 196.598L683.402 196.869Z" fill="#66B0F0" stroke="#66B0F0" stroke-width="6" stroke-miterlimit="10"/>
<path d="M680.179 204.939H403.496C398.557 204.939 396.599 199.127 400.695 196.598L444.761 169.314H647.228L683.372 196.869C686.986 199.609 684.877 204.939 680.179 204.939Z" fill="white" stroke="#66B0F0" stroke-width="6" stroke-miterlimit="10"/>
<path d="M648.252 196.718H435.424C431.629 196.718 430.123 192.231 433.255 190.304L463.857 169.314H622.891L650.692 190.514C653.493 192.622 651.866 196.718 648.252 196.718Z" fill="white" stroke="#66B0F0" stroke-width="6" stroke-miterlimit="10"/>
<path d="M609.126 169.314L636.957 196.718" stroke="#66B0F0" stroke-width="6" stroke-miterlimit="10"/>
<path d="M594.367 169.314L618.885 196.718" stroke="#66B0F0" stroke-width="6" stroke-miterlimit="10"/>
<path d="M580.572 169.314L601.837 196.718" stroke="#66B0F0" stroke-width="6" stroke-miterlimit="10"/>
<path d="M565.15 169.314L583.132 196.718" stroke="#66B0F0" stroke-width="6" stroke-miterlimit="10"/>
<path d="M552.35 169.314L561.115 196.718" stroke="#66B0F0" stroke-width="6" stroke-miterlimit="10"/>
<path d="M476.779 169.314L448.948 196.718" stroke="#66B0F0" stroke-width="6" stroke-miterlimit="10"/>
<path d="M491.537 169.314L467.02 196.718" stroke="#66B0F0" stroke-width="6" stroke-miterlimit="10"/>
<path d="M505.333 169.314L484.068 196.718" stroke="#66B0F0" stroke-width="6" stroke-miterlimit="10"/>
<path d="M520.754 169.314L502.772 196.718" stroke="#66B0F0" stroke-width="6" stroke-miterlimit="10"/>
<path d="M533.555 169.314L524.79 196.718" stroke="#66B0F0" stroke-width="6" stroke-miterlimit="10"/>
<path d="M542.229 197.049V169.314" stroke="#66B0F0" stroke-width="6" stroke-miterlimit="10"/>
<path d="M448.948 179.553H636.354" stroke="#66B0F0" stroke-width="6" stroke-miterlimit="10"/>
<path d="M618.192 161.665H465.815L468.556 142.241C470.243 130.286 478.827 120.469 490.423 117.156L527.561 109.447H556.446L593.584 117.156C605.21 120.438 613.795 130.286 615.451 142.241L618.192 161.665Z" fill="#FFCF2D"/>
<path d="M552.289 131.641L541.295 120.529C541.055 120.288 541.055 119.896 541.295 119.685C541.536 119.444 541.928 119.444 542.139 119.685L552.229 129.894L567.891 112.157C568.102 111.916 568.494 111.886 568.735 112.097C568.976 112.307 569.006 112.699 568.795 112.94L552.289 131.641Z" fill="white"/>
<path d="M531.868 131.641L515.362 112.94C515.151 112.699 515.151 112.307 515.422 112.097C515.663 111.886 516.055 111.886 516.266 112.157L531.928 129.894L542.019 119.685C542.259 119.444 542.621 119.444 542.862 119.685C543.103 119.926 543.103 120.288 542.862 120.529L531.868 131.641Z" fill="white"/>
<path d="M542.26 138.898C540.814 138.898 539.639 137.724 539.639 136.278C539.639 134.833 540.814 133.658 542.26 133.658C543.705 133.658 544.88 134.833 544.88 136.278C544.88 137.724 543.705 138.898 542.26 138.898ZM542.26 134.863C541.476 134.863 540.844 135.495 540.844 136.278C540.844 137.061 541.476 137.694 542.26 137.694C543.043 137.694 543.675 137.061 543.675 136.278C543.675 135.495 543.043 134.863 542.26 134.863Z" fill="white"/>
<path d="M542.26 153.654C540.814 153.654 539.639 152.48 539.639 151.034C539.639 149.589 540.814 148.415 542.26 148.415C543.705 148.415 544.88 149.589 544.88 151.034C544.88 152.48 543.705 153.654 542.26 153.654ZM542.26 149.619C541.476 149.619 540.844 150.252 540.844 151.034C540.844 151.817 541.476 152.45 542.26 152.45C543.043 152.45 543.675 151.817 543.675 151.034C543.675 150.252 543.043 149.619 542.26 149.619Z" fill="white"/>
<path d="M527.38 161.032H478.164L465.032 122.064L514.248 107.971L527.38 161.032Z" fill="white" stroke="#66B0F0" stroke-width="4" stroke-miterlimit="10"/>
<path d="M480.724 127.124H479.791C477.411 127.124 475.483 125.196 475.483 122.817V109.296C475.483 108.332 476.267 107.549 477.23 107.549H481.297C482.26 107.549 483.044 108.332 483.044 109.296V124.775C483.074 126.07 482.019 127.124 480.724 127.124Z" fill="white"/>
<path d="M480.724 127.124H479.791C477.411 127.124 475.483 125.196 475.483 122.817V109.296C475.483 108.332 476.267 107.549 477.23 107.549H481.297C482.26 107.549 483.044 108.332 483.044 109.296V124.775C483.074 126.07 482.019 127.124 480.724 127.124Z" stroke="#66B0F0" stroke-width="4" stroke-miterlimit="10" stroke-linecap="round"/>
<path d="M500.543 127.124H501.477C503.856 127.124 505.784 125.196 505.784 122.817V109.296C505.784 108.332 505.001 107.549 504.037 107.549H499.941C498.977 107.549 498.194 108.332 498.194 109.296V124.775C498.194 126.07 499.248 127.124 500.543 127.124Z" fill="white"/>
<path d="M488.284 128.69H486.116C484.429 128.69 483.074 127.335 483.074 125.648V109.326C483.074 108.363 483.857 107.58 484.821 107.58H488.887C489.851 107.58 490.634 108.363 490.634 109.326V126.341C490.634 127.636 489.58 128.69 488.284 128.69Z" fill="white"/>
<path d="M495.875 129.292H494.067C492.17 129.292 490.634 127.756 490.634 125.859V109.296C490.634 108.332 491.417 107.549 492.381 107.549H496.447C497.411 107.549 498.194 108.332 498.194 109.296V126.943C498.194 128.238 497.14 129.292 495.875 129.292Z" fill="white"/>
<path d="M500.543 127.124H501.477C503.856 127.124 505.784 125.196 505.784 122.817V109.296C505.784 108.332 505.001 107.549 504.037 107.549H499.941C498.977 107.549 498.194 108.332 498.194 109.296V124.775C498.194 126.07 499.248 127.124 500.543 127.124Z" stroke="#66B0F0" stroke-width="4" stroke-miterlimit="10" stroke-linecap="round"/>
<path d="M488.284 128.69H486.116C484.429 128.69 483.074 127.335 483.074 125.648V109.326C483.074 108.363 483.857 107.58 484.821 107.58H488.887C489.851 107.58 490.634 108.363 490.634 109.326V126.341C490.634 127.636 489.58 128.69 488.284 128.69Z" stroke="#66B0F0" stroke-width="4" stroke-miterlimit="10" stroke-linecap="round"/>
<path d="M495.875 129.292H494.067C492.17 129.292 490.634 127.756 490.634 125.859V109.296C490.634 108.332 491.417 107.549 492.381 107.549H496.447C497.411 107.549 498.194 108.332 498.194 109.296V126.943C498.194 128.238 497.14 129.292 495.875 129.292Z" stroke="#66B0F0" stroke-width="4" stroke-miterlimit="10" stroke-linecap="round"/>
<path d="M556.476 91.7397V113.723C556.476 117.518 550 120.619 542.018 120.619C534.036 120.619 527.561 117.518 527.561 113.723V91.7397H556.476Z" fill="white"/>
<path d="M556.476 91.7397C556.476 108.333 545.844 113.271 535.633 112.398C535.603 112.398 535.573 112.398 535.542 112.398C531.024 111.977 527.591 108.122 527.591 103.605V91.7699H556.476V91.7397Z" fill="#66B0F0"/>
<path d="M563.193 86.0781V87.1923C563.193 89.6617 561.205 91.6492 558.735 91.6492H556.446L556.476 92.1612C556.476 99.2682 550.723 105.02 543.615 105.02H540.452C533.344 105.02 527.591 99.2682 527.591 92.1612L527.621 91.6492H525.332C522.862 91.6492 520.874 89.6617 520.874 87.1923V86.0781C520.874 83.6087 522.862 81.6212 525.332 81.6212H528.253L528.585 76.1705C528.585 75.3273 528.705 74.5142 528.946 73.7614C537.561 75.8995 547.651 70.3584 550.361 68.7021C553.373 69.8465 555.512 72.7375 555.512 76.1404L555.843 81.5911H558.765C561.205 81.6212 563.193 83.6087 563.193 86.0781Z" fill="white"/>
<path d="M558.946 81.6212H555.813L555.482 76.1705C555.482 72.7676 553.344 69.8766 550.332 68.7322C547.621 70.3584 537.531 75.8994 528.916 73.7914C528.675 74.5443 528.555 75.3574 528.555 76.2006L528.223 81.6513H526.266C526.266 81.6513 522.26 62.2577 526.205 58.7042C529.127 56.0842 555.874 61.8059 558.825 65.8714C560.482 68.1902 558.946 81.6212 558.946 81.6212Z" fill="#E57281"/>
<path d="M551.415 80.4469C551.325 80.4469 551.204 80.4168 551.114 80.3265C551.084 80.2964 549.126 78.7003 545.994 78.7003C545.753 78.7003 545.542 78.4895 545.542 78.2486C545.542 78.0077 545.753 77.7969 545.994 77.7969C549.457 77.7969 551.596 79.5435 551.686 79.6338C551.867 79.7844 551.897 80.0856 551.747 80.2662C551.686 80.3867 551.536 80.4469 551.415 80.4469Z" fill="#66B0F0"/>
<path d="M539.97 89.7821C539.909 89.7821 539.849 89.7821 539.819 89.752C539.578 89.6617 539.458 89.3906 539.548 89.1798C540.391 86.9514 540.181 84.1508 539.006 81.6814C538.313 80.1757 537.319 79.0916 536.446 78.7904C534.518 78.1279 531.807 79.0615 531.777 79.0615C531.536 79.1518 531.295 79.0313 531.205 78.7904C531.114 78.5495 531.235 78.3086 531.476 78.2183C531.596 78.1881 534.488 77.1944 536.717 77.9472C537.831 78.3387 538.976 79.5734 539.789 81.32C541.054 84.0002 541.265 87.0718 540.361 89.5412C540.331 89.6617 540.15 89.7821 539.97 89.7821Z" fill="#66B0F0"/>
<path d="M545.904 94.5706C545.934 94.8115 545.723 95.0223 545.482 95.0524H545.452C545.211 95.0524 545.03 94.8717 545 94.6308C544.97 94.3296 544.91 94.0285 544.819 93.7575C543.524 94.3899 542.35 94.6007 541.386 94.6007C539.488 94.6007 538.344 93.8177 538.283 93.7575C538.072 93.6069 538.042 93.3359 538.163 93.1251C538.313 92.9143 538.584 92.8841 538.795 93.0046C538.856 93.0347 539.819 93.6972 541.386 93.6972C542.229 93.6972 543.253 93.5165 544.428 92.9444C544.247 92.6432 544.066 92.4625 544.066 92.4625C543.886 92.2818 543.916 91.9807 544.097 91.8301C544.277 91.6796 544.578 91.6795 544.729 91.8602C544.789 91.9506 545.813 93.0949 545.904 94.5706Z" fill="#66B0F0"/>
<path d="M547.53 85.9642C547.945 85.9383 548.239 85.2445 548.188 84.4145C548.136 83.5845 547.757 82.9327 547.342 82.9585C546.927 82.9844 546.633 83.6782 546.685 84.5082C546.736 85.3382 547.115 85.9901 547.53 85.9642Z" fill="#66B0F0"/>
<path d="M535.233 85.8437C535.615 85.8199 535.886 85.1816 535.838 84.418C535.791 83.6544 535.442 83.0547 535.061 83.0785C534.679 83.1023 534.408 83.7406 534.455 84.5042C534.503 85.2678 534.851 85.8675 535.233 85.8437Z" fill="#66B0F0"/>
<path d="M526.807 87.5237C526.567 87.5237 526.356 87.3129 526.356 87.072C526.356 85.747 525.271 84.693 523.976 84.693C523.735 84.693 523.524 84.4822 523.524 84.2413C523.524 84.0004 523.735 83.7896 523.976 83.7896C525.783 83.7896 527.259 85.2651 527.259 87.072C527.259 87.343 527.048 87.5237 526.807 87.5237Z" fill="#66B0F0"/>
<path d="M557.108 87.5237C556.867 87.5237 556.656 87.3129 556.656 87.072C556.656 85.2651 558.132 83.7896 559.939 83.7896C560.18 83.7896 560.391 84.0004 560.391 84.2413C560.391 84.4822 560.18 84.693 559.939 84.693C558.614 84.693 557.56 85.7771 557.56 87.072C557.56 87.343 557.379 87.5237 557.108 87.5237Z" fill="#66B0F0"/>
<path d="M1102.34 754.224L973.336 327.746C970.776 319.253 962.915 313.441 954.03 313.441H171.06C162.085 313.441 154.193 319.374 151.693 328.017L28.5928 754.224" stroke="#66B0F0" stroke-width="6" stroke-miterlimit="10"/>
<path d="M385.545 169.314H728.009" stroke="#66B0F0" stroke-width="6" stroke-miterlimit="10"/>
<path d="M504.398 234.12H585.301V303.594H504.398C504.398 303.594 504.398 231.5 504.398 234.12Z" fill="#FFCF2D"/>
<path d="M806.924 556.915L769.304 463.26H829.875L806.924 556.915Z" fill="#9A3B82"/>
<path d="M703.703 338.255C711.775 322.987 727.648 313.441 744.907 313.441H791.502L823.159 338.255H703.703Z" fill="#9A3B82"/>
<path d="M880.356 447.901H762.979L807.165 555.138C804.093 550.139 785.689 555.349 766.202 567.304C746.955 579.109 733.943 593.323 736.594 598.503L641.354 432.814C616.656 391.015 646.776 338.255 695.329 338.255H958.367L958.939 340.062C976.108 393.364 936.35 447.901 880.356 447.901Z" fill="#3FB1B5"/>
<path d="M962.915 369.002C962.493 378.789 960.325 388.245 956.65 397.008L818.701 338.285H955.626L958.819 347.621C961.048 353.222 962.283 361.082 962.915 369.002Z" fill="#E6E6E6"/>
<path d="M807.195 555.138C810.267 560.137 796.834 573.779 777.376 585.734C757.888 597.69 739.786 603.682 736.714 598.683C733.642 593.684 746.744 579.561 766.232 567.605C785.689 555.65 804.092 550.139 807.195 555.138Z" fill="#66B0F0"/>
<path d="M763.973 567.666L678.311 416.251C671.595 404.266 680.239 389.449 694.004 389.449H860.838C883.308 389.449 900.085 368.761 895.446 346.777" stroke="white" stroke-width="6" stroke-miterlimit="10" stroke-linecap="round"/>
<path d="M735.72 599.014C732.648 594.015 745.931 578.115 766.232 566.28C789.033 553 803.791 549.055 808.189 556.102" stroke="white" stroke-width="6" stroke-miterlimit="10" stroke-linecap="round"/>
<path d="M808.852 556.764L752.889 423.358" stroke="white" stroke-width="6" stroke-miterlimit="10" stroke-linecap="round"/>
<path d="M692.046 337.261H828.58" stroke="white" stroke-width="6" stroke-miterlimit="10"/>
<path d="M769.274 605.579L761.141 594.497L749.937 579.259C754.515 575.405 760.027 571.4 766.201 567.605C778.49 560.077 790.327 555.078 798.189 553.692L803.64 564.564L810.448 578.115C805.628 595.25 769.274 605.579 769.274 605.579Z" fill="#E57281"/>
<path d="M803.671 564.564C798.611 570.737 789.093 578.537 777.376 585.734C771.744 589.197 766.232 592.148 761.171 594.497L749.967 579.259C754.545 575.405 760.057 571.4 766.232 567.605C778.521 560.077 790.358 555.078 798.219 553.692L803.671 564.564Z" fill="#9A3B82"/>
<path d="M847.676 637.832L765.027 697.187C758.009 702.066 747.106 706.131 748.551 688.484C750.569 664.152 755.961 627.954 769.274 605.549C769.846 605.399 805.629 595.069 810.448 578.085L848.128 604.857C858.971 613.289 858.73 629.731 847.676 637.832Z" fill="white" stroke="#FFCF2D" stroke-width="6" stroke-miterlimit="10"/>
<path d="M765.449 613.409C772.015 614.644 808.882 601.574 814.604 581.428" stroke="#FFCF2D" stroke-width="6" stroke-miterlimit="10" stroke-linecap="round"/>
<path d="M756.563 691.074C756.563 691.074 810.508 616.149 848.881 620.365C890.657 624.913 722.407 734.77 756.563 691.074Z" fill="#FFCF2D"/>
<path d="M755.027 701.283C750.84 701.554 746.413 696.675 752.527 688.845C752.527 688.845 808.671 611.15 848.64 615.547C854.815 616.21 856.893 621.239 855.447 625.575" stroke="#FFCF2D" stroke-width="6" stroke-miterlimit="10" stroke-linecap="round"/>
<path d="M963.216 375.115C944.12 370.598 896.591 358.703 842.375 346.175C816.893 340.303 795.568 322.957 784.575 299.227L735.208 192.442L765.087 145.102C774.274 130.527 789.936 121.251 807.135 120.197L836.532 118.391C866.17 116.584 889.965 135.074 899.001 163.351L958.789 338.255C965.355 354.637 963.216 375.115 963.216 375.115Z" fill="white" stroke="#FE5244" stroke-width="6" stroke-miterlimit="10"/>
<path d="M761.202 198.435C761.202 198.435 776.924 223.128 812.737 228.579" stroke="#FE5244" stroke-width="6" stroke-miterlimit="10"/>
<path d="M782.406 153.504C780.78 151.757 777.918 152.239 776.924 154.377C775.81 156.786 777.828 159.467 780.448 159.075C783.129 158.684 784.243 155.461 782.406 153.504Z" fill="#FFCF2D" stroke="#FE5244" stroke-width="6" stroke-miterlimit="10" stroke-linejoin="round"/>
<path d="M857.435 204.969C855.809 203.223 852.947 203.705 851.953 205.843C850.839 208.252 852.857 210.932 855.477 210.54C858.158 210.149 859.272 206.927 857.435 204.969Z" fill="#FFCF2D" stroke="#FE5244" stroke-width="6" stroke-miterlimit="10" stroke-linejoin="round"/>
<path d="M881.2 226.049C879.573 224.302 876.712 224.784 875.718 226.922C874.603 229.331 876.621 232.012 879.242 231.62C881.892 231.259 883.007 228.036 881.2 226.049Z" fill="#FFCF2D" stroke="#FE5244" stroke-width="6" stroke-miterlimit="10" stroke-linejoin="round"/>
<path d="M926.771 345.332C925.145 343.585 922.283 344.067 921.289 346.205C920.175 348.614 922.193 351.294 924.813 350.903C927.464 350.511 928.578 347.319 926.771 345.332Z" fill="#FFCF2D" stroke="#FE5244" stroke-width="6" stroke-miterlimit="10" stroke-linejoin="round"/>
<path d="M901.26 288.325C899.633 286.579 896.772 287.061 895.778 289.199C894.663 291.608 896.681 294.288 899.302 293.896C901.983 293.505 903.097 290.283 901.26 288.325Z" fill="#FFCF2D" stroke="#FE5244" stroke-width="6" stroke-miterlimit="10" stroke-linejoin="round"/>
<path d="M911.832 247.31C909.482 247.611 908.187 250.231 909.362 252.279C910.687 254.597 914.03 254.507 915.235 252.128C916.47 249.719 914.482 246.948 911.832 247.31Z" fill="#FFCF2D" stroke="#FE5244" stroke-width="6" stroke-miterlimit="10" stroke-linejoin="round"/>
<path d="M931.079 308.141C928.729 308.442 927.434 311.062 928.609 313.11C929.934 315.428 933.277 315.338 934.482 312.959C935.717 310.55 933.759 307.779 931.079 308.141Z" fill="#FFCF2D" stroke="#FE5244" stroke-width="6" stroke-miterlimit="10" stroke-linejoin="round"/>
<path d="M851.26 242.522C849.634 240.775 846.772 241.257 845.778 243.395C844.664 245.804 846.682 248.484 849.302 248.093C851.953 247.701 853.068 244.509 851.26 242.522Z" fill="#FFCF2D" stroke="#FE5244" stroke-width="6" stroke-miterlimit="10" stroke-linejoin="round"/>
<path d="M834.664 276.641C833.038 274.895 830.177 275.376 829.183 277.515C828.068 279.924 830.086 282.604 832.707 282.212C835.387 281.821 836.502 278.599 834.664 276.641Z" fill="#FFCF2D" stroke="#FE5244" stroke-width="6" stroke-miterlimit="10" stroke-linejoin="round"/>
<path d="M804.966 264.716C806.713 263.09 806.231 260.229 804.093 259.235C801.683 258.121 799.002 260.139 799.394 262.759C799.785 265.409 802.978 266.523 804.966 264.716Z" fill="#FFCF2D" stroke="#FE5244" stroke-width="6" stroke-miterlimit="10" stroke-linejoin="round"/>
<path d="M831.321 323.439C833.068 321.812 832.586 318.952 830.448 317.958C828.038 316.844 825.357 318.861 825.749 321.481C826.14 324.161 829.363 325.276 831.321 323.439Z" fill="#FFCF2D" stroke="#FE5244" stroke-width="6" stroke-miterlimit="10" stroke-linejoin="round"/>
<path d="M875.688 273.057C877.435 271.431 876.953 268.57 874.814 267.577C872.405 266.462 869.724 268.48 870.115 271.1C870.507 273.75 873.73 274.894 875.688 273.057Z" fill="#FFCF2D" stroke="#FE5244" stroke-width="6" stroke-miterlimit="10" stroke-linejoin="round"/>
<path d="M890.838 336.117C892.585 334.491 892.103 331.63 889.965 330.636C887.555 329.522 884.874 331.54 885.266 334.159C885.627 336.84 888.85 337.954 890.838 336.117Z" fill="#FFCF2D" stroke="#FE5244" stroke-width="6" stroke-miterlimit="10" stroke-linejoin="round"/>
<path d="M799.996 208.402C798.369 206.655 795.508 207.137 794.514 209.275C793.4 211.684 795.418 214.365 798.038 213.973C800.719 213.582 801.833 210.359 799.996 208.402Z" fill="#FFCF2D" stroke="#FE5244" stroke-width="6" stroke-miterlimit="10" stroke-linejoin="round"/>
<path d="M805.388 130.286C803.761 128.539 800.9 129.021 799.906 131.159C798.791 133.568 800.809 136.248 803.43 135.857C806.111 135.465 807.225 132.243 805.388 130.286Z" fill="#FFCF2D" stroke="#FE5244" stroke-width="6" stroke-miterlimit="10" stroke-linejoin="round"/>
<path d="M857.435 130.286C855.809 128.539 852.947 129.021 851.953 131.159C850.839 133.568 852.857 136.248 855.477 135.857C858.158 135.465 859.272 132.243 857.435 130.286Z" fill="#FFCF2D" stroke="#FE5244" stroke-width="6" stroke-miterlimit="10" stroke-linejoin="round"/>
<path d="M857.525 164.014C855.327 164.887 854.694 167.718 856.351 169.435C858.188 171.332 861.411 170.458 862.013 167.869C862.616 165.249 860.025 163.02 857.525 164.014Z" fill="#FFCF2D" stroke="#FE5244" stroke-width="6" stroke-miterlimit="10" stroke-linejoin="round"/>
<path d="M827.947 144.801C825.658 145.463 824.785 148.204 826.231 150.071C827.887 152.149 831.17 151.577 832.014 149.077C832.887 146.517 830.508 144.048 827.947 144.801Z" fill="#FFCF2D" stroke="#FE5244" stroke-width="6" stroke-miterlimit="10" stroke-linejoin="round"/>
<path d="M823.58 228.217C821.231 228.488 819.906 231.078 821.05 233.156C822.345 235.475 825.689 235.445 826.923 233.096C828.188 230.717 826.261 227.916 823.58 228.217Z" fill="#FFCF2D" stroke="#FE5244" stroke-width="6" stroke-miterlimit="10" stroke-linejoin="round"/>
<path d="M797.767 290.945C795.418 291.216 794.093 293.806 795.237 295.884C796.532 298.203 799.876 298.173 801.111 295.824C802.376 293.445 800.448 290.644 797.767 290.945Z" fill="#FFCF2D" stroke="#FE5244" stroke-width="6" stroke-miterlimit="10" stroke-linejoin="round"/>
<path d="M806.442 169.675C804.152 170.338 803.279 173.078 804.725 174.945C806.381 177.023 809.664 176.451 810.508 173.951C811.381 171.422 809.032 168.952 806.442 169.675Z" fill="#FFCF2D" stroke="#FE5244" stroke-width="6" stroke-miterlimit="10" stroke-linejoin="round"/>
<path d="M831.381 186.539C829.092 187.202 828.218 189.942 829.664 191.809C831.321 193.887 834.604 193.315 835.447 190.815C836.321 188.256 833.971 185.786 831.381 186.539Z" fill="#FFCF2D" stroke="#FE5244" stroke-width="6" stroke-miterlimit="10" stroke-linejoin="round"/>
<path d="M777.376 185.816C778.882 183.98 778.069 181.209 775.78 180.516C773.249 179.733 770.84 182.082 771.593 184.612C772.346 187.202 775.659 187.894 777.376 185.816Z" fill="#FFCF2D" stroke="#FE5244" stroke-width="6" stroke-miterlimit="10" stroke-linejoin="round"/>
<path d="M891.561 185.907C893.067 184.07 892.253 181.299 889.964 180.607C887.434 179.824 885.025 182.173 885.778 184.702C886.501 187.292 889.844 187.985 891.561 185.907Z" fill="#FFCF2D" stroke="#FE5244" stroke-width="6" stroke-miterlimit="10" stroke-linejoin="round"/>
<path d="M862.585 307.99C864.091 306.153 863.278 303.382 860.989 302.69C858.459 301.907 856.049 304.256 856.802 306.785C857.525 309.345 860.868 310.038 862.585 307.99Z" fill="#FFCF2D" stroke="#FE5244" stroke-width="6" stroke-miterlimit="10" stroke-linejoin="round"/>
<path d="M838.55 117.397C837.888 117.427 837.225 117.457 836.532 117.487L807.135 119.294C799.635 119.746 792.467 121.764 785.961 125.106L776.925 98.0638L817.195 68.5518L838.55 117.397Z" fill="#E57281"/>
<path d="M785.84 124.685C794.214 120.89 800.9 114.145 804.695 105.773L819.334 73.4L817.195 68.5215L776.925 98.0335L785.84 124.685Z" fill="#9A3B82"/>
<path d="M819.785 71.2619C819.785 74.0625 818.641 76.5921 816.803 78.4291C814.966 80.2661 812.436 81.4104 809.635 81.4104H800.78C797.286 94.992 783.762 104.297 769.214 101.738L762.557 100.563C755.268 99.2682 750.298 92.4624 751.323 85.1446L759.124 46.0864C760.479 37.7447 769.063 32.6554 777.045 35.5163L789.966 40.6959C796.954 43.1051 801.653 49.67 801.653 57.048V60.8123L809.635 61.1134C815.237 61.1134 819.785 65.6606 819.785 71.2619Z" fill="#E57281"/>
<path d="M804.786 73.2193C804.786 69.3345 807.918 66.2026 811.804 66.2026" stroke="#9A3B82" stroke-width="5" stroke-miterlimit="10" stroke-linecap="round"/>
<path d="M763.461 54.3076C763.461 54.3076 769.786 54.3076 774.304 60.3606" stroke="#9A3B82" stroke-width="5" stroke-miterlimit="10" stroke-linecap="round"/>
<path d="M767.665 65.5786C767.983 63.8276 767.578 62.2877 766.759 62.139C765.941 61.9903 765.02 63.2892 764.701 65.0401C764.383 66.7911 764.788 68.331 765.607 68.4797C766.425 68.6284 767.347 67.3295 767.665 65.5786Z" fill="#9A3B82"/>
<path d="M809.635 61.1135C815.237 61.1135 819.785 65.6608 819.785 71.262C819.785 71.2921 819.785 71.3524 819.785 71.4126C824.303 64.4562 835.388 46.749 835.388 40.7562C835.388 32.7157 825.358 24.6752 814.966 28.3491C815.659 27.8372 816.382 27.2952 817.135 26.723C821.141 23.5911 823.249 21.2422 823.58 19.5558C823.701 18.9535 823.611 18.4114 823.309 17.9898C822.105 16.2733 820.779 15.5205 819.364 15.7614C817.285 16.0926 815.147 18.6523 813.008 23.3502C812.044 25.4883 811.292 27.5963 810.87 28.8912C810.026 23.8621 805.96 7.20892 788.491 9.76864C782.467 10.642 779.635 13.1414 778.852 15.8818C773.852 11.967 767.166 8.89532 761.624 11.8164C752.045 16.8455 753.22 25.0968 758.762 30.939C753.521 30.8486 749.847 32.3845 749.847 36.8113C749.847 40.8767 754.033 42.8341 759.786 43.6171C765.539 44.4001 772.919 43.9785 779.304 43.2557C783.852 42.7438 787.948 42.1114 790.569 41.6597C788.822 45.2433 788.129 48.3149 788.28 50.9048C788.551 56.2651 792.436 59.4271 797.918 60.5413C799.093 60.7822 800.358 60.9328 801.653 60.993L809.635 61.1135ZM819.544 16.9659C819.635 16.9358 819.725 16.9358 819.846 16.9358C820.689 16.9358 821.502 17.5381 822.315 18.6825C822.376 18.8029 822.466 18.9836 822.406 19.3149C821.924 21.7541 815.749 26.3917 812.165 28.831C813.581 24.6752 816.563 17.4779 819.544 16.9659Z" fill="#FFCF2D"/>
<path d="M785.599 25.8801C783.521 25.8801 781.412 24.7658 779.876 22.8084C778.159 20.6401 777.587 17.96 778.31 15.6412C778.4 15.34 778.701 15.1593 779.003 15.2195C779.123 15.2195 779.244 15.2497 779.334 15.34C783.882 18.5924 787.527 23.23 786.985 25.067C786.864 25.5488 786.472 25.8499 785.96 25.8801C785.84 25.8801 785.719 25.8801 785.599 25.8801ZM779.274 16.7855C779.003 18.5321 779.545 20.4595 780.81 22.0555C782.165 23.772 784.033 24.7658 785.84 24.6453C785.9 23.8624 783.882 20.2788 779.274 16.7855Z" fill="white"/>
<path d="M726.142 291.789H533.374C528.615 291.789 525.754 286.549 528.284 282.544L553.946 242.251C557.29 237.011 563.042 233.849 569.247 233.849H699.727L726.142 291.789Z" fill="#E57281"/>
<path d="M573.494 233.879L588.855 208.583C589.759 207.078 591.416 206.144 593.163 206.144C597.108 206.144 599.518 210.45 597.47 213.823L585.271 233.879H573.494Z" fill="#FE5244"/>
<path d="M726.142 291.789H682.799C682.709 291.699 682.588 291.578 682.498 291.488C671.956 280.647 667.468 264.204 673.402 248.364L679.576 233.849H699.727L726.142 291.789Z" fill="#9A3B82"/>
<path d="M560.603 264.747H536.446C534.82 264.747 533.314 265.62 532.501 267.035L529.94 271.492C528.224 274.504 530.392 278.268 533.886 278.268H553.314C556.687 278.268 559.819 276.521 561.597 273.63L563.675 270.227C565.121 267.818 563.404 264.747 560.603 264.747Z" fill="#E57281"/>
<path d="M554.368 278.268H530.212C528.585 278.268 527.079 279.141 526.266 280.556L523.706 285.013C521.989 288.025 524.157 291.789 527.651 291.789H547.079C550.452 291.789 553.585 290.042 555.362 287.151L557.44 283.748C558.916 281.339 557.169 278.268 554.368 278.268Z" fill="#E57281"/>
<path d="M567.5 251.044H543.344C541.717 251.044 540.211 251.918 539.398 253.333L536.838 257.79C535.121 260.801 537.29 264.566 540.784 264.566H560.211C563.585 264.566 566.717 262.819 568.494 259.928L570.572 256.525C572.048 254.116 570.301 251.044 567.5 251.044Z" fill="#E57281"/>
<path d="M560.603 264.747H536.446C534.82 264.747 533.314 265.62 532.501 267.035L529.94 271.492C528.224 274.504 530.392 278.268 533.886 278.268H553.314C556.687 278.268 559.819 276.521 561.597 273.63L563.675 270.227C565.121 267.818 563.404 264.747 560.603 264.747Z" stroke="#9A3B82" stroke-width="5" stroke-miterlimit="10" stroke-linecap="round"/>
<path d="M554.368 278.268H530.212C528.585 278.268 527.079 279.141 526.266 280.556L523.706 285.013C521.989 288.025 524.157 291.789 527.651 291.789H547.079C550.452 291.789 553.585 290.042 555.362 287.151L557.44 283.748C558.916 281.339 557.169 278.268 554.368 278.268Z" stroke="#9A3B82" stroke-width="5" stroke-miterlimit="10" stroke-linecap="round"/>
<path d="M567.5 251.044H543.344C541.717 251.044 540.211 251.918 539.398 253.333L536.838 257.79C535.121 260.801 537.29 264.566 540.784 264.566H560.211C563.585 264.566 566.717 262.819 568.494 259.928L570.572 256.525C572.048 254.116 570.301 251.044 567.5 251.044Z" stroke="#9A3B82" stroke-width="5" stroke-miterlimit="10" stroke-linecap="round"/>
<path d="M602.469 271.191C595.21 271.191 588.223 268.571 582.741 263.783L573.584 255.773H565.151L562.982 258.091C559.097 262.247 554.308 264.626 548.615 264.626H544.579C542.47 264.626 541.175 262.277 542.32 260.5L552.47 244.6H602.499V271.191H602.469Z" fill="#E57281"/>
<path d="M552.47 244.6L542.32 260.5C541.175 262.277 542.47 264.626 544.579 264.626H548.615C554.308 264.626 559.097 262.277 562.982 258.091L565.151 255.773H573.584L582.741 263.783C588.192 268.541 595.21 271.191 602.469 271.191" stroke="#9A3B82" stroke-width="5" stroke-miterlimit="10" stroke-linecap="round"/>
<path d="M805.84 235.475L759.847 286.85C750.178 297.661 736.353 303.835 721.835 303.835C693.161 303.835 673.312 275.226 683.372 248.364L738.01 120.017L719.546 109.688C716.926 107.64 715.661 104.297 716.233 101.045L719.365 79.9349C720.329 75.2371 725.118 71.5632 729.787 70.479L751.413 65.6005C753.25 65.1789 754.937 66.7449 754.636 68.5818L751.503 84.8737C750.269 92.8238 755.63 99.6899 763.582 101.045C770.088 102.159 774.666 108.694 774.063 115.259L759.335 207.108C759.305 207.168 774.395 230.687 805.84 235.475Z" fill="#E57281"/>
<path d="M770.569 137.092L752.798 252.46" stroke="#9A3B82" stroke-width="5" stroke-miterlimit="10" stroke-linecap="round"/>
<path d="M733.732 81.4707L733.491 88.939C733.401 92.0107 735.238 94.721 737.889 95.4739L765.569 101.075" stroke="#9A3B82" stroke-width="5" stroke-miterlimit="10" stroke-linecap="round"/>
<path d="M784.395 103.484L762.256 100.533C754.967 99.2381 749.998 92.4322 751.022 85.1145L753.883 68.7624C754.154 67.2266 752.769 65.9317 751.263 66.293L728.672 71.563" stroke="#9A3B82" stroke-width="5" stroke-miterlimit="10" stroke-linecap="round"/>
<path d="M772.166 272.998L832.044 206.385" stroke="#FE5244" stroke-width="6" stroke-miterlimit="10"/>
<path d="M738.642 120.047H749.214" stroke="#9A3B82" stroke-width="5" stroke-miterlimit="10" stroke-linecap="round"/>
<path d="M733.763 83.4584V85.8675C733.763 88.7284 735.841 91.0773 738.401 91.0773H741.714C743.16 91.0773 744.305 89.7824 744.305 88.1562L744.516 72.4366C744.546 69.9973 741.955 68.4916 739.847 69.0036" stroke="#9A3B82" stroke-width="5" stroke-miterlimit="10" stroke-linecap="round"/>
<path d="M744.516 83.4585V85.8676C744.516 88.7285 746.594 91.0774 749.154 91.0774H751.263" stroke="#9A3B82" stroke-width="5" stroke-miterlimit="10" stroke-linecap="round"/>
<path d="M944.542 463.26L979.511 754.224" stroke="#66B0F0" stroke-width="6" stroke-miterlimit="10"/>
<path d="M792.978 463.26L758.009 754.224" stroke="#66B0F0" stroke-width="6" stroke-miterlimit="10"/>
<path d="M769.997 654.305H967.493" stroke="#66B0F0" stroke-width="6" stroke-miterlimit="10"/>
<path d="M772.828 464.163H962.885C965.415 464.163 967.463 462.115 967.463 459.586V453.382C967.463 450.852 965.415 448.805 962.885 448.805H772.828C770.298 448.805 768.25 450.852 768.25 453.382V459.586C768.25 462.115 770.298 464.163 772.828 464.163Z" fill="white" stroke="#FFCF2D" stroke-width="6" stroke-miterlimit="10"/>
<path d="M456.568 243.967L427.472 303.834H339.552L374.883 243.967H456.568Z" fill="white" stroke="#3FB1B5" stroke-width="5" stroke-miterlimit="10"/>
<path d="M437.291 258.573C437.291 258.573 433.466 252.038 424.279 253.724C417.412 254.959 409.279 260.621 404.28 257.579C399.28 254.537 394.852 250.743 388.376 252.55C381.9 254.357 377.111 257.82 377.111 257.82" stroke="#3FB1B5" stroke-width="5" stroke-miterlimit="10"/>
<path d="M434.279 267.908C434.279 267.908 430.454 261.373 421.268 263.06C414.4 264.295 406.268 269.956 401.268 266.914C396.268 263.873 391.84 260.078 385.364 261.885C378.889 263.692 374.1 267.155 374.1 267.155" stroke="#3FB1B5" stroke-width="5" stroke-miterlimit="10"/>
<path d="M489.64 512.647C489.64 520.688 467.321 527.193 439.369 527.193C411.418 527.193 389.762 520.688 389.762 512.647C389.762 504.607 411.418 498.102 439.369 498.102C467.321 498.102 489.64 504.637 489.64 512.647Z" fill="#FE5244"/>
<path d="M476.779 502.86V606.754L473.616 591.757C470.212 575.616 455.966 564.082 439.46 564.082C434.49 564.082 429.611 565.136 425.183 567.124C425.032 567.184 424.882 567.275 424.701 567.335L413.105 525.054L406.659 501.535C415.484 499.397 426.9 498.102 439.369 498.102C454.189 498.102 467.532 499.939 476.779 502.86Z" fill="#A0505A"/>
<path d="M476.779 502.86V522.434C467.532 525.356 454.189 527.193 439.369 527.193C429.761 527.193 420.785 526.41 413.105 525.085L406.659 501.565C415.484 499.427 426.9 498.132 439.369 498.132C454.189 498.102 467.532 499.939 476.779 502.86Z" fill="#73325A"/>
<path d="M474.55 603.713C475.363 603.954 483.014 606.092 489.791 606.092C493.465 606.092 496.869 605.46 498.796 603.532C500.453 601.876 500.845 599.467 499.971 596.425C499.188 593.715 497.682 592.029 495.483 591.426C491.447 590.342 485.845 593.354 481.417 596.516C488.315 588.144 495.122 577.514 492.592 570.557C491.688 568.088 489.64 566.431 487.08 566.13C484.941 565.889 482.953 566.642 482.02 568.058C477.682 574.653 474.128 601.725 473.978 602.87L474.55 603.713ZM483.285 568.901C483.827 568.088 484.971 567.606 486.297 567.606C486.507 567.606 486.718 567.606 486.929 567.636C487.893 567.757 490.212 568.299 491.206 571.069C491.869 572.906 492.11 576.279 489.429 581.94C486.899 587.301 482.321 593.595 475.815 600.732C476.779 593.866 479.851 574.111 483.285 568.901ZM497.742 602.478C495.754 604.466 491.236 605.068 484.64 604.225C481.176 603.773 477.953 603.051 476.237 602.599C477.532 601.454 479.941 599.377 482.742 597.449C488.104 593.745 492.381 592.149 495.122 592.902C496.778 593.354 497.893 594.649 498.555 596.847C499.278 599.377 499.007 601.214 497.742 602.478Z" fill="#FFCF2D"/>
<path d="M413.406 575.767L406.448 583.566C398.557 592.42 397.262 605.309 403.256 615.548L433.888 668.067C439.881 678.336 450.875 684.63 462.743 684.63H475.423C484.61 684.63 491.447 676.198 489.549 667.224L473.586 591.788C470.182 575.646 455.935 564.112 439.43 564.112C429.52 564.082 420.032 568.328 413.406 575.767Z" fill="white" stroke="#3FB1B5" stroke-width="5" stroke-miterlimit="10"/>
<path d="M437.11 598.473L476.658 675.084C478.525 678.547 480.845 680.775 483.495 682.191C481.206 683.727 478.435 684.66 475.423 684.66H462.743C450.845 684.66 439.851 678.336 433.888 668.097L403.256 615.548C402.021 613.41 401.087 611.181 400.454 608.862C396.117 592.751 414.46 580.103 428.225 589.559C431.358 591.697 434.43 594.588 437.11 598.473Z" fill="#3FB1B5"/>
<path d="M437.201 598.654H400.696C400.877 598.081 401.087 597.539 401.328 597.027H436.027C436.388 597.509 436.749 597.991 437.111 598.503L437.201 598.654Z" fill="white"/>
<path d="M442.562 609.013H400.515C400.515 608.953 400.485 608.892 400.485 608.862C400.364 608.381 400.244 607.869 400.153 607.387H441.749L442.562 609.013Z" fill="white"/>
<path d="M447.924 619.402H405.515L404.551 617.746H447.08L447.924 619.402Z" fill="white"/>
<path d="M453.285 629.792H411.569L410.605 628.135H452.442L453.285 629.792Z" fill="white"/>
<path d="M458.646 640.151H417.623L416.659 638.525H457.803L458.646 640.151Z" fill="white"/>
<path d="M464.008 650.541H423.677L422.713 648.884H463.134L464.008 650.541Z" fill="white"/>
<path d="M469.369 660.93H429.731L428.768 659.273H468.496L469.369 660.93Z" fill="white"/>
<path d="M474.701 671.289H436.026C435.635 670.747 435.243 670.205 434.882 669.663H473.857L474.701 671.289Z" fill="white"/>
<path d="M482.622 681.679H449.008C447.924 681.197 446.87 680.655 445.846 680.052H480.454C481.146 680.655 481.869 681.197 482.622 681.679Z" fill="white"/>
<path d="M366.268 510.509C365.997 518.459 343.437 524.904 315.667 524.904C287.896 524.904 265.336 518.489 265.065 510.509V447.901H366.268V510.509Z" fill="#73325A"/>
<path d="M359.551 520.898L359.4 528.337L357.955 600.942V598.834C357.955 580.193 342.835 565.076 324.19 565.076H322.142C312.624 565.076 304.04 568.78 297.685 574.743L293.257 544.809L290.516 526.289C297.926 527.524 306.51 528.216 315.636 528.216C334.431 528.186 350.786 525.235 359.551 520.898Z" fill="#A0505A"/>
<path d="M359.551 520.898L359.401 528.337C348.196 536.287 313.588 546.074 293.287 544.779L290.546 526.259C297.956 527.463 306.54 528.186 315.666 528.186C334.431 528.186 350.786 525.235 359.551 520.898Z" fill="#73325A"/>
<path d="M325.727 685.624H331.329C346.028 685.624 357.955 673.698 357.955 659.003V598.834C357.955 580.194 342.835 565.076 324.19 565.076H322.142C300.456 565.076 283.739 584.199 286.661 605.7L293.739 657.738C295.938 673.698 309.582 685.624 325.727 685.624Z" fill="white" stroke="#3FB1B5" stroke-width="5" stroke-miterlimit="10"/>
<path d="M349.582 678.366C344.823 682.853 338.377 685.624 331.329 685.624H325.727C309.582 685.624 295.938 673.699 293.769 657.738L286.691 605.701C286.571 604.707 286.45 603.713 286.42 602.749C288.227 591.216 298.197 582.392 310.245 582.392C316.178 582.392 321.66 584.56 325.907 588.174C330.154 591.788 333.136 596.877 334.07 602.749L343.377 666.26C344.07 670.988 346.299 675.204 349.582 678.366Z" fill="#3FB1B5"/>
<path d="M331.269 594.709H289.191C289.493 594.137 289.854 593.594 290.215 593.083H330.275C330.636 593.594 330.968 594.137 331.269 594.709Z" fill="white"/>
<path d="M334.401 605.068H286.601C286.541 604.526 286.48 603.984 286.45 603.442H334.16L334.401 605.068Z" fill="white"/>
<path d="M335.937 615.457H288.016L287.775 613.831H335.696L335.937 615.457Z" fill="white"/>
<path d="M337.444 625.847H289.432L289.191 624.19H337.203L337.444 625.847Z" fill="white"/>
<path d="M338.98 636.206H290.848L290.607 634.58H338.739L338.98 636.206Z" fill="white"/>
<path d="M340.486 646.595H292.233L292.022 644.969H340.245L340.486 646.595Z" fill="white"/>
<path d="M342.022 656.985H293.649L293.438 655.329H341.781L342.022 656.985Z" fill="white"/>
<path d="M343.558 667.344H296.631C296.36 666.802 296.119 666.26 295.908 665.718H343.286L343.377 666.26C343.437 666.622 343.497 666.983 343.558 667.344Z" fill="white"/>
<path d="M348.949 677.734H304.582C303.98 677.222 303.378 676.649 302.835 676.107H347.564C347.985 676.68 348.467 677.222 348.949 677.734Z" fill="white"/>
<path d="M388.166 185.094V235.806C385.967 230.055 368.557 230.868 349.401 238.125C332.986 244.359 320.667 252.911 318.859 258.844V187.473C318.859 166.242 330.215 147.27 347.654 136.911C370.304 140.856 388.166 160.581 388.166 185.094Z" fill="#FFCF2D"/>
<path d="M317.534 139.2C302.113 149.92 292.294 167.718 292.294 187.473V246.346H206.542L218.379 195.393C223.409 173.681 239.132 156.365 259.613 148.987L317.534 139.2Z" fill="#FFCF2D"/>
<path d="M490.965 391.196V509.394C490.965 501.354 467.321 494.849 439.369 494.849C411.418 494.849 388.768 501.354 388.768 509.394V452.75C388.768 450.099 386.599 447.931 383.949 447.931H230.216C183.982 447.931 149.796 404.898 160.247 359.877L197.355 200.03C203.259 174.524 223.921 155.1 249.734 150.703L259.613 149.017C239.132 156.395 223.409 173.711 218.379 195.423L206.542 246.376H292.293V187.473C292.293 167.718 302.143 149.89 317.534 139.2L331.088 136.911C333.889 136.429 336.63 136.218 339.371 136.218C339.732 136.218 340.064 136.218 340.425 136.218C340.756 136.218 341.088 136.248 341.389 136.248C341.449 136.248 341.509 136.248 341.57 136.248C341.811 136.248 342.082 136.278 342.323 136.278C342.353 136.278 342.413 136.278 342.443 136.278C342.594 136.278 342.744 136.309 342.865 136.309C343.136 136.339 343.377 136.339 343.648 136.369C343.949 136.399 344.281 136.429 344.582 136.459C344.883 136.489 345.154 136.519 345.455 136.55C345.515 136.55 345.576 136.58 345.666 136.58C345.967 136.61 346.299 136.67 346.6 136.7C346.63 136.7 346.66 136.7 346.66 136.7C346.991 136.76 347.323 136.79 347.654 136.851C330.214 147.21 318.859 166.182 318.859 187.413V332.112H431.93C464.52 332.172 490.965 358.582 490.965 391.196Z" fill="#FE5244"/>
<path d="M319.492 137.875C304.07 148.595 292.263 167.718 292.263 187.473V246.346H206.512L218.349 195.393C223.379 173.68 237.776 156.033 258.288 148.655" stroke="white" stroke-width="6" stroke-miterlimit="10" stroke-linecap="round"/>
<path d="M388.768 434.591C388.768 417.817 394.701 401.586 405.514 388.787" stroke="white" stroke-width="6" stroke-miterlimit="10" stroke-linecap="round"/>
<path d="M263.499 428.598C263.348 428.598 263.197 428.568 263.077 428.477L259.101 426.309C258.649 426.068 258.499 425.526 258.74 425.074C258.981 424.623 259.523 424.472 259.975 424.713L263.95 426.881C264.402 427.122 264.553 427.664 264.312 428.116C264.131 428.417 263.83 428.598 263.499 428.598ZM267.474 427.574C267.143 427.574 266.842 427.393 266.691 427.092C266.45 426.64 266.601 426.098 267.053 425.857L271.029 423.689C271.48 423.448 272.023 423.629 272.264 424.05C272.505 424.502 272.354 425.044 271.902 425.285L267.926 427.453C267.776 427.514 267.625 427.574 267.474 427.574ZM255.547 424.291C255.396 424.291 255.246 424.261 255.125 424.171L251.149 422.003C250.698 421.762 250.547 421.22 250.788 420.768C251.029 420.316 251.571 420.166 252.023 420.407L255.999 422.575C256.451 422.816 256.601 423.358 256.36 423.81C256.18 424.111 255.878 424.291 255.547 424.291ZM275.396 423.237C275.065 423.237 274.764 423.057 274.613 422.756C274.372 422.304 274.523 421.762 274.974 421.521L278.95 419.353C279.643 418.991 280.276 418.57 280.908 418.118C281.3 417.817 281.872 417.907 282.173 418.299C282.474 418.69 282.384 419.262 281.992 419.563C281.3 420.075 280.577 420.527 279.824 420.949L275.848 423.117C275.697 423.207 275.547 423.237 275.396 423.237ZM247.686 419.834C247.505 419.834 247.324 419.774 247.143 419.654C245.878 418.72 244.704 417.636 243.71 416.401C243.379 416.01 243.439 415.438 243.83 415.137C244.222 414.805 244.794 414.866 245.095 415.257C245.999 416.371 247.053 417.335 248.198 418.178C248.589 418.479 248.68 419.051 248.409 419.443C248.258 419.714 247.987 419.834 247.686 419.834ZM284.703 416.672C284.492 416.672 284.312 416.612 284.131 416.462C283.739 416.16 283.679 415.588 284.01 415.197C284.914 414.083 285.667 412.878 286.269 411.553C286.48 411.101 287.022 410.89 287.474 411.101C287.926 411.312 288.137 411.854 287.926 412.306C287.263 413.751 286.42 415.106 285.426 416.311C285.215 416.552 284.974 416.672 284.703 416.672ZM242.023 412.938C241.692 412.938 241.36 412.758 241.21 412.426C240.547 410.981 240.065 409.475 239.764 407.909C239.674 407.427 240.005 406.946 240.487 406.855C240.969 406.765 241.451 407.096 241.541 407.578C241.812 408.993 242.234 410.348 242.836 411.643C243.047 412.095 242.836 412.637 242.385 412.848C242.264 412.908 242.144 412.938 242.023 412.938ZM288.438 408.542C288.378 408.542 288.318 408.542 288.287 408.542C287.806 408.451 287.474 407.969 287.565 407.488C287.745 406.494 287.836 405.5 287.836 404.506V403.151C287.836 402.639 288.227 402.248 288.739 402.248C289.251 402.248 289.643 402.639 289.643 403.151V404.506C289.643 405.62 289.552 406.735 289.342 407.819C289.251 408.24 288.86 408.542 288.438 408.542ZM240.366 404.145C239.854 404.145 239.463 403.753 239.463 403.241V398.724C239.463 398.212 239.854 397.821 240.366 397.821C240.879 397.821 241.27 398.212 241.27 398.724V403.241C241.27 403.723 240.848 404.145 240.366 404.145ZM288.709 399.537C288.197 399.537 287.805 399.146 287.805 398.634V394.117C287.805 393.605 288.197 393.213 288.709 393.213C289.221 393.213 289.613 393.605 289.613 394.117V398.634C289.613 399.146 289.221 399.537 288.709 399.537ZM240.366 395.111C239.854 395.111 239.463 394.719 239.463 394.207V389.69C239.463 389.178 239.854 388.787 240.366 388.787C240.879 388.787 241.27 389.178 241.27 389.69V394.207C241.27 394.689 240.848 395.111 240.366 395.111ZM288.709 390.503C288.197 390.503 287.805 390.112 287.805 389.6V385.083C287.805 384.571 288.197 384.179 288.709 384.179C289.221 384.179 289.613 384.571 289.613 385.083V389.6C289.613 390.112 289.221 390.503 288.709 390.503ZM240.366 386.076C239.854 386.076 239.463 385.685 239.463 385.173V380.656C239.463 380.144 239.854 379.752 240.366 379.752C240.879 379.752 241.27 380.144 241.27 380.656V385.173C241.27 385.655 240.848 386.076 240.366 386.076ZM288.709 381.469C288.197 381.469 287.805 381.077 287.805 380.565V376.048C287.805 375.536 288.197 375.145 288.709 375.145C289.221 375.145 289.613 375.536 289.613 376.048V380.565C289.613 381.077 289.221 381.469 288.709 381.469ZM240.366 377.042C239.854 377.042 239.463 376.651 239.463 376.139V372.254H241.903C242.415 372.254 242.806 372.645 242.806 373.157C242.806 373.669 242.415 374.061 241.903 374.061H241.27V376.139C241.27 376.62 240.848 377.042 240.366 377.042ZM287.083 374.061H282.565C282.053 374.061 281.661 373.669 281.661 373.157C281.661 372.645 282.053 372.254 282.565 372.254H287.083C287.595 372.254 287.986 372.645 287.986 373.157C287.986 373.669 287.595 374.061 287.083 374.061ZM278.047 374.061H273.529C273.017 374.061 272.625 373.669 272.625 373.157C272.625 372.645 273.017 372.254 273.529 372.254H278.047C278.559 372.254 278.95 372.645 278.95 373.157C278.95 373.669 278.559 374.061 278.047 374.061ZM269.011 374.061H264.493C263.981 374.061 263.589 373.669 263.589 373.157C263.589 372.645 263.981 372.254 264.493 372.254H269.011C269.523 372.254 269.914 372.645 269.914 373.157C269.914 373.669 269.523 374.061 269.011 374.061ZM259.975 374.061H255.457C254.945 374.061 254.553 373.669 254.553 373.157C254.553 372.645 254.945 372.254 255.457 372.254H259.975C260.487 372.254 260.878 372.645 260.878 373.157C260.878 373.669 260.487 374.061 259.975 374.061ZM250.939 374.061H246.421C245.909 374.061 245.517 373.669 245.517 373.157C245.517 372.645 245.909 372.254 246.421 372.254H250.939C251.451 372.254 251.842 372.645 251.842 373.157C251.842 373.669 251.451 374.061 250.939 374.061Z" fill="white"/>
<path d="M178.259 423.599C177.928 423.599 177.626 423.418 177.476 423.117C177.235 422.665 177.385 422.123 177.837 421.882L181.512 419.865C181.602 419.804 181.693 419.774 181.783 419.714C182.205 419.473 182.777 419.624 183.018 420.045C183.259 420.467 183.108 421.039 182.687 421.28C182.596 421.34 182.506 421.4 182.385 421.431L178.711 423.448C178.56 423.569 178.409 423.599 178.259 423.599ZM185.879 418.78C185.638 418.78 185.397 418.69 185.217 418.479C184.885 418.118 184.915 417.546 185.277 417.215C186.331 416.251 187.265 415.137 188.078 413.962C188.349 413.541 188.921 413.45 189.343 413.721C189.765 413.992 189.855 414.564 189.584 414.986C188.711 416.281 187.656 417.486 186.512 418.57C186.301 418.72 186.09 418.78 185.879 418.78ZM190.909 411.372C190.789 411.372 190.698 411.342 190.578 411.312C190.126 411.131 189.885 410.62 190.066 410.138C190.578 408.783 190.939 407.397 191.15 405.982C191.211 405.5 191.662 405.139 192.174 405.199C192.656 405.259 193.018 405.711 192.957 406.223C192.747 407.789 192.355 409.325 191.783 410.8C191.602 411.162 191.271 411.372 190.909 411.372ZM192.204 402.519C191.692 402.519 191.301 402.127 191.301 401.615V397.098C191.301 396.586 191.692 396.195 192.204 396.195C192.717 396.195 193.108 396.586 193.108 397.098V401.615C193.108 402.097 192.717 402.519 192.204 402.519ZM192.204 393.484C191.692 393.484 191.301 393.093 191.301 392.581V388.064C191.301 387.552 191.692 387.16 192.204 387.16C192.717 387.16 193.108 387.552 193.108 388.064V392.581C193.108 393.063 192.717 393.484 192.204 393.484ZM192.204 384.45C191.692 384.45 191.301 384.059 191.301 383.547V379.03C191.301 378.518 191.692 378.126 192.204 378.126C192.717 378.126 193.108 378.518 193.108 379.03V383.547C193.108 384.029 192.717 384.45 192.204 384.45ZM192.204 375.416C191.692 375.416 191.301 375.024 191.301 374.512V374.061H189.042C188.53 374.061 188.138 373.669 188.138 373.157C188.138 372.645 188.53 372.254 189.042 372.254H193.108V374.512C193.108 374.994 192.717 375.416 192.204 375.416ZM184.524 374.061H180.006C179.494 374.061 179.102 373.669 179.102 373.157C179.102 372.645 179.494 372.254 180.006 372.254H184.524C185.036 372.254 185.427 372.645 185.427 373.157C185.427 373.669 185.006 374.061 184.524 374.061ZM175.488 374.061H170.97C170.458 374.061 170.066 373.669 170.066 373.157C170.066 372.645 170.458 372.254 170.97 372.254H175.488C176 372.254 176.391 372.645 176.391 373.157C176.391 373.669 175.97 374.061 175.488 374.061ZM166.452 374.061H161.934C161.422 374.061 161.03 373.669 161.03 373.157C161.03 372.645 161.422 372.254 161.934 372.254H166.452C166.964 372.254 167.355 372.645 167.355 373.157C167.355 373.669 166.934 374.061 166.452 374.061Z" fill="white"/>
<path d="M388.165 235.807C390.364 241.558 376.449 251.767 357.323 259.025C338.196 266.282 321.058 267.396 318.859 261.615C316.661 255.833 330.245 245.413 349.401 238.155C368.557 230.898 385.967 230.025 388.165 235.807Z" fill="#FE5244"/>
<path d="M398.858 422.635V425.828C397.864 425.587 396.81 425.466 395.756 425.466H391.87C386.117 425.466 381.208 421.792 379.34 416.673L390.364 415.197C394.852 414.595 398.858 418.088 398.858 422.635Z" fill="#73325A"/>
<path d="M409.039 438.747V463.26C409.039 468.981 404.4 473.619 398.677 473.619H387.141C384.28 473.619 381.69 472.475 379.822 470.577C377.955 468.71 376.78 466.121 376.78 463.26H384.28C386.75 463.26 388.738 461.272 388.738 458.803V452.388C388.738 449.919 386.75 447.932 384.28 447.932H345.937C330.967 447.932 318.829 435.795 318.829 420.829V258.874C320.636 252.942 332.955 244.359 349.371 238.155C360.575 233.909 371.208 231.862 378.527 232.042V412.186C378.527 419.534 384.491 425.496 391.84 425.496H395.725C403.075 425.466 409.039 431.399 409.039 438.747Z" fill="#A0505A"/>
<path d="M378.527 232.012V248.394C373.075 252.068 365.696 255.832 357.292 258.994C338.136 266.252 321.028 267.366 318.829 261.584V258.844C320.636 252.911 332.955 244.329 349.371 238.125C360.606 233.879 371.208 231.831 378.527 232.012Z" fill="#73325A"/>
<path d="M328.437 110.019L317.112 139.2L258.74 149.649L273.98 110.019H328.437Z" fill="#A0505A"/>
<path d="M328.438 110.019L322.323 125.799L264.433 134.833L273.981 110.019H328.438Z" fill="#73325A"/>
<path d="M362.654 50.6337C362.654 54.5787 355.817 58.9453 347.925 62.6192C337.172 67.6483 324.492 71.4728 324.492 71.4728L315.938 87.5839C327.564 93.7574 332.112 104.839 333.919 112.579C335.064 117.518 335.064 121.041 335.064 121.041H253.077C253.077 121.041 231.541 51.2963 283.438 34.6129C315.185 24.4042 362.654 41.2682 362.654 50.6337Z" fill="white" stroke="#FFCF2D" stroke-width="6" stroke-miterlimit="10" stroke-linecap="round"/>
<path d="M275.848 44.5506C287.11 44.5506 296.24 35.4229 296.24 24.1632C296.24 12.9036 287.11 3.77588 275.848 3.77588C264.586 3.77588 255.457 12.9036 255.457 24.1632C255.457 35.4229 264.586 44.5506 275.848 44.5506Z" fill="white" stroke="#FFCF2D" stroke-width="6" stroke-miterlimit="10" stroke-linecap="round"/>
<path d="M333.889 112.579C332.203 105.261 327.986 94.8416 317.594 88.5478H314.914C312.444 88.5478 310.185 87.554 308.558 85.9278C306.932 84.3016 305.938 82.0431 305.938 79.5737C305.938 74.6048 309.944 70.5997 314.914 70.5997L326.269 70.8406H326.57C326.781 70.7803 326.992 70.69 327.233 70.6298C330.305 69.9672 340.034 67.6183 348.106 63.583L349.04 69.1541L352.052 87.0119C354.1 99.2684 345.696 110.561 333.889 112.579Z" fill="#A0505A"/>
<path d="M349.009 69.1239C339.13 73.1291 326.239 70.8103 326.239 70.8103C326.239 70.8103 338.377 68.4011 348.076 63.5527L349.009 69.1239Z" fill="#73325A"/>
<path d="M321.901 81.29C321.901 77.857 319.13 75.0864 315.697 75.0864" stroke="#73325A" stroke-width="5" stroke-miterlimit="10" stroke-linecap="round"/>
<path d="M353.799 463.26L388.768 754.224" stroke="#66B0F0" stroke-width="6" stroke-miterlimit="10"/>
<path d="M202.205 463.26L167.266 754.224" stroke="#66B0F0" stroke-width="6" stroke-miterlimit="10"/>
<path d="M179.253 654.305H376.75" stroke="#66B0F0" stroke-width="6" stroke-miterlimit="10"/>
<path d="M171.814 463.26H384.19C386.72 463.26 388.768 461.212 388.768 458.682V452.479C388.768 449.949 386.72 447.901 384.19 447.901H171.814C169.283 447.901 167.235 449.949 167.235 452.479V458.682C167.265 461.212 169.314 463.26 171.814 463.26Z" fill="white" stroke="#FFCF2D" stroke-width="6" stroke-miterlimit="10"/>
</svg>
