<svg width="1128" height="783" viewBox="0 0 1128 783" fill="none" xmlns="http://www.w3.org/2000/svg">
<path d="M758.679 3.34326H373.932V366.933H758.679V3.34326Z" stroke="#66B0F0" stroke-width="6" stroke-miterlimit="10"/>
<path d="M566.305 3.34326H373.932V366.933H566.305V3.34326Z" stroke="#66B0F0" stroke-width="6" stroke-miterlimit="10"/>
<path d="M758.679 3.34326H566.305V366.933H758.679V3.34326Z" stroke="#66B0F0" stroke-width="6" stroke-miterlimit="10"/>
<path d="M723.179 38.5151H605.87V155.813H723.179V38.5151Z" stroke="#66B0F0" stroke-width="6" stroke-miterlimit="10"/>
<path d="M682.495 94.9255L668.855 105.236" stroke="#66B0F0" stroke-width="6" stroke-miterlimit="10" stroke-linecap="round"/>
<path d="M649.854 119.611L605.87 152.868V128.418L723.15 41.4609V64.2019L691.54 88.0916" stroke="#66B0F0" stroke-width="6" stroke-miterlimit="10" stroke-linecap="round"/>
<path d="M373.932 3.34326H566.305V31.4748L373.932 3.34326Z" fill="#66B0F0"/>
<path d="M614.355 235.731C613.029 235.731 611.792 235.024 611.114 233.845L582.98 184.652C581.566 182.178 583.363 179.055 586.22 179.055C587.546 179.055 588.783 179.762 589.461 180.94L617.595 230.134C619.009 232.638 617.212 235.731 614.355 235.731Z" stroke="#66B0F0" stroke-width="6" stroke-miterlimit="10"/>
<path d="M526.269 38.5151H408.959V155.813H526.269V38.5151Z" stroke="#66B0F0" stroke-width="6" stroke-miterlimit="10"/>
<path d="M408.959 128.418L526.24 41.4609" stroke="#66B0F0" stroke-width="6" stroke-miterlimit="10" stroke-linecap="round"/>
<path d="M517.755 235.731C519.081 235.731 520.318 235.024 520.996 233.845L549.13 184.652C550.544 182.178 548.747 179.055 545.889 179.055C544.564 179.055 543.326 179.762 542.649 180.94L514.514 230.134C513.1 232.638 514.897 235.731 517.755 235.731Z" stroke="#66B0F0" stroke-width="6" stroke-miterlimit="10"/>
<path d="M1059.58 720.86L68.5195 776.829V697.206H1059.58V720.86Z" fill="#D0F0E4"/>
<path d="M1014.42 635.493L119.957 691.462V611.839H1014.42V635.493Z" fill="#D0F0E4"/>
<path d="M956.827 550.421L168.242 606.39V526.767H956.827V550.421Z" fill="#D0F0E4"/>
<path d="M911.429 465.938L222.036 521.907V442.284H911.429V465.938Z" fill="#D0F0E4"/>
<path d="M68.5195 697.206H1059.58V773.883" stroke="#66B0F0" stroke-width="6" stroke-miterlimit="10"/>
<path d="M119.957 611.545H1014.42V691.492" stroke="#66B0F0" stroke-width="6" stroke-miterlimit="10"/>
<path d="M168.242 526.473H956.827V606.39" stroke="#66B0F0" stroke-width="6" stroke-miterlimit="10"/>
<path d="M222.33 441.99H911.429V521.907" stroke="#66B0F0" stroke-width="6" stroke-miterlimit="10"/>
<path d="M849.563 386.109L283.931 435.156V365.372H849.563V386.109Z" fill="#D0F0E4"/>
<path d="M284.167 365.106H849.563V435.155" stroke="#66B0F0" stroke-width="6" stroke-miterlimit="10"/>
<path d="M222.095 525.206V341.334" stroke="#66B0F0" stroke-width="6" stroke-miterlimit="10"/>
<path d="M374.314 216.583L28.3069 499.991C16.1988 512.098 9.39355 528.505 9.39355 545.62C9.39355 581.263 38.2938 611.633 73.9404 611.633" stroke="#66B0F0" stroke-width="6" stroke-miterlimit="10"/>
<path d="M119.073 691.492V425.464" stroke="#66B0F0" stroke-width="6" stroke-miterlimit="10"/>
<path d="M911.429 525.795V341.334" stroke="#66B0F0" stroke-width="6" stroke-miterlimit="10"/>
<path d="M759.209 216.583L1105.25 499.991C1117.35 512.098 1124.16 528.505 1124.16 545.62C1124.16 581.263 1095.26 611.633 1059.61 611.633" stroke="#66B0F0" stroke-width="6" stroke-miterlimit="10"/>
<path d="M1014.48 691.492V425.464" stroke="#66B0F0" stroke-width="6" stroke-miterlimit="10"/>
<path d="M967.492 778.449C967.492 778.449 1006.06 709.254 982.634 708.871C971.705 708.694 960.51 746.135 964.752 778.449H967.492Z" fill="#3FB1B5"/>
<path d="M965.812 778.066C965.812 778.066 980.13 713.29 1014.72 723.747C1049.3 734.204 990.264 778.066 990.264 778.066" stroke="#FFCF2D" stroke-width="6" stroke-miterlimit="10" stroke-linecap="round"/>
<path d="M919.531 779.185C907.541 778.066 900.765 756.621 914.965 749.463C935.38 739.182 941.773 760.657 937.737 761.364C933.701 762.1 928.015 734.941 945.633 735.677C963.25 736.413 963.898 778.066 963.898 778.066" stroke="#FFCF2D" stroke-width="6" stroke-miterlimit="10" stroke-linecap="round"/>
<path d="M980.307 778.066C980.307 778.066 998.72 733.35 1016.66 724.425" stroke="#FFCF2D" stroke-width="6" stroke-miterlimit="10" stroke-linecap="round"/>
<path d="M960.687 754.854C960.687 754.854 956.356 730.846 956.179 715.057" stroke="#FFCF2D" stroke-width="6" stroke-miterlimit="10"/>
<path d="M965.931 725.75C965.076 727.871 958.477 733.144 958.477 733.144C958.477 733.144 957.417 724.749 958.271 722.628C959.126 720.507 961.541 719.505 963.633 720.36C965.754 721.214 966.785 723.629 965.931 725.75Z" stroke="#FFCF2D" stroke-width="6" stroke-miterlimit="10"/>
<path d="M963.721 708.871C962.867 710.992 956.267 716.265 956.267 716.265C956.267 716.265 955.207 707.87 956.061 705.749C956.916 703.628 959.331 702.626 961.423 703.481C963.544 704.364 964.575 706.75 963.721 708.871Z" stroke="#FFCF2D" stroke-width="6" stroke-miterlimit="10"/>
<path d="M948.52 727.606C949.757 729.521 957.24 733.439 957.24 733.439C957.24 733.439 956.68 725.014 955.442 723.099C954.205 721.184 951.642 720.654 949.727 721.891C947.813 723.158 947.282 725.691 948.52 727.606Z" stroke="#FFCF2D" stroke-width="6" stroke-miterlimit="10"/>
<path d="M110.088 779.657C110.088 779.657 86.4018 758.271 86.8732 742.924C87.4034 725.367 104.196 733.851 105.079 727.518C105.993 721.214 87.3445 678.088 113.299 678.412C139.253 678.736 127.174 720.094 134.215 723.924C141.256 727.724 152.922 723.187 149.77 739.919C146.618 756.68 120.399 779.45 120.399 779.45L110.088 779.657Z" fill="#3FB1B5"/>
<path d="M38.9714 779.126C23.6228 779.126 11.8093 751.083 35.4657 743.66C59.1221 736.237 61.7145 758.595 56.559 759.449C51.4035 760.303 48.8405 716.5 91.4102 722.451C137.869 728.931 109.469 779.126 109.469 779.126C109.469 779.126 136.867 733.055 111.679 679.09" stroke="#FFCF2D" stroke-width="6" stroke-miterlimit="10" stroke-linecap="round"/>
<path d="M141.64 779.126C141.64 779.126 165.679 728.814 188.746 744.838C211.813 760.863 157.666 779.126 157.666 779.126" stroke="#FFCF2D" stroke-width="6" stroke-miterlimit="10" stroke-linecap="round"/>
<path d="M150.301 778.685C150.301 778.685 173.663 747.46 189.07 745.162" stroke="#FFCF2D" stroke-width="6" stroke-miterlimit="10" stroke-linecap="round"/>
<path d="M120.812 778.832C120.812 778.832 133.45 749.404 144.645 731.965" stroke="#FFCF2D" stroke-width="6" stroke-miterlimit="10" stroke-linecap="round"/>
<path d="M147.62 750.7C145.146 752.409 134.098 753.44 134.098 753.44C134.098 753.44 139.018 743.483 141.463 741.775C143.938 740.066 147.296 740.685 149.005 743.159C150.714 745.634 150.095 749.021 147.62 750.7Z" stroke="#FFCF2D" stroke-width="6" stroke-miterlimit="10"/>
<path d="M157.401 730.61C154.926 732.319 143.878 733.35 143.878 733.35C143.878 733.35 148.798 723.393 151.243 721.685C153.718 719.976 157.077 720.595 158.785 723.069C160.494 725.544 159.875 728.931 157.401 730.61Z" stroke="#FFCF2D" stroke-width="6" stroke-miterlimit="10"/>
<path d="M161.496 713.555C159.905 716.088 150.154 721.39 150.154 721.39C150.154 721.39 150.714 710.314 152.334 707.781C153.925 705.248 157.283 704.482 159.817 706.073C162.35 707.663 163.087 711.021 161.496 713.555Z" stroke="#FFCF2D" stroke-width="6" stroke-miterlimit="10"/>
<path d="M127.175 740.154C127.145 743.159 132.507 752.88 132.507 752.88C132.507 752.88 137.987 743.218 138.016 740.243C138.046 737.238 135.63 734.793 132.625 734.793C129.65 734.764 127.204 737.15 127.175 740.154Z" stroke="#FFCF2D" stroke-width="6" stroke-miterlimit="10"/>
<path d="M138.134 720.3C138.104 723.305 143.466 733.026 143.466 733.026C143.466 733.026 148.946 723.364 148.975 720.389C149.005 717.384 146.589 714.939 143.584 714.939C140.579 714.939 138.163 717.325 138.134 720.3Z" stroke="#FFCF2D" stroke-width="6" stroke-miterlimit="10"/>
<path d="M845.056 779.185H1093.34" stroke="#66B0F0" stroke-width="6" stroke-miterlimit="10"/>
<path d="M0.761719 779.185H599.801" stroke="#66B0F0" stroke-width="6" stroke-miterlimit="10"/>
<path d="M545.3 213.638C545.3 215.464 545.094 217.261 544.711 219.028C544.623 219.382 544.534 219.735 544.446 220.089C543.503 223.624 541.795 226.982 539.349 229.839C539.32 229.869 539.291 229.928 539.261 229.957C538.996 230.281 538.701 230.576 538.407 230.9C538.348 230.988 538.259 231.047 538.2 231.106C537.228 232.107 536.138 233.05 534.96 233.904C532.898 235.407 530.718 236.526 528.449 237.321C528.096 237.439 527.742 237.557 527.389 237.675C524.207 238.617 520.878 238.912 517.637 238.558C517.284 238.529 516.93 238.47 516.577 238.411C513.13 237.881 509.801 236.673 506.826 234.759C506.472 234.523 506.119 234.287 505.765 234.052C504.469 233.138 503.261 232.078 502.141 230.9C501.817 230.546 501.493 230.222 501.199 229.839C500.58 229.103 499.961 228.307 499.431 227.483L497.575 224.684L499.225 229.839L499.549 230.9L502.642 240.65L502.966 241.71L505.765 250.548L506.06 251.461L506.384 252.521L506.826 253.876L509.477 262.271L509.801 263.332L512.894 273.082L513.218 274.143L516.312 283.893L516.547 284.659L516.636 284.953L517.608 287.988L517.785 288.547C517.755 288.429 517.696 288.312 517.608 288.194C517.402 287.899 517.048 287.634 516.547 287.398C514.868 286.574 511.51 285.955 506.796 285.602C506.443 285.572 506.089 285.543 505.736 285.513C502.907 285.336 499.667 285.219 495.984 285.16C495.631 285.16 495.277 285.16 494.924 285.16C491.919 285.13 488.678 285.16 485.173 285.248C484.819 285.248 484.466 285.278 484.112 285.278C481.019 285.366 477.778 285.484 474.361 285.631C474.007 285.66 473.654 285.66 473.3 285.69C470.177 285.837 466.937 286.014 463.549 286.22C463.195 286.25 462.842 286.25 462.488 286.279C459.336 286.485 456.096 286.691 452.737 286.957C452.384 286.986 452.03 287.015 451.676 287.045C448.495 287.281 445.254 287.546 441.925 287.84C441.601 287.87 441.277 287.899 440.953 287.929C440.924 287.929 440.894 287.929 440.865 287.929C437.565 288.223 434.295 288.518 431.113 288.842C430.76 288.871 430.406 288.901 430.053 288.96C426.724 289.284 423.454 289.637 420.302 290.02C419.948 290.05 419.595 290.108 419.241 290.138C415.883 290.521 412.613 290.933 409.49 291.375C409.136 291.434 408.783 291.463 408.429 291.522C405.012 291.994 401.771 292.465 398.678 292.936C398.324 292.995 397.971 293.054 397.617 293.113C394.259 293.643 391.136 294.203 388.22 294.733C388.102 294.763 387.984 294.792 387.866 294.792C387.513 294.851 387.159 294.939 386.806 294.998C385.48 295.263 384.213 295.529 383.005 295.794C380.825 296.265 378.851 296.736 377.054 297.208C376.701 297.296 376.347 297.384 375.994 297.502C369.807 299.181 366.301 300.831 366.301 302.304V260.003H333.807C333.454 260.003 333.1 260.003 332.747 259.974C329.329 259.856 326.059 259.208 322.995 258.147C322.642 258.03 322.288 257.882 321.935 257.765C318.724 256.498 315.748 254.76 313.097 252.61C312.802 252.374 312.478 252.109 312.183 251.844C312.066 251.755 311.977 251.667 311.859 251.549C311.624 251.343 311.359 251.107 311.123 250.872C310.917 250.695 310.74 250.489 310.534 250.282C308.059 247.808 305.967 244.951 304.377 241.769C304.2 241.416 304.023 241.062 303.876 240.709C302.462 237.675 301.519 234.405 301.106 230.959C301.048 230.605 301.018 230.252 300.989 229.898C300.9 228.897 300.841 227.895 300.841 226.864C300.841 224.596 301.077 222.328 301.519 220.148C301.578 219.794 301.666 219.441 301.755 219.087C302.579 215.641 303.964 212.371 305.85 209.337C306.026 209.072 306.203 208.777 306.38 208.512L306.527 208.277L311.093 201.413L312.154 199.822L313.038 198.526L313.745 197.466L320.255 187.715L320.963 186.655L321.935 185.212L322.995 183.621L327.473 176.905L328.18 175.844L332.747 168.981L333.807 167.39L334.661 166.094L335.368 165.033L341.879 155.283L342.586 154.223L342.763 153.958C343.028 153.575 343.293 153.221 343.558 152.838C343.912 152.367 344.265 151.925 344.619 151.454C346.681 148.861 348.979 146.534 351.513 144.472C351.954 144.119 352.396 143.765 352.838 143.412C353.339 143.029 353.869 142.646 354.37 142.293C354.724 142.057 355.077 141.821 355.431 141.586C358.465 139.553 361.765 137.903 365.182 136.637C365.535 136.519 365.889 136.372 366.243 136.254C369.395 135.164 372.665 134.427 375.994 134.045C376.347 134.015 376.701 133.956 377.054 133.927C378.527 133.779 380.03 133.72 381.532 133.72H464.109L464.197 133.691L466.907 132.631L473.271 130.156L474.331 129.744L484.082 125.944L485.143 125.531L492.007 122.88L494.718 121.82L494.894 121.731L495.955 121.319L497.781 120.612L498.43 121.82L499.019 122.88L504.351 132.631L504.94 133.691L505.706 135.105L506.767 137.049L510.272 143.441L510.862 144.502L516.194 154.252L516.518 154.871L516.754 155.313L517.578 156.785L522.086 165.063L522.675 166.123L527.33 174.636L528.007 175.874L528.39 176.551L528.597 176.934L533.929 186.684L534.518 187.745L538.142 194.373L539.202 196.317L539.85 197.495L540.439 198.556L542.178 201.737C543.327 203.858 544.151 206.067 544.652 208.306C544.741 208.659 544.8 209.013 544.858 209.366C545.183 210.721 545.3 212.194 545.3 213.638Z" fill="#FE5244"/>
<g opacity="0.2">
<g opacity="0.2">
<g opacity="0.2">
<path opacity="0.2" d="M312.301 199.793V251.755C312.183 251.667 312.095 251.579 311.977 251.461C311.742 251.255 311.476 251.019 311.241 250.783V201.384L312.301 199.793Z" fill="white"/>
</g>
<g opacity="0.2">
<path opacity="0.2" d="M333.925 167.361V259.915C333.571 259.915 333.218 259.915 332.864 259.885V168.951L333.925 167.361Z" fill="white"/>
</g>
<g opacity="0.2">
<path opacity="0.2" d="M323.113 183.562V258.03C322.759 257.912 322.406 257.765 322.052 257.647V185.153L323.113 183.562Z" fill="white"/>
</g>
<g opacity="0.2">
<path opacity="0.2" d="M355.548 141.527V259.885H354.488V142.263C354.841 142.027 355.195 141.762 355.548 141.527Z" fill="white"/>
</g>
<g opacity="0.2">
<path opacity="0.2" d="M344.737 151.424V259.886H343.676V152.809C344.03 152.337 344.383 151.896 344.737 151.424Z" fill="white"/>
</g>
<g opacity="0.2">
<path opacity="0.2" d="M377.172 133.897V297.149C376.819 297.237 376.465 297.325 376.112 297.443V133.986C376.465 133.956 376.819 133.927 377.172 133.897Z" fill="white"/>
</g>
<g opacity="0.2">
<path opacity="0.2" d="M366.36 136.224V259.915H365.3V136.578C365.653 136.46 366.007 136.342 366.36 136.224Z" fill="white"/>
</g>
<g opacity="0.2">
<g opacity="0.2">
<path opacity="0.2" d="M387.954 133.632V294.733C387.601 294.792 387.247 294.88 386.894 294.939V133.632H387.954Z" fill="white"/>
</g>
</g>
<g opacity="0.2">
<path opacity="0.2" d="M409.578 133.632V291.316C409.225 291.375 408.871 291.405 408.518 291.463V133.632H409.578Z" fill="white"/>
</g>
<g opacity="0.2">
<path opacity="0.2" d="M398.766 133.632V292.877C398.413 292.936 398.059 292.995 397.706 293.054V133.632H398.766Z" fill="white"/>
</g>
<g opacity="0.2">
<path opacity="0.2" d="M431.202 133.632V288.812C430.848 288.842 430.495 288.871 430.141 288.93V133.632H431.202Z" fill="white"/>
</g>
<g opacity="0.2">
<path opacity="0.2" d="M420.39 133.632V289.961C420.037 289.991 419.683 290.049 419.33 290.079V133.632H420.39Z" fill="white"/>
</g>
<g opacity="0.2">
<path opacity="0.2" d="M452.826 133.632V286.927C452.472 286.956 452.119 286.986 451.765 287.015V133.632H452.826Z" fill="white"/>
</g>
<g opacity="0.2">
<path opacity="0.2" d="M442.014 133.632V287.811C441.69 287.84 441.365 287.87 441.041 287.899C441.012 287.899 440.983 287.899 440.953 287.899V133.632H442.014Z" fill="white"/>
</g>
<g opacity="0.2">
<g opacity="0.2">
<path opacity="0.2" d="M463.608 133.632V286.22C463.254 286.25 462.901 286.25 462.547 286.279V133.632H463.608Z" fill="white"/>
</g>
</g>
<g opacity="0.2">
<path opacity="0.2" d="M485.231 125.502V285.278C484.878 285.278 484.524 285.307 484.171 285.307V125.914L485.231 125.502Z" fill="white"/>
</g>
<g opacity="0.2">
<path opacity="0.2" d="M474.419 129.685V285.631C474.066 285.66 473.712 285.66 473.359 285.69V130.097L474.419 129.685Z" fill="white"/>
</g>
<g opacity="0.2">
<path opacity="0.2" d="M506.855 136.99V234.759C506.502 234.523 506.148 234.287 505.794 234.052V135.076L506.855 136.99Z" fill="white"/>
<path opacity="0.2" d="M506.855 253.876V285.602C506.502 285.572 506.148 285.543 505.794 285.513V250.518L506.089 251.431L506.413 252.492L506.855 253.876Z" fill="white"/>
</g>
<g opacity="0.2">
<path opacity="0.2" d="M496.044 121.142V121.29L494.983 121.702V121.142H496.044Z" fill="white"/>
<path opacity="0.2" d="M496.044 121.29V285.189C495.69 285.189 495.336 285.189 494.983 285.189V121.702L496.044 121.29Z" fill="white"/>
</g>
<g opacity="0.2">
<path opacity="0.2" d="M528.479 176.492V237.321C528.125 237.439 527.772 237.557 527.418 237.675V174.578L528.096 175.815L528.479 176.492Z" fill="white"/>
</g>
<g opacity="0.2">
<path opacity="0.2" d="M517.667 287.988V288.223C517.461 287.929 517.107 287.664 516.606 287.428V284.659L516.695 284.954L517.667 287.988Z" fill="white"/>
<path opacity="0.2" d="M517.667 156.726V238.529C517.314 238.5 516.96 238.441 516.606 238.382V154.812L516.842 155.254L517.667 156.726Z" fill="white"/>
</g>
<g opacity="0.2">
<g opacity="0.2">
<path opacity="0.2" d="M539.261 196.229V229.957C538.996 230.281 538.701 230.576 538.407 230.9C538.348 230.988 538.26 231.047 538.201 231.106V194.314L539.261 196.229Z" fill="white"/>
</g>
</g>
</g>
<g opacity="0.2">
<g opacity="0.2">
<path opacity="0.2" d="M388.338 294.674C388.22 294.704 388.102 294.733 387.984 294.733C387.63 294.792 387.277 294.88 386.923 294.939C385.598 295.205 384.331 295.47 383.123 295.735H366.36V294.674H388.338V294.674Z" fill="white"/>
</g>
<g opacity="0.2">
<path opacity="0.2" d="M513.277 274.113H366.36V273.053H512.924L513.277 274.113Z" fill="white"/>
</g>
<g opacity="0.2">
<path opacity="0.2" d="M516.695 284.924H366.36V283.864H516.371L516.606 284.629L516.695 284.924Z" fill="white"/>
</g>
<g opacity="0.2">
<g opacity="0.2">
<path opacity="0.2" d="M509.831 263.303H366.36V262.271H509.507L509.831 263.303Z" fill="white"/>
</g>
</g>
<g opacity="0.2">
<path opacity="0.2" d="M502.996 241.71H304.524C304.347 241.357 304.17 241.003 304.023 240.65H502.672L502.996 241.71Z" fill="white"/>
</g>
<g opacity="0.2">
<path opacity="0.2" d="M506.413 252.521H313.214C312.92 252.285 312.596 252.02 312.301 251.755C312.183 251.667 312.095 251.579 311.977 251.461H506.06L506.413 252.521Z" fill="white"/>
</g>
<g opacity="0.2">
<path opacity="0.2" d="M544.741 219.029C544.652 219.382 544.564 219.736 544.475 220.089H301.666C301.725 219.736 301.813 219.382 301.902 219.029H544.741Z" fill="white"/>
</g>
<g opacity="0.2">
<path opacity="0.2" d="M499.578 230.9H301.224C301.165 230.546 301.136 230.193 301.106 229.839H499.225L499.578 230.9Z" fill="white"/>
<path opacity="0.2" d="M539.379 229.839C539.349 229.869 539.32 229.928 539.29 229.957C539.025 230.281 538.731 230.576 538.436 230.9H502.171C501.847 230.546 501.523 230.222 501.228 229.839H539.379V229.839Z" fill="white"/>
</g>
<g opacity="0.2">
<path opacity="0.2" d="M540.498 198.467H313.185L313.892 197.407H539.909L540.498 198.467Z" fill="white"/>
</g>
<g opacity="0.2">
<path opacity="0.2" d="M544.917 209.278H305.997C306.173 209.013 306.35 208.719 306.527 208.453L306.674 208.218H544.711C544.799 208.571 544.858 208.925 544.917 209.278Z" fill="white"/>
</g>
<g opacity="0.2">
<g opacity="0.2">
<path opacity="0.2" d="M534.577 187.657H320.403L321.08 186.626H534.017L534.577 187.657Z" fill="white"/>
</g>
</g>
<g opacity="0.2">
<path opacity="0.2" d="M522.764 166.065H334.779L335.486 165.004H522.175L522.764 166.065Z" fill="white"/>
</g>
<g opacity="0.2">
<path opacity="0.2" d="M528.685 176.875H327.591L328.298 175.815H528.096L528.479 176.492L528.685 176.875Z" fill="white"/>
</g>
<g opacity="0.2">
<path opacity="0.2" d="M510.921 144.443H351.601C352.043 144.089 352.485 143.736 352.927 143.383H510.332L510.921 144.443Z" fill="white"/>
</g>
<g opacity="0.2">
<path opacity="0.2" d="M516.842 155.254H341.997L342.704 154.193H516.253L516.607 154.812L516.842 155.254Z" fill="white"/>
</g>
<g opacity="0.2">
<path opacity="0.2" d="M499.107 122.821H492.096L494.806 121.761H498.518L499.107 122.821Z" fill="white"/>
</g>
<g opacity="0.2">
<path opacity="0.2" d="M505.029 133.632H464.315L467.025 132.572H504.44L505.029 133.632Z" fill="white"/>
</g>
</g>
</g>
<path d="M443.634 309.314C393.788 313.173 366.449 308.46 366.419 302.215C366.419 297.738 399.326 291.522 441.042 287.899C485.084 284.099 516.489 284.276 517.844 288.547C519.729 294.497 495.248 305.308 443.634 309.314Z" fill="#E57281"/>
<path d="M441.307 251.991L458.276 286.544" stroke="white" stroke-width="6" stroke-miterlimit="10"/>
<path d="M435.68 265.482C437.128 265.482 438.302 264.309 438.302 262.861C438.302 261.413 437.128 260.239 435.68 260.239C434.231 260.239 433.058 261.413 433.058 262.861C433.058 264.309 434.231 265.482 435.68 265.482Z" stroke="white" stroke-width="5" stroke-miterlimit="10"/>
<path d="M464.227 133.662L501.228 232.549" stroke="white" stroke-width="5" stroke-miterlimit="10"/>
<path d="M301.106 221.709C308.589 217.379 319.372 222.033 325.175 232.107C330.979 242.152 329.624 253.817 322.141 258.147" stroke="white" stroke-width="5" stroke-miterlimit="10" stroke-linecap="round"/>
<path d="M544.387 220.383C542.914 225.656 539.703 230.487 534.989 233.904C527.978 239 519.228 239.884 511.716 237.145C510.037 230.546 514.927 222.652 523.471 218.675C531.366 215.022 539.909 215.906 544.387 220.383Z" stroke="white" stroke-width="5" stroke-miterlimit="10"/>
<path d="M441.307 287.222L440.953 133.632" stroke="white" stroke-width="6" stroke-miterlimit="10"/>
<path d="M449.938 168.303C451.386 168.303 452.56 167.129 452.56 165.681C452.56 164.234 451.386 163.06 449.938 163.06C448.49 163.06 447.316 164.234 447.316 165.681C447.316 167.129 448.49 168.303 449.938 168.303Z" stroke="white" stroke-width="5" stroke-miterlimit="10"/>
<path d="M449.938 200.647C451.386 200.647 452.56 199.473 452.56 198.025C452.56 196.578 451.386 195.404 449.938 195.404C448.49 195.404 447.316 196.578 447.316 198.025C447.316 199.473 448.49 200.647 449.938 200.647Z" stroke="white" stroke-width="5" stroke-miterlimit="10"/>
<path d="M449.938 232.991C451.386 232.991 452.56 231.817 452.56 230.369C452.56 228.921 451.386 227.748 449.938 227.748C448.49 227.748 447.316 228.921 447.316 230.369C447.316 231.817 448.49 232.991 449.938 232.991Z" stroke="white" stroke-width="5" stroke-miterlimit="10"/>
<path d="M402.92 133.131L441.189 155.077L461.575 132.866" stroke="white" stroke-width="5" stroke-miterlimit="10"/>
<path d="M530.364 526.944L462.252 526.973L466.819 512.392H530.069L530.364 526.944Z" fill="white" stroke="#FE5244" stroke-width="5" stroke-miterlimit="10"/>
<path d="M546.272 358.331C556.819 375.77 559.853 396.743 554.727 416.45L532.691 501.081L529.745 512.392H466.848L471.503 497.575L497.693 412.709L422.717 289.696C428.55 289.048 434.678 288.429 441.012 287.899C466.996 285.66 488.56 284.806 502.171 285.336L546.272 358.331Z" fill="white" stroke="#9A3B82" stroke-width="6" stroke-miterlimit="10" stroke-linecap="round"/>
<path d="M621.926 526.944L530.364 526.973L530.069 512.304L530.128 512.392L580.505 489.032C608.934 497.84 621.219 510.654 626.404 518.902C628.584 522.407 626.05 526.944 621.926 526.944Z" fill="white" stroke="#FE5244" stroke-width="5" stroke-miterlimit="10"/>
<path d="M580.505 489.032L530.128 512.392L396.203 329.11C391.784 323.071 388.337 316.472 385.922 309.491C384.39 305.073 383.27 300.507 382.593 295.852C396.174 292.877 417.179 289.961 441.041 287.899C447.051 287.369 452.796 286.927 458.275 286.573L470.236 306.369L580.505 489.032Z" fill="white" stroke="#9A3B82" stroke-width="6" stroke-miterlimit="10" stroke-linecap="round"/>
<path d="M432.999 305.544L551.251 501.463" stroke="#9A3B82" stroke-width="6" stroke-miterlimit="10" stroke-linecap="round"/>
<path d="M424.632 297.944C424.632 297.944 423.748 319.565 405.071 327.195" stroke="#9A3B82" stroke-width="6" stroke-miterlimit="10" stroke-linecap="round"/>
<path d="M502.201 285.336L508.976 296.589C501.169 300.065 488.295 303.659 470.207 306.339C462.341 307.518 453.474 308.519 443.605 309.285C438.626 309.668 433.883 309.963 429.375 310.198C410.992 311.111 396.38 310.699 385.892 309.491C384.361 305.073 383.241 300.507 382.563 295.853C382.563 295.853 411.994 290.256 442.397 287.781C472.799 285.307 502.201 285.336 502.201 285.336Z" fill="#9A3B82"/>
<path d="M365.624 302.48C365.624 298.003 397.235 291.463 441.042 287.634C485.084 283.775 517.284 284.276 518.639 288.547" stroke="white" stroke-width="5" stroke-miterlimit="10" stroke-linecap="round"/>
<path d="M444.076 133.662H404.511L409.961 104.941H444.076V133.662Z" fill="#FFCF2D"/>
<path d="M414.351 133.662H404.511L409.961 104.941H444.076V115.074L414.351 133.662Z" fill="#E57281"/>
<path d="M409.814 109.242C409.814 109.242 415.235 78.4294 415.942 76.6914C417.149 73.7457 442.102 64.2605 445.932 67.7659C449.762 71.2713 442.014 74.3938 446.168 74.0697C450.321 73.7457 462.842 64.4373 468.086 71.5364C471.267 75.8666 461.015 82.1115 454.446 83.3782C447.876 84.6448 429.405 94.5424 428.963 98.0478C428.521 101.553 422.6 108.564 409.814 109.242Z" fill="white" stroke="#FFCF2D" stroke-width="5" stroke-miterlimit="10"/>
<path d="M454.446 82.8479V108.947C454.446 113.012 451.147 116.282 447.111 116.282H437.772C432.911 116.282 428.993 112.334 428.993 107.474V104.911H424.456C422.983 104.911 421.657 104.322 420.685 103.35C419.713 102.378 419.124 101.052 419.124 99.5795C419.124 96.6338 421.51 94.2478 424.456 94.2478H429.582C430.937 90.006 434.502 86.7068 439.068 85.8231L454.446 82.8479Z" fill="#FFCF2D"/>
<path d="M427.932 100.728C427.932 98.3129 426.489 96.516 424.103 96.899" stroke="#E57281" stroke-width="4" stroke-miterlimit="10" stroke-linecap="round"/>
<path d="M444.842 92.3037C444.842 92.3037 447.906 90.5657 451.353 90.2417" stroke="#E57281" stroke-width="4" stroke-miterlimit="10" stroke-linecap="round"/>
<path d="M449.084 97.9889C449.735 97.9889 450.263 97.1316 450.263 96.0741C450.263 95.0167 449.735 94.1594 449.084 94.1594C448.433 94.1594 447.906 95.0167 447.906 96.0741C447.906 97.1316 448.433 97.9889 449.084 97.9889Z" fill="#E57281"/>
<path d="M426.341 227.512L419.388 230.163L418.77 230.399L413.997 232.196V219.058H356.285L369.13 197.23L369.66 196.317L375.994 193.931L377.231 193.46L382.092 191.604L383.035 191.25L390.518 188.393L391.755 187.922L396.528 186.125L397.706 185.683L402.832 183.739C402.95 183.68 403.068 183.65 403.185 183.621C403.568 183.503 403.951 183.415 404.334 183.385C404.806 183.326 405.277 183.326 405.719 183.356C407.133 183.474 408.459 184.092 409.49 185.064C410.197 185.712 410.757 186.537 411.11 187.48L426.341 227.512Z" fill="white"/>
<path d="M417.415 202.12L411.788 187.244C411.405 186.242 410.816 185.359 410.109 184.681C408.93 183.532 407.34 182.825 405.69 182.708C405.16 182.678 404.629 182.678 404.128 182.766C403.628 182.825 403.127 182.973 402.655 183.149L397.529 185.094L396.292 185.565L391.578 187.362L390.341 187.833L382.976 190.632L381.739 191.103L376.996 192.9L375.758 193.371L370.19 195.492L369.66 196.405L369.13 197.318L376.289 194.608L377.526 194.137L390.812 189.1L392.05 188.628L402.685 184.593L403.068 184.446C403.245 184.387 403.421 184.328 403.598 184.269C403.952 184.18 404.276 184.122 404.629 184.092C404.806 184.092 404.953 184.063 405.13 184.063C407.457 184.063 409.667 185.477 410.551 187.804L425.487 227.217L419.742 229.397L419.124 229.633L418.505 229.868L413.968 231.577V232.991L418.976 231.106L427.166 227.983L417.415 202.12Z" fill="#3FB1B5"/>
<path d="M426.341 227.512L419.359 230.163L403.215 187.598C402.479 185.683 403.451 183.533 405.366 182.796C407.281 182.06 409.431 183.032 410.168 184.947L426.341 227.512Z" fill="#3FB1B5"/>
<path d="M418.976 230.988L402.596 187.804C401.742 185.536 402.891 183.002 405.13 182.148C406.22 181.736 407.428 181.765 408.488 182.236C409.549 182.708 410.374 183.591 410.786 184.681L427.166 227.866L418.976 230.988ZM406.721 183.209C406.367 183.209 405.984 183.267 405.631 183.415C404.04 184.004 403.244 185.801 403.863 187.362L419.771 229.309L425.516 227.129L409.608 185.182C409.313 184.416 408.753 183.798 407.987 183.474C407.575 183.297 407.133 183.209 406.721 183.209Z" fill="#3FB1B5"/>
<path d="M394.937 192.075C394.23 192.075 393.464 191.81 392.757 191.309C391.755 190.602 390.96 189.512 390.459 188.216C389.958 186.92 389.84 185.536 390.135 184.357C390.429 183.091 391.166 182.177 392.168 181.795C394.2 181.029 396.616 182.649 397.676 185.477C397.794 185.83 397.647 186.213 397.294 186.331C396.94 186.449 396.557 186.301 396.439 185.948C395.644 183.886 393.906 182.56 392.609 183.032C392.02 183.267 391.578 183.827 391.402 184.652C391.195 185.565 391.284 186.655 391.696 187.715C392.109 188.776 392.757 189.66 393.523 190.219C394.23 190.72 394.937 190.867 395.526 190.632C395.879 190.514 396.262 190.661 396.38 191.015C396.498 191.368 396.351 191.751 395.997 191.869C395.644 192.016 395.29 192.075 394.937 192.075Z" fill="#3FB1B5"/>
<path d="M380.295 197.407C379.588 197.407 378.822 197.142 378.115 196.641C377.113 195.934 376.318 194.844 375.817 193.548C375.316 192.252 375.199 190.867 375.493 189.689C375.788 188.422 376.524 187.509 377.526 187.126C378.528 186.743 379.676 186.95 380.737 187.686C381.739 188.393 382.534 189.483 383.035 190.779C383.153 191.132 383.005 191.515 382.652 191.633C382.298 191.751 381.915 191.604 381.798 191.25C381.385 190.19 380.737 189.306 379.971 188.746C379.264 188.246 378.557 188.098 377.968 188.334C377.379 188.57 376.937 189.129 376.76 189.954C376.554 190.867 376.642 191.957 377.055 193.018C377.467 194.078 378.115 194.962 378.881 195.521C379.588 196.022 380.295 196.17 380.884 195.934C381.238 195.816 381.621 195.963 381.739 196.317C381.856 196.67 381.709 197.053 381.356 197.171C381.002 197.348 380.649 197.407 380.295 197.407Z" fill="#3FB1B5"/>
<path d="M414.056 259.885C418.189 259.885 421.539 250.746 421.539 239.472C421.539 228.197 418.189 219.058 414.056 219.058C409.923 219.058 406.573 228.197 406.573 239.472C406.573 250.746 409.923 259.885 414.056 259.885Z" fill="#73325A"/>
<path d="M440.924 223.241V245.334C440.924 247.101 440.01 248.751 438.508 249.693L429.081 255.29H409.284C407.604 251.549 406.544 245.864 406.544 239.531C406.544 234.965 407.104 230.723 408.017 227.335H426.989L424.073 219.617C423.218 217.408 425.28 215.169 427.549 215.788L437.153 218.321C439.392 218.91 440.924 220.914 440.924 223.241Z" fill="#FFCF2D"/>
<path d="M440.394 238.441C440.394 240.208 439.48 241.858 437.978 242.8L429.081 248.397" stroke="#73325A" stroke-width="4" stroke-miterlimit="10" stroke-linecap="round"/>
<path d="M440.394 230.281C440.394 232.048 439.48 233.698 437.978 234.641L429.081 240.238" stroke="#73325A" stroke-width="4" stroke-miterlimit="10" stroke-linecap="round"/>
<path d="M440.394 222.622C440.394 224.389 439.48 226.039 437.978 226.982L429.081 232.579" stroke="#73325A" stroke-width="4" stroke-miterlimit="10" stroke-linecap="round"/>
<path d="M431.408 224.507L426.96 227.276" stroke="#73325A" stroke-width="4" stroke-miterlimit="10" stroke-linecap="round"/>
<path d="M421.539 239.472C421.539 245.834 420.478 251.52 418.799 255.261H409.284C407.604 251.52 406.544 245.834 406.544 239.472C406.544 234.906 407.104 230.664 408.017 227.276H420.036C420.979 230.664 421.539 234.906 421.539 239.472Z" fill="#E57281"/>
<path d="M378.498 182.885L357.316 218.557" stroke="white" stroke-width="5" stroke-miterlimit="10"/>
<path d="M413.791 218.557C409.667 218.557 406.308 228.602 406.308 240.031C406.308 251.461 409.667 260.71 413.791 260.71H366.36" stroke="white" stroke-width="5" stroke-miterlimit="10" stroke-linecap="round"/>
<path d="M465.199 95.4262L493.127 130.097L477.277 146.181L442.19 118.786C441.159 117.784 441.984 115.133 444.105 111.834C445.637 109.418 447.847 106.679 450.528 103.969C453.209 101.259 455.919 98.9905 458.305 97.4292C461.546 95.3083 464.168 94.4541 465.199 95.4262Z" fill="#3FB1B5" stroke="#3FB1B5" stroke-width="5" stroke-miterlimit="10" stroke-linecap="round"/>
<path d="M488.154 141.158C492.526 136.719 494.727 131.797 493.07 130.165C491.412 128.532 486.524 130.807 482.151 135.246C477.779 139.685 475.578 144.607 477.235 146.239C478.893 147.872 483.781 145.597 488.154 141.158Z" fill="white" stroke="#3FB1B5" stroke-width="6" stroke-miterlimit="10"/>
<path d="M471.974 127.711V129.95C471.974 131.776 467.32 132.66 466.053 131.334L455.035 119.787C454.21 118.903 453.739 117.755 453.739 116.547V109.89C453.739 108.181 454.534 106.59 455.889 105.559L459.808 102.584C460.75 101.848 461.929 101.465 463.107 101.465H473.742C476.688 101.465 479.398 103.085 480.754 105.677L490.122 123.322H476.305C473.919 123.351 471.974 125.296 471.974 127.711Z" fill="#FFCF2D"/>
<path d="M489.916 123.352H476.629C474.213 123.352 472.24 125.325 472.24 127.741V129.979C472.24 131.806 468.115 132.689 466.848 131.364L454.623 118.638" stroke="#73325A" stroke-width="4" stroke-miterlimit="10" stroke-linecap="round"/>
<path d="M459.13 123.351C458.305 122.497 457.863 121.378 457.863 120.2V113.719C457.863 112.04 458.629 110.479 459.955 109.477L463.785 106.561C464.727 105.854 465.847 105.471 467.025 105.471H474.508" stroke="#73325A" stroke-width="4" stroke-miterlimit="10" stroke-linecap="round"/>
<path d="M463.372 127.829C462.547 126.975 462.105 125.855 462.105 124.677V118.196C462.105 116.517 462.871 114.956 464.197 113.955L468.027 111.038C468.97 110.331 470.089 109.948 471.268 109.948H477.955" stroke="#73325A" stroke-width="4" stroke-miterlimit="10" stroke-linecap="round"/>
<path d="M467.997 131.541C467.231 130.745 466.819 129.714 466.819 128.624V122.615C466.819 121.083 467.526 119.61 468.763 118.697L472.298 115.987C473.153 115.339 474.213 114.986 475.274 114.986H479.752" stroke="#73325A" stroke-width="4" stroke-miterlimit="10" stroke-linecap="round"/>
<path d="M695.959 352.292H811.383C834.715 352.292 856.516 363.781 869.714 382.987L922.595 460.872C926.955 467.205 923.007 475.836 915.318 475.836H856.457L832.948 445.112C830.179 441.224 824.051 442.932 823.668 447.704L818.925 505.558H693.042L682.437 446.732C681.789 442.137 675.838 440.723 673.157 444.523L651.563 472.33H581.183L636.096 385.314C649.088 364.753 671.684 352.292 695.959 352.292Z" fill="white" stroke="#3FB1B5" stroke-width="6" stroke-miterlimit="10" stroke-linecap="round"/>
<path d="M766.28 382.339L784.987 444.464H738.764L759.298 382.339H766.28Z" fill="#FE5244"/>
<g opacity="0.2">
<g opacity="0.2">
<g opacity="0.2">
<path opacity="0.2" d="M751.373 406.346V444.464H750.136V410.087L750.548 408.821L751.373 406.346Z" fill="white"/>
</g>
<g opacity="0.2">
<path opacity="0.2" d="M764.542 382.486H763.304V444.464H764.542V382.486Z" fill="white"/>
</g>
<g opacity="0.2">
<path opacity="0.2" d="M777.71 420.28V444.464H776.473V416.156L777.71 420.28Z" fill="white"/>
</g>
</g>
<g opacity="0.2">
<g opacity="0.2">
<path opacity="0.2" d="M782.571 436.422H741.416L741.828 435.155H782.188L782.571 436.422Z" fill="white"/>
</g>
<g opacity="0.2">
<path opacity="0.2" d="M778.594 423.255H745.775L746.188 421.988H778.211L778.594 423.255Z" fill="white"/>
</g>
<g opacity="0.2">
<path opacity="0.2" d="M774.646 410.087H750.136L750.548 408.821H774.263L774.646 410.087Z" fill="white"/>
</g>
<g opacity="0.2">
<path opacity="0.2" d="M770.669 396.92H754.496L754.908 395.653H770.286L770.669 396.92Z" fill="white"/>
</g>
<g opacity="0.2">
<path opacity="0.2" d="M766.692 383.753H758.856L759.268 382.486H766.339L766.692 383.753Z" fill="white"/>
</g>
</g>
</g>
<path d="M774.646 381.691L782.188 389.791L806.493 352.292H784.957L774.646 381.691Z" fill="white" stroke="#3FB1B5" stroke-width="6" stroke-miterlimit="10" stroke-linecap="round"/>
<path d="M752.286 381.691L744.715 389.791L718.378 352.292H741.946L752.286 381.691Z" fill="white" stroke="#3FB1B5" stroke-width="6" stroke-miterlimit="10" stroke-linecap="round"/>
<path d="M931.845 482.964C931.845 497.634 921.387 511.538 905.125 513.924L838.457 523.733L823.815 525.883V469.208L828.323 468.147L893.37 452.712C905.92 449.737 919 454.774 926.307 465.408C930.107 470.887 931.845 476.985 931.845 482.964Z" fill="#A0505A"/>
<path d="M838.457 523.733L823.815 525.883V469.208L828.323 468.147L838.457 523.733Z" fill="#73325A"/>
<path d="M823.815 540.377H683.674V456.276C683.674 449.737 688.977 444.464 695.487 444.464H811.972C818.512 444.464 823.786 449.766 823.786 456.276V540.377H823.815Z" fill="#FFCF2D"/>
<path d="M762.391 499.136H745.098C743.33 499.136 741.916 497.723 741.916 495.955V488.709C741.916 486.941 743.33 485.527 745.098 485.527H762.391C764.158 485.527 765.572 486.941 765.572 488.709V495.955C765.572 497.723 764.129 499.136 762.391 499.136Z" stroke="white" stroke-width="5" stroke-miterlimit="10"/>
<path d="M732.901 539.463L881.262 517.282C910.133 512.893 936.146 535.251 936.146 564.472C936.146 590.836 914.787 612.193 888.421 612.193H733.873L732.901 539.463Z" fill="#0096A0"/>
<path d="M712.839 625.183L623.546 642.416C612.174 644.831 600.744 635.346 600.243 623.092L598.918 590.512C598.24 574.016 614.06 564.089 628.967 571.159L712.839 625.183Z" fill="white" stroke="#FE5244" stroke-width="6" stroke-miterlimit="10"/>
<path d="M629.585 641.237C618.597 643.535 607.49 634.315 606.96 622.385L605.575 590.748C604.868 574.723 620.129 565.179 634.564 572.072" stroke="#FE5244" stroke-width="6" stroke-miterlimit="10"/>
<path d="M628.967 571.13L712.839 625.183L693.72 628.866L628.967 571.13Z" fill="#FE5244"/>
<path d="M661.284 594.813L650.237 616.817L639.307 590.954L626.669 619.999" stroke="#FE5244" stroke-width="6" stroke-miterlimit="10" stroke-linejoin="round"/>
<path d="M626.05 586.918L638.423 617.79L650.532 593.134L659.929 613.695" stroke="#FE5244" stroke-width="6" stroke-miterlimit="10" stroke-linejoin="round"/>
<path d="M782.188 584.798C777.239 580.733 762.921 589.982 750.195 605.447C737.468 620.912 731.163 636.76 736.113 640.825C735.376 640.383 642.371 582.058 584.659 542.262C569.988 532.158 562.24 515.956 562.24 499.549C562.24 488.119 566.011 476.602 573.818 466.969C593.379 442.844 629.615 441.224 651.268 463.493L782.188 584.798Z" fill="#3FB1B5"/>
<path d="M768.076 620.159C780.798 604.693 787.098 588.854 782.148 584.782C777.197 580.711 762.87 589.948 750.148 605.415C737.425 620.881 731.125 636.72 736.076 640.792C741.027 644.863 755.354 635.626 768.076 620.159Z" fill="#FE5244" stroke="white" stroke-width="6" stroke-miterlimit="10"/>
<path d="M823.137 635.7L806.581 663.802C798.185 678.03 779.213 678.295 770.522 664.273L742.653 619.38C745.039 615.433 747.985 611.309 751.373 607.185C757.501 599.732 764.011 593.723 769.668 589.953L814.034 606.832C824.876 610.985 829.354 625.125 823.137 635.7Z" fill="white" stroke="#FE5244" stroke-width="6" stroke-miterlimit="10"/>
<path d="M809.35 605.005C819.603 608.982 823.226 622.267 817.364 632.43L801.75 659.383C793.854 673.051 775.972 673.287 767.753 659.855" stroke="#FE5244" stroke-width="6" stroke-miterlimit="10"/>
<path d="M754.908 619.41L777.475 607.98L770.699 635.169L797.684 618.615" stroke="#FE5244" stroke-width="6" stroke-miterlimit="10" stroke-linejoin="round"/>
<path d="M779.272 646.068L786.283 614.402L763.275 625.743L766.81 604.711" stroke="#FE5244" stroke-width="6" stroke-miterlimit="10" stroke-linejoin="round"/>
<path d="M796.859 357.389C796.741 359.274 795.917 360.953 794.62 362.161C793.324 363.369 791.615 364.105 789.73 364.105H783.219L782.807 370.969C782.453 376.624 776.827 382.398 770.964 382.398H754.496C748.663 382.398 743.006 376.624 742.653 370.969L742.24 364.105H735.641C733.756 364.105 732.018 363.369 730.751 362.161C729.455 360.953 728.63 359.274 728.512 357.359C728.276 353.235 731.664 349.818 735.789 349.818H741.357L740.738 339.361C740.62 337.152 742.358 335.296 744.568 335.296H780.921C783.131 335.296 784.869 337.152 784.751 339.361L784.133 349.818H789.759C793.825 349.848 797.095 353.294 796.859 357.389Z" fill="#A0505A"/>
<path d="M784.103 349.818H790.025C790.025 349.818 795.681 329.287 790.231 324.014C784.781 318.741 751.314 306.605 740.502 314.175C732.607 319.713 736.908 349.818 736.908 349.818H741.268C741.268 349.818 758.856 337.21 761.625 338.3C764.394 339.39 753.671 344.693 755.822 345.724C763.864 349.582 778.329 335.59 781.658 335.59C784.987 335.59 784.103 349.818 784.103 349.818Z" fill="#73325A"/>
<path d="M776.649 354.914C776.649 354.914 772.79 351.792 767.841 353.824" stroke="#73325A" stroke-width="4" stroke-miterlimit="10" stroke-linecap="round"/>
<path d="M768.755 371.705C768.755 371.705 766.633 376.241 760.211 373.885" stroke="#73325A" stroke-width="4" stroke-miterlimit="10" stroke-linecap="round"/>
<path d="M747.308 353.883C747.308 353.883 755.115 352.145 757.471 356.976C758.915 359.951 758.208 370.35 759.887 370.467C761.566 370.585 764.1 370.467 764.1 370.467" stroke="#73325A" stroke-width="4" stroke-miterlimit="10" stroke-linecap="round"/>
<path d="M771.376 362.927C772.141 362.927 772.761 361.898 772.761 360.629C772.761 359.36 772.141 358.331 771.376 358.331C770.612 358.331 769.992 359.36 769.992 360.629C769.992 361.898 770.612 362.927 771.376 362.927Z" fill="#73325A"/>
<path d="M753.465 362.927C754.229 362.927 754.849 361.898 754.849 360.629C754.849 359.36 754.229 358.331 753.465 358.331C752.7 358.331 752.08 359.36 752.08 360.629C752.08 361.898 752.7 362.927 753.465 362.927Z" fill="#73325A"/>
<path d="M739.913 358.449C739.736 355.562 737.35 353.323 734.463 353.323" stroke="#73325A" stroke-width="4" stroke-miterlimit="10" stroke-linecap="round"/>
<path d="M785.134 358.596C785.311 355.533 787.845 353.147 790.879 353.147" stroke="#73325A" stroke-width="4" stroke-miterlimit="10" stroke-linecap="round"/>
<path d="M349.568 415.625C349.568 413.711 349.48 411.855 349.333 410.117C347.536 409.322 336.193 403.872 333.336 394.063C333.336 394.063 324.734 411.472 311.948 409.469C311.918 409.469 311.889 409.469 311.86 409.439C311.86 409.439 311.86 409.439 311.83 409.439L308.737 407.849C308.678 407.819 308.648 407.79 308.589 407.79C305.084 406.111 301.048 408.291 300.341 411.943C299.516 409.646 298.927 407.201 298.573 404.638C296.305 387.494 305.761 373.148 321.463 373.148C335.781 373.148 349.539 386.61 351.719 400.838C352.603 406.229 351.689 411.266 349.568 415.625Z" fill="#FFCF2D"/>
<path d="M302.874 417.688C301.49 425.818 271.146 414.477 264.4 428.056C260.01 436.923 266.786 447.616 247.725 448.529C225.011 449.59 215.791 462.02 219.473 490.829L281.516 457.926L298.838 442.49L306.38 419.308L302.874 417.688Z" fill="#FFCF2D"/>
<path d="M338.226 436.834V444.906L319.048 456.512L298.838 442.52L306.38 419.337L338.226 436.834Z" fill="#E57281"/>
<path d="M309.856 421.163L319.048 456.512L338.226 444.906V436.834L309.856 421.163Z" fill="#9A3B82"/>
<path d="M349.568 415.802C349.568 428.969 341.113 439.662 330.684 439.662C322.141 439.662 314.57 432.504 312.095 422.666L303.463 418.247C302.491 417.746 301.696 417.01 301.136 416.097C300.576 415.213 300.282 414.152 300.282 413.063C300.282 408.703 304.878 405.905 308.766 407.878L311.977 409.498V409.469C324.763 411.442 333.365 394.063 333.365 394.063C336.223 403.872 347.565 409.292 349.362 410.117C349.509 411.914 349.568 413.799 349.568 415.802Z" fill="#E57281"/>
<path d="M349.509 413.063C349.509 413.063 344.766 411.089 341.849 414.035C338.226 417.688 339.021 428.174 339.021 428.174" stroke="#9A3B82" stroke-width="4" stroke-miterlimit="10" stroke-linecap="round"/>
<path d="M332.481 412.444C332.481 412.444 328.563 412.149 324.674 414.211" stroke="#9A3B82" stroke-width="4" stroke-miterlimit="10" stroke-linecap="round"/>
<path d="M309.296 415.36C308.972 413.416 307.558 411.825 305.673 411.236" stroke="#9A3B82" stroke-width="4" stroke-miterlimit="10" stroke-linecap="round"/>
<path d="M331.194 419.543C331.526 418.318 331.197 417.163 330.459 416.963C329.72 416.763 328.853 417.594 328.521 418.818C328.189 420.043 328.518 421.198 329.256 421.398C329.994 421.598 330.862 420.768 331.194 419.543Z" fill="#9A3B82"/>
<path d="M345.629 420.131C345.961 418.907 345.632 417.752 344.894 417.552C344.156 417.351 343.288 418.182 342.956 419.407C342.624 420.632 342.953 421.787 343.691 421.987C344.429 422.187 345.297 421.356 345.629 420.131Z" fill="#9A3B82"/>
<path d="M337.578 431.709C337.578 431.709 332.481 433.064 331.008 428.763" stroke="#9A3B82" stroke-width="4" stroke-miterlimit="10" stroke-linecap="round"/>
<path d="M261.129 458.014H375.876C391.608 458.014 405.896 467.293 412.259 481.698L433.942 526.296L239.299 620.529L176.579 593.664L210.723 493.746C218.265 472.331 238.445 458.014 261.129 458.014Z" fill="white" stroke="#FE5244" stroke-width="5" stroke-miterlimit="10"/>
<path d="M314.923 477.691L305.408 472.065L318.606 457.042H319.549L332.923 471.064L323.643 476.69L363.473 558.758L287.85 595.726L314.923 477.691Z" fill="#FE5244"/>
<g opacity="0.2">
<g opacity="0.2">
<g opacity="0.2">
<path opacity="0.2" d="M299.133 546.533V579.937H297.955V551.658L299.133 546.533Z" fill="white"/>
</g>
<g opacity="0.2">
<path opacity="0.2" d="M311.536 492.361V579.908H310.357V497.487L311.094 494.305L311.359 493.127L311.536 492.361Z" fill="white"/>
<path opacity="0.2" d="M311.536 465.054V475.688L310.357 475.011V466.409L311.536 465.054Z" fill="white"/>
</g>
<g opacity="0.2">
<path opacity="0.2" d="M323.968 461.696V578.081L322.79 578.641V460.459L323.968 461.696Z" fill="white"/>
</g>
<g opacity="0.2">
<path opacity="0.2" d="M336.4 502.966V571.984L335.222 572.573V500.55L336.4 502.966Z" fill="white"/>
</g>
<g opacity="0.2">
<path opacity="0.2" d="M348.832 528.564V565.915L347.654 566.505V526.119L348.832 528.564Z" fill="white"/>
</g>
<g opacity="0.2">
<path opacity="0.2" d="M361.235 554.162V559.847L360.056 560.407V551.747L361.235 554.162Z" fill="white"/>
</g>
</g>
<g opacity="0.2">
<g opacity="0.2">
<path opacity="0.2" d="M319.873 580.084L317.457 581.263H291.179L291.444 580.084H319.873Z" fill="white"/>
</g>
<g opacity="0.2">
<path opacity="0.2" d="M345.267 567.653L342.852 568.832H294.007L294.301 567.653H345.267Z" fill="white"/>
</g>
<g opacity="0.2">
<path opacity="0.2" d="M362.325 556.401H296.865L297.13 555.223H361.765L362.325 556.401Z" fill="white"/>
</g>
<g opacity="0.2">
<path opacity="0.2" d="M356.315 543.999H299.722L299.987 542.821H355.726L356.315 543.999Z" fill="white"/>
</g>
<g opacity="0.2">
<path opacity="0.2" d="M350.275 531.568H302.55L302.845 530.39H349.716L350.275 531.568Z" fill="white"/>
</g>
<g opacity="0.2">
<path opacity="0.2" d="M344.236 519.138H305.408L305.673 517.959H343.677L344.236 519.138Z" fill="white"/>
</g>
<g opacity="0.2">
<path opacity="0.2" d="M338.226 506.736H308.266L308.531 505.558H337.637L338.226 506.736Z" fill="white"/>
</g>
<g opacity="0.2">
<path opacity="0.2" d="M332.187 494.305H311.094L311.359 493.127H331.627L332.187 494.305Z" fill="white"/>
</g>
<g opacity="0.2">
<path opacity="0.2" d="M326.177 481.874H313.951L314.216 480.696H325.588L326.177 481.874Z" fill="white"/>
</g>
<g opacity="0.2">
<path opacity="0.2" d="M331.392 469.473H307.676L308.707 468.294H330.272L331.392 469.473Z" fill="white"/>
</g>
</g>
</g>
<path d="M257.034 521.936L247.784 553.161" stroke="#FE5244" stroke-width="5" stroke-miterlimit="10"/>
<path d="M354.429 457.955L332.599 470.445L319.548 457.042H318.606L305.702 471.476L281.516 457.955L299.133 442.52L319.048 456.512L338.226 444.906L354.429 457.955Z" fill="white" stroke="#FE5244" stroke-width="5" stroke-miterlimit="10" stroke-linejoin="round"/>
<path d="M471.267 494.541L448.406 567.182H309.355L332.216 494.541H471.267Z" fill="#3FB1B5"/>
<path d="M383.3 567.182L406.161 494.541" stroke="white" stroke-width="6" stroke-miterlimit="10"/>
<path d="M334.838 494.541C334.838 494.541 352.249 484.202 377.467 485.792C402.684 487.354 406.22 494.541 406.22 494.541H334.838Z" fill="white" stroke="#3FB1B5" stroke-width="5" stroke-miterlimit="10" stroke-linecap="round"/>
<path d="M466.23 494.541C466.23 494.541 433.411 480.048 406.22 494.541H466.23Z" fill="white" stroke="#3FB1B5" stroke-width="5" stroke-miterlimit="10" stroke-linecap="round"/>
<path d="M402.596 643.123L335.015 696.499C326.943 702.862 325.882 714.704 332.687 722.392L379.116 775.062C379.116 775.062 383.535 771.792 382.062 758.654C380 740.479 385.008 723.482 385.008 723.482L485.025 652.166C500.491 641.149 509.801 623.416 510.066 604.416C510.449 578.612 479.162 565.533 461.044 583.885L402.596 643.123Z" fill="#E57281"/>
<path d="M384.979 723.452C384.979 723.452 380 740.449 382.033 758.624C383.506 771.792 379.087 775.061 379.087 775.061L332.658 722.392C325.853 714.674 326.943 702.862 334.985 696.499L356.668 679.355C357.316 678.884 357.964 678.383 358.612 677.882L386.187 656.084L402.567 643.123C402.567 643.123 401.653 664.656 411.787 704.335L384.979 723.452Z" fill="white" stroke="#9A3B82" stroke-width="6" stroke-miterlimit="10" stroke-linecap="round"/>
<path d="M383.123 760.392C383.682 765.488 383.329 769.17 382.651 771.762C382.504 772.381 382.327 772.911 382.121 773.412C380.972 776.446 379.47 777.447 379.47 777.447L331.332 722.863C325.087 715.764 325.263 705.307 331.244 698.443C331.98 697.589 332.835 696.764 333.777 696.028L335.339 694.791L348.89 684.098C348.006 689.989 351.807 699.857 359.113 709.166C368.363 720.949 380.648 727.223 386.01 723.983C385.155 727.105 381.237 743.572 383.123 760.392Z" fill="#FFCF2D"/>
<path d="M382.681 771.762C382.533 772.381 382.357 772.911 382.15 773.412L334.366 719.211C330.831 715.204 329.152 710.05 329.623 704.718C329.83 702.508 330.389 700.358 331.273 698.414C332.01 697.56 332.864 696.735 333.807 695.998L335.368 694.761C332.923 697.56 331.42 701.036 331.096 704.836C330.654 709.755 332.216 714.527 335.486 718.239L382.681 771.762Z" fill="white"/>
<path d="M384.065 732.938C384.065 732.938 371.103 727.783 369.365 732.938C367.656 738.093 383.093 741.362 383.093 741.362L384.065 732.938Z" fill="white"/>
<path d="M466.819 573.221V734.617C448.053 753.676 423.13 743.424 423.13 743.424C401.123 680.092 402.596 644.92 402.596 644.92L386.216 657.851C344.324 631.694 340.907 571.513 340.818 570.069L409.077 537.048C435.797 524.116 466.819 543.558 466.819 573.221Z" fill="#E57281"/>
<path d="M409.107 537.018C435.798 524.116 466.819 543.558 466.819 573.192V734.587C448.053 753.646 423.13 743.395 423.13 743.395C401.153 680.062 402.596 644.861 402.596 644.861" stroke="#9A3B82" stroke-width="6" stroke-miterlimit="10" stroke-linecap="round"/>
<path d="M386.216 657.822L358.642 679.62C309.208 718.71 236.5 683.509 236.5 620.5L340.818 570.01C340.818 570.01 340.818 570.01 340.818 570.04C340.907 571.513 344.354 631.694 386.216 657.822Z" fill="#FE5244"/>
<g opacity="0.2">
<g opacity="0.2">
<g opacity="0.2">
<path opacity="0.2" d="M249.522 614.225V663.154C249.109 662.565 248.726 661.975 248.343 661.386V614.785L249.522 614.225Z" fill="white"/>
</g>
<g opacity="0.2">
<path opacity="0.2" d="M261.954 608.216V677.057C261.571 676.704 261.158 676.35 260.775 675.997V608.776L261.954 608.216Z" fill="white"/>
</g>
<g opacity="0.2">
<path opacity="0.2" d="M274.357 602.207V685.895C273.974 685.659 273.561 685.453 273.178 685.217V602.767L274.357 602.207Z" fill="white"/>
</g>
<g opacity="0.2">
<path opacity="0.2" d="M286.789 596.198V691.609C286.406 691.462 285.993 691.344 285.61 691.197V596.787L286.789 596.198Z" fill="white"/>
</g>
<g opacity="0.2">
<path opacity="0.2" d="M299.221 590.188V694.909C298.838 694.85 298.425 694.761 298.042 694.702V590.778L299.221 590.188Z" fill="white"/>
</g>
<g opacity="0.2">
<path opacity="0.2" d="M311.623 584.15V696.028C311.24 696.028 310.828 696.028 310.445 695.998V584.739L311.623 584.15Z" fill="white"/>
</g>
<g opacity="0.2">
<path opacity="0.2" d="M324.055 578.14V695.085C323.672 695.144 323.26 695.203 322.877 695.262V578.73L324.055 578.14Z" fill="white"/>
</g>
<g opacity="0.2">
<path opacity="0.2" d="M336.487 572.131V691.933C336.104 692.081 335.692 692.198 335.309 692.346V572.72L336.487 572.131Z" fill="white"/>
</g>
<g opacity="0.2">
<path opacity="0.2" d="M348.89 607.745V686.248C348.507 686.484 348.095 686.69 347.712 686.896V604.298C347.771 604.505 347.83 604.711 347.918 604.887C348.036 605.27 348.183 605.683 348.301 606.066C348.507 606.625 348.714 607.185 348.89 607.745Z" fill="white"/>
</g>
<g opacity="0.2">
<path opacity="0.2" d="M361.323 633.078V677.529L360.144 678.471V631.251C360.527 631.841 360.91 632.459 361.323 633.078Z" fill="white"/>
</g>
<g opacity="0.2">
<path opacity="0.2" d="M373.755 648.101V668.191H373.136L372.576 668.633V646.923C372.959 647.335 373.342 647.718 373.755 648.101Z" fill="white"/>
</g>
</g>
<g opacity="0.2">
<g opacity="0.2">
<path opacity="0.2" d="M336.694 691.845C336.606 691.874 336.547 691.904 336.458 691.933C336.075 692.081 335.663 692.198 335.28 692.346C334.544 692.581 333.807 692.817 333.041 693.053H291.149C289.912 692.699 288.674 692.287 287.437 691.874H336.694V691.845Z" fill="white"/>
</g>
<g opacity="0.2">
<path opacity="0.2" d="M358.907 679.414L358.642 679.62C358.229 679.944 357.817 680.268 357.404 680.592H266.314C265.784 680.209 265.283 679.826 264.782 679.414H358.907Z" fill="white"/>
</g>
<g opacity="0.2">
<path opacity="0.2" d="M374.609 667.013L373.725 667.69V668.191H253.293C252.969 667.808 252.645 667.396 252.35 667.013H374.609Z" fill="white"/>
</g>
<g opacity="0.2">
<path opacity="0.2" d="M383.093 655.76H245.073C244.867 655.377 244.661 654.965 244.455 654.582H381.444C381.974 654.994 382.534 655.377 383.093 655.76Z" fill="white"/>
</g>
<g opacity="0.2">
<path opacity="0.2" d="M369.188 643.329H239.918C239.8 642.946 239.682 642.534 239.564 642.151H368.187C368.481 642.563 368.835 642.946 369.188 643.329Z" fill="white"/>
</g>
<g opacity="0.2">
<path opacity="0.2" d="M359.938 630.928H237.178C237.119 630.545 237.09 630.132 237.031 629.749H359.201C359.466 630.132 359.702 630.515 359.938 630.928Z" fill="white"/>
</g>
<g opacity="0.2">
<path opacity="0.2" d="M353.28 618.497H240.713L243.159 617.318H352.75C352.897 617.701 353.074 618.114 353.28 618.497Z" fill="white"/>
</g>
<g opacity="0.2">
<path opacity="0.2" d="M348.331 606.066H266.373L268.818 604.887H347.948C348.036 605.3 348.183 605.683 348.331 606.066Z" fill="white"/>
</g>
<g opacity="0.2">
<path opacity="0.2" d="M344.677 593.664H292.003L294.448 592.486H344.383C344.501 592.869 344.589 593.252 344.677 593.664Z" fill="white"/>
</g>
<g opacity="0.2">
<path opacity="0.2" d="M342.144 581.233H317.663L320.108 580.055H341.967C342.026 580.438 342.085 580.821 342.144 581.233Z" fill="white"/>
</g>
</g>
</g>
<path d="M340.818 570.04C340.907 571.513 344.324 631.694 386.216 657.852" stroke="white" stroke-width="6" stroke-miterlimit="10"/>
<path d="M466.819 676.94V734.617C448.053 753.676 423.13 743.425 423.13 743.425C413.496 715.676 408.37 693.318 405.63 676.969H466.819V676.94Z" fill="white"/>
<path d="M423.1 743.395C413.467 715.646 408.341 693.288 405.601 676.94H466.789V734.617" stroke="#9A3B82" stroke-width="6" stroke-miterlimit="10" stroke-linecap="round"/>
<path d="M510.803 776.829H423.748C419.683 776.829 416.589 773.206 417.237 769.2L417.385 768.316L417.915 765.134L421.686 742.04C421.686 742.04 448.229 752.733 467.791 732.879C467.791 732.879 473.919 748.668 499.49 760.274C505.5 763.014 508.328 767.079 509.654 770.525C509.86 771.026 510.007 771.527 510.154 771.998C510.95 774.767 510.803 776.829 510.803 776.829Z" fill="#FFCF2D"/>
<path d="M510.154 771.969H423.748C421.597 771.969 419.565 771.026 418.18 769.376C417.885 769.023 417.62 768.669 417.414 768.286L417.944 765.105C418.033 766.313 418.504 767.491 419.329 768.434C420.448 769.73 422.069 770.496 423.777 770.496H509.683C509.86 770.996 510.036 771.497 510.154 771.969Z" fill="white"/>
<path d="M481.283 749.228C471.621 756.121 456.743 754.147 455.742 751.172C454.711 748.226 470.148 746.076 472.18 739.949C474.331 742.629 477.1 745.87 481.283 749.228Z" fill="white"/>
<path d="M402.596 644.89C402.596 610.278 411.729 590.188 411.729 590.188" stroke="#9A3B82" stroke-width="6" stroke-miterlimit="10" stroke-linecap="round"/>
<path d="M319.048 536.4L198.144 564.826C182.825 568.42 172.013 582.088 172.013 597.818C172.013 622.827 198.203 639.235 220.71 628.306L337.696 571.513C339.699 570.541 341.29 568.832 342.085 566.741L355.048 533.483C355.578 532.158 354.458 530.744 353.015 530.95L350.953 531.245C347.683 531.716 344.737 533.513 342.822 536.223L337.548 544.117C336.576 545.561 334.956 546.415 333.218 546.415H320.874C318.37 546.415 316.573 543.97 317.339 541.584L319.048 536.4Z" fill="#E57281"/>
<path d="M317.869 536.694L198.144 565.12C182.825 568.714 172.013 582.382 172.013 598.112C172.013 623.121 198.203 639.529 220.71 628.6L337.696 571.807C339.699 570.835 341.29 569.127 342.085 567.035L355.048 533.778C355.578 532.453 354.458 531.039 353.015 531.245L350.953 531.539C347.683 532.011 344.737 533.808 342.822 536.518L337.548 544.412C336.576 545.856 334.956 546.71 333.218 546.71H319.696C317.192 546.71 315.395 544.265 316.16 541.879L317.869 536.694Z" stroke="white" stroke-width="6" stroke-miterlimit="10"/>
<path d="M322.642 556.136H340.701C343.676 556.136 346.386 554.516 347.83 551.894" stroke="white" stroke-width="5" stroke-miterlimit="10" stroke-linecap="round"/>
<path d="M318.517 566.741H336.576C339.552 566.741 342.262 565.12 343.705 562.499" stroke="white" stroke-width="5" stroke-miterlimit="10" stroke-linecap="round"/>
</svg>
