<svg width="32" height="32" viewBox="0 0 32 32" fill="none" xmlns="http://www.w3.org/2000/svg">
<path d="M16.0311 0C7.14563 0 0 7.13178 0 16C0 24.8682 7.14563 32 16.0311 32C24.9165 32 32 24.8062 32 16C32 7.13178 24.8544 0 16.0311 0Z" fill="#FF3939"/>
<path d="M19.0757 24C18.7029 24 18.3301 23.938 17.9573 23.814C17.2117 23.6279 16.5903 23.1938 16.0932 22.6357L3.04468 8H12.9864C13.8563 8 14.6641 8.31008 15.4097 8.8062C15.6583 8.99225 15.8447 9.11628 16.0311 9.36434L29.0175 24H19.0757V24Z" fill="white"/>
</svg>
