<svg width="1400" height="641" viewBox="0 0 1400 641" fill="none" xmlns="http://www.w3.org/2000/svg">
<path d="M1392.77 638.786L953.653 639.686C899.83 640.115 842.655 640.329 783.357 640.329C639.022 640.329 507.09 638.957 406.186 636.686H0C0 554.143 78.9652 590.4 99.7867 604.972C123.998 621.9 92.8213 531.772 142.249 531.772C184.562 531.772 208.773 556.243 208.773 556.243C208.773 556.243 209.928 508.672 250.044 507.986C290.16 507.3 315.637 547.972 347.298 581.443C360.372 595.243 376.09 606.215 390.952 614.572C493.644 612.086 631.61 610.543 783.357 610.543C855.245 610.543 924.004 610.886 987.437 611.529C1100.15 611.529 1203.36 543.343 1232.64 526.243C1304.97 483.9 1270.71 584.829 1270.71 584.829C1270.71 584.829 1326.47 557.829 1365.69 558.043C1421.08 558.3 1392.77 638.786 1392.77 638.786Z" fill="#D0F0E4"/>
<path d="M1164.92 636.3C1164.92 636.3 1176.02 521.357 1103.76 484.371C1103.76 484.371 1093.11 609.428 1129.17 601.243C1142.69 598.157 1113.67 567.814 1066.37 566.528C1066.37 566.528 1102.61 636.6 1146.63 637.585" stroke="#FFCF2D" stroke-width="6" stroke-miterlimit="10"/>
<path d="M1146.78 637.414C1146.78 637.414 1150.96 584.828 1195.5 568.456C1235.73 553.713 1165.33 636.128 1165.33 636.128" stroke="#FFCF2D" stroke-width="6" stroke-miterlimit="10"/>
<path d="M146.458 632.614C146.458 632.614 82.5781 582.257 64.5874 500.1C64.5874 500.1 121.129 519.557 145.117 560.957C145.117 560.957 154.95 466.714 178.714 435C178.714 435 191.565 456.257 193.167 535.029C193.167 535.029 222.294 477.943 243.972 459.514C243.972 459.514 240.993 533.786 225.498 571.714C225.498 571.714 247.883 551.657 263.006 571.329C278.129 591 248.479 619.8 248.479 619.8" stroke="#FE5244" stroke-width="5" stroke-miterlimit="10"/>
<path d="M178.752 437.786C178.752 437.786 179.385 609.472 172.606 631.715" stroke="#FE5244" stroke-width="5" stroke-miterlimit="10"/>
<path d="M241.887 463.843C241.887 463.843 197.338 595.543 172.606 631.714" stroke="#FE5244" stroke-width="5" stroke-miterlimit="10"/>
<path d="M224.827 572.315C223.188 579.215 211.902 598.243 209.667 590.058C207.47 581.872 227.77 568.629 232.872 566.443" stroke="#FE5244" stroke-width="5" stroke-miterlimit="10"/>
<path d="M145.154 561C148.171 567.686 158.377 586.457 148.059 585.986C141.318 585.686 146.979 546.3 146.979 546.3" stroke="#FE5244" stroke-width="5" stroke-miterlimit="10"/>
<path d="M1061.87 503.259V639.178H857.49L897.311 430.459C896.034 438.699 921.525 454.149 956.404 469.64C968.923 475.202 982.883 480.723 997.79 485.955C1021.84 494.443 1043.99 500.211 1061.87 503.259C1061.87 503.259 1061.82 503.259 1061.87 503.259Z" fill="#9A3B82"/>
<path d="M1061.87 462.389V498.769C1043.99 495.72 1021.88 489.993 997.749 481.506C940.88 461.524 897.105 436.845 899.576 425.762C899.617 425.597 899.659 425.433 899.7 425.309C903.53 414.473 953.892 421.972 1011.54 442.201C1030.08 448.711 1046.79 455.426 1060.84 461.895C1061.17 462.059 1061.5 462.224 1061.87 462.389Z" fill="#FFCF2D"/>
<path d="M1033.82 147.457C1013.89 147.457 997.749 163.607 997.749 183.507V282.304C997.749 302.204 981.606 318.354 961.716 318.354H817.257C837.188 318.354 853.289 302.204 853.289 282.304V183.507C853.289 163.566 869.432 147.457 889.322 147.457H1033.82V147.457Z" fill="white" stroke="#FFCF2D" stroke-width="5" stroke-miterlimit="10"/>
<path d="M947 199V253H940.645L911.096 210.602H910.567V253H904V199H910.355L940.01 241.504H940.539V199H947Z" fill="#FFCF2D"/>
<path d="M895 222H956" stroke="#FFCF2D" stroke-width="4"/>
<path d="M895 233H956" stroke="#FFCF2D" stroke-width="4"/>
<path d="M997.749 183.506C997.749 163.689 1013.73 147.621 1033.45 147.457C1053.22 147.621 1069.16 163.689 1069.16 183.506H997.749Z" fill="#66B0F0" stroke="#FFCF2D" stroke-width="5" stroke-miterlimit="10"/>
<path d="M961.881 319.26C961.84 319.26 961.757 319.26 961.716 319.26H817.792C817.71 319.26 817.627 319.26 817.545 319.26C802.761 319.054 790.119 309.908 784.766 296.971H928.978C934.373 309.908 947.015 319.054 961.881 319.26Z" fill="#FFCF2D"/>
<path d="M1061.87 337.265V498.769H1061.82C1043.95 495.72 1021.84 489.994 997.708 481.506C982.801 476.274 968.84 470.712 956.322 465.191L963.034 427.699L974.441 364.045C938.656 352.839 932.849 318.395 932.849 318.395H961.634C981.565 318.395 997.666 302.245 997.666 282.345V270.48H979.177C966.205 270.48 955.663 257.708 955.663 244.73V240.527H996.761C1004.38 240.527 1011.54 244.112 1016.12 250.209L1046.18 290.379C1056.39 303.893 1061.87 320.332 1061.87 337.265Z" fill="#A0505A"/>
<path d="M1061.87 462.39V498.769H1061.82C1043.95 495.72 1021.84 489.994 997.707 481.506C982.8 476.274 968.84 470.712 956.321 465.191L963.034 427.699C977.858 431.325 994.33 436.228 1011.46 442.243C1029.99 448.752 1046.71 455.468 1060.71 461.936C1061.17 462.06 1061.5 462.225 1061.87 462.39Z" fill="#73325A"/>
<path d="M999.561 270.48H979.712C966.74 270.48 956.198 257.708 956.198 244.73V240.527H999.561V270.48Z" fill="#A0505A"/>
<path d="M987.083 310.608C987.083 310.608 1015.7 321.362 1018.3 358.318" stroke="#73325A" stroke-width="5" stroke-miterlimit="10"/>
<path d="M974.523 364.91H994.002" stroke="#73325A" stroke-width="5" stroke-miterlimit="10"/>
<path d="M772.7 464.727V639.168H574.089L599.538 449.73C599.538 457.394 638.289 466.952 686.099 471.072C733.909 475.233 772.7 472.39 772.7 464.727Z" fill="#66B0F0"/>
<path d="M771.794 460.236C771.794 467.899 733.373 470.742 686.016 466.581C638.659 462.42 600.238 452.861 600.238 445.239C600.238 437.576 638.659 434.733 686.016 438.894C733.414 443.014 771.794 452.573 771.794 460.236Z" fill="#3FB1B5"/>
<path d="M710.106 333.422V468.146C702.488 467.817 694.376 467.322 686.016 466.581C655.172 463.903 628.158 458.876 613.045 453.603L615.31 438.688L622.887 388.63H613.087C599.127 388.63 587.843 377.342 587.843 363.375V313.77C587.843 303.964 591.385 294.53 597.85 287.155L630.094 250.281C632.194 247.891 636.147 249.374 636.147 252.547V302.687C636.147 308.702 634.006 314.512 630.094 319.085L627.211 322.463H662.214C667.279 322.463 670.244 316.819 667.403 312.616C663.079 306.313 657.396 297.331 652.002 286.949C641.254 266.39 659.908 254.895 659.908 254.895L702.612 310.309C707.471 317.025 710.106 325.141 710.106 333.422Z" fill="#FFCF2D"/>
<path d="M727.062 214.203C714.666 216.237 706.275 227.929 708.306 240.305L718.389 301.747C720.419 314.123 712.028 325.815 699.659 327.844L609.818 342.587C622.214 340.553 630.579 328.865 628.548 316.49L618.466 255.047C616.431 242.645 624.826 230.98 637.196 228.95L727.062 214.203V214.203Z" fill="white" stroke="#FE5244" stroke-width="5" stroke-miterlimit="10"/>
<path d="M678.326 255.119L683.837 288.702L679.885 289.351L657.181 265.998L656.852 266.052L661.178 292.42L657.095 293.09L651.584 259.507L655.536 258.859L678.316 282.266L678.646 282.212L674.308 255.778L678.326 255.119Z" fill="#FE5244"/>
<path d="M648.334 274.73L686.27 268.505" stroke="#FE5244" stroke-width="4"/>
<path d="M649.457 281.571L687.393 275.346" stroke="#FE5244" stroke-width="4"/>
<path d="M708.306 240.304C706.284 227.98 714.581 216.357 726.831 214.241C739.141 212.327 750.692 220.693 752.714 233.017L708.306 240.304Z" fill="#66B0F0" stroke="#FE5244" stroke-width="5" stroke-miterlimit="10"/>
<path d="M699.854 328.391C699.828 328.396 699.777 328.404 699.751 328.408L610.244 343.096C610.192 343.104 610.141 343.113 610.09 343.121C600.875 344.502 592.079 340.104 587.43 332.604L677.116 317.887C681.792 325.382 690.587 329.78 699.854 328.391Z" fill="#FE5244"/>
<path d="M636.148 249.869V302.687C636.148 308.702 634.006 314.512 630.094 319.085L627.211 322.463" stroke="white" stroke-width="5" stroke-miterlimit="10" stroke-linecap="round"/>
<path d="M627.211 322.422L604.068 348.419" stroke="white" stroke-width="5" stroke-miterlimit="10" stroke-linecap="round"/>
<path d="M636.148 279.739C636.148 285.754 634.006 291.563 630.094 296.136L627.211 299.515L604.109 325.471" stroke="white" stroke-width="5" stroke-miterlimit="10" stroke-linecap="round"/>
<path d="M636.148 256.832C636.148 262.847 634.006 268.656 630.094 273.229L627.211 276.607L604.109 302.563" stroke="white" stroke-width="5" stroke-miterlimit="10" stroke-linecap="round"/>
<path d="M622.887 389.99H640.636" stroke="white" stroke-width="5" stroke-miterlimit="10" stroke-linecap="round"/>
<path d="M710.106 441.531V468.146C702.488 467.816 694.376 467.322 686.016 466.58C655.172 463.902 628.158 458.876 613.045 453.603L615.31 438.688C630.794 436.422 656.696 436.299 686.057 438.853C694.376 439.636 702.447 440.501 710.106 441.531Z" fill="#FE5244"/>
<path d="M510.796 639.179H281.135V411.384C281.135 421.107 318.897 428.976 365.513 428.976C412.128 428.976 449.89 421.107 449.89 411.384V411.343L510.796 639.179Z" fill="#3FB1B5"/>
<path d="M449.273 406.852C449.273 416.616 411.923 424.486 365.801 424.486C319.679 424.486 282.329 416.616 282.329 406.893V406.852C282.453 397.17 319.762 389.301 365.801 389.301C411.84 389.301 449.191 397.17 449.273 406.852Z" fill="#66B0F0"/>
<path d="M449.273 407.017C448.985 416.658 411.717 424.486 365.801 424.486C356.947 424.486 348.464 424.197 340.475 423.662V338.913H296.907C291.348 338.913 286.859 334.422 286.859 328.86V322.062C286.859 319.014 288.218 316.294 290.359 314.441C288.218 312.587 286.859 309.867 286.859 306.819V300.021C286.859 297.343 287.93 294.87 289.659 293.099C287.93 291.286 286.859 288.855 286.859 286.177V279.379C286.859 276.619 287.971 274.106 289.783 272.252C287.971 270.439 286.859 267.926 286.859 265.165V252.847C286.859 247.285 291.348 242.794 296.907 242.794H352.541C354.394 241.723 357.4 237.932 352.294 235.707L340.352 232.906C330.88 228.168 324.868 220.299 324.868 209.669H366.872C373.913 209.669 380.214 214.119 382.602 220.752L448.243 404.092L449.273 407.017Z" fill="#E57281"/>
<path d="M449.479 407.099C449.355 406.975 449.273 406.893 449.273 406.893C449.273 416.616 411.923 424.485 365.801 424.485C356.947 424.485 348.464 424.197 340.475 423.661V390.166C348.464 389.63 356.988 389.342 365.801 389.342C407.393 389.342 441.902 395.769 448.243 404.133C448.408 404.339 448.861 405.451 449.479 407.099Z" fill="#9A3B82"/>
<path d="M353.488 128.258V161.671C353.488 179.84 338.787 194.548 320.626 194.548C302.466 194.548 287.765 179.84 287.765 161.671V128.258C287.765 136.415 302.466 143.007 320.626 143.007C338.787 143.007 353.488 136.415 353.488 128.258Z" fill="white"/>
<path d="M320.626 143.007C338.775 143.007 353.488 136.403 353.488 128.257C353.488 120.111 338.775 113.508 320.626 113.508C302.477 113.508 287.765 120.111 287.765 128.257C287.765 136.403 302.477 143.007 320.626 143.007Z" fill="#FFCF2D"/>
<path d="M353.488 71.1543V161.63C353.488 173.825 346.858 184.454 337.016 190.14C337.016 190.14 337.016 190.14 336.975 190.14C332.157 192.9 326.556 194.507 320.626 194.507C314.696 194.507 309.137 192.942 304.319 190.181C304.278 190.181 304.278 190.14 304.237 190.14C294.395 184.454 287.765 173.825 287.765 161.63V71.1543H353.488Z" stroke="#FFCF2D" stroke-width="6" stroke-miterlimit="10"/>
<path d="M320.626 85.904C338.98 85.904 353.859 79.3003 353.859 71.1544C353.859 63.0084 338.98 56.4048 320.626 56.4048C302.273 56.4048 287.394 63.0084 287.394 71.1544C287.394 79.3003 302.273 85.904 320.626 85.904Z" fill="white" stroke="#FFCF2D" stroke-width="5" stroke-miterlimit="10"/>
<path d="M320.626 73.379C323.31 73.379 325.485 71.2024 325.485 68.5174C325.485 65.8324 323.31 63.6558 320.626 63.6558C317.943 63.6558 315.767 65.8324 315.767 68.5174C315.767 71.2024 317.943 73.379 320.626 73.379Z" fill="#FFCF2D"/>
<path d="M309.919 172.671C312.285 172.671 314.202 170.753 314.202 168.386C314.202 166.02 312.285 164.102 309.919 164.102C307.554 164.102 305.637 166.02 305.637 168.386C305.637 170.753 307.554 172.671 309.919 172.671Z" fill="white" stroke="#FFCF2D" stroke-width="5" stroke-miterlimit="10"/>
<path d="M335.616 131.801C337.572 131.801 339.157 130.214 339.157 128.258C339.157 126.301 337.572 124.714 335.616 124.714C333.66 124.714 332.074 126.301 332.074 128.258C332.074 130.214 333.66 131.801 335.616 131.801Z" fill="white"/>
<path d="M301.354 158.374C303.31 158.374 304.895 156.788 304.895 154.831C304.895 152.874 303.31 151.288 301.354 151.288C299.398 151.288 297.812 152.874 297.812 154.831C297.812 156.788 299.398 158.374 301.354 158.374Z" fill="#FFCF2D"/>
<path d="M352.211 361.985H289.041C287.888 361.985 287.559 360.461 288.547 359.925L310.62 351.561C314.079 350.243 316.385 346.906 316.385 343.198V211.522C316.385 202.788 311.855 194.589 304.319 190.181C309.137 192.941 314.696 194.507 320.626 194.507C326.597 194.507 332.157 192.9 336.975 190.14C329.398 194.507 324.868 202.747 324.868 211.481V343.156C324.868 346.864 327.174 350.202 330.633 351.52L352.706 359.884C353.694 360.461 353.364 361.985 352.211 361.985Z" fill="white" stroke="#FFCF2D" stroke-width="5" stroke-miterlimit="10"/>
<path d="M297.236 21.6732C300.329 21.6732 302.837 19.1646 302.837 16.07C302.837 12.9754 300.329 10.4668 297.236 10.4668C294.143 10.4668 291.636 12.9754 291.636 16.07C291.636 19.1646 294.143 21.6732 297.236 21.6732Z" fill="#FFCF2D"/>
<path d="M335.616 30.6959C338.3 30.6959 340.475 28.5192 340.475 25.8342C340.475 23.1492 338.3 20.9727 335.616 20.9727C332.932 20.9727 330.757 23.1492 330.757 25.8342C330.757 28.5192 332.932 30.6959 335.616 30.6959Z" fill="white" stroke="#FFCF2D" stroke-width="5" stroke-miterlimit="10"/>
<path d="M311.814 49.6479C313.77 49.6479 315.355 48.0616 315.355 46.1047C315.355 44.1479 313.77 42.5615 311.814 42.5615C309.858 42.5615 308.272 44.1479 308.272 46.1047C308.272 48.0616 309.858 49.6479 311.814 49.6479Z" fill="white" stroke="#FFCF2D" stroke-width="5" stroke-miterlimit="10"/>
<path d="M309.961 6.51154C311.576 6.51154 312.885 5.20184 312.885 3.58631C312.885 1.97077 311.576 0.661133 309.961 0.661133C308.346 0.661133 307.037 1.97077 307.037 3.58631C307.037 5.20184 308.346 6.51154 309.961 6.51154Z" fill="#FFCF2D"/>
<path d="M362.959 256.019V338.955H296.907C291.348 338.955 286.859 334.464 286.859 328.902V322.104C286.859 319.055 288.218 316.336 290.359 314.482C288.218 312.628 286.859 309.909 286.859 306.86V300.062C286.859 297.384 287.93 294.912 289.659 293.14C287.93 291.327 286.859 288.897 286.859 286.219V279.421C286.859 276.66 287.971 274.147 289.783 272.293C287.971 270.48 286.859 267.967 286.859 265.207V256.06H362.959V256.019Z" fill="#E57281"/>
<path d="M288.012 306.283C288.012 312.587 293.118 317.696 299.419 317.696H352.87C359.171 317.696 364.277 312.587 364.277 306.283" stroke="#9A3B82" stroke-width="5" stroke-miterlimit="10" stroke-linecap="round"/>
<path d="M288.012 285.724C288.012 292.028 293.118 297.137 299.419 297.137H352.87C359.171 297.137 364.277 292.028 364.277 285.724" stroke="#9A3B82" stroke-width="5" stroke-miterlimit="10" stroke-linecap="round"/>
<path d="M288.012 265.166C288.012 271.469 293.118 276.578 299.419 276.578H352.87C359.171 276.578 364.277 271.469 364.277 265.166" stroke="#9A3B82" stroke-width="5" stroke-miterlimit="10" stroke-linecap="round"/>
<path d="M298.883 338.254H352.87C359.171 338.254 364.277 333.146 364.277 326.842V249.757" stroke="#9A3B82" stroke-width="5" stroke-miterlimit="10" stroke-linecap="round"/>
<path d="M313.79 249.427H308.313C306.502 249.427 305.019 250.91 305.019 252.723C305.019 254.536 306.502 256.019 308.313 256.019H338.951C342.246 256.019 344.964 253.341 344.964 250.004C344.964 246.049 348.176 242.835 352.129 242.835H357.112C361.065 242.835 364.277 246.049 364.277 250.004V263.352" stroke="#9A3B82" stroke-width="5" stroke-miterlimit="10" stroke-linecap="round"/>
</svg>
