<svg width="256" height="256" viewBox="0 0 256 256" fill="none" xmlns="http://www.w3.org/2000/svg">
<path d="M128.249 0C57.165 0 0 57.0543 0 128C0 198.946 57.165 256 128.249 256C199.332 256 256 198.45 256 128C256 57.0543 198.835 0 128.249 0Z" fill="#FF3939"/>
<path d="M152.606 192.001C149.624 192.001 146.641 191.505 143.659 190.513C137.694 189.024 132.723 185.551 128.746 181.086L24.3577 64.001H103.892C110.851 64.001 117.313 66.4816 123.278 70.4506C125.266 71.939 126.758 72.9312 128.249 74.9157L232.14 192.001H152.606V192.001Z" fill="white"/>
</svg>
